<?xml version="1.0" encoding="UTF-8" standalone="no"?>
<!DOCTYPE svg PUBLIC "-//W3C//DTD SVG 1.1//EN" "http://www.w3.org/Graphics/SVG/1.1/DTD/svg11.dtd">
<svg width="100%" height="100%" viewBox="0 0 1920 100" version="1.1" xmlns="http://www.w3.org/2000/svg" xmlns:xlink="http://www.w3.org/1999/xlink" xml:space="preserve" xmlns:serif="http://www.serif.com/" style="fill-rule:evenodd;clip-rule:evenodd;stroke-linejoin:round;stroke-miterlimit:2;">
    <rect id="Mesa-de-trabajo1" serif:id="Mesa de trabajo1" x="0" y="0" width="1920" height="100" style="fill:none;"/>
    <clipPath id="_clip1">
        <rect id="Mesa-de-trabajo11" serif:id="Mesa de trabajo1" x="0" y="0" width="1920" height="100"/>
    </clipPath>
    <g clip-path="url(#_clip1)">
        <g transform="matrix(0.330416,0,0,0.330416,614.661884,-81.489353)">
            <path d="M2960.615,578.741L2315.638,578.741L2230.617,579.136C2230.617,579.136 2285.438,567.782 2300.881,549.275C2314.98,532.379 2315.638,521.687 2315.638,521.687L2315.638,433.89L2347.143,433.89L2347.143,426.761L2360.706,426.761L2360.706,433.89L2370.688,433.89L2370.688,482.149L2399.248,453.348L2399.248,316.339L2404.362,316.339L2404.361,312.936L2430.847,312.844L2430.918,311.003L2404.362,311.046L2404.362,307.448L2414.535,307.448L2414.535,299.819L2428.733,299.819L2428.733,307.448L2484.928,307.448L2484.902,311.045L2463.746,311.011L2463.756,313.042L2484.928,313.021L2484.928,407.052L2520.955,378.19L2520.955,334.151L2570.031,316.513L2570.031,256.97L2576.697,249.821L2604.629,246.627L2604.629,261.635L2622.184,261.635L2622.184,282.327L2626.202,282.327L2626.202,303.548L2664.979,303.548L2664.979,348.723L2690.642,348.723L2690.642,364.52L2736.586,385.429L2736.586,334.151L2822.043,334.151L2823.077,284.107L2826.097,284.107L2827.681,334.151L2845.031,334.151L2845.031,431.276L2877.316,451.252L2877.316,377.184L2898.425,377.184L2898.425,363.525L2960.615,363.525L2960.615,497.174C2960.615,497.174 2985.832,537.599 3007.842,549.275C3033.521,562.898 3176.515,579.097 3176.515,579.097L2960.615,578.741Z" style="fill:rgb(38,38,38);"/>
        </g>
        <g transform="matrix(0.317946,0,0,0.317946,1238.736172,79.90517)">
            <g transform="matrix(1,0,0,1,-207.763291,-130.155213)">
                <path d="M128.549,204.066C127.983,203.949 121.278,202.564 122.312,200.415C129.585,185.29 127.531,160.741 122.28,150.619C117.298,141.018 113.621,155.491 100.543,151.349C84.026,146.119 92.116,135.297 83.703,130.142C71.031,122.376 71.801,105.881 82.567,98.6C89.303,94.044 83.149,85.321 95.385,79.265C99.902,77.029 99.201,76.269 100.513,72.505C105.297,58.783 122.532,56.936 130.274,63.788C134.233,67.292 134.785,65.843 139.667,63.885C161.688,55.053 171.446,78.51 173.595,79.099C196.417,85.354 189.54,105.553 186.582,109.557C180.706,117.509 192.027,126.305 177.255,135.047C172.716,137.734 174.558,139.103 171.414,143.442C161.961,156.49 148.815,143.165 147.516,144.519C133.316,159.322 142.766,197.831 142.991,198.235C146.661,204.813 141.456,204.314 128.549,204.066ZM126.4,140.452L127.553,140.213C127.48,136.017 129.373,129.053 122.705,134.361C121.435,135.372 125.223,139.133 126.4,140.452ZM136.166,135.151C136.133,135.526 135.474,142.912 137.736,139.587C140.806,135.074 144.212,133.845 139.386,131.35C134.68,128.917 136.217,134.791 136.166,135.151Z" style="fill:rgb(38,38,38);"/>
            </g>
            <g transform="matrix(1,0,0,1,1359.127314,-130.155213)">
                <path d="M128.549,204.066C127.983,203.949 121.278,202.564 122.312,200.415C129.585,185.29 127.531,160.741 122.28,150.619C117.298,141.018 113.621,155.491 100.543,151.349C84.026,146.119 92.116,135.297 83.703,130.142C71.031,122.376 71.801,105.881 82.567,98.6C89.303,94.044 83.149,85.321 95.385,79.265C99.902,77.029 99.201,76.269 100.513,72.505C105.297,58.783 122.532,56.936 130.274,63.788C134.233,67.292 134.785,65.843 139.667,63.885C161.688,55.053 171.446,78.51 173.595,79.099C196.417,85.354 189.54,105.553 186.582,109.557C180.706,117.509 192.027,126.305 177.255,135.047C172.716,137.734 174.558,139.103 171.414,143.442C161.961,156.49 148.815,143.165 147.516,144.519C133.316,159.322 142.766,197.831 142.991,198.235C146.661,204.813 141.456,204.314 128.549,204.066ZM126.4,140.452L127.553,140.213C127.48,136.017 129.373,129.053 122.705,134.361C121.435,135.372 125.223,139.133 126.4,140.452ZM136.166,135.151C136.133,135.526 135.474,142.912 137.736,139.587C140.806,135.074 144.212,133.845 139.386,131.35C134.68,128.917 136.217,134.791 136.166,135.151Z" style="fill:rgb(38,38,38);"/>
            </g>
        </g>
        <g transform="matrix(0.317946,0,0,0.317946,84.347067,38.522804)">
            <path d="M128.549,204.066C127.983,203.949 121.278,202.564 122.312,200.415C129.585,185.29 127.531,160.741 122.28,150.619C117.298,141.018 113.621,155.491 100.543,151.349C84.026,146.119 92.116,135.297 83.703,130.142C71.031,122.376 71.801,105.881 82.567,98.6C89.303,94.044 83.149,85.321 95.385,79.265C99.902,77.029 99.201,76.269 100.513,72.505C105.297,58.783 122.532,56.936 130.274,63.788C134.233,67.292 134.785,65.843 139.667,63.885C161.688,55.053 171.446,78.51 173.595,79.099C196.417,85.354 189.54,105.553 186.582,109.557C180.706,117.509 192.027,126.305 177.255,135.047C172.716,137.734 174.558,139.103 171.414,143.442C161.961,156.49 148.815,143.165 147.516,144.519C133.316,159.322 142.766,197.831 142.991,198.235C146.661,204.813 141.456,204.314 128.549,204.066ZM126.4,140.452L127.553,140.213C127.48,136.017 129.373,129.053 122.705,134.361C121.435,135.372 125.223,139.133 126.4,140.452ZM136.166,135.151C136.133,135.526 135.474,142.912 137.736,139.587C140.806,135.074 144.212,133.845 139.386,131.35C134.68,128.917 136.217,134.791 136.166,135.151Z" style="fill:rgb(38,38,38);"/>
        </g>
        <g transform="matrix(0.317946,0,0,0.317946,1038.481325,38.522804)">
            <path d="M128.549,204.066C127.983,203.949 121.278,202.564 122.312,200.415C129.585,185.29 127.531,160.741 122.28,150.619C117.298,141.018 113.621,155.491 100.543,151.349C84.026,146.119 92.116,135.297 83.703,130.142C71.031,122.376 71.801,105.881 82.567,98.6C89.303,94.044 83.149,85.321 95.385,79.265C99.902,77.029 99.201,76.269 100.513,72.505C105.297,58.783 122.532,56.936 130.274,63.788C134.233,67.292 134.785,65.843 139.667,63.885C161.688,55.053 171.446,78.51 173.595,79.099C196.417,85.354 189.54,105.553 186.582,109.557C180.706,117.509 192.027,126.305 177.255,135.047C172.716,137.734 174.558,139.103 171.414,143.442C161.961,156.49 148.815,143.165 147.516,144.519C133.316,159.322 142.766,197.831 142.991,198.235C146.661,204.813 141.456,204.314 128.549,204.066ZM126.4,140.452L127.553,140.213C127.48,136.017 129.373,129.053 122.705,134.361C121.435,135.372 125.223,139.133 126.4,140.452ZM136.166,135.151C136.133,135.526 135.474,142.912 137.736,139.587C140.806,135.074 144.212,133.845 139.386,131.35C134.68,128.917 136.217,134.791 136.166,135.151Z" style="fill:rgb(38,38,38);"/>
        </g>
        <g transform="matrix(0.317946,0,0,0.317946,265.634507,38.522804)">
            <path d="M128.549,204.066C127.983,203.949 121.278,202.564 122.312,200.415C129.585,185.29 127.531,160.741 122.28,150.619C117.298,141.018 113.621,155.491 100.543,151.349C84.026,146.119 92.116,135.297 83.703,130.142C71.031,122.376 71.801,105.881 82.567,98.6C89.303,94.044 83.149,85.321 95.385,79.265C99.902,77.029 99.201,76.269 100.513,72.505C105.297,58.783 122.532,56.936 130.274,63.788C134.233,67.292 134.785,65.843 139.667,63.885C161.688,55.053 171.446,78.51 173.595,79.099C196.417,85.354 189.54,105.553 186.582,109.557C180.706,117.509 192.027,126.305 177.255,135.047C172.716,137.734 174.558,139.103 171.414,143.442C161.961,156.49 148.815,143.165 147.516,144.519C133.316,159.322 142.766,197.831 142.991,198.235C146.661,204.813 141.456,204.314 128.549,204.066ZM126.4,140.452L127.553,140.213C127.48,136.017 129.373,129.053 122.705,134.361C121.435,135.372 125.223,139.133 126.4,140.452ZM136.166,135.151C136.133,135.526 135.474,142.912 137.736,139.587C140.806,135.074 144.212,133.845 139.386,131.35C134.68,128.917 136.217,134.791 136.166,135.151Z" style="fill:rgb(38,38,38);"/>
        </g>
        <g transform="matrix(0.317946,0,0,0.317946,687.043397,38.522804)">
            <path d="M128.549,204.066C127.983,203.949 121.278,202.564 122.312,200.415C129.585,185.29 127.531,160.741 122.28,150.619C117.298,141.018 113.621,155.491 100.543,151.349C84.026,146.119 92.116,135.297 83.703,130.142C71.031,122.376 71.801,105.881 82.567,98.6C89.303,94.044 83.149,85.321 95.385,79.265C99.902,77.029 99.201,76.269 100.513,72.505C105.297,58.783 122.532,56.936 130.274,63.788C134.233,67.292 134.785,65.843 139.667,63.885C161.688,55.053 171.446,78.51 173.595,79.099C196.417,85.354 189.54,105.553 186.582,109.557C180.706,117.509 192.027,126.305 177.255,135.047C172.716,137.734 174.558,139.103 171.414,143.442C161.961,156.49 148.815,143.165 147.516,144.519C133.316,159.322 142.766,197.831 142.991,198.235C146.661,204.813 141.456,204.314 128.549,204.066ZM126.4,140.452L127.553,140.213C127.48,136.017 129.373,129.053 122.705,134.361C121.435,135.372 125.223,139.133 126.4,140.452ZM136.166,135.151C136.133,135.526 135.474,142.912 137.736,139.587C140.806,135.074 144.212,133.845 139.386,131.35C134.68,128.917 136.217,134.791 136.166,135.151Z" style="fill:rgb(38,38,38);"/>
        </g>
        <g transform="matrix(0.240721,0,0,0.240721,711.154782,54.291304)">
            <path d="M128.549,204.066C127.983,203.949 121.278,202.564 122.312,200.415C129.585,185.29 127.531,160.741 122.28,150.619C117.298,141.018 113.621,155.491 100.543,151.349C84.026,146.119 92.116,135.297 83.703,130.142C71.031,122.376 71.801,105.881 82.567,98.6C89.303,94.044 83.149,85.321 95.385,79.265C99.902,77.029 99.201,76.269 100.513,72.505C105.297,58.783 122.532,56.936 130.274,63.788C134.233,67.292 134.785,65.843 139.667,63.885C161.688,55.053 171.446,78.51 173.595,79.099C196.417,85.354 189.54,105.553 186.582,109.557C180.706,117.509 192.027,126.305 177.255,135.047C172.716,137.734 174.558,139.103 171.414,143.442C161.961,156.49 148.815,143.165 147.516,144.519C133.316,159.322 142.766,197.831 142.991,198.235C146.661,204.813 141.456,204.314 128.549,204.066ZM126.4,140.452L127.553,140.213C127.48,136.017 129.373,129.053 122.705,134.361C121.435,135.372 125.223,139.133 126.4,140.452ZM136.166,135.151C136.133,135.526 135.474,142.912 137.736,139.587C140.806,135.074 144.212,133.845 139.386,131.35C134.68,128.917 136.217,134.791 136.166,135.151Z" style="fill:rgb(38,38,38);"/>
        </g>
    </g>
</svg>
