<?xml version="1.0" encoding="UTF-8" standalone="no"?><!DOCTYPE svg PUBLIC "-//W3C//DTD SVG 1.1//EN" "http://www.w3.org/Graphics/SVG/1.1/DTD/svg11.dtd"><svg width="100%" height="100%" viewBox="0 0 109 99" version="1.1" xmlns="http://www.w3.org/2000/svg" xmlns:xlink="http://www.w3.org/1999/xlink" xml:space="preserve" xmlns:serif="http://www.serif.com/" style="fill-rule:evenodd;clip-rule:evenodd;stroke-linejoin:round;stroke-miterlimit:2;"><path d="M59.418,91.934c-0.854,0.832 -1.498,1.825 -1.934,2.865l14.528,3.697l0,-11.219c-0.714,0.144 -1.428,0.288 -2.125,0.432c-3.797,0.768 -7.821,1.632 -10.469,4.225" style="fill:#e1c0ac;fill-rule:nonzero;"/><path d="M62.815,17.926c0,-4.657 4.111,-8.435 9.18,-8.435c5.069,0 9.18,3.778 9.18,8.435c0,4.657 -4.111,8.435 -9.18,8.435c-5.069,0 -9.18,-3.778 -9.18,-8.435m28.69,0c0,-9.891 -8.727,-17.926 -19.51,-17.926c-10.783,0 -19.51,8.019 -19.51,17.926c0,9.891 19.51,31.866 19.51,31.866c0,0 19.51,-21.975 19.51,-31.866" style="fill:#e1c0ac;fill-rule:nonzero;"/><path d="M75.496,50.913l0,32.395l7.752,-1.553c4.024,-0.8 4.668,-1.744 4.755,-2.113c0.14,-0.592 -0.435,-1.664 -0.993,-2.72c-0.679,-1.281 -1.446,-2.721 -1.689,-4.45c-0.802,-5.554 4.372,-10.131 9.842,-11.363c1.567,-0.353 3.275,-0.513 5.225,-0.513c1.638,0 3.241,0.112 4.791,0.224c0.941,0.064 1.881,0.144 2.822,0.176l0,-48.303l-13.1,3.329c0.07,0.624 0.105,1.264 0.105,1.904c0,9.875 -15.451,28.313 -19.51,32.987" style="fill:#e1c0ac;fill-rule:nonzero;"/><path d="M0,55.971c0.157,0.032 0.296,0.048 0.453,0.08c2.578,0.688 4.668,2.401 6.95,3.729c2.282,1.328 5.122,2.321 7.613,1.393c2.055,-0.769 3.344,-2.625 4.407,-4.418c1.985,-3.393 3.658,-6.93 4.964,-10.595c0.976,-2.689 2.004,-5.746 4.773,-7.011c1.045,-0.48 2.195,-0.624 3.362,-0.528l0,-25.032l-32.522,8.275l0,34.107Z" style="fill:#e1c0ac;fill-rule:nonzero;"/><path d="M31.86,41.934c-0.453,0 -0.836,0.064 -1.15,0.224c-1.393,0.64 -2.229,2.929 -2.944,4.962l-0.069,0.192c-1.376,3.825 -3.136,7.57 -5.209,11.107c-1.341,2.273 -3.1,4.738 -6.166,5.874c-1.063,0.4 -2.212,0.592 -3.397,0.592c-2.352,0 -4.825,-0.752 -7.386,-2.256c-0.662,-0.384 -1.306,-0.8 -1.933,-1.217c-1.237,-0.8 -2.422,-1.536 -3.589,-1.952l0,39.213l32.522,-8.275l0,-48.432l-0.296,-0.016c-0.139,-0.016 -0.261,-0.016 -0.383,-0.016" style="fill:#e1c0ac;fill-rule:nonzero;"/><path d="M95.981,64.229c-3.972,0.88 -7.752,4.114 -7.212,7.827c0.418,2.897 3.31,5.409 2.631,8.258c-0.68,2.833 -4.338,3.954 -7.421,4.578c-2.839,0.56 -5.661,1.136 -8.501,1.696l0,11.028l32.522,-8.275l0,-25.128c-4.023,-0.16 -8.117,-0.864 -12.019,0.016" style="fill:#e1c0ac;fill-rule:nonzero;"/><path d="M59.383,39.421c-2.926,4.369 -7.874,7.17 -12.873,7.17c-0.697,0 -1.393,-0.048 -2.073,-0.16c-2.717,-0.416 -4.982,-1.616 -6.985,-2.673c-0.488,-0.256 -0.958,-0.496 -1.446,-0.736l0,46.319l18.099,4.61l0.139,-0.304c0.627,-1.489 1.516,-2.801 2.648,-3.905c3.484,-3.41 8.553,-4.418 12.246,-5.154l2.874,-0.576l0,-29.162l-2.7,-3.041c-0.975,-1.088 -5.435,-6.178 -9.929,-12.388" style="fill:#e1c0ac;fill-rule:nonzero;"/><path d="M45.029,43.278c4.773,0.752 9.528,-2.257 11.828,-6.178c0.139,-0.24 0.261,-0.496 0.383,-0.736c-4.372,-6.434 -8.222,-13.509 -8.222,-18.438c0,-0.64 0.052,-1.265 0.105,-1.889l-13.117,-3.345l0,26.761c0.453,0.176 0.888,0.352 1.306,0.56c2.526,1.216 4.912,2.833 7.717,3.265" style="fill:#e1c0ac;fill-rule:nonzero;"/></svg>