<?xml version="1.0" encoding="UTF-8" standalone="no"?><!DOCTYPE svg PUBLIC "-//W3C//DTD SVG 1.1//EN" "http://www.w3.org/Graphics/SVG/1.1/DTD/svg11.dtd"><svg width="100%" height="100%" viewBox="0 0 400 374" version="1.1" xmlns="http://www.w3.org/2000/svg" xmlns:xlink="http://www.w3.org/1999/xlink" xml:space="preserve" xmlns:serif="http://www.serif.com/" style="fill-rule:evenodd;clip-rule:evenodd;stroke-linejoin:round;stroke-miterlimit:2;"><path d="M84.124,354.991c6.175,-3.475 11.721,-6.871 17.517,-9.762c3.975,-1.979 4.529,-3.779 2.208,-7.804c-14.171,-24.533 -28.021,-49.254 -42,-73.9c-5.283,-9.313 -10.625,-18.588 -16.221,-28.371c-6.363,3.537 -12.213,7.008 -18.267,10.071c-3.471,1.762 -3.746,3.438 -1.821,6.771c11.392,19.75 22.55,39.633 33.804,59.463c8.112,14.288 16.254,28.558 24.779,43.533m25.096,-46.104c3.246,-1.858 6.004,-3.254 8.562,-4.946c4.517,-2.992 8.954,-3.325 14.312,-1.85c30.467,8.392 61.033,16.408 91.575,24.5c11.667,3.092 22.533,1.175 32.812,-5.167c39.121,-24.133 78.304,-48.171 117.471,-72.221c6.096,-3.742 8.475,-9.221 6.667,-15.696c-1.6,-5.742 -5.863,-8.433 -13.296,-8.233c-10.154,0.267 -18.842,4.846 -27.354,9.704c-20.533,11.708 -40.958,23.6 -61.467,35.346c-11.546,6.612 -23.967,9.787 -37.133,7.075c-16.254,-3.35 -32.358,-7.433 -48.513,-11.267c-3.804,-0.9 -7.617,-1.842 -11.296,-3.142c-5.337,-1.887 -7.867,-6.658 -6.488,-11.546c1.388,-4.917 5.933,-7.512 11.579,-6.475c1.917,0.354 3.762,1.054 5.658,1.542c13.879,3.583 27.721,7.342 41.667,10.646c6.513,1.542 11.6,-1.983 12.975,-8.05c1.338,-5.875 -2.071,-11.096 -8.246,-12.971c-23.683,-7.2 -47.454,-14.129 -70.967,-21.85c-10.504,-3.45 -20.287,-2.979 -29.779,1.958c-11.704,6.088 -23.146,12.688 -34.629,19.192c-8.904,5.046 -17.696,10.288 -26.888,15.646c10.975,19.354 21.725,38.313 32.775,57.804m-100.683,-72.792c9.967,-6.079 19.563,-12.921 30.013,-18.004c8.833,-4.296 18.887,0.146 24.008,8.65c1.488,2.479 2.925,4.987 4.608,7.858c11.267,-6.512 22.004,-12.942 32.954,-18.992c11.679,-6.45 23.287,-13.15 35.433,-18.625c12.358,-5.567 25.154,-4.733 38.146,-0.487c23.054,7.537 46.279,14.596 69.621,21.183c15.362,4.342 25.287,19.117 22.088,34.729c-0.192,0.925 -0.258,1.879 -0.521,3.837c5.571,-3.117 10.471,-5.8 15.313,-8.575c18.237,-10.462 36.379,-21.096 54.717,-31.379c9.721,-5.446 20.012,-9.546 31.396,-9.95c16.196,-0.575 28.142,7.575 32.371,22.054c4.179,14.317 -1.804,28.867 -14.938,36.912c-38.913,23.846 -77.833,47.675 -116.633,71.704c-16.258,10.071 -33.208,12.071 -51.571,6.967c-28.562,-7.938 -57.242,-15.483 -86.008,-22.654c-3.167,-0.792 -7.217,1.958 -11.2,3.167c1.967,3.8 3.4,6.338 4.621,8.975c4.371,9.429 1.517,19.671 -7.354,25.188c-6.917,4.296 -14.046,8.267 -21.217,12.133c-10.146,5.467 -21.7,2.163 -27.433,-7.9c-18.638,-32.717 -37.167,-65.492 -55.754,-98.233c-0.8,-1.408 -6.017,-10.75 -6.908,-12.108c-3.133,-7.179 -9.642,-8.321 4.25,-16.45" style="fill:#969696;fill-rule:nonzero;"/><path d="M151.162,96.201c0.229,43.404 34.95,77.508 78.679,77.283c41.921,-0.217 76.554,-35.442 76.379,-77.688c-0.179,-42.75 -35.042,-77.163 -78.012,-77.008c-42.588,0.154 -77.271,35.004 -77.046,77.413m77.346,-96.2c52.933,-0.175 96.246,42.604 96.521,95.342c0.279,53.454 -42.567,96.675 -95.975,96.812c-53.583,0.137 -96.629,-42.562 -96.792,-96.012c-0.167,-52.917 42.929,-95.963 96.246,-96.142" style="fill:#969696;fill-rule:nonzero;"/><path d="M228.841,31.062c4.988,0.079 8.833,3.208 8.908,8.467c0.058,4.479 2.079,5.846 5.887,7.233c9.642,3.521 16.75,9.971 19.746,20.15c1.179,4 0.212,8.063 -3.525,9.721c-2.917,1.292 -6.825,1.221 -10.054,0.579c-1.713,-0.342 -3.267,-3.012 -4.3,-4.946c-5.762,-10.75 -22.588,-13.15 -31.046,-4.313c-3.983,4.163 -4.096,10.479 0.679,13.692c3.604,2.421 8.142,4.1 12.45,4.675c7.817,1.042 15.479,1.983 22.292,6.404c9.425,6.117 15.037,14.458 14.608,25.946c-0.433,11.729 -7.079,19.583 -16.904,25.133c-1.271,0.721 -2.608,1.517 -4.008,1.779c-4.171,0.796 -5.654,3.088 -5.846,7.371c-0.233,5.154 -4.312,8.354 -9.188,8.279c-4.858,-0.075 -8.904,-3.329 -9.021,-8.492c-0.096,-4.221 -1.892,-5.742 -5.517,-7.05c-7.896,-2.854 -14.267,-7.821 -18.167,-15.471c-2.742,-5.375 -1.429,-10.6 3.137,-13.221c4.746,-2.725 9.983,-1.104 13.329,4.129c6.108,9.55 21.858,11.387 30.05,3.508c4.688,-4.513 4.675,-11.183 -0.812,-14.688c-3.542,-2.263 -8.004,-3.233 -12.175,-4.312c-5.942,-1.542 -12.404,-1.717 -17.912,-4.142c-11.779,-5.179 -19.171,-14.388 -18.696,-27.792c0.471,-13.342 8.533,-21.837 20.379,-26.721c3.904,-1.612 6.525,-2.737 6.475,-7.821c-0.05,-5.075 4.25,-8.179 9.229,-8.1" style="fill:#969696;fill-rule:nonzero;"/></svg>