<?xml version="1.0" encoding="UTF-8" standalone="no"?><!DOCTYPE svg PUBLIC "-//W3C//DTD SVG 1.1//EN" "http://www.w3.org/Graphics/SVG/1.1/DTD/svg11.dtd"><svg width="100%" height="100%" viewBox="0 0 367 406" version="1.1" xmlns="http://www.w3.org/2000/svg" xmlns:xlink="http://www.w3.org/1999/xlink" xml:space="preserve" xmlns:serif="http://www.serif.com/" style="fill-rule:evenodd;clip-rule:evenodd;stroke-linejoin:round;stroke-miterlimit:2;"><path d="M218.096,289.479c0,56.017 -45.571,101.588 -101.588,101.588c-56.008,0 -101.579,-45.571 -101.579,-101.588c0,-56.012 45.571,-101.583 101.579,-101.583c56.017,0 101.588,45.571 101.588,101.583m29.346,-109.254c9.475,0 76.013,-0.604 105.4,-16.846l0,31.275c-0.017,0.292 -0.033,0.592 -0.025,0.846c0,0.117 0.008,0.25 0.017,0.388c-0.671,13.058 -47.692,23.642 -105.392,23.642c-13.85,0 -27.058,-0.625 -39.179,-1.729c-16.317,-20.842 -39.562,-35.992 -66.233,-41.983l-0.013,-12.454c29.383,16.258 95.946,16.862 105.425,16.862m0,-109.758c9.475,0 76.013,-0.608 105.4,-16.854l0,31.279c-0.017,0.292 -0.033,0.588 -0.025,0.842c0,0.121 0.008,0.25 0.017,0.388c-0.671,13.058 -47.692,23.646 -105.392,23.646c-57.713,0 -104.738,-10.588 -105.396,-23.654c0.017,-0.258 0.029,-0.517 0.021,-0.737c-0.004,-0.142 -0.013,-0.317 -0.021,-0.496l-0.029,-31.279c29.383,16.258 95.946,16.867 105.425,16.867m0,-53.275c59.833,0 96.912,11.108 103.179,18.038c-6.262,6.933 -43.342,18.042 -103.179,18.042c-59.833,0 -96.917,-11.108 -103.175,-18.042c6.258,-6.929 43.342,-18.038 103.175,-18.038m105.4,116.808c-0.017,0.287 -0.033,0.592 -0.025,0.842c0,0.117 0.008,0.25 0.017,0.392c-0.671,13.058 -47.692,23.637 -105.392,23.637c-57.713,0 -104.738,-10.583 -105.396,-23.65c0.017,-0.258 0.029,-0.517 0.021,-0.742c-0.004,-0.138 -0.013,-0.313 -0.021,-0.492l-0.029,-27.283c25.083,15.858 78.596,17.983 105.425,17.983c26.829,0 80.313,-2.125 105.4,-17.967l0,27.279Zm0,109.762c-0.017,0.292 -0.033,0.592 -0.025,0.846c0,0.117 0.008,0.246 0.017,0.387c-0.671,13.058 -47.692,23.637 -105.392,23.637c-5.583,0 -11.029,-0.125 -16.383,-0.312c-2.275,-12.354 -6.475,-24.033 -12.333,-34.696c10.908,0.637 20.95,0.829 28.717,0.829c26.829,0 80.313,-2.129 105.4,-17.975l0,27.283Zm0,44.746c-0.017,0.296 -0.033,0.592 -0.025,0.846c0,0.117 0.008,0.25 0.017,0.392c-0.671,13.058 -47.692,23.637 -105.392,23.637c-5.737,0 -11.325,-0.129 -16.825,-0.333c1.575,-7.617 2.408,-15.496 2.408,-23.571c0,-2.058 -0.062,-4.1 -0.167,-6.133c5.371,0.154 10.338,0.217 14.583,0.217c26.829,0 80.313,-2.129 105.4,-17.975l0,22.921Zm-236.333,-115.538c-64.242,0 -116.508,52.267 -116.508,116.508c0,64.246 52.267,116.513 116.508,116.513c50.792,0 94.079,-32.683 109.983,-78.117c7.879,0.329 15.062,0.438 20.95,0.438c35.775,0 118.983,-3.787 118.983,-38.854c0,-0.104 0,-0.212 -0.008,-0.312c0.008,-0.096 0.008,-0.188 0.008,-0.275l0,-46.808c0.221,-1.037 0.342,-2.104 0.342,-3.212c0,-1.042 -0.137,-2.046 -0.342,-3.021l0,-38.513c0.221,-1.037 0.342,-2.108 0.342,-3.212c0,-1.046 -0.137,-2.046 -0.342,-3.025l0,-42.871c0.221,-1.037 0.342,-2.104 0.342,-3.213c0,-1.842 -0.367,-3.571 -0.963,-5.221c0.375,-1.546 0.621,-3.137 0.621,-4.829c0,-0.108 0,-0.208 -0.008,-0.313c0.008,-0.096 0.008,-0.192 0.008,-0.271l0,-46.808c0.221,-1.042 0.342,-2.108 0.342,-3.217c0,-1.042 -0.137,-2.042 -0.342,-3.021l0,-42.871c0.221,-1.037 0.342,-2.108 0.342,-3.217c0,-1.908 -0.383,-3.7 -1.017,-5.408c-1.033,-3.596 -3.283,-6.608 -6.275,-8.496c-24.312,-20.621 -101.754,-21.325 -112.033,-21.325c-10.275,0 -87.721,0.704 -112.029,21.325c-2.988,1.888 -5.242,4.892 -6.275,8.483c-0.633,1.717 -1.013,3.508 -1.013,5.421c0,1.108 0.117,2.179 0.333,3.217l0,42.867c-0.204,0.979 -0.333,1.983 -0.333,3.025c0,1.108 0.117,2.175 0.333,3.217l0,46.808c0,0.104 0.004,0.204 0.004,0.313c0,0.096 -0.004,0.188 -0.004,0.271c0,1.692 0.25,3.283 0.621,4.833c-0.588,1.65 -0.954,3.375 -0.954,5.217c0,1.108 0.117,2.175 0.333,3.213l0,25.371c-3.929,-0.4 -7.917,-0.608 -11.95,-0.608" style="fill:#969696;fill-rule:nonzero;"/><path d="M185.065,289.472c0,37.808 -30.758,68.567 -68.558,68.567c-37.796,0 -68.55,-30.758 -68.55,-68.567c0,-37.796 30.754,-68.55 68.55,-68.55c37.8,0 68.558,30.754 68.558,68.55m-147.054,0c0,43.296 35.213,78.517 78.496,78.517c43.287,0 78.504,-35.221 78.504,-78.517c0,-43.283 -35.217,-78.5 -78.504,-78.5c-43.283,0 -78.496,35.217 -78.496,78.5" style="fill:#969696;fill-rule:nonzero;"/><path d="M116.863,252.042l0,-7.096l2.658,0l0,6.296c0,2.562 1.942,4.704 4.496,4.954c3.608,0.346 6.904,1.242 9.825,2.663l-1.283,3.379c-1.012,-0.487 -2.154,-0.971 -3.467,-1.408c-3.046,-1.029 -6.337,-1.558 -9.787,-1.558c-4.617,0.021 -8.279,1.308 -10.875,3.833c-2.212,2.15 -3.429,5.071 -3.429,8.225c0,1.892 0.329,3.458 1.013,4.896c0.688,1.454 1.667,2.721 3.067,3.946c2.221,1.971 5.754,3.9 11.454,6.246c0.008,0 0.013,0.004 0.017,0.008c4.471,1.825 7.721,3.637 10.225,5.708c2.471,2.033 4.208,4.396 5.15,7.033c0.65,1.808 0.979,3.875 0.979,6.138c0.008,4.037 -1.438,7.912 -4.067,10.917c0,0 -0.004,0.008 -0.012,0.008c-2.479,2.854 -6.008,4.904 -10.2,5.929c-2.233,0.546 -3.796,2.538 -3.796,4.829l0,7.438l-2.779,0l0,-6.721c0,-2.579 -1.967,-4.729 -4.537,-4.958c-2.308,-0.208 -4.592,-0.633 -6.792,-1.283c-2.171,-0.625 -4.104,-1.421 -5.696,-2.325l1.238,-3.467c4.571,2.438 10.071,3.85 15.208,3.85c4.621,0.088 8.458,-1.254 11.4,-3.696c2.908,-2.479 4.471,-5.817 4.517,-9.742c-0.008,-1.887 -0.338,-3.575 -1.013,-5.158c-0.658,-1.55 -1.612,-2.938 -2.912,-4.258c-2.267,-2.296 -5.658,-4.333 -10.408,-6.237c-4.662,-1.838 -8.042,-3.55 -10.625,-5.388c-2.783,-1.987 -4.654,-4.146 -5.721,-6.583c-0.75,-1.708 -1.125,-3.646 -1.125,-5.771c-0.008,-4.025 1.446,-7.783 4.1,-10.6c2.325,-2.483 5.567,-4.288 9.375,-5.212c2.229,-0.538 3.804,-2.538 3.804,-4.833m-9.95,-12.071l0,8.413c-4.1,1.554 -7.675,3.896 -10.483,6.892c-4.392,4.654 -6.808,10.846 -6.796,17.421c0,3.496 0.658,6.771 1.954,9.75c1.783,4.079 4.838,7.679 9.067,10.696c3.267,2.325 7.312,4.4 12.725,6.533c4.425,1.779 6.283,3.258 7,3.979c0.538,0.546 0.729,0.913 0.838,1.163c0.104,0.25 0.217,0.6 0.221,1.229c-0.013,0.983 -0.283,1.579 -0.971,2.158c-1.042,0.867 -2.838,1.363 -4.925,1.363c-4.946,0.229 -9.537,-1.854 -12.171,-3.617l-2.938,-1.954c-1.275,-0.85 -2.871,-1.062 -4.321,-0.583c-1.454,0.483 -2.604,1.608 -3.121,3.046l-4.637,12.95c-0.754,2.092 -0.021,4.429 1.787,5.725l1.713,1.225c2.733,1.942 6.133,3.512 10.071,4.658c1.371,0.4 2.763,0.738 4.171,1.008l0,7.371c0,2.75 2.233,4.979 4.975,4.979l12.733,0c2.746,0 4.975,-2.229 4.975,-4.979l0,-8.738c4.579,-1.729 8.529,-4.417 11.554,-7.896c4.208,-4.821 6.529,-11.025 6.521,-17.462c0,-3.421 -0.529,-6.621 -1.562,-9.496c-1.554,-4.342 -4.312,-8.163 -8.192,-11.35c-3.242,-2.683 -7.221,-4.95 -12.517,-7.133c-0.167,-0.079 -0.337,-0.154 -0.513,-0.212c-5.342,-2.208 -7.508,-3.6 -8.404,-4.4c-0.342,-0.292 -0.562,-0.538 -0.65,-0.733c-0.029,-0.046 -0.067,-0.238 -0.067,-0.646c0,-0.312 0.075,-0.758 0.412,-1.092c0.667,-0.642 2.088,-1.004 3.971,-1.012c2.367,0 4.529,0.338 6.596,1.038c1.679,0.562 2.946,1.246 3.967,1.825l2.8,1.604c1.271,0.725 2.787,0.858 4.154,0.371c1.371,-0.492 2.458,-1.558 2.975,-2.921l4.838,-12.75c0.858,-2.271 -0.046,-4.829 -2.133,-6.058l-2.012,-1.179c-3.342,-1.958 -7.042,-3.362 -11.05,-4.192l0,-6.992c0,-2.746 -2.221,-4.975 -4.971,-4.975l-12.608,0c-2.754,0 -4.975,2.229 -4.975,4.975" style="fill:#969696;fill-rule:nonzero;"/></svg>