<?xml version="1.0" encoding="UTF-8" standalone="no"?><!DOCTYPE svg PUBLIC "-//W3C//DTD SVG 1.1//EN" "http://www.w3.org/Graphics/SVG/1.1/DTD/svg11.dtd"><svg width="100%" height="100%" viewBox="0 0 2621 770" version="1.1" xmlns="http://www.w3.org/2000/svg" xmlns:xlink="http://www.w3.org/1999/xlink" xml:space="preserve" xmlns:serif="http://www.serif.com/" style="fill-rule:evenodd;clip-rule:evenodd;stroke-linejoin:round;stroke-miterlimit:2;"><path d="M1851.001,384.792c0,212.513 172.275,384.792 384.792,384.792c212.517,0 384.792,-172.279 384.792,-384.792c0,-212.517 -172.275,-384.792 -384.792,-384.792c-212.517,0 -384.792,172.275 -384.792,384.792" style="fill:#627770;fill-rule:nonzero;"/><text x="-21.95px" y="429.825px" style="font-family:'Roboto-Regular', 'Roboto';font-size:377.766px;fill:#627770;">C<tspan x="226.242px 475.946px 689.378px 957.409px 1205.601px " y="429.825px 429.825px 429.825px 429.825px 429.825px ">UENCA</tspan></text><text x="1158.569px" y="705.216px" style="font-family:'Roboto-Regular', 'Roboto';font-size:377.766px;fill:#627770;">S<tspan x="1390.895px 1651.554px 1856.115px 2110.351px " y="705.216px 705.216px 705.216px 705.216px ">OLAR</tspan></text><path d="M1948.383,603.74l67.142,0l-33.754,-100.525l-33.388,100.525Zm82.083,44.825l-97.025,0l-18.446,55.338l-58.842,0l99.975,-268.571l51.279,0l100.529,268.571l-58.842,0l-18.629,-55.338Z" style="fill:#fff;fill-rule:nonzero;"/><path d="M2188.361,560.763l44.637,0c13.896,0 24.654,-3.533 32.279,-10.604c7.625,-7.071 11.438,-16.817 11.438,-29.242c0,-12.663 -3.596,-22.621 -10.792,-29.879c-7.192,-7.254 -18.229,-10.883 -33.108,-10.883l-44.454,0l0,80.608Zm44.088,44.821l-44.088,0l0,98.317l-55.338,0l0,-268.571l99.792,0c31.725,0 56.196,7.075 73.412,21.217c17.217,14.142 25.825,34.125 25.825,59.946c0,18.325 -3.967,33.604 -11.896,45.838c-7.933,12.237 -19.954,21.983 -36.062,29.237l58.104,109.75l0,2.583l-59.396,0l-50.354,-98.317Z" style="fill:#fff;fill-rule:nonzero;"/></svg>