<?xml version="1.0" encoding="UTF-8" standalone="no"?><!DOCTYPE svg PUBLIC "-//W3C//DTD SVG 1.1//EN" "http://www.w3.org/Graphics/SVG/1.1/DTD/svg11.dtd"><svg width="100%" height="100%" viewBox="0 0 452 374" version="1.1" xmlns="http://www.w3.org/2000/svg" xmlns:xlink="http://www.w3.org/1999/xlink" xml:space="preserve" xmlns:serif="http://www.serif.com/" style="fill-rule:evenodd;clip-rule:evenodd;stroke-miterlimit:10;"><path d="M431.374,257.558c-0.879,2.513 -2.567,4.567 -4.708,5.921c-1.775,1.142 -3.883,1.775 -6.079,1.775l-389.971,0c-2.196,0 -4.304,-0.633 -6.079,-1.775c-2.142,-1.354 -3.829,-3.408 -4.708,-5.921c-0.492,-1.404 -0.633,-3.162 -0.388,-5.096l28.371,-222.075c0.808,-6.304 6.2,-11.067 12.558,-11.067l330.463,0c6.358,0 11.75,4.763 12.558,11.067l28.371,222.075c0.246,1.933 0.104,3.692 -0.387,5.096m19.55,-7.537l-28.367,-222.075c-2.021,-15.929 -15.671,-27.946 -31.725,-27.946l-330.463,0c-16.054,0 -29.704,12.017 -31.725,27.946l-28.367,222.075c-0.387,3.058 -0.371,5.992 0.05,8.804c1.108,7.462 3.725,14.383 7.642,20.867c2.408,4.021 5.254,7.783 8.4,11.279c1.967,2.196 3.983,4.392 6.392,6.129c2.567,1.862 5.658,3.125 8.608,4.233c0.983,0.279 1.967,0.546 2.95,0.808l173.417,0l-15.6,69.333c0,1.617 26.279,2.108 33.396,2.108l0.138,0c7.133,0 33.396,-0.492 33.396,-2.108l-15.583,-69.333l173.4,0c0.983,-0.263 1.967,-0.529 2.95,-0.808c7.467,-2.125 12.929,-7.625 17.692,-13.525c4.25,-5.254 7.817,-11.083 10.308,-17.375c1.442,-3.633 2.812,-7.658 3.042,-11.608c0.421,-2.813 0.438,-5.746 0.05,-8.804" style="fill:#969696;fill-rule:nonzero;"/><path d="M155.339,143.003l-5.367,109.421c-0.104,2.15 -1.875,3.833 -4.025,3.833l-103.738,0c-2.075,0 -4.079,-0.596 -5.762,-1.667c-2.037,-1.246 -3.637,-3.162 -4.479,-5.5c-0.475,-1.317 -0.6,-2.95 -0.371,-4.742l13.312,-102.067c0.263,-2.004 1.975,-3.508 4,-3.508l102.404,0c2.304,0 4.138,1.929 4.025,4.229Z" style="fill:none;fill-rule:nonzero;stroke:#969696;stroke-width:4.17px;"/><path d="M160.82,33.212l-4.383,89.433c-0.104,2.146 -1.875,3.833 -4.025,3.833l-100.625,0c-2.433,0 -4.313,-2.142 -3.996,-4.554l10.771,-82.629c0.754,-5.883 5.883,-10.313 11.929,-10.313l86.304,0c2.304,0 4.138,1.929 4.025,4.229Z" style="fill:none;fill-rule:nonzero;stroke:#969696;stroke-width:4.17px;"/><path d="M280.813,126.478l-108.017,0c-2.304,0 -4.138,-1.929 -4.025,-4.229l4.383,-89.429c0.104,-2.15 1.875,-3.833 4.025,-3.833l99.25,0c2.15,0 3.921,1.683 4.025,3.833l4.383,89.429c0.113,2.3 -1.721,4.229 -4.025,4.229Z" style="fill:none;fill-rule:nonzero;stroke:#969696;stroke-width:4.17px;"/><path d="M287.277,256.258l-120.946,0c-2.304,0 -4.138,-1.929 -4.025,-4.229l5.367,-109.421c0.104,-2.146 1.875,-3.833 4.025,-3.833l110.213,0c2.15,0 3.921,1.688 4.025,3.833l5.367,109.421c0.113,2.3 -1.721,4.229 -4.025,4.229Z" style="fill:none;fill-rule:nonzero;stroke:#969696;stroke-width:4.17px;"/><path d="M419.517,249.091c-0.825,2.338 -2.442,4.25 -4.479,5.5c-1.688,1.071 -3.688,1.667 -5.762,1.667l-101.613,0c-2.15,0 -3.921,-1.688 -4.025,-3.833l-5.367,-109.421c-0.113,-2.304 1.721,-4.229 4.025,-4.229l100.279,0c2.025,0 3.733,1.5 3.996,3.508l13.317,102.067c0.225,1.792 0.104,3.425 -0.371,4.742Z" style="fill:none;fill-rule:nonzero;stroke:#969696;stroke-width:4.17px;"/><path d="M399.697,126.478l-98.5,0c-2.15,0 -3.921,-1.688 -4.025,-3.833l-4.383,-89.433c-0.112,-2.3 1.721,-4.225 4.025,-4.225l84.179,0c6.046,0 11.175,4.425 11.929,10.308l10.771,82.633c0.317,2.412 -1.562,4.55 -3.996,4.55Z" style="fill:none;fill-rule:nonzero;stroke:#969696;stroke-width:4.17px;"/></svg>