<?xml version="1.0" encoding="UTF-8" standalone="no"?>
<!DOCTYPE svg PUBLIC "-//W3C//DTD SVG 1.1//EN" "http://www.w3.org/Graphics/SVG/1.1/DTD/svg11.dtd">
<svg width="100%" height="100%" viewBox="0 0 374 151" version="1.1" xmlns="http://www.w3.org/2000/svg" xmlns:xlink="http://www.w3.org/1999/xlink" xml:space="preserve" xmlns:serif="http://www.serif.com/" style="fill-rule:evenodd;clip-rule:evenodd;stroke-miterlimit:10;">
    <g transform="matrix(1,0,0,1,-9176.234804,-1961.127988)">
        <g transform="matrix(2,0,0,2,8640,0)">
            <g transform="matrix(0.978634,0,0,0.978634,-193.985979,-190.049855)">
                <g transform="matrix(1,0,0,1,575.7064,1226.3844)">
                    <path d="M0,29.267C-1.353,28.79 -1.96,27.664 -2.423,26.434C-2.556,26.081 -2.596,25.695 -2.596,25.302C-2.586,17.314 -2.588,9.326 -2.583,1.337C-2.582,-0.081 -1.903,-1.103 -0.64,-1.687C1.3,-2.583 3.267,-3.42 5.222,-4.282C6.123,-4.679 7.018,-4.715 7.942,-4.324C11.415,-2.856 14.895,-1.406 18.37,0.058C18.632,0.168 18.869,0.336 19.117,0.478C19.417,0.888 19.231,1.197 18.898,1.458C18.422,1.831 17.891,2.115 17.355,2.389C16.37,2.893 15.367,3.363 14.392,3.889C13.844,4.184 13.508,4.597 13.458,5.242C13.432,5.577 13.377,5.91 13.389,6.248C13.466,8.359 13.551,10.471 13.458,12.583C13.349,15.055 13.572,17.527 13.465,19.997C13.358,22.492 13.538,24.987 13.412,27.483C13.36,28.51 13.382,29.548 13.407,30.577C13.437,31.786 13.194,32.86 12.434,33.806C12.143,33.982 11.831,33.939 11.518,33.896C9.632,33.439 7.973,32.426 6.191,31.709C4.229,30.92 2.266,30.127 0.329,29.276C0.227,29.231 0.112,29.159 0,29.267" style="fill:rgb(207,208,208);fill-rule:nonzero;"/>
                </g>
                <g transform="matrix(1,0,0,1,595.8444,1260.676)">
                    <path d="M0,-32.865C0.512,-32.252 0.777,-31.543 0.821,-30.749C0.733,-30.49 0.777,-30.223 0.777,-29.96C0.774,-25.07 0.78,-20.181 0.772,-15.291C0.768,-12.956 0.94,-10.626 0.914,-8.291C0.912,-8.12 0.949,-7.957 0.988,-7.794C1.177,-6.315 1.086,-4.9 0.018,-3.719C-0.479,-2.406 -1.601,-1.84 -2.793,-1.329C-3.655,-0.96 -4.505,-0.562 -5.392,-0.252C-5.711,-0.14 -6.026,0 -6.358,-0.207C-6.469,-0.585 -6.147,-0.629 -5.932,-0.72C-4.525,-1.315 -3.146,-1.974 -1.757,-2.608C-1.481,-2.735 -1.277,-2.935 -0.961,-3.164C-1.172,-3.134 -1.239,-3.062 -1.323,-3.021C-2.562,-2.515 -3.755,-1.911 -4.979,-1.376C-5.219,-1.272 -5.461,-1.165 -5.729,-1.139C-6.641,-0.987 -6.675,-1.017 -6.44,-1.888C-6.301,-2.405 -6.241,-2.932 -6.234,-3.46C-6.203,-5.568 -5.876,-7.661 -6.248,-9.79C-6.505,-11.267 -6.237,-12.806 -6.305,-14.32C-6.402,-16.481 -6.324,-18.645 -6.407,-20.811C-6.469,-22.428 -6.548,-24.071 -6.341,-25.698C-6.238,-26.51 -6.456,-27.323 -6.352,-28.146C-6.296,-28.588 -6.153,-28.922 -5.811,-29.192C-5.299,-29.596 -4.76,-29.956 -4.171,-30.238C-3.106,-30.748 -2.078,-31.324 -1.056,-31.916C-0.632,-32.162 -0.262,-32.449 0,-32.865" style="fill:rgb(161,163,162);fill-rule:nonzero;"/>
                </g>
                <g transform="matrix(1,0,0,1,595.8444,1259.37)">
                    <path d="M0,-31.559C0.171,-31.035 -0.212,-30.841 -0.561,-30.639C-1.747,-29.952 -2.936,-29.269 -4.176,-28.68C-4.479,-28.536 -4.749,-28.324 -5.051,-28.18C-6.209,-27.629 -6.275,-26.657 -6.13,-25.563C-6.055,-24.995 -6.198,-24.402 -6.171,-23.848C-6.092,-22.176 -6.359,-20.507 -6.152,-18.837C-6.073,-18.196 -6.098,-17.54 -6.095,-16.891C-6.088,-15.181 -6.072,-13.47 -6.095,-11.76C-6.123,-9.729 -5.859,-7.712 -5.83,-5.688C-5.807,-4.14 -5.983,-2.588 -6.106,-1.041C-6.136,-0.669 -6.306,-0.307 -6.416,0.078C-6.159,0.254 -5.937,-0.275 -5.666,0.01C-6.115,0.61 -7.069,0.949 -7.69,0.729C-7.829,0.51 -7.782,0.363 -7.582,0.178C-7.134,-0.233 -6.972,-0.791 -6.967,-1.382C-6.948,-3.438 -6.941,-5.493 -6.939,-7.549C-6.938,-8.96 -7.053,-10.38 -6.932,-11.78C-6.782,-13.524 -6.9,-15.264 -6.875,-17.002C-6.858,-18.2 -7.015,-19.431 -6.9,-20.622C-6.73,-22.384 -7.016,-24.13 -6.9,-25.887C-6.852,-26.614 -6.956,-27.351 -6.839,-28.094C-6.771,-28.527 -6.594,-28.799 -6.255,-29.018C-5.201,-29.699 -4.032,-30.16 -2.932,-30.753C-2.467,-31.004 -2.005,-31.259 -1.547,-31.522C-1.17,-31.739 -0.925,-32.035 -1.021,-32.508C-0.596,-32.282 -0.217,-32.007 0,-31.559" style="fill:rgb(181,182,183);fill-rule:nonzero;"/>
                </g>
                <g transform="matrix(1,0,0,1,596.7164,1235.4113)">
                    <path d="M0,12.13C-0.003,13.768 -0.005,15.406 -0.008,17.044C0.123,17.245 0.155,17.438 -0.049,17.614C-0.241,17.382 -0.158,17.106 -0.159,16.85C-0.165,9.66 -0.167,2.469 -0.164,-4.721C-0.164,-4.977 -0.248,-5.254 -0.051,-5.484C-0.04,-1.128 -0.03,3.227 -0.018,7.582C-0.014,9.098 -0.006,10.614 0,12.13" style="fill:rgb(128,130,129);fill-rule:nonzero;"/>
                </g>
                <g transform="matrix(1,0,0,1,587.022,1255.3491)">
                    <path d="M0,5.036C-0.821,4.981 -1.405,4.359 -2.156,4.135C-2.407,4.06 -2.652,3.964 -2.9,3.878C-5.376,2.832 -7.852,1.788 -10.328,0.741C-10.66,0.601 -10.986,0.449 -11.315,0.302C-11.103,0 -10.882,0.227 -10.683,0.31C-7.433,1.661 -4.186,3.022 -0.936,4.375C-0.587,4.52 -0.222,4.627 0.135,4.752C0.146,4.873 0.081,4.958 0,5.036" style="fill:rgb(163,165,164);fill-rule:nonzero;"/>
                </g>
                <g transform="matrix(1,0,0,1,575.8773,1244.059)">
                    <path d="M0,-14.6C3.336,-13.232 6.672,-11.864 10.009,-10.498C10.694,-10.218 10.979,-9.726 10.975,-8.979C10.958,-6.235 10.978,-3.491 10.982,-0.746C10.984,0.032 10.79,0.172 10.07,-0.125C6.871,-1.446 3.675,-2.775 0.478,-4.1C0.187,-4.221 -0.085,-4.371 -0.311,-4.596C-0.64,-4.814 -0.786,-5.143 -0.79,-5.517C-0.816,-8.275 -0.82,-11.033 -0.784,-13.792C-0.778,-14.226 -0.713,-14.772 0,-14.6" style="fill:rgb(110,110,111);fill-rule:nonzero;"/>
                </g>
                <g transform="matrix(1,0,0,1,575.8773,1238.981)">
                    <path d="M0,-9.522C-0.534,-9.537 -0.565,-9.109 -0.567,-8.774C-0.589,-5.986 -0.59,-3.198 -0.572,-0.409C-0.57,-0.112 -0.402,0.185 -0.311,0.482C-0.828,0.464 -1.024,0.168 -1.024,-0.319C-1.023,-3.256 -1.04,-6.194 -1.019,-9.132C-1.013,-10.004 -0.438,-9.644 0,-9.522" style="fill:rgb(161,163,162);fill-rule:nonzero;"/>
                </g>
                <g transform="matrix(1,0,0,1,587.022,1257.6321)">
                    <path d="M0,2.753C0.045,2.658 0.09,2.563 0.135,2.469C0.468,2.468 0.8,2.468 1.132,2.467C1.87,2.407 2.505,2.052 3.157,1.748C4.629,1.177 5.998,0.369 7.499,-0.138C7.8,0.273 7.348,0.294 7.185,0.379C6.53,0.723 5.853,1.028 5.169,1.31C4.263,1.685 3.389,2.131 2.483,2.508C1.787,2.798 1.108,2.891 0.382,2.782C0.345,2.78 0.307,2.778 0.27,2.776C0.18,2.769 0.09,2.761 0,2.753" style="fill:rgb(90,92,92);fill-rule:nonzero;"/>
                </g>
                <g transform="matrix(1,0,0,1,589.4625,1257.0895)">
                    <path d="M0,3.321C-0.726,3.328 -1.453,3.374 -2.177,3.273C0.342,3.185 2.355,1.701 4.581,0.807C4.756,0.737 5.093,0.762 5.058,0.404C5.207,0.225 5.391,-0.053 5.617,0.175C5.872,0.432 5.55,0.576 5.368,0.714C4.776,1.164 4.09,1.433 3.423,1.739C2.28,2.263 1.141,2.793 0,3.321" style="fill:rgb(134,136,136);fill-rule:nonzero;"/>
                </g>
                <g transform="matrix(1,0,0,1,575.587,1239.1768)">
                    <path d="M0,-4.738C0,-6.085 0.017,-7.433 -0.008,-8.78C-0.019,-9.362 0.195,-9.538 0.724,-9.322C3.878,-8.034 7.03,-6.741 10.184,-5.45C10.916,-5.15 11.124,-4.543 11.125,-3.828C11.127,-1.205 11.111,1.418 11.127,4.04C11.13,4.678 10.895,4.8 10.344,4.567C7.579,3.402 4.812,2.242 2.045,1.084C-0.192,0.147 -0.008,0.45 -0.005,-2.139C-0.004,-3.006 -0.004,-3.872 -0.004,-4.738L0,-4.738Z" style="fill:rgb(144,146,147);fill-rule:nonzero;"/>
                </g>
                <g transform="matrix(1,0,0,1,577.1711,1240.7906)">
                    <path d="M0,-8.28C0.898,-8.255 1.622,-7.727 2.418,-7.418C4.294,-6.69 6.142,-5.89 8.017,-5.159C8.51,-4.967 8.839,-4.669 8.804,-4.176C8.725,-3.078 9.061,-1.995 8.838,-0.89C8.702,-0.217 8.483,0 7.837,-0.256C6.211,-0.902 4.577,-1.533 2.983,-2.253C1.983,-2.705 0.906,-3.002 -0.004,-3.648C-0.304,-4.13 -0.389,-4.654 -0.366,-5.217C-0.339,-5.91 -0.366,-6.604 -0.356,-7.297C-0.351,-7.665 -0.281,-8.011 0,-8.28" style="fill:rgb(132,134,134);fill-rule:nonzero;"/>
                </g>
                <g transform="matrix(1,0,0,1,577.1711,1237.1326)">
                    <path d="M0,-4.622C-0.261,-3.369 -0.103,-2.101 -0.143,-0.84C-0.15,-0.607 -0.069,-0.422 0.09,-0.261C0.237,-0.112 0.2,-0.021 -0.004,0.01C-0.389,-0.218 -0.569,-0.561 -0.568,-1.004C-0.567,-1.938 -0.589,-2.874 -0.555,-3.807C-0.543,-4.155 -0.594,-4.632 0,-4.622" style="fill:rgb(92,94,94);fill-rule:nonzero;"/>
                </g>
                <g transform="matrix(1,0,0,1,477.549,1244.0314)">
                    <path d="M0,4.109C-0.047,3.825 -0.134,3.541 -0.135,3.256C-0.146,-2.893 -0.148,-9.042 -0.151,-15.191C-0.151,-15.312 -0.136,-15.432 -0.128,-15.553C0.444,-15.757 0.856,-15.512 1.204,-15.083C1.067,-14.783 1.196,-14.594 1.444,-14.419C2.778,-13.476 4.203,-12.694 5.726,-12.113C6.881,-11.673 8.048,-11.261 9.196,-10.802C9.91,-10.516 10.497,-9.989 11.247,-9.726C14.702,-8.512 18.023,-6.959 21.359,-5.467C24.124,-4.229 26.948,-3.164 29.754,-2.042C30.968,-1.556 32.132,-0.957 33.464,-0.817C33.9,-0.771 34.106,-0.397 34.12,0.032C34.163,1.364 34.161,2.698 34.156,4.029C34.154,4.641 34.284,5.229 34.282,5.833C34.265,9.737 34.29,13.641 34.28,17.544C34.278,18.213 34.065,18.882 34.281,19.55C34.285,19.635 34.252,19.702 34.184,19.752C33.853,19.866 33.566,19.71 33.282,19.589C31.951,19.02 30.605,18.487 29.273,17.919C28.521,17.598 28.087,17.126 28.054,16.303C28.04,11.166 28.052,6.03 28.047,0.894C28.047,0.408 28.079,-0.089 27.631,-0.432C26.19,-1.259 24.587,-1.707 23.075,-2.371C22.349,-2.547 21.741,-3.069 20.963,-3.089C20.49,-2.792 20.64,-2.31 20.639,-1.901C20.626,2.9 20.631,7.7 20.63,12.5C20.63,12.791 20.644,13.083 20.605,13.371C20.57,13.641 20.514,13.906 20.193,13.987C19.815,14.022 19.479,13.864 19.146,13.728C15.012,12.042 10.911,10.275 6.772,8.6C4.928,7.854 3.095,7.081 1.257,6.32C0.875,6.162 0.489,6.008 0.169,5.739C-0.394,5.264 -0.452,4.665 0,4.109" style="fill:rgb(219,219,219);fill-rule:nonzero;"/>
                </g>
                <g transform="matrix(1,0,0,1,542.5312,1252.9442)">
                    <path d="M0,-21.714C0.147,-21.441 0.084,-21.144 0.085,-20.858C0.103,-16.572 0.117,-12.287 0.132,-8.001C0.363,-7.741 0.326,-7.421 0.328,-7.112C0.336,-5.89 0.324,-4.668 0.336,-3.447C0.368,-3.142 0.346,-2.837 0.341,-2.532C0.304,-2.165 0.3,-1.789 0.052,-1.48C-1.353,-2.189 -2.633,-1.503 -3.923,-1.092C-5.978,-0.437 -8.018,0.267 -10.013,1.088C-10.975,1.485 -11.918,1.933 -12.872,2.352C-15.757,3.617 -18.612,4.951 -21.475,6.26C-23.601,7.232 -25.802,8.11 -27.749,9.456C-28.209,9.774 -28.637,10.119 -28.993,10.618C-28.628,10.813 -28.289,10.681 -27.964,10.698C-27.576,10.718 -27.185,10.705 -26.806,10.798C-26.563,10.858 -26.337,10.97 -26.301,11.255C-26.269,11.511 -26.437,11.687 -26.642,11.762C-27.418,12.045 -28.051,12.74 -28.98,12.585C-29.186,12.174 -28.665,12.171 -28.589,11.866C-29.145,11.652 -29.76,11.602 -30.303,11.346C-30.532,11.237 -30.929,11.229 -30.756,10.783L-30.763,10.776C-30.718,10.725 -30.671,10.674 -30.625,10.624C-29.85,8.937 -28.787,7.541 -27.096,6.625C-26.287,6.186 -25.554,5.567 -24.861,4.917C-24.19,4.288 -23.297,3.959 -22.509,3.485C-21.35,2.788 -20.075,2.279 -19.08,1.321C-18.9,1.148 -18.676,1.05 -18.432,1.011C-18.028,0.946 -17.701,0.764 -17.463,0.427C-17.407,0.348 -17.348,0.243 -17.263,0.22C-15.943,-0.132 -15.305,-1.455 -14.104,-1.987C-13.605,-2.209 -13.226,-2.596 -13.228,-3.22C-13.228,-3.536 -12.997,-3.681 -12.748,-3.803C-10.488,-4.746 -8.209,-5.638 -5.966,-6.621C-5.231,-6.943 -4.877,-7.385 -4.886,-8.22C-4.92,-11.178 -4.893,-14.137 -4.905,-17.096C-4.907,-17.546 -4.848,-18.08 -5.565,-18.059C-5.74,-18.007 -5.911,-17.944 -6.074,-17.859C-7.288,-17.34 -8.51,-16.838 -9.731,-16.336C-10.06,-16.232 -10.373,-16.086 -10.696,-15.967C-11.021,-15.877 -11.3,-15.657 -11.646,-15.627C-11.97,-15.737 -12.279,-15.373 -12.608,-15.594C-12.735,-15.907 -12.724,-16.249 -12.854,-16.571C-13.046,-17.047 -12.849,-17.246 -12.337,-17.181C-11.227,-17.041 -10.843,-17.5 -11.169,-18.585C-11.232,-18.793 -11.358,-18.986 -11.376,-19.203C-11.415,-19.681 -11.613,-19.797 -12.032,-19.546C-12.179,-19.457 -12.429,-19.391 -12.491,-19.558C-12.665,-20.025 -13.194,-20.054 -13.424,-20.356C-13.726,-20.751 -14.025,-20.828 -14.464,-20.796C-14.927,-20.762 -15.255,-21.058 -15.457,-21.426C-15.946,-22.313 -16.805,-22.21 -17.573,-22.179C-18.001,-22.162 -18.188,-21.605 -18.458,-21.28C-18.756,-20.921 -19.014,-20.66 -19.533,-20.707C-19.926,-20.742 -20.345,-20.543 -20.562,-20.247C-20.935,-19.737 -21.461,-19.448 -21.927,-19.07C-22.321,-18.749 -22.702,-18.433 -22.932,-17.947C-23.186,-17.41 -23.774,-17.248 -24.241,-16.956C-25.019,-16.469 -25.586,-15.827 -25.813,-14.912C-25.964,-14.304 -26.428,-13.905 -26.931,-13.634C-27.716,-13.212 -28.542,-12.873 -29.306,-12.399C-29.855,-12.058 -30.049,-12.209 -30.109,-12.86C-29.143,-14.487 -27.997,-15.993 -26.914,-17.539C-23.185,-22.862 -19.394,-28.141 -15.647,-33.451C-15.407,-33.792 -15.246,-34.258 -14.695,-34.241C-13.282,-34.454 -12.272,-33.673 -11.219,-32.907C-8.398,-30.853 -5.641,-28.71 -2.694,-26.832C-2.061,-26.428 -1.477,-25.943 -0.776,-25.655C-0.261,-25.443 -0.084,-25.098 -0.086,-24.529C-0.106,-18.782 -0.098,-13.035 -0.098,-7.288C-0.098,-7.064 -0.104,-6.84 -0.1,-6.691C-0.165,-6.747 -0.091,-6.909 -0.091,-7.049C-0.096,-11.754 -0.096,-16.458 -0.091,-21.162C-0.091,-21.347 -0.163,-21.553 0,-21.714" style="fill:rgb(175,176,176);fill-rule:nonzero;"/>
                </g>
                <g transform="matrix(1,0,0,1,492.3795,1238.8801)">
                    <path d="M0,-41.998C0.448,-42.813 0.573,-42.859 1.496,-42.481C6.931,-40.251 12.361,-38.008 17.8,-35.79C23.978,-33.27 30.164,-30.771 36.345,-28.258C36.677,-28.123 36.989,-27.936 37.311,-27.773C37.775,-27.422 37.738,-27.061 37.416,-26.604C34.805,-22.901 32.122,-19.248 29.543,-15.523C26.564,-11.22 23.418,-7.034 20.516,-2.675C19.848,-1.671 19.154,-0.673 18.348,0.236C18.042,0.354 17.905,0.861 17.447,0.629C17.362,0.238 17.626,-0.013 17.837,-0.266C18.697,-1.301 19.149,-2.576 19.994,-3.762C19.444,-3.711 19.132,-3.478 18.83,-3.224C18.435,-2.892 17.963,-2.801 17.544,-3.061C17.007,-3.396 16.448,-3.408 15.868,-3.378C14.932,-3.328 14.069,-3.604 13.171,-3.827C11.758,-4.178 10.398,-4.674 9.033,-5.147C8.081,-5.477 7.155,-5.912 6.234,-6.329C4.908,-6.93 3.575,-7.478 2.15,-7.808C1.23,-8.021 0.323,-8.316 -0.36,-9.04C-0.517,-9.206 -0.717,-9.29 -0.941,-9.309C-1.266,-9.337 -1.546,-9.466 -1.809,-9.651C-2.651,-10.244 -3.621,-10.547 -4.586,-10.852C-5.063,-11.002 -5.375,-11.387 -5.818,-11.599C-7.323,-12.322 -8.881,-12.918 -10.407,-13.589C-11.098,-13.893 -11.716,-14.313 -12.121,-14.996C-12.306,-15.306 -12.615,-15.526 -12.894,-15.76C-13.222,-16.036 -13.432,-16.386 -13.514,-16.803C-13.577,-17.12 -13.588,-17.454 -13.294,-17.668C-13.008,-17.876 -12.704,-17.849 -12.432,-17.607C-12.281,-17.339 -12.295,-17.006 -12.095,-16.757C-11.957,-16.559 -11.779,-16.401 -11.594,-16.25C-10.867,-15.689 -9.975,-15.483 -9.151,-15.143C-3.733,-12.908 1.693,-10.691 7.123,-8.484C9.434,-7.544 11.728,-6.563 14.061,-5.676C14.36,-5.563 14.657,-5.477 14.973,-5.456C15.502,-5.253 15.928,-5.385 16.374,-5.744C17.105,-6.333 17.709,-7.014 18.154,-7.829C18.379,-8.242 18.714,-8.558 18.981,-8.931C21.444,-12.38 23.982,-15.774 26.489,-19.19C27.577,-20.671 28.729,-22.108 29.669,-23.7C30.499,-25.106 30.308,-25.727 28.769,-26.255C24.576,-28.034 20.349,-29.728 16.134,-31.453C11.897,-33.186 7.675,-34.957 3.44,-36.697C2.548,-37.064 1.826,-37.089 1.126,-36.41C0.538,-36.357 0.147,-36.61 0.011,-37.187C-0.06,-37.487 -0.247,-37.692 -0.425,-37.919C-0.688,-38.253 -0.639,-38.52 -0.178,-38.562C0.105,-38.587 0.32,-38.682 0.524,-38.873C0.846,-39.175 0.942,-39.442 0.525,-39.749C0.229,-39.967 0.167,-40.261 0.216,-40.642C0.277,-41.113 -0.159,-41.639 0.421,-42.057C0.266,-41.967 0.15,-41.88 0,-41.998" style="fill:rgb(193,194,194);fill-rule:nonzero;"/>
                </g>
                <g transform="matrix(1,0,0,1,492.3795,1239.4871)">
                    <path d="M0,-42.605C0.305,-42.634 0.382,-43.032 0.708,-43.051C0.784,-42.768 0.603,-42.587 0.478,-42.39C0.319,-42.141 -0.164,-41.878 0.537,-41.693C0.734,-41.641 0.617,-41.512 0.54,-41.427C0.123,-40.961 0.337,-40.644 0.786,-40.385C1.212,-40.14 1.264,-39.855 0.853,-39.559C0.513,-39.314 0.36,-38.661 -0.292,-39.032C-0.393,-39.09 -0.564,-38.862 -0.402,-38.741C0.009,-38.433 0.158,-38.028 0.269,-37.541C0.334,-37.255 0.775,-37.211 1.042,-37.052C1.136,-36.631 0.821,-36.377 0.621,-36.096C-2.463,-31.781 -5.563,-27.477 -8.702,-23.201C-9.862,-21.62 -11.047,-20.055 -12.12,-18.411C-12.21,-18.273 -12.27,-18.096 -12.483,-18.102C-12.741,-18.21 -13.025,-18.389 -13.259,-18.118C-13.465,-17.879 -13.415,-17.559 -13.303,-17.288C-13.176,-16.982 -13.043,-16.689 -12.733,-16.475C-12.299,-16.175 -11.882,-15.815 -11.676,-15.304C-11.498,-14.862 -11.038,-14.785 -10.715,-14.593C-10.197,-14.285 -9.681,-13.944 -9.038,-13.819C-8.064,-13.63 -7.213,-13.079 -6.338,-12.629C-5.795,-12.35 -5.236,-12.1 -4.717,-11.746C-4.4,-11.53 -3.836,-11.251 -3.352,-11.189C-2.634,-11.098 -2.162,-10.502 -1.546,-10.352C-0.182,-10.02 0.713,-8.819 2.135,-8.593C3.678,-8.348 5.068,-7.595 6.516,-7.032C7.542,-6.634 8.494,-6.035 9.626,-5.817C10.311,-5.684 10.978,-5.171 11.702,-5.031C13.372,-4.708 14.955,-3.774 16.749,-4.261C16.974,-4.322 17.102,-4.159 17.254,-4.04C17.801,-3.613 18.357,-3.506 18.841,-4.113C19.149,-4.499 19.721,-4.387 20.009,-4.787C20.029,-4.814 20.163,-4.804 20.194,-4.768C20.313,-4.633 20.227,-4.494 20.158,-4.37C19.74,-3.613 19.291,-2.872 18.904,-2.099C18.515,-1.321 17.805,-0.755 17.505,0.076C17.485,0.446 17.183,0.379 16.966,0.4C16.571,0.439 16.198,0.32 15.835,0.172C11.303,-1.675 6.753,-3.481 2.227,-5.343C-1.74,-6.976 -5.742,-8.52 -9.704,-10.168C-12.567,-11.36 -15.441,-12.532 -18.342,-13.637C-18.637,-13.749 -18.931,-13.883 -19.243,-13.915C-19.862,-13.977 -20.141,-14.285 -20.054,-14.908C-19.397,-16.153 -18.48,-17.221 -17.669,-18.359C-14.949,-22.176 -12.195,-25.968 -9.445,-29.763C-7.191,-32.874 -4.928,-35.978 -2.661,-39.079C-2.081,-39.872 -1.471,-40.643 -0.874,-41.425C-0.526,-41.774 -0.248,-42.178 0.014,-42.594L0,-42.605Z" style="fill:rgb(197,198,198);fill-rule:nonzero;"/>
                </g>
                <g transform="matrix(1,0,0,1,511.7751,1253.1641)">
                    <path d="M0,10.563C0.35,11.108 0.994,11.038 1.493,11.27C1.575,11.308 1.69,11.27 1.778,11.301C2.039,11.393 2.456,11.343 2.507,11.65C2.557,11.952 2.158,11.975 1.933,12.094C1.856,12.134 1.813,12.238 1.754,12.313C1.787,12.415 1.759,12.507 1.685,12.573C0.822,13.335 0.899,14.223 1.331,15.161C1.348,15.198 1.316,15.247 1.281,15.286C0.45,15.587 -0.234,15.12 -0.958,14.861C-4.624,13.348 -8.308,11.879 -11.97,10.355C-15.875,8.73 -19.803,7.163 -23.712,5.547C-23.756,5.529 -23.807,5.531 -23.855,5.525C-25.155,4.953 -26.455,4.383 -27.798,3.919C-29.303,3.195 -30.872,2.624 -32.408,1.978C-33.812,1.387 -35.228,0.824 -36.628,0.225C-36.744,0.175 -36.853,0.137 -36.973,0.202C-37.882,-0.072 -38.351,-0.632 -38.176,-1.625C-38.143,-1.813 -38.172,-2.012 -38.172,-2.205C-38.169,-3.439 -38.094,-3.563 -36.934,-4.013C-36.036,-4.362 -35.129,-4.688 -34.226,-5.024C-34.515,-4.09 -34.365,-3.648 -33.488,-3.276C-30.814,-2.143 -28.125,-1.048 -25.444,0.067C-21.716,1.617 -17.99,3.171 -14.264,4.723C-13.834,4.954 -13.462,4.603 -13.055,4.601C-12.597,4.479 -12.205,4.714 -11.79,4.83C-11.682,4.846 -11.578,4.877 -11.476,4.915C-10.306,5.409 -9.123,5.872 -7.94,6.333C-7.647,6.486 -7.3,6.492 -7.015,6.669C-6.708,6.958 -6.207,6.953 -5.975,7.355C-5.895,7.992 -5.536,8.322 -4.929,8.569C-3.287,9.237 -1.679,9.987 0,10.563" style="fill:rgb(188,190,190);fill-rule:nonzero;"/>
                </g>
                <g transform="matrix(1,0,0,1,510.6166,1213.8461)">
                    <path d="M0,25.135C0.985,23.885 1.88,22.57 2.794,21.267C4.694,18.559 6.619,15.868 8.527,13.165C9.543,11.727 10.536,10.272 11.555,8.837C13.483,6.123 15.424,3.419 17.356,0.708C17.958,-0.136 18.529,-1.004 19.154,-1.83C19.434,-2.2 19.216,-2.448 19.074,-2.739C20.527,-1.797 21.678,-0.498 22.997,0.604C26.642,3.649 30.265,6.721 33.894,9.786C34.857,10.599 35.805,11.43 36.77,12.239C37.224,12.62 37.292,13.031 36.94,13.502C36.665,13.87 36.38,14.232 36.089,14.588C35.727,15.03 35.278,15.178 34.734,14.951C34.403,14.814 34.073,14.675 33.743,14.536C33.09,13.986 32.499,13.365 31.89,12.771C29.86,10.79 27.643,9.028 25.5,7.18C23.669,5.6 21.825,4.034 20.028,2.414C19.751,2.165 19.42,1.616 19.028,2.329C18.589,3.067 18.039,3.728 17.558,4.436C17.422,4.635 17.276,4.819 17.041,4.909C14.805,8.06 12.569,11.212 10.333,14.364C7.902,17.79 5.471,21.215 3.041,24.642C2.653,25.191 2.275,25.747 1.892,26.299C1.713,26.943 1.253,27.327 0.679,27.603C0.327,27.718 -0.022,27.874 -0.396,27.683C-0.545,27.307 -0.564,26.899 -0.666,26.51C-0.822,25.91 -0.315,25.551 0,25.135" style="fill:rgb(136,138,138);fill-rule:nonzero;"/>
                </g>
                <g transform="matrix(1,0,0,1,510.7627,1251.4637)">
                    <path d="M0,16.482C0.734,16.75 1.469,17.017 2.274,16.896C2.824,16.376 3.593,16.318 4.228,15.975C4.423,15.869 4.638,15.87 4.605,15.499C4.568,15.074 4.878,14.726 5.266,14.527C5.799,14.255 6.225,13.872 6.56,13.385C7.295,12.316 8.548,11.958 9.62,11.146C8.472,11.233 7.436,11.398 6.397,11.524C6.107,11.559 5.819,11.601 5.528,11.566C5.358,11.546 5.148,11.527 5.1,11.348C5.04,11.13 5.235,11.008 5.396,10.899C5.537,10.803 5.695,10.738 5.851,10.672C10.458,8.742 15.082,6.852 19.691,4.928C23.494,3.341 27.34,1.857 31.124,0.223C31.325,0.136 31.538,0.102 31.737,0.018C31.788,-0.319 31.839,-0.655 31.89,-0.992C33.004,-0.909 33.974,-0.462 34.848,0.208C35.042,0.356 35.124,0.602 35.195,0.836C35.259,1.046 35.287,1.263 35.289,1.481C35.31,3.382 35.42,3.748 33.431,4.593C30.221,5.958 26.998,7.295 23.778,8.638C17.472,11.266 11.17,13.902 4.846,16.485C3.792,16.916 2.787,17.474 1.587,17.231C1.012,17.019 0.437,16.808 -0.138,16.596C-0.153,16.484 -0.15,16.394 0,16.482" style="fill:rgb(132,134,134);fill-rule:nonzero;"/>
                </g>
                <g transform="matrix(1,0,0,1,510.6166,1227.3581)">
                    <path d="M0,11.623C0.007,11.969 -0.386,12.095 -0.434,12.414C-0.481,12.732 -0.653,13.072 -0.361,13.347C-0.051,13.639 -0.289,13.847 -0.428,14.079C-0.967,14.402 -1.456,14.093 -1.921,13.907C-2.789,13.559 -3.66,13.217 -4.52,12.847C-4.685,12.778 -4.844,12.697 -5.016,12.645C-5.497,12.441 -5.987,12.259 -6.463,12.041C-7.139,11.758 -7.817,11.479 -8.511,11.24C-8.813,11.14 -9.093,10.986 -9.39,10.873C-10.57,10.375 -11.762,9.906 -12.952,9.431C-13.317,9.299 -13.673,9.146 -14.027,8.989C-14.573,8.749 -15.132,8.542 -15.686,8.321C-16.348,8.051 -17.014,7.794 -17.676,7.524C-19.102,6.924 -20.526,6.322 -21.98,5.792C-22.247,5.686 -22.523,5.602 -22.784,5.479C-24.177,4.904 -25.554,4.287 -26.976,3.785C-27.458,3.558 -27.992,3.457 -28.449,3.173C-29.025,2.907 -29.62,2.688 -30.213,2.461C-30.773,2.154 -31.473,2.116 -31.919,1.587C-32.346,1.434 -32.733,1.173 -33.196,1.12C-34.514,0.436 -35.932,-0.011 -37.29,-0.603C-38.339,-1.06 -38.628,-1.69 -38.291,-2.779C-38.208,-2.24 -37.86,-2.069 -37.352,-1.942C-35.596,-1.502 -33.989,-0.653 -32.308,-0.006C-30.625,0.642 -28.958,1.328 -27.288,2.007C-24.991,2.941 -22.701,3.894 -20.402,4.821C-18.235,5.695 -16.054,6.535 -13.888,7.41C-12.3,8.051 -10.746,8.783 -9.139,9.371C-6.812,10.223 -4.553,11.235 -2.255,12.152C-1.768,12.346 -1.251,12.521 -0.732,12.205C-0.488,12.011 -0.244,11.817 0,11.623" style="fill:rgb(173,174,174);fill-rule:nonzero;"/>
                </g>
                <g transform="matrix(1,0,0,1,527.6574,1243.8816)">
                    <path d="M0,-25.127C0.621,-26.001 1.241,-26.875 1.862,-27.749C2.507,-27.644 2.891,-27.131 3.348,-26.756C6.832,-23.892 10.212,-20.907 13.677,-18.02C14.05,-17.709 14.39,-17.362 14.713,-17C14.91,-16.78 15.097,-16.539 14.856,-16.229C14.862,-15.037 14.868,-13.844 14.874,-12.651C14.863,-9.67 14.848,-6.689 14.841,-3.708C14.836,-1.602 14.84,0.504 14.707,2.622L14.707,1.932C14.705,-3.789 14.691,-9.511 14.715,-15.232C14.718,-15.863 14.492,-16.145 13.954,-16.438C12.067,-17.466 10.342,-18.75 8.571,-19.964C7.177,-20.92 5.927,-22.069 4.459,-22.926C3.86,-23.275 3.337,-23.755 2.78,-24.177C2.085,-24.704 1.412,-25.29 0.442,-24.791C0.1,-24.616 0.192,-25.071 0,-25.127" style="fill:rgb(148,150,151);fill-rule:nonzero;"/>
                </g>
                <g transform="matrix(1,0,0,1,542.5135,1216.1525)">
                    <path d="M0,11.5C-0.041,10.642 -0.791,10.309 -1.31,9.86C-4.438,7.157 -7.606,4.5 -10.763,1.83C-11.501,1.206 -12.25,0.596 -12.994,-0.02C-12.839,-0.691 -12.521,-0.73 -12.032,-0.296C-10.716,0.875 -9.401,2.045 -8.064,3.191C-5.868,5.073 -3.612,6.89 -1.468,8.828C-0.441,9.757 0.682,10.617 1.477,11.782C1.59,11.946 1.973,11.883 1.846,12.23C1.231,11.986 0.615,11.743 0,11.5" style="fill:rgb(112,113,113);fill-rule:nonzero;"/>
                </g>
                <g transform="matrix(1,0,0,1,510.7627,1258.7317)">
                    <path d="M0,9.214C-0.046,9.252 -0.092,9.29 -0.138,9.328C-4.913,7.372 -9.689,5.416 -14.464,3.46C-17.267,2.312 -20.069,1.163 -22.871,0.014C-22.911,-0.015 -22.924,-0.044 -22.91,-0.072C-22.896,-0.1 -22.882,-0.114 -22.869,-0.114C-21.395,0.286 -20.027,0.965 -18.621,1.536C-12.464,4.034 -6.32,6.566 -0.173,9.087C-0.109,9.114 -0.057,9.171 0,9.214" style="fill:rgb(144,146,147);fill-rule:nonzero;"/>
                </g>
                <g transform="matrix(1,0,0,1,474.8025,1256.9646)">
                    <path d="M0,-3.599C0.08,-3.72 0.195,-3.735 0.316,-3.685C3.236,-2.473 6.156,-1.259 9.074,-0.043C9.114,-0.026 9.14,0.025 9.172,0.059C9.11,0.129 9.042,0.136 8.967,0.082C5.978,-1.145 2.989,-2.372 0,-3.599" style="fill:rgb(144,146,147);fill-rule:nonzero;"/>
                </g>
                <g transform="matrix(-0.355911,0.93452,0.93452,0.355911,487.348993,1256.255805)">
                    <path d="M2.013,-3.064C1.982,-3.003 1.951,-2.942 1.919,-2.88C1.81,-1.467 1.857,-0.057 2.013,1.35C2.053,1.363 2.094,1.379 2.134,1.393C2.093,-0.093 2.053,-1.578 2.013,-3.064" style="fill:rgb(144,146,147);fill-rule:nonzero;"/>
                </g>
                <g transform="matrix(1,0,0,1,492.3933,1198.0624)">
                    <path d="M0,-1.169C-0.133,-0.656 -0.419,-0.258 -0.888,0C-0.668,-0.448 -0.405,-0.862 0,-1.169" style="fill:rgb(193,194,194);fill-rule:nonzero;"/>
                </g>
                <g transform="matrix(1,0,0,1,504.615,1241.6069)">
                    <path d="M0,18.293C-0.234,18.237 -0.469,18.181 -0.703,18.125C-1.874,17.459 -3.152,17.053 -4.408,16.591C-4.489,16.585 -4.57,16.578 -4.65,16.571C-4.779,16.459 -4.916,16.35 -5.077,16.3C-5.618,16.129 -5.726,15.73 -5.721,15.223C-5.708,14.013 -5.717,12.803 -5.717,11.594C-5.718,7.989 -5.718,4.384 -5.717,0.779C-5.717,0.537 -5.73,0.294 -5.704,0.054C-5.643,-0.514 -5.472,-0.619 -4.949,-0.412C-4.617,-0.28 -4.306,-0.079 -3.926,-0.124C-2.462,0.469 -0.999,1.062 0.464,1.655C0.996,2.116 1.134,2.69 1.13,3.391C1.102,8.132 1.114,12.874 1.116,17.615C1.117,18.843 1.23,18.912 0,18.293" style="fill:rgb(132,134,134);fill-rule:nonzero;"/>
                </g>
                <g transform="matrix(1,0,0,1,492.9893,1257.8217)">
                    <path d="M0,-23.069C0.676,-22.819 1.353,-22.57 2.029,-22.321C1.915,-22.028 1.716,-21.712 2.303,-21.725C2.805,-21.737 3.201,-21.46 3.61,-21.173C3.624,-21.325 3.495,-21.482 3.64,-21.608C3.981,-21.465 4.322,-21.321 4.662,-21.177C4.835,-20.626 5.264,-20.356 5.785,-20.27C6.372,-20.173 6.903,-19.993 7.369,-19.616C7.7,-19.348 8.026,-19.347 8.301,-19.715C8.591,-19.615 8.881,-19.514 9.17,-19.413C9.419,-18.753 10.616,-18.246 11.209,-18.549C11.695,-18.354 12.181,-18.158 12.667,-17.963C12.658,-17.466 12.947,-17.826 13.106,-17.81C14.349,-17.4 15.495,-16.732 16.777,-16.426C16.913,-16.394 17.058,-16.397 17.199,-16.384C17.6,-16.309 17.968,-16.483 18.353,-16.531C18.694,-16.062 18.812,-15.511 18.843,-14.957C18.923,-13.531 19.102,-12.106 19.036,-10.678C18.972,-9.317 19.204,-7.972 19.151,-6.612C19.004,-2.91 19.258,0.793 19.16,4.496C19.147,4.973 19.174,5.463 18.934,5.907C18.882,5.904 18.831,5.902 18.779,5.899C18.344,5.511 18.53,4.983 18.555,4.547C18.725,1.619 18.633,-1.308 18.592,-4.236C18.58,-5.079 18.656,-5.923 18.632,-6.765C18.565,-9.08 18.457,-11.393 18.495,-13.71C18.502,-14.093 18.376,-14.442 17.971,-14.451C16.67,-14.48 15.573,-15.105 14.412,-15.562C13.066,-16.092 11.688,-16.555 10.347,-17.08C9.245,-17.512 8.106,-17.913 7.055,-18.502C5.427,-19.416 3.632,-19.963 1.937,-20.731C1.15,-21.088 0.353,-21.426 -0.421,-21.809C-0.92,-22.056 -1.413,-22.303 -1.948,-22.475C-3.346,-22.925 -4.687,-23.465 -5.975,-24.222C-7.123,-24.896 -8.493,-25.187 -9.747,-25.69C-11.478,-26.385 -13.129,-27.234 -14.591,-28.411C-14.698,-28.498 -14.823,-28.595 -14.795,-28.773C-14.664,-28.976 -14.413,-28.624 -14.292,-28.877C-13.703,-28.637 -13.115,-28.397 -12.526,-28.158C-11.936,-27.304 -11.672,-27.195 -10.776,-27.435C-10.293,-27.237 -9.81,-27.038 -9.327,-26.84C-9.14,-26.156 -8.666,-25.766 -7.991,-25.688C-7.377,-25.618 -6.803,-25.468 -6.271,-25.165C-5.88,-24.943 -5.493,-24.943 -5.093,-25.116C-4.842,-25.033 -4.57,-25.002 -4.362,-24.816C-4.478,-24.5 -4.354,-24.292 -4.052,-24.199C-3.037,-23.889 -2.133,-23.302 -1.111,-23.012C-0.74,-22.907 -0.357,-22.797 0,-23.069" style="fill:rgb(197,198,198);fill-rule:nonzero;"/>
                </g>
                <g transform="matrix(1,0,0,1,487.5862,1244.8483)">
                    <path d="M0,-8.751C0.053,-8.715 0.106,-8.679 0.159,-8.643C0.532,-8.427 0.698,-8.094 0.67,-7.674C0.56,-6.037 0.825,-4.407 0.714,-2.76C0.65,-1.817 0.815,-0.84 0.799,0.124C0.793,0.531 0.818,0.968 0.326,1.16C-0.596,0.804 -1.52,0.448 -2.37,-0.071C-3.571,-0.403 -3.702,-1.355 -3.702,-2.378C-3.701,-4.636 -3.966,-6.903 -3.432,-9.141C-3.248,-9.911 -3.278,-9.882 -2.487,-9.64C-1.642,-9.382 -0.904,-8.834 0,-8.751" style="fill:rgb(198,198,113);fill-rule:nonzero;"/>
                </g>
                <g transform="matrix(1,0,0,1,487.5862,1244.8483)">
                    <path d="M0,-8.751C0.053,-8.715 0.106,-8.679 0.159,-8.643C0.532,-8.427 0.698,-8.094 0.67,-7.674C0.56,-6.037 0.825,-4.407 0.714,-2.76C0.65,-1.817 0.815,-0.84 0.799,0.124C0.793,0.531 0.818,0.968 0.326,1.16C-0.596,0.804 -1.52,0.448 -2.37,-0.071C-3.571,-0.403 -3.702,-1.355 -3.702,-2.378C-3.701,-4.636 -3.966,-6.903 -3.432,-9.141C-3.248,-9.911 -3.278,-9.882 -2.487,-9.64C-1.642,-9.382 -0.904,-8.834 0,-8.751Z" style="fill:none;fill-rule:nonzero;stroke:rgb(35,35,35);stroke-width:1.02px;"/>
                </g>
                <g transform="matrix(1,0,0,1,489.0371,1247.4662)">
                    <path d="M0,-10.782C0.543,-10.554 1.123,-10.415 1.627,-10.096C1.658,-10.059 1.688,-10.005 1.729,-9.996C3.09,-9.707 3.394,-8.819 3.317,-7.53C3.181,-5.29 3.387,-3.044 3.365,-0.799C3.363,-0.515 3.432,-0.215 3.235,0.041C3.102,0.181 2.932,0.195 2.77,0.132C1.943,-0.187 1.087,-0.444 0.35,-0.965C-0.659,-1.316 -0.705,-2.159 -0.709,-3.026C-0.72,-5.461 -0.559,-7.897 -0.697,-10.331C-0.734,-10.977 -0.323,-10.775 0,-10.782Z" style="fill:rgb(198,198,113);fill-rule:nonzero;stroke:rgb(35,35,35);stroke-width:0.26px;"/>
                </g>
                <g transform="matrix(1,0,0,1,498.6706,1240.7603)">
                    <path d="M0,17.151C-0.366,17.436 -0.771,17.284 -1.165,17.25C-1.175,17.25 -1.189,17.212 -1.188,17.192C-1.187,17.17 -1.169,17.149 -1.159,17.127C-0.608,17.191 -0.749,16.781 -0.749,16.5C-0.741,13.504 -0.74,10.507 -0.741,7.51C-0.741,5.238 -0.752,2.966 -0.748,0.695C-0.747,0.217 -0.724,-0.285 0.005,-0.042C0.244,0.164 0.294,0.427 0.293,0.735C0.287,5.92 0.289,11.105 0.291,16.29C0.291,16.617 0.255,16.917 0,17.151" style="fill:rgb(148,150,151);fill-rule:nonzero;"/>
                </g>
                <g transform="matrix(1,0,0,1,482.6685,1234.3859)">
                    <path d="M0,9.942C-0.208,9.66 -0.299,9.347 -0.301,8.993C-0.312,6.233 -0.337,3.473 -0.343,0.713C-0.345,-0.159 -0.103,-0.294 0.72,0.06C0.946,0.406 0.914,0.798 0.914,1.182C0.917,3.595 0.916,6.007 0.914,8.419C0.914,8.781 0.92,9.142 0.998,9.498C0.764,10.187 0.654,10.236 0,9.942" style="fill:rgb(142,144,145);fill-rule:nonzero;"/>
                </g>
                <g transform="matrix(1,0,0,1,482.6685,1247.9529)">
                    <path d="M0,-3.625C0.372,-3.585 0.791,-3.448 0.853,-4.042C0.914,-4.082 0.98,-4.094 1.052,-4.083C1.513,-3.727 2.102,-3.609 2.573,-3.27C3.168,-3.022 3.762,-2.769 4.36,-2.53C4.649,-2.414 4.911,-2.271 5.097,-2.014C5.757,-2.169 6.294,-1.885 6.813,-1.538C7.673,-1.101 8.57,-0.755 9.478,-0.433C9.78,-0.612 9.646,-0.907 9.663,-1.156C9.727,-2.113 9.55,-3.077 9.762,-4.029C9.996,-2.808 9.91,-1.574 9.819,-0.354C9.767,0.347 9.401,0.469 8.731,0.201C6.09,-0.852 3.448,-1.903 0.811,-2.966C0.483,-3.098 0.113,-3.212 0,-3.625" style="fill:rgb(199,200,200);fill-rule:nonzero;"/>
                </g>
                <g transform="matrix(1,0,0,1,485.2415,1234.628)">
                    <path d="M0,10.055C-0.552,9.855 -1.133,9.717 -1.599,9.328C-1.71,9.009 -1.798,8.693 -1.796,8.345C-1.786,5.79 -1.786,3.235 -1.796,0.68C-1.798,0.31 -1.788,0 -1.301,0.02C-0.086,0.503 1.13,0.986 2.345,1.469C1.961,1.72 1.665,1.409 1.349,1.296C0.782,1.094 0.231,0.847 -0.329,0.623C-0.632,0.502 -0.779,0.469 -0.872,0.931C-1.182,2.482 -1.231,4.027 -1.17,5.605C-1.126,6.724 -1.143,7.839 -1.045,8.963C-0.97,9.809 -0.247,9.56 0.061,9.937C0.071,9.949 0.061,9.984 0.051,10.004C0.04,10.024 0.017,10.038 0,10.055" style="fill:rgb(102,104,105);fill-rule:nonzero;"/>
                </g>
                <g transform="matrix(1,0,0,1,498.6706,1240.9843)">
                    <path d="M0,16.927C0.178,16.454 0.146,15.96 0.147,15.469C0.15,10.536 0.153,5.604 0.156,0.671C0.156,0.351 0.181,0.026 0.005,-0.266C0.676,-0.011 1.347,0.244 2.019,0.499C1.665,0.764 1.367,0.48 1.097,0.352C0.535,0.086 0.443,0.292 0.444,0.815C0.454,4.477 0.445,8.14 0.443,11.802C0.443,13.087 0.469,14.373 0.439,15.658C0.425,16.234 0.461,16.72 1.119,16.906C1.251,16.943 1.292,17.063 1.294,17.193C0.852,17.155 0.476,16.798 0,16.927" style="fill:rgb(82,83,84);fill-rule:nonzero;"/>
                </g>
                <g transform="matrix(1,0,0,1,489.4815,1236.2053)">
                    <path d="M0,10.21C-0.555,9.99 -1.121,9.81 -1.716,9.734C-1.309,9.606 -1.314,9.26 -1.309,8.935C-1.296,7.922 -1.442,6.902 -1.393,5.905C-1.313,4.264 -1.542,2.634 -1.431,1C-1.405,0.62 -1.485,0.288 -1.736,0C-1.306,0.16 -0.875,0.319 -0.444,0.479C-0.846,0.547 -0.944,0.697 -0.906,1.17C-0.83,2.103 -0.956,3.064 -0.913,3.993C-0.83,5.793 -1.174,7.593 -0.874,9.389C-0.836,9.617 -0.732,9.703 -0.543,9.8C-0.345,9.901 -0.029,9.879 0,10.21" style="fill:rgb(86,87,88);fill-rule:nonzero;"/>
                </g>
                <g transform="matrix(1,0,0,1,504.615,1243.8809)">
                    <path d="M0,16.019C1.036,16.268 1.039,16.268 1.039,15.186C1.042,10.684 1.036,6.182 1.052,1.68C1.055,0.851 1.071,0.043 0.464,-0.619C1.018,-0.358 1.188,0.107 1.188,0.684C1.184,6.002 1.185,11.32 1.185,16.638C0.798,16.417 0.287,16.431 0,16.019" style="fill:rgb(84,85,86);fill-rule:nonzero;"/>
                </g>
                <g transform="matrix(1,0,0,1,492.4305,1241.0701)">
                    <path d="M0,2.854C-0.007,3.918 -0.006,4.983 -0.033,6.047C-0.036,6.187 0.17,6.554 -0.284,6.45C-0.12,6.184 -0.166,5.887 -0.165,5.6C-0.165,3.421 -0.225,1.241 -0.147,-0.935C-0.101,-2.225 -0.258,-3.254 -1.748,-3.538C-1.768,-3.542 -1.801,-3.565 -1.8,-3.576C-1.795,-3.618 -1.778,-3.659 -1.766,-3.7C-1.496,-3.602 -1.23,-3.494 -0.956,-3.409C-0.285,-3.202 -0.018,-2.75 -0.023,-2.055C-0.036,-0.419 -0.01,1.218 0,2.854" style="fill:rgb(76,77,77);fill-rule:nonzero;"/>
                </g>
                <g transform="matrix(1,0,0,1,483.9405,1243.7537)">
                    <path d="M0,-9.106C-0.287,-8.987 -0.428,-8.815 -0.425,-8.462C-0.406,-5.89 -0.401,-3.318 -0.429,-0.747C-0.433,-0.41 -0.105,-0.142 -0.298,0.202C-0.339,0.189 -0.379,0.174 -0.419,0.157C-0.466,-0.003 -0.554,-0.163 -0.555,-0.323C-0.569,-3.318 -0.651,-6.313 -0.552,-9.308C-0.368,-9.24 -0.184,-9.173 0,-9.106" style="fill:rgb(53,53,54);fill-rule:nonzero;"/>
                </g>
                <g transform="matrix(1,0,0,1,511.9235,1230.3836)">
                    <path d="M0,33.345C-0.037,30.197 0.128,27.044 -0.083,23.902C-0.195,22.238 0.199,20.588 -0.066,18.936C-0.208,18.048 -0.118,17.159 -0.138,16.271C-0.177,14.538 -0.141,12.801 -0.642,11.113C-0.659,11.056 -0.603,10.977 -0.582,10.907C-0.132,10.587 0.244,10.193 0.585,9.762C0.696,9.907 0.596,10.403 0.962,10.127C2.03,9.319 3.475,9.148 4.376,8.076C4.454,7.984 4.586,7.896 4.597,7.795C4.76,6.274 5.901,5.621 7.066,4.983C7.211,4.903 7.417,4.804 7.452,4.674C7.68,3.845 8.363,3.423 9.009,3.045C9.599,2.699 9.794,1.92 10.529,1.78C10.617,1.763 10.705,1.624 10.772,1.639C11.904,1.89 12.137,0.919 12.622,0.293C12.711,0.179 12.817,0.017 12.965,0.059C13.827,0.306 14.927,0 15.4,1.168C15.571,1.59 16.015,1.682 16.463,1.581C16.51,1.571 16.556,1.552 16.6,1.533C16.741,1.475 17,1.463 16.997,1.547C16.966,2.333 18.025,1.971 18.074,2.563C18.117,3.067 18.261,3.029 18.588,2.803C19.13,2.431 19.42,2.437 19.396,3.241C19.382,3.743 19.829,4.163 19.691,4.762C19.487,5.65 19.242,5.864 18.363,5.611C18.194,5.562 18.017,5.347 17.849,5.58C17.726,5.75 17.854,5.941 17.961,6.038C18.294,6.339 18.042,6.672 18.06,6.988C18.003,7.321 17.679,7.502 17.592,7.82C17.558,7.892 17.525,7.962 17.496,8.035C17.295,8.626 17.413,9.234 17.395,9.832C17.358,11.062 17.441,12.293 17.35,13.522C17.123,14.644 17.299,15.78 17.247,16.908C17.233,17.221 17.244,17.535 17.249,17.846C17.256,17.963 17.27,18.079 17.404,18.13C17.459,18.148 17.503,18.18 17.541,18.222C17.603,18.32 17.627,18.431 17.655,18.54C17.69,18.676 17.766,18.8 17.765,18.945C17.685,19.034 17.524,19.141 17.539,19.209C17.742,20.112 17.069,20.411 16.498,20.818C15.891,21.25 15.317,21.771 14.741,22.196C13.97,22.765 13.209,23.513 12.203,23.733C11.54,23.878 11.264,24.513 10.696,24.797C9.82,25.234 8.948,25.713 8.135,26.248C7.251,26.829 6.255,27.201 5.459,28.002C4.821,28.644 4.007,29.221 3.153,29.669C2.223,30.157 1.507,30.869 0.966,31.797C0.663,32.319 0.462,32.918 0,33.345" style="fill:rgb(181,182,183);fill-rule:nonzero;"/>
                </g>
                <g transform="matrix(1,0,0,1,542.4999,1267.5878)">
                    <path d="M0,-16.106C-0.851,-15.329 -1.98,-15.12 -2.992,-14.696C-8.098,-12.557 -13.229,-10.479 -18.349,-8.374C-20.853,-7.345 -23.353,-6.306 -25.851,-5.263C-26.09,-5.164 -26.354,-5.088 -26.606,-4.76C-24.895,-4.678 -23.304,-5.246 -21.653,-5.072C-22.407,-4.738 -22.894,-4.054 -23.718,-3.803C-24.326,-3.618 -24.732,-2.992 -25.128,-2.479C-25.448,-2.065 -25.791,-1.729 -26.263,-1.496C-26.723,-1.269 -27.146,-0.988 -26.826,-0.346C-26.731,-0.157 -26.959,-0.214 -27.033,-0.177C-27.815,0.21 -28.619,0.543 -29.463,0.772C-29.731,0.624 -30.091,0.547 -29.866,0.088C-29.799,-0.048 -29.823,-0.248 -29.853,-0.409C-29.998,-1.209 -29.631,-1.734 -28.971,-2.111C-28.081,-2.217 -27.382,-2.784 -26.581,-3.103C-26.436,-3.161 -26.323,-3.278 -26.41,-3.442C-26.509,-3.628 -26.707,-3.698 -26.902,-3.702C-27.528,-3.716 -28.155,-3.705 -28.781,-3.718C-28.964,-3.721 -29.211,-3.623 -29.315,-3.825C-29.429,-4.047 -29.179,-4.158 -29.054,-4.285C-28.095,-5.258 -26.987,-5.984 -25.725,-6.541C-24.426,-7.114 -23.137,-7.726 -21.906,-8.455C-21.274,-8.83 -20.542,-9.053 -19.853,-9.328C-16.892,-10.51 -14.094,-12.048 -11.137,-13.241C-9.44,-13.926 -7.782,-14.725 -6.025,-15.228C-4.475,-15.672 -3.027,-16.449 -1.396,-16.62C-0.839,-16.678 -0.245,-16.878 0,-16.106" style="fill:rgb(148,150,151);fill-rule:nonzero;"/>
                </g>
                <g transform="matrix(1,0,0,1,532.7259,1245.7985)">
                    <path d="M0,-9.318C1.226,-9.836 2.452,-10.353 3.679,-10.871C4.091,-10.814 4.154,-10.508 4.155,-10.177C4.167,-7.132 4.173,-4.087 4.152,-1.042C4.151,-0.797 4.084,-0.565 3.978,-0.346C3.881,-0.078 3.669,0.07 3.42,0.18C2.411,0.625 1.354,0.959 0.396,1.517C0.334,1.553 0.255,1.519 0.185,1.498C-0.351,1.115 -0.295,0.504 -0.303,-0.019C-0.335,-2.363 -0.364,-4.709 -0.313,-7.053C-0.297,-7.811 -0.417,-8.608 0,-9.318Z" style="fill:rgb(198,198,113);fill-rule:nonzero;stroke:rgb(35,35,35);stroke-width:0.26px;"/>
                </g>
                <g transform="matrix(1,0,0,1,530.8318,1247.9533)">
                    <path d="M0,-10.763C0.307,-10.881 0.614,-10.999 0.921,-11.117C1.469,-11.226 1.653,-11.048 1.644,-10.45C1.603,-7.763 1.627,-5.075 1.627,-2.387C1.627,-2.29 1.614,-2.191 1.628,-2.096C1.832,-0.788 1.664,-0.54 0.193,-0.047C-0.153,0.069 -0.462,0.271 -0.816,0.363C-1.201,0.463 -1.426,0.322 -1.472,-0.08C-1.502,-0.346 -1.493,-0.613 -1.494,-0.879C-1.502,-3.74 -1.479,-6.6 -1.506,-9.46C-1.501,-9.594 -1.528,-9.736 -1.421,-9.848L-1.425,-9.838C-1.093,-10.366 -0.636,-10.703 0,-10.763Z" style="fill:rgb(198,198,113);fill-rule:nonzero;stroke:rgb(35,35,35);stroke-width:0.26px;"/>
                </g>
                <g transform="matrix(1,0,0,1,533.0461,1236.551)">
                    <path d="M0,10.729C0.547,9.991 1.486,10.011 2.201,9.596C2.611,9.357 3.119,9.312 3.493,8.986C3.779,8.589 3.784,8.133 3.783,7.671C3.775,4.51 3.793,1.349 3.772,-1.812C4.505,-2.049 4.797,-1.885 4.8,-1.156C4.812,2.111 4.797,5.377 4.808,8.644C4.81,9.29 4.416,9.629 3.918,9.84C1.596,10.824 -0.739,11.779 -3.071,12.74C-3.157,12.775 -3.262,12.766 -3.358,12.778C-3.49,12.699 -3.589,12.594 -3.609,12.433C-3.614,12.038 -3.479,11.808 -3.054,11.654C-2.354,11.4 -1.631,11.178 -0.982,10.806C-0.644,10.612 -0.329,10.721 0,10.729" style="fill:rgb(128,130,129);fill-rule:nonzero;"/>
                </g>
                <g transform="matrix(1,0,0,1,533.0461,1238.184)">
                    <path d="M0,9.096C-1.047,9.235 -1.963,9.753 -2.942,10.091C-3.321,10.221 -3.528,10.431 -3.609,10.8C-3.631,10.669 -3.652,10.537 -3.674,10.405C-3.909,10.113 -3.851,9.764 -3.853,9.431C-3.871,6.488 -3.752,3.546 -3.786,0.602C-3.779,0.456 -3.744,0.321 -3.633,0.215C-3.402,0.434 -3.502,0.718 -3.501,0.973C-3.492,3.737 -3.493,6.502 -3.492,9.266L-3.492,10.083C-2.627,9.733 -1.848,9.418 -1.069,9.104C-0.764,8.981 -0.736,8.727 -0.736,8.445C-0.739,5.341 -0.76,2.237 -0.717,-0.866C-0.709,-1.42 -1.128,-1.164 -1.293,-1.347C-0.969,-1.466 -0.644,-1.585 -0.32,-1.704C-0.507,0.809 -0.447,3.326 -0.426,5.841C-0.419,6.721 -0.492,7.609 -0.322,8.491C-0.271,8.752 -0.17,8.927 0,9.096" style="fill:rgb(66,66,67);fill-rule:nonzero;"/>
                </g>
                <g transform="matrix(1,0,0,1,536.8176,1245.5368)">
                    <path d="M0,-10.798C0.257,-10.621 0.139,-10.353 0.139,-10.13C0.149,-7.17 0.146,-4.21 0.147,-1.25C0.147,-0.784 0.145,-0.321 -0.279,0C-0.087,-0.712 -0.141,-1.44 -0.14,-2.164C-0.137,-4.699 -0.139,-7.235 -0.137,-9.771C-0.137,-10.082 -0.09,-10.406 -0.413,-10.61C-0.275,-10.672 -0.138,-10.735 0,-10.798" style="fill:rgb(66,66,67);fill-rule:nonzero;"/>
                </g>
                <g transform="matrix(1,0,0,1,479.8963,1212.9241)">
                    <path d="M0,8.461C1.164,6.446 2.638,4.647 3.995,2.767C7.181,-1.645 10.428,-6.013 13.525,-10.489C14.327,-11.419 14.572,-11.48 15.64,-11.043C23.848,-7.682 32.057,-4.323 40.263,-0.958C40.62,-0.812 40.955,-0.612 41.3,-0.437C41.373,-0.415 41.416,-0.366 41.434,-0.293C41.303,0.371 40.905,0.907 40.501,1.406C38.687,3.647 37.148,6.084 35.433,8.394C33.588,10.879 31.819,13.419 29.911,15.857C29.139,16.788 28.423,17.762 27.738,18.756C27.515,19.08 27.282,19.388 26.968,19.616C26.59,19.89 26.183,19.941 25.736,19.741C23.8,18.872 21.784,18.191 19.853,17.317C17.472,16.24 15.007,15.378 12.603,14.357C10.691,13.544 8.792,12.692 6.84,11.966C5.057,11.303 3.284,10.607 1.545,9.831C1.126,9.643 0.657,9.582 0.274,9.312C0.018,9.081 -0.026,8.782 0,8.461" style="fill:rgb(232,233,234);fill-rule:nonzero;"/>
                </g>
                <g transform="matrix(1,0,0,1,521.2552,1233.702)">
                    <path d="M0,-21.081C-0.02,-21.126 -0.039,-21.171 -0.059,-21.215C0.256,-21.179 0.556,-21.099 0.812,-20.901C1.633,-20.269 1.719,-19.639 1.093,-18.648C0.297,-17.387 -0.576,-16.182 -1.464,-14.982C-2.667,-13.355 -3.865,-11.723 -5.06,-10.09C-6.651,-7.915 -8.186,-5.697 -9.819,-3.554C-10.671,-2.437 -11.287,-1.124 -12.527,-0.301C-12.991,0.007 -13.359,0.134 -13.846,-0.11C-13.871,-0.157 -13.886,-0.223 -13.853,-0.242C-12.074,-1.229 -11.213,-3.037 -10.068,-4.57C-9.04,-5.946 -7.971,-7.294 -7.005,-8.72C-5.729,-10.605 -4.321,-12.397 -3.015,-14.262C-2.237,-15.373 -1.479,-16.502 -0.615,-17.549C-0.131,-18.137 0.139,-18.846 0.592,-19.447C0.699,-19.59 0.709,-19.762 0.635,-19.925C-3.843,-13.712 -8.344,-7.514 -12.858,-1.325C-13.153,-0.919 -13.419,-0.462 -13.972,-0.338C-14.524,-0.505 -14.306,-0.832 -14.113,-1.117C-13.68,-1.759 -13.231,-2.389 -12.752,-2.998C-11.6,-4.462 -10.628,-6.06 -9.486,-7.526C-8.237,-9.129 -7.179,-10.872 -5.841,-12.404C-5.581,-12.711 -5.374,-13.05 -5.217,-13.42C-3.784,-15.478 -2.307,-17.504 -0.805,-19.511C-0.455,-19.98 -0.025,-20.434 0,-21.081" style="fill:rgb(165,167,166);fill-rule:nonzero;"/>
                </g>
                <g transform="matrix(1,0,0,1,507.2305,1213.5564)">
                    <path d="M0,19.708C0.818,19.283 1.196,18.459 1.7,17.769C5.687,12.316 9.651,6.845 13.61,1.37C13.971,0.872 14.416,0.408 14.503,-0.328C14.962,0.162 14.991,0.494 14.636,1.044C12.683,4.068 10.46,6.897 8.387,9.833C7.181,11.541 5.876,13.179 4.682,14.895C3.785,16.184 2.817,17.417 1.897,18.688C1.454,19.301 0.915,19.794 0.179,20.036C-1.091,19.978 -2.173,19.331 -3.304,18.872C-10.19,16.082 -17.065,13.268 -23.929,10.425C-24.85,10.044 -25.888,9.867 -26.632,9.11C-26.337,8.915 -26.081,9.082 -25.814,9.193C-20.114,11.581 -14.373,13.868 -8.661,16.227C-6.019,17.319 -3.381,18.421 -0.714,19.449C-0.473,19.525 -0.256,19.671 0,19.708" style="fill:rgb(124,126,125);fill-rule:nonzero;"/>
                </g>
                <g transform="matrix(1,0,0,1,506.5336,1222.1819)">
                    <path d="M0,10.996C-1.82,10.417 -3.547,9.605 -5.311,8.888C-12.033,6.153 -18.739,3.378 -25.452,0.621C-25.606,0.558 -25.774,0.529 -25.935,0.485C-26.111,0.375 -26.273,0.25 -26.363,0.054C-25.423,0 -24.657,0.551 -23.844,0.866C-23.018,1.186 -22.147,1.441 -21.372,1.819C-20.304,2.34 -19.18,2.684 -18.102,3.156C-15.694,4.21 -13.256,5.193 -10.828,6.199C-9.52,6.741 -8.198,7.275 -6.89,7.802C-5.143,8.505 -3.479,9.466 -1.599,9.834C-1.484,9.857 -1.372,9.92 -1.268,9.981C-0.134,10.644 0.217,10.498 0.966,9.372C1.642,8.355 2.327,7.329 3.204,6.46C3.439,6.711 3.241,6.893 3.105,7.087C2.284,8.264 1.358,9.364 0.565,10.561C0.423,10.774 0.19,10.853 0,10.996" style="fill:rgb(213,214,214);fill-rule:nonzero;"/>
                </g>
                <g transform="matrix(1,0,0,1,500.2071,1259.7314)">
                    <path d="M0,-1.533C1.311,-1.206 2.586,-0.792 3.705,0C2.467,-0.503 1.196,-0.927 0,-1.533" style="fill:rgb(84,85,86);fill-rule:nonzero;"/>
                </g>
                <g transform="matrix(1,0,0,1,492.9893,1233.5207)">
                    <path d="M0,1.232C0.019,1.586 -0.146,1.747 -0.487,1.632C-1.198,1.393 -1.952,1.341 -2.608,0.85C-3.085,0.494 -3.764,0.409 -4.352,0.201C-4.543,0.134 -4.722,0.018 -4.747,-0.185C-4.78,-0.443 -4.563,-0.487 -4.362,-0.515C-2.856,-0.062 -1.415,0.553 0,1.232" style="fill:rgb(197,198,198);fill-rule:nonzero;"/>
                </g>
                <g transform="matrix(1,0,0,1,487.8965,1231.4421)">
                    <path d="M0,1.264C-0.187,1.694 -0.494,1.724 -0.884,1.549C-1.576,1.24 -2.225,0.857 -3.049,0.888C-3.628,0.91 -3.964,0.337 -4.379,-0.006C-4.638,-0.219 -4.306,-0.314 -4.234,-0.46C-2.777,0.002 -1.379,0.61 0,1.264" style="fill:rgb(197,198,198);fill-rule:nonzero;"/>
                </g>
                <g transform="matrix(0.173412,-0.984849,-0.984849,-0.173412,499.997382,1235.868311)">
                    <path d="M-1.98,-1.661C-2.517,-1.799 -2.769,-1.581 -2.535,-1.077C-2.165,-0.282 -2.106,0.554 -1.98,1.395C-1.932,1.71 -1.911,2.415 -1.172,2.175C-1.338,0.875 -1.613,-0.402 -1.98,-1.661" style="fill:rgb(197,198,198);fill-rule:nonzero;"/>
                </g>
                <g transform="matrix(1,0,0,1,496.6294,1236.5273)">
                    <path d="M0,-0.314C-0.144,0.029 0.639,0.119 0.263,0.436C-0.063,0.712 -0.133,0.132 -0.405,0.061C-0.741,-0.027 -0.989,-0.328 -1.416,-0.236C-1.661,-0.183 -2.048,-0.255 -2.137,-0.588C-2.254,-1.022 -1.722,-0.796 -1.611,-1.026C-1.074,-0.789 -0.537,-0.551 0,-0.314" style="fill:rgb(197,198,198);fill-rule:nonzero;"/>
                </g>
                <g transform="matrix(0.119882,-0.992788,-0.992788,-0.119882,503.349584,1238.00466)">
                    <path d="M-1.157,-0.994C-1.441,-1.066 -1.701,-1.106 -1.583,-0.663C-1.441,-0.131 -1.285,0.397 -1.157,0.932C-1.055,1.36 -0.834,1.33 -0.544,1.132C-0.741,0.422 -0.859,-0.313 -1.157,-0.994" style="fill:rgb(197,198,198);fill-rule:nonzero;"/>
                </g>
                <g transform="matrix(1,0,0,1,482.2137,1230.2605)">
                    <path d="M0,0.126C-0.218,0.303 -0.332,0.723 -0.737,0.482C-1.174,0.221 -1.869,0.19 -1.751,-0.597C-1.146,-0.406 -0.554,-0.187 0,0.126" style="fill:rgb(197,198,198);fill-rule:nonzero;"/>
                </g>
                <g transform="matrix(1,0,0,1,506.0952,1240.3246)">
                    <path d="M0,-0.313C-0.139,0.153 -0.485,-0.008 -0.668,-0.183C-0.851,-0.357 -0.44,-0.299 -0.439,-0.466C-0.293,-0.415 -0.146,-0.364 0,-0.313" style="fill:rgb(197,198,198);fill-rule:nonzero;"/>
                </g>
                <g transform="matrix(1,0,0,1,517.2048,1248.9566)">
                    <path d="M0,-5.44C0.056,-6.046 0.445,-6.384 0.963,-6.597C1.698,-6.9 2.442,-7.183 3.181,-7.474C3.817,-7.517 4.343,-7.864 4.911,-8.097L4.904,-8.093C4.987,-8.145 5.088,-8.15 5.176,-8.186C6.081,-8.556 6.371,-8.383 6.263,-7.396C6.011,-5.073 6.171,-2.747 6.155,-0.423C6.149,0.378 5.865,0.846 5.14,1.13C3.583,1.74 2.059,2.428 0.488,3.004C-0.044,3.116 0.036,2.741 0.036,2.435C0.035,0.531 0.041,-1.372 0.032,-3.275C0.029,-3.997 0.08,-4.72 0,-5.44Z" style="fill:rgb(198,198,113);fill-rule:nonzero;stroke:rgb(35,35,35);stroke-width:0.26px;"/>
                </g>
                <g transform="matrix(1,0,0,1,524.3029,1243.7708)">
                    <path d="M0,5.544C-0.157,6.386 -0.672,6.873 -1.478,7.129C-3.078,7.639 -4.604,8.335 -6.126,9.037C-6.738,9.319 -7.006,9.167 -7.125,8.44C-6.936,8.154 -6.606,8.122 -6.326,7.999C-4.83,7.385 -3.334,6.77 -1.834,6.166C-1.227,5.922 -0.999,5.549 -1.009,4.898C-1.04,2.942 -1.029,0.984 -1.016,-0.974C-1.01,-1.814 -0.863,-2.654 -1.027,-3.493C-0.493,-3.775 -0.146,-3.625 0.011,-3.042C0.141,-2.155 0.058,-1.264 0.065,-0.375C0.081,1.362 0.073,3.098 0.067,4.835C0.066,5.071 0.127,5.318 0,5.544" style="fill:rgb(134,136,136);fill-rule:nonzero;"/>
                </g>
                <g transform="matrix(1,0,0,1,523.2759,1251.8986)">
                    <path d="M0,-11.621C0.271,-11.451 0.142,-11.18 0.143,-10.96C0.151,-8.393 0.127,-5.825 0.152,-3.258C0.159,-2.514 -0.146,-2.1 -0.824,-1.839C-2.357,-1.248 -3.874,-0.616 -5.397,0C-5.464,-0.016 -5.51,-0.056 -5.538,-0.118C-4.139,-0.702 -2.747,-1.303 -1.34,-1.867C-0.151,-2.344 -0.144,-2.326 -0.143,-3.576C-0.142,-5.366 -0.123,-7.155 -0.15,-8.944C-0.157,-9.459 -0.003,-9.944 0.001,-10.452C0.006,-11.304 -0.018,-11.325 -0.811,-11.068C-0.922,-11.033 -1.048,-11.045 -1.168,-11.035C-0.831,-11.335 -0.403,-11.452 0,-11.621" style="fill:rgb(66,66,67);fill-rule:nonzero;"/>
                </g>
                <g transform="matrix(0.999931,0.011713,0.011713,-0.999931,529.195418,1248.586456)">
                    <path d="M0.058,-0C0.021,3.093 -0.016,6.186 -0.052,9.279C-0.054,9.492 -0.106,9.718 0.058,9.904C0.098,6.602 0.137,3.3 0.177,-0.001C0.137,-0 0.097,-0.001 0.058,-0" style="fill:rgb(175,176,176);fill-rule:nonzero;"/>
                </g>
                <g transform="matrix(1,0,0,1,517.738,1243.947)">
                    <path d="M0,7.834C0.047,7.873 0.094,7.912 0.141,7.951C-0.093,8.056 -0.327,8.16 -0.56,8.264C-0.551,5.366 -0.542,2.468 -0.533,-0.43C-0.346,-0.194 -0.434,0.083 -0.433,0.34C-0.423,2.686 -0.424,5.032 -0.42,7.379C-0.419,7.654 -0.507,8.021 0,7.834" style="fill:rgb(51,51,52);fill-rule:nonzero;"/>
                </g>
                <g transform="matrix(0.999839,0.01793,0.01793,-0.999839,524.225941,1249.312326)">
                    <path d="M0.077,-0.001C0.03,2.861 -0.018,5.722 -0.066,8.584C0.125,8.414 0.072,8.184 0.077,7.974C0.124,5.519 0.168,3.063 0.209,0.607C0.213,0.397 0.273,0.168 0.077,-0.001" style="fill:rgb(175,176,176);fill-rule:nonzero;"/>
                </g>
                <g transform="matrix(1,0,0,1,529.0953,1248.5845)">
                    <path d="M0,-4.646C0.003,-3.097 0.007,-1.549 0.01,0C-0.236,-0.242 -0.139,-0.553 -0.126,-0.829C-0.065,-2.101 -0.294,-3.382 0,-4.646" style="fill:rgb(175,176,176);fill-rule:nonzero;"/>
                </g>
                <g transform="matrix(1,0,0,1,522.1157,1241.586)">
                    <path d="M0,-0.726C-0.523,-0.37 -1.041,0 -1.73,-0.103C-1.142,-0.279 -0.622,-0.643 0,-0.726" style="fill:rgb(66,66,67);fill-rule:nonzero;"/>
                </g>
                <g transform="matrix(1,0,0,1,513.994,1219.0567)">
                    <path d="M0,-8.314C1.621,-7.845 3.156,-7.149 4.716,-6.519C6.103,-5.959 6.096,-5.948 5.214,-4.758C4.208,-3.4 3.191,-2.049 2.212,-0.672C1.926,-0.27 1.611,-0.067 1.127,-0.132C0.911,0 0.696,-0.086 0.501,-0.167C-0.86,-0.728 -2.265,-1.188 -3.573,-1.875C-4.358,-2.288 -4.446,-2.611 -3.95,-3.37C-2.972,-4.868 -1.834,-6.25 -0.802,-7.71C-0.6,-7.996 -0.292,-8.144 0,-8.314" style="fill:rgb(183,182,128);fill-rule:nonzero;"/>
                </g>
                <g transform="matrix(1,0,0,1,507.1502,1216.2056)">
                    <path d="M0,-7.787C0.364,-8.099 0.74,-8.128 1.192,-7.938C2.848,-7.243 4.516,-6.578 6.18,-5.902C6.431,-5.531 6.228,-5.218 6.032,-4.924C4.956,-3.31 3.759,-1.782 2.598,-0.23C2.245,0.242 1.773,0.341 1.24,0.097C-0.216,-0.57 -1.743,-1.058 -3.207,-1.703C-3.96,-2.034 -4.132,-2.417 -3.684,-3.054C-2.613,-4.581 -1.463,-6.053 -0.364,-7.561C-0.274,-7.684 -0.141,-7.742 0,-7.787" style="fill:rgb(183,182,128);fill-rule:nonzero;"/>
                </g>
                <g transform="matrix(1,0,0,1,510.5892,1228.8218)">
                    <path d="M0,-3.477C0.262,-3.224 0.209,-2.976 0.012,-2.708C-1.128,-1.152 -2.262,0.409 -3.399,1.967C-3.703,2.383 -4.069,2.547 -4.588,2.326C-6.139,1.666 -7.699,1.028 -9.256,0.382C-9.464,0.296 -9.614,0.145 -9.729,-0.044C-9.871,-0.383 -9.702,-0.647 -9.51,-0.897C-8.447,-2.282 -7.479,-3.738 -6.416,-5.123C-5.781,-5.949 -5.551,-6.024 -4.561,-5.615C-3.284,-5.088 -1.997,-4.586 -0.732,-4.028C-0.45,-3.904 -0.128,-3.814 0,-3.477" style="fill:rgb(183,182,128);fill-rule:nonzero;"/>
                </g>
                <g transform="matrix(1,0,0,1,500.5143,1220.5497)">
                    <path d="M0,7.781C-0.234,8.033 -0.483,8.121 -0.839,7.991C-2.517,7.38 -4.151,6.664 -5.782,5.94C-6.077,5.809 -6.183,5.616 -6.112,5.311C-6.121,4.946 -5.917,4.669 -5.724,4.391C-4.81,3.078 -3.816,1.824 -2.876,0.531C-2.324,-0.228 -1.836,-0.34 -0.975,0.036C0.358,0.617 1.738,1.077 3.076,1.645C4.042,2.056 4.168,2.384 3.559,3.218C2.558,4.586 1.557,5.955 0.543,7.314C0.397,7.51 0.239,7.693 0,7.781" style="fill:rgb(183,182,128);fill-rule:nonzero;"/>
                </g>
                <g transform="matrix(1,0,0,1,500.5529,1213.3227)">
                    <path d="M0,-7.411C0.432,-7.891 0.904,-7.906 1.486,-7.645C2.975,-6.979 4.485,-6.36 5.99,-5.73C6.244,-5.624 6.407,-5.495 6.311,-5.195C6.317,-4.888 6.177,-4.64 6.001,-4.401C4.997,-3.036 4.012,-1.659 2.973,-0.321C2.418,0.394 2.043,0.495 1.208,0.192C-0.18,-0.311 -1.544,-0.876 -2.905,-1.445C-3.912,-1.865 -3.998,-2.21 -3.369,-3.09C-2.44,-4.389 -1.471,-5.66 -0.548,-6.964C-0.409,-7.161 -0.262,-7.359 0,-7.411" style="fill:rgb(183,182,128);fill-rule:nonzero;"/>
                </g>
                <g transform="matrix(1,0,0,1,494.1114,1217.8179)">
                    <path d="M0,7.75C-0.318,8.025 -0.646,8.103 -1.064,7.931C-2.628,7.291 -4.201,6.675 -5.775,6.061C-6.079,5.942 -6.279,5.78 -6.247,5.428C-6.265,5.056 -6.032,4.792 -5.833,4.525C-4.818,3.17 -3.853,1.779 -2.853,0.414C-2.326,-0.304 -2.087,-0.353 -1.247,-0.02C0.259,0.577 1.719,1.282 3.242,1.836C3.825,2.048 3.986,2.432 3.661,2.915C2.581,4.518 1.464,6.097 0.247,7.6C0.186,7.675 0.085,7.705 0,7.75" style="fill:rgb(183,182,128);fill-rule:nonzero;"/>
                </g>
                <g transform="matrix(1,0,0,1,490.3844,1205.3068)">
                    <path d="M0,3.343C0.472,2.188 1.34,1.293 2.02,0.274C2.503,-0.449 3.066,-1.118 3.564,-1.832C3.914,-2.335 4.291,-2.533 4.905,-2.261C6.583,-1.519 8.278,-0.816 9.966,-0.098C10.212,0.262 9.94,0.537 9.772,0.78C8.725,2.296 7.585,3.745 6.532,5.257C6.175,5.771 5.725,5.876 5.136,5.673C3.552,5.128 2.031,4.425 0.457,3.858C0.211,3.769 0.042,3.612 0,3.343" style="fill:rgb(183,182,128);fill-rule:nonzero;"/>
                </g>
                <g transform="matrix(1,0,0,1,487.5945,1215.5454)">
                    <path d="M0,7.415C-0.267,7.933 -0.564,7.791 -1.019,7.585C-2.427,6.947 -3.88,6.409 -5.31,5.817C-6.052,5.509 -6.182,5.168 -5.731,4.54C-4.645,3.025 -3.52,1.537 -2.414,0.037C-2.265,-0.164 -2.07,-0.298 -1.853,-0.408C-1.535,-0.518 -1.238,-0.451 -0.94,-0.318C0.363,0.266 1.694,0.783 3.019,1.316C3.991,1.707 4.078,2.093 3.449,2.957C2.524,4.229 1.598,5.5 0.661,6.763C0.476,7.012 0.321,7.3 0,7.415" style="fill:rgb(183,182,128);fill-rule:nonzero;"/>
                </g>
                <g transform="matrix(1,0,0,1,515.1198,1222.7419)">
                    <path d="M0,-3.394C0.058,-3.122 0.035,-2.864 -0.138,-2.634C-1.361,-1.009 -2.474,0.697 -3.783,2.258C-4.502,2.539 -5.11,2.134 -5.714,1.887C-6.877,1.411 -8.04,0.938 -9.208,0.475C-9.947,0.182 -10.074,-0.138 -9.634,-0.796C-8.638,-2.287 -7.539,-3.705 -6.458,-5.135C-5.913,-5.857 -5.488,-5.933 -4.679,-5.563C-3.336,-4.951 -1.953,-4.436 -0.587,-3.882C-0.321,-3.774 -0.113,-3.657 0,-3.394" style="fill:rgb(183,182,128);fill-rule:nonzero;"/>
                </g>
                <g transform="matrix(1,0,0,1,486.0183,1211.4679)">
                    <path d="M0,3.281C-0.05,2.986 0.116,2.77 0.275,2.557C1.488,0.927 2.705,-0.701 3.921,-2.329C4.241,-2.527 4.557,-2.471 4.888,-2.343C6.376,-1.769 7.828,-1.104 9.33,-0.564C9.89,-0.363 10.065,0.122 9.721,0.599C8.587,2.172 7.463,3.751 6.31,5.309C6.016,5.708 5.583,5.808 5.135,5.64C3.503,5.027 1.898,4.35 0.302,3.65C0.131,3.575 0.018,3.472 0,3.281" style="fill:rgb(183,182,128);fill-rule:nonzero;"/>
                </g>
                <g transform="matrix(1,0,0,1,486.0183,1219.2379)">
                    <path d="M0,-4.489C1.681,-3.571 3.481,-2.927 5.261,-2.242C5.596,-2.113 5.924,-2.225 6.157,-2.546C7.295,-4.115 8.44,-5.678 9.582,-7.244C9.911,-7.695 9.774,-7.999 9.282,-8.198C7.781,-8.809 6.28,-9.422 4.781,-10.037C4.499,-10.153 4.212,-10.135 3.921,-10.099C3.959,-10.363 4.351,-10.304 4.366,-10.588C4.895,-10.085 5.614,-9.985 6.251,-9.719C7.342,-9.263 8.455,-8.858 9.552,-8.416C10.006,-8.234 10.371,-8.229 10.692,-8.678C11.832,-10.269 12.994,-11.846 14.144,-13.43C14.271,-13.605 14.396,-13.79 14.333,-14.029C14.75,-13.895 14.331,-13.521 14.535,-13.326C13.436,-11.82 12.337,-10.315 11.239,-8.808C10.726,-8.104 10.756,-7.924 11.57,-7.584C13.064,-6.959 14.572,-6.368 16.078,-5.771C16.538,-5.589 16.91,-5.692 17.215,-6.117C18.416,-7.788 19.634,-9.447 20.846,-11.11C20.941,-11.013 21.036,-10.916 21.132,-10.819C20.013,-9.302 18.896,-7.785 17.775,-6.269C17.163,-5.441 17.204,-5.235 18.144,-4.846C19.614,-4.237 21.099,-3.662 22.568,-3.049C23.016,-2.862 23.334,-3.012 23.581,-3.345C24.788,-4.977 25.984,-6.617 27.174,-8.262C27.313,-8.452 27.445,-8.674 27.312,-8.935C27.544,-8.804 27.508,-8.27 27.976,-8.495C26.536,-6.854 25.317,-5.046 24.041,-3.281C23.693,-2.799 23.831,-2.497 24.337,-2.26C25.893,-1.531 27.493,-0.91 29.102,-0.313C29.102,-0.172 29.102,-0.031 29.101,0.11C28.166,-0.513 27.065,-0.759 26.06,-1.224C25.382,-1.537 24.665,-1.765 23.969,-2.041C23.551,-2.207 23.233,-2.121 22.962,-1.749C21.834,-0.207 20.694,1.327 19.558,2.863C19.24,3.292 19.284,3.603 19.819,3.81C21.372,4.41 22.92,5.024 24.47,5.633C24.744,5.741 25.021,5.818 25.319,5.762C25.185,6.127 24.69,5.71 24.571,6.107C22.925,5.407 21.276,4.712 19.634,4.005C19.227,3.829 18.852,3.846 18.588,4.203C17.366,5.86 16.163,7.53 14.959,9.199C14.891,9.293 14.879,9.426 14.842,9.54C14.548,9.528 14.779,9.112 14.496,9.093C15.668,7.496 16.826,5.888 18.022,4.308C18.429,3.771 18.353,3.47 17.741,3.228C16.26,2.642 14.789,2.031 13.309,1.445C12.787,1.238 12.289,1.183 11.9,1.745C10.758,3.392 9.455,4.924 8.384,6.623C8.287,6.525 8.19,6.428 8.093,6.33C9.186,4.825 10.283,3.323 11.371,1.815C11.991,0.957 11.94,0.848 10.955,0.452C9.545,-0.115 8.136,-0.687 6.748,-1.306C6.147,-1.574 5.76,-1.458 5.392,-0.938C4.222,0.719 3.03,2.36 1.846,4.008C1.756,3.913 1.666,3.818 1.576,3.723C2.675,2.222 3.772,0.72 4.872,-0.78C5.539,-1.689 5.496,-1.822 4.43,-2.256C3.178,-2.766 1.932,-3.292 0.679,-3.799C0.37,-3.924 0.042,-4.002 -0.277,-4.101C-0.441,-4.413 0.06,-4.251 0,-4.489" style="fill:rgb(245,245,245);fill-rule:nonzero;"/>
                </g>
                <g transform="matrix(1,0,0,1,506.5336,1212.8109)">
                    <path d="M0,20.367C-0.004,20.277 -0.049,20.135 -0.007,20.103C1.395,19.013 2.146,17.412 3.192,16.044C3.228,15.997 3.201,15.903 3.204,15.831C4.582,13.978 5.967,12.129 7.321,10.261C8.502,8.632 9.75,7.044 10.833,5.347C12.049,3.442 13.619,1.79 14.722,-0.19C15.025,0.279 14.628,0.587 14.419,0.886C13.413,2.321 12.37,3.73 11.341,5.149C10.763,5.944 10.186,6.74 9.609,7.536C9.406,7.866 9.175,8.179 9.028,8.54C6.953,11.29 4.935,14.082 2.956,16.903C2.278,17.868 1.534,18.787 0.847,19.746C0.714,19.932 0.34,20.136 0.697,20.454C0.459,20.467 0.212,20.557 0,20.367" style="fill:rgb(201,202,202);fill-rule:nonzero;"/>
                </g>
                <g transform="matrix(1,0,0,1,515.5616,1220.3472)">
                    <path d="M0,1.004C0.005,0.56 0.26,0.261 0.581,0C0.526,0.415 0.266,0.711 0,1.004" style="fill:rgb(193,194,194);fill-rule:nonzero;"/>
                </g>
                <g transform="matrix(1,0,0,1,504.3906,1214.303)">
                    <path d="M0,8.088C-0.047,8.074 -0.213,8.04 -0.368,7.977C-1.892,7.36 -3.41,6.73 -4.938,6.122C-5.517,5.892 -5.616,5.556 -5.26,5.062C-4.155,3.531 -3.052,1.998 -1.941,0.471C-1.649,0.069 -1.276,-0.042 -0.794,0.163C0.764,0.824 2.328,1.467 3.891,2.114C4.402,2.325 4.464,2.64 4.149,3.074C3.025,4.621 1.907,6.173 0.78,7.719C0.623,7.935 0.431,8.13 0,8.088" style="fill:rgb(183,182,128);fill-rule:nonzero;"/>
                </g>
                <g transform="matrix(1,0,0,1,496.8508,1219.7329)">
                    <path d="M0,-7.986C0.19,-7.924 0.542,-7.834 0.874,-7.697C2.191,-7.154 3.504,-6.602 4.814,-6.041C5.565,-5.719 5.616,-5.529 5.134,-4.877C4.07,-3.439 2.986,-2.015 1.935,-0.567C1.582,-0.081 1.219,0.053 0.642,-0.187C-0.874,-0.819 -2.409,-1.403 -3.937,-2.003C-4.482,-2.217 -4.542,-2.531 -4.225,-3.013C-3.214,-4.551 -2.043,-5.971 -0.96,-7.455C-0.771,-7.714 -0.578,-8.039 0,-7.986" style="fill:rgb(183,182,128);fill-rule:nonzero;"/>
                </g>
                <g transform="matrix(1,0,0,1,647.0165,1216.1709)">
                    <path d="M0,-0.239C2.249,0.444 4.491,1.142 6.801,1.608C9.922,2.239 13.064,2.59 16.251,2.474L16.251,3.155C11.309,3.318 6.5,2.533 1.787,1.099C0.368,0.667 -1.034,0.181 -2.444,-0.277C-2.942,-0.438 -3.497,-0.295 -3.979,-0.575C-4.199,-0.703 -4.474,-0.731 -4.662,-0.927C-4.4,-1.152 -4.167,-0.938 -3.928,-0.871C-3.714,-0.81 -3.504,-0.732 -3.269,-0.686C-3.299,-0.953 -3.305,-1.214 -3.328,-1.471C-3.401,-2.279 -3.176,-2.878 -2.304,-3.078C-2.057,-3.135 -1.925,-3.299 -1.923,-3.557C-1.336,-3.469 -1.017,-3.168 -1.092,-2.536C-1.112,-2.37 -1.091,-2.2 -1.094,-2.032C-1.1,-1.563 -0.991,-1.062 -1.454,-0.718C-0.997,-0.474 -0.528,-0.267 0,-0.239" style="fill:rgb(144,146,147);fill-rule:nonzero;"/>
                </g>
                <g transform="matrix(1,0,0,1,663.2676,1210.3715)">
                    <path d="M0,2.937C-2.873,3.017 -5.734,2.912 -8.567,2.382C-10.521,2.016 -12.467,1.616 -14.335,0.912C-14.477,0.695 -14.736,0.763 -14.93,0.667C-15.155,0.556 -15.327,0.399 -15.225,0.149C-15.131,-0.08 -14.937,0.13 -14.788,0.127C-14.586,0.121 -14.423,0.333 -14.205,0.227C-11.724,1.014 -9.202,1.633 -6.622,1.99C-4.425,2.293 -2.213,2.318 0,2.256L0,2.937Z" style="fill:rgb(148,150,151);fill-rule:nonzero;"/>
                </g>
                <g transform="matrix(1,0,0,1,633.2825,1211.0543)">
                    <path d="M0,62.084C-0.035,62.045 -0.07,62.006 -0.106,61.967C-0.104,61.736 0.084,61.744 0.217,61.757C0.611,61.799 0.67,61.572 0.631,61.272C0.391,59.449 0.609,57.619 0.539,55.793C0.501,54.812 0.7,54.514 1.606,54.092C2.373,53.735 3.124,53.347 3.85,52.886C3.166,52.947 2.484,52.812 1.812,52.976C1.311,53.099 0.798,53.061 0.289,53.044C0.125,53.039 -0.059,53.038 -0.138,52.838C-0.112,52.787 -0.084,52.714 -0.032,52.713C0.692,52.701 0.701,52.157 0.763,51.655C0.795,51.392 0.841,51.128 0.832,50.864C0.79,49.54 0.96,48.222 0.934,46.9C0.849,42.61 1.159,38.326 1.072,34.036C1.006,30.811 0.893,27.583 0.979,24.359C1.038,22.168 1.025,19.977 0.931,17.796C0.767,13.999 0.726,10.204 0.743,6.406C0.749,5.026 0.529,3.694 -0.019,2.434C-0.267,1.862 -0.618,1.324 -1.246,1.068C-1.29,1.107 -1.34,1.136 -1.394,1.158C-1.456,1.163 -1.511,1.147 -1.56,1.109C-1.755,0.906 -1.749,0.675 -1.66,0.43C-1.487,0.306 -1.554,-0.102 -1.173,0.016C-0.832,0.316 -0.533,0.658 -0.21,0.977C0.783,1.958 1.212,3.169 1.312,4.542C1.56,7.935 1.665,11.334 1.762,14.733C1.781,15.395 1.923,16.045 1.996,16.702C2.112,17.73 2.086,18.756 2.062,19.785C2.109,19.165 2.097,18.545 2.104,17.926C2.106,17.719 2.093,17.505 2.216,17.322C2.301,17.197 2.392,17.202 2.467,17.341C2.504,19.494 2.542,21.646 2.446,23.797C2.439,23.968 2.439,24.137 2.439,24.307C2.439,32.96 2.438,41.613 2.445,50.266C2.445,50.457 2.335,50.681 2.536,50.846C3.532,51.234 4.517,51.651 5.526,51.998C6.051,52.179 6.214,52.502 6.218,53.008C6.228,54.365 6.256,55.723 6.276,57.08C6.518,57.413 6.364,57.794 6.406,58.151C6.396,59.863 6.608,59.895 4.845,60.652C3.889,61.062 2.94,61.49 1.993,61.92C1.524,62.133 1.055,62.186 0.558,62.123C0.372,62.11 0.186,62.097 0,62.084" style="fill:rgb(148,150,151);fill-rule:nonzero;"/>
                </g>
                <g transform="matrix(1,0,0,1,633.1782,1221.3017)">
                    <path d="M0,42.639C0.869,42.71 1.726,42.6 2.586,42.49C3.097,42.425 3.625,42.541 4.13,42.353C4.18,42.334 4.292,42.374 4.321,42.42C4.402,42.552 4.269,42.62 4.197,42.696C3.784,43.135 3.168,43.221 2.687,43.552C2.367,43.773 1.986,43.916 1.616,44.047C1.114,44.224 0.79,44.554 0.809,45.077C0.831,45.673 0.791,46.268 0.828,46.867C0.879,47.688 0.826,48.518 0.777,49.342C0.739,49.989 0.887,50.617 0.917,51.257C0.939,51.742 0.779,51.773 0.41,51.657C0.266,51.612 0.115,51.565 -0.001,51.72C-1.53,51.056 -3.061,50.398 -4.585,49.724C-4.784,49.636 -4.949,49.471 -5.13,49.341C-5.159,48.436 -5.308,47.527 -5.037,46.632C-5.037,46.548 -5.037,46.464 -5.036,46.381C-5.073,45.286 -5.105,44.192 -5.011,43.099C-4.906,43.048 -4.912,42.957 -4.926,42.864C-4.991,42.51 -5.024,42.161 -4.77,41.856L-4.767,41.871C-3.83,41.472 -2.899,41.056 -1.952,40.684C-1.6,40.545 -1.477,40.369 -1.48,39.982C-1.496,37.846 -1.477,35.71 -1.471,33.574C-1.11,33.71 -1.202,34.035 -1.2,34.292C-1.184,35.843 -1.196,37.394 -1.189,38.944C-1.188,39.141 -1.246,39.353 -1.066,39.611C-0.816,38.974 -0.78,38.364 -0.763,37.754C-0.71,35.868 -0.712,33.98 -0.63,32.096C-0.502,29.169 -0.367,26.242 -0.428,23.313C-0.509,19.403 -0.394,15.494 -0.4,11.585C-0.402,10.094 -0.362,8.597 -0.443,7.113C-0.589,4.449 -0.268,1.787 -0.474,-0.871C-0.592,-2.381 -0.437,-3.896 -0.608,-5.403C-0.673,-5.974 -0.836,-6.503 -1.08,-7.035C-1.107,-6.766 -1.053,-6.494 -1.325,-6.274C-1.57,-6.464 -1.529,-6.733 -1.533,-6.979C-1.538,-7.244 -1.534,-7.509 -1.619,-7.765C-1.674,-8.058 -1.685,-8.356 -1.654,-8.651C-1.634,-8.839 -1.667,-9.079 -1.385,-9.129L-1.355,-9.134C0.106,-7.81 0.346,-6.053 0.381,-4.227C0.4,-3.282 0.313,-2.33 0.403,-1.393C0.508,-0.284 0.343,0.818 0.448,1.929C0.508,2.566 0.425,3.237 0.389,3.891C0.289,5.742 0.532,7.585 0.509,9.436C0.475,12.113 0.44,14.792 0.465,17.467C0.492,20.3 0.486,23.134 0.519,25.966C0.537,27.562 0.591,29.17 0.409,30.77C0.336,31.42 0.402,32.088 0.395,32.748C0.374,34.638 0.397,36.528 0.369,38.417C0.36,38.979 0.272,39.543 0.18,40.101C0.041,40.945 -0.196,41.721 -1.146,41.99C-1.012,42.215 -0.747,42.201 -0.555,42.316C-0.361,42.409 -0.139,42.453 0,42.639" style="fill:rgb(179,180,180);fill-rule:nonzero;"/>
                </g>
                <g transform="matrix(1,0,0,1,645.0936,1209.3268)">
                    <path d="M0,3.287C0.193,3.467 0.428,3.65 -0.043,3.772C-0.079,3.782 -0.111,3.805 -0.143,3.825C-0.555,4.08 -1.256,4.01 -1.239,4.753C-1.227,5.269 -1.353,5.798 -1.1,6.318C-1.71,6.356 -2.18,5.947 -2.74,5.917L-2.726,5.92C-3.611,5.541 -4.047,5.641 -4.751,6.387C-5.945,7.143 -7.177,7.834 -8.416,8.51C-8.863,8.522 -9.106,8.896 -9.45,9.092C-9.71,9.157 -9.956,9.185 -10.065,8.855C-10.055,8.336 -9.628,8.171 -9.284,7.936C-7.845,6.974 -6.274,6.233 -4.754,5.246C-6.307,4.612 -7.777,3.943 -9.26,3.305C-10.496,2.709 -11.801,2.275 -13.034,1.677C-13.187,1.612 -13.347,1.568 -13.502,1.51C-15.522,0.662 -17.535,-0.204 -19.56,-1.04C-20.052,-1.203 -20.521,-1.431 -21.02,-1.579C-21.203,-1.827 -21.445,-1.993 -21.729,-2.11C-22.619,-2.476 -23.497,-2.87 -24.395,-3.213C-24.845,-3.384 -25.07,-3.617 -25.013,-4.126C-24.966,-4.537 -25.002,-4.958 -25.003,-5.374C-25.004,-5.587 -25.005,-5.797 -24.764,-5.898C-24.591,-5.636 -24.316,-5.548 -24.039,-5.442C-22.438,-4.828 -20.948,-3.962 -19.344,-3.353C-19.173,-3.288 -19.005,-3.218 -18.915,-3.187C-19.739,-3.52 -20.634,-3.911 -21.53,-4.299C-21.747,-4.392 -22.028,-4.447 -21.999,-4.778C-21.979,-5.002 -21.854,-5.165 -21.642,-5.248C-21.334,-5.369 -21.202,-5.132 -21.047,-4.945C-21.023,-4.916 -20.994,-4.891 -20.966,-4.866C-20.695,-4.618 -20.38,-4.56 -20.026,-4.631C-19.525,-4.733 -19.022,-4.697 -18.521,-4.614C-16.964,-4.113 -15.487,-3.413 -13.979,-2.787C-13.794,-2.711 -13.579,-2.509 -13.423,-2.839C-13.341,-2.866 -13.257,-2.845 -13.236,-2.771C-13.106,-2.297 -12.725,-2.116 -12.315,-1.964C-11.931,-1.816 -11.571,-1.61 -11.17,-1.505C-10.503,-1.209 -9.813,-0.97 -9.136,-0.7C-7.505,-0.047 -5.877,0.616 -4.237,1.335C-4.201,0.877 -4.237,0.402 -3.755,0.152C-3.443,0.115 -3.194,0.279 -2.934,0.41C-2.739,0.65 -2.692,0.852 -2.967,0.994C-2.626,1.137 -2.254,1.387 -2.264,1.945L-2.262,1.944C-2.428,2.088 -2.598,2.097 -2.774,1.965C-2.79,2.035 -2.795,2.111 -2.809,2.185C-2.95,2.948 -2.812,3.144 -2.067,2.991C-1.317,2.838 -0.65,2.968 0.008,3.297L0,3.287Z" style="fill:rgb(181,182,183);fill-rule:nonzero;"/>
                </g>
                <g transform="matrix(1,0,0,1,631.7089,1261.3557)">
                    <path d="M0,-47.822C0.219,-47.396 0.007,-46.928 0.188,-46.488L0.188,-47.712L0.331,-47.746C0.563,-47.134 0.889,-46.556 0.998,-45.9C1.185,-44.777 1.081,-43.64 1.123,-42.51C1.187,-40.802 1.257,-39.095 1.227,-37.386C1.212,-36.529 1.049,-35.66 1.142,-34.817C1.313,-33.274 1.082,-31.722 1.332,-30.188C1.405,-29.746 1.218,-29.336 1.222,-28.897C1.242,-26.857 1.261,-24.816 1.221,-22.776C1.191,-21.275 1.15,-19.768 1.168,-18.275C1.188,-16.54 1.243,-14.8 1.215,-13.066C1.177,-10.729 1.027,-8.394 0.999,-6.055C0.983,-4.726 0.938,-3.396 0.885,-2.068C0.863,-1.506 0.813,-0.94 0.618,-0.404C0.556,-0.233 0.484,0 0.244,-0.054C0.021,-0.103 0.099,-0.333 0.099,-0.49C0.094,-2.288 0.098,-4.085 0.092,-5.883C0.091,-6.083 0.162,-6.302 -0.001,-6.481C-0.008,-10.508 -0.018,-14.535 -0.019,-18.562C-0.023,-27.128 -0.023,-35.693 -0.025,-44.259C-0.239,-44.648 -0.197,-45.077 -0.217,-45.496C-0.35,-46.144 -0.171,-46.786 -0.177,-47.432C-0.179,-47.58 -0.137,-47.728 0,-47.822" style="fill:rgb(186,188,188);fill-rule:nonzero;"/>
                </g>
                <g transform="matrix(1,0,0,1,631.5628,1199.6628)">
                    <path d="M0,3.445C0.208,3.288 0.117,3.061 0.119,2.866C0.129,1.598 0.124,0.33 0.129,-0.938C0.133,-2.022 0.402,-2.416 1.47,-2.635C2.406,-2.826 3.358,-2.868 4.106,-2.074C4.406,-1.115 4.101,-0.758 2.849,-0.604C1.666,-0.425 1.681,-0.425 1.656,0.743C1.632,1.854 1.592,2.965 1.527,4.073C1.485,4.778 1.179,5.418 0.812,6.018C0.725,6.16 0.59,6.313 0.401,6.259C0.204,6.203 0.211,5.997 0.204,5.831C0.189,5.456 0.217,5.076 0.068,4.717C0.01,4.585 -0.032,4.448 -0.039,4.303C0.08,4.066 -0.229,4.158 -0.252,4.03C-0.736,3.612 -1.38,3.527 -1.916,3.222C-2.098,3.119 -2.46,3.034 -2.354,2.797C-2.217,2.492 -1.921,2.759 -1.717,2.829C-1.142,3.026 -0.621,3.373 0,3.445" style="fill:rgb(190,192,192);fill-rule:nonzero;"/>
                </g>
                <g transform="matrix(1,0,0,1,634.4214,1206.6518)">
                    <path d="M0,-7.754C0.148,-7.777 0.301,-7.784 0.444,-7.825C1.233,-8.048 1.336,-8.211 1.247,-9.063C1.497,-8.832 1.479,-8.53 1.479,-8.226C1.476,-6.122 1.475,-4.017 1.484,-1.912C1.485,-1.738 1.394,-1.532 1.586,-1.39C1.618,-1.299 1.653,-1.174 1.589,-1.12C1.016,-0.643 0.983,0.15 0.517,0.689C0.225,1.026 -0.097,1.284 -0.561,1.309C-0.941,1.16 -1.322,1.012 -1.702,0.863C-1.7,0.808 -1.709,0.728 -1.646,0.72C-0.987,0.633 -0.858,0.099 -0.709,-0.403C-0.481,-1.168 -0.423,-1.96 -0.413,-2.752C-0.395,-4.165 -0.413,-5.579 -0.405,-6.993C-0.403,-7.312 -0.425,-7.655 0,-7.754" style="fill:rgb(142,144,145);fill-rule:nonzero;"/>
                </g>
                <g transform="matrix(1,0,0,1,624.0123,1199.0106)">
                    <path d="M0,5.549C-0.223,5.498 -0.127,5.117 -0.407,5.142C-0.615,5.16 -0.738,5.307 -0.804,5.5C-0.883,5.734 -0.701,5.803 -0.549,5.868C0.386,6.268 1.327,6.657 2.261,7.06C2.41,7.124 2.607,7.102 2.746,7.349C2.041,7.273 1.488,6.93 0.901,6.703C-0.576,6.13 -1.962,5.338 -3.478,4.866C-3.794,4.768 -3.627,4.57 -3.682,4.418C-2.798,3.965 -1.921,3.438 -0.92,4.218C-0.864,3.934 -1.02,3.742 -0.912,3.536C-0.735,3.196 -0.728,2.925 -1.069,2.61C-1.351,2.35 -1.253,1.948 -0.968,1.649C-0.741,1.411 -0.695,1.203 -0.976,0.934C-1.416,0.514 -1.405,0.184 -0.98,-0.274C-0.738,-0.535 -0.477,-0.757 -0.423,-1.153C-0.384,-1.447 -0.113,-1.597 0.163,-1.591C0.567,-1.582 1.06,-1.8 1.302,-1.243C1.202,-0.631 1.202,-0.631 0.252,-0.638C0.176,-0.638 0.24,-0.55 0.227,-0.624C0.226,-0.63 0.242,-0.633 0.275,-0.633C0.947,-0.635 1.014,-0.571 1.187,0.09C1.265,0.393 1.168,0.726 1.4,1.009C1.514,1.148 1.319,1.232 1.207,1.281C0.904,1.416 0.585,1.415 0.264,1.354C0.209,1.344 0.152,1.344 0.101,1.314C0.125,1.399 0.221,1.338 0.262,1.394C0.451,1.642 0.501,1.943 0.517,2.231C0.537,2.575 0.571,2.993 0.001,2.922C-0.126,2.906 -0.031,2.983 -0.038,3.014C-0.049,3.061 -0.118,3.105 -0.047,3.157C0.287,3.148 0.477,3.319 0.561,3.627C0.586,3.717 0.608,3.809 0.648,3.893C0.835,4.289 1.281,4.714 0.42,4.912C0.195,4.963 0.197,5.367 0,5.549" style="fill:rgb(193,194,194);fill-rule:nonzero;"/>
                </g>
                <g transform="matrix(1,0,0,1,649.0627,1204.1366)">
                    <path d="M0,6.462C-0.32,6.68 -0.591,6.361 -0.911,6.391C-0.97,7.021 -0.312,6.779 -0.085,7.054C-0.077,7.064 -0.084,7.091 -0.092,7.106C-0.1,7.122 -0.117,7.133 -0.13,7.146C-1.721,6.712 -3.247,6.097 -4.778,5.496C-4.954,5.426 -5.111,5.326 -5.293,5.461C-5.531,5.364 -5.72,5.268 -5.825,4.972C-6.04,4.373 -6.54,4.09 -7.157,3.962C-7.43,3.906 -7.848,3.956 -7.825,3.465C-7.603,3.354 -7.393,3.464 -7.18,3.498C-6.718,3.677 -6.227,3.488 -5.861,3.543C-6,2.938 -6.248,2.273 -7.139,2.262C-7.232,2.244 -7.324,2.219 -7.406,2.172C-7.5,2.117 -7.631,2.068 -7.587,1.93C-7.548,1.811 -7.416,1.779 -7.305,1.78C-6.843,1.786 -6.386,1.87 -5.941,1.853C-6.177,1.708 -6.102,1.467 -6.091,1.239C-6.062,0.612 -6.124,0.53 -6.742,0.34C-6.861,0.304 -7.031,0.299 -7.018,0.125C-7.008,-0.004 -6.864,-0.044 -6.758,-0.05C-6.33,-0.073 -6.076,-0.312 -5.916,-0.684C-5.821,-0.165 -5.476,0.143 -5.075,0.461C-4.639,0.806 -4.647,1.262 -5.071,1.628C-5.376,1.892 -5.325,2.071 -5.116,2.32C-4.758,2.744 -4.567,3.161 -5.217,3.498C-5.356,3.57 -5.353,3.726 -5.301,3.783C-4.98,4.131 -4.953,4.683 -4.382,4.874C-2.909,5.367 -1.459,5.928 0,6.462" style="fill:rgb(124,126,125);fill-rule:nonzero;"/>
                </g>
                <g transform="matrix(1,0,0,1,631.6847,1209.1549)">
                    <path d="M0,6.624C0,7.063 0,7.503 -0.001,7.942C-0.942,7.018 -1.681,5.925 -2.514,4.911C-3.862,3.269 -5.193,1.612 -6.529,-0.039C-6.623,-0.155 -6.706,-0.28 -6.794,-0.4C-6.763,-0.607 -6.977,-0.669 -7.041,-0.818C-7.09,-0.932 -7.232,-1.042 -7.138,-1.173C-7.034,-1.318 -6.889,-1.209 -6.782,-1.158C-6.431,-0.987 -6.04,-0.872 -5.832,-0.49C-5.759,-0.356 -5.628,-0.27 -5.478,-0.221C-4.802,0.366 -4.286,1.085 -3.795,1.826C-3.614,2.316 -3.31,2.706 -2.86,2.977C-1.806,4.114 -0.851,5.328 0,6.624" style="fill:rgb(159,161,161);fill-rule:nonzero;"/>
                </g>
                <g transform="matrix(1,0,0,1,624.0123,1198.1476)">
                    <path d="M0,6.412C0.004,5.765 0.215,5.528 0.921,5.447C0.376,5.047 0.589,4.081 -0.314,4.022C0.024,3.928 0.356,3.787 0.71,3.778C1.174,3.766 1.212,3.519 1.134,3.147C1.033,2.672 0.626,2.545 0.277,2.348C0.099,2.292 -0.078,2.237 -0.374,2.144C0.256,2.051 0.805,2.191 1.3,1.943C1.277,1.815 1.028,1.93 1.054,1.735C1.067,1.642 1.084,1.548 1.086,1.455C1.101,0.589 0.897,0.368 -0.151,0.235C0.454,0.114 1.103,0.337 1.302,-0.38C1.316,-0.117 1.344,0.089 1.641,0.252C2.454,0.699 2.489,1 1.952,1.753C1.553,2.313 2.227,2.445 2.389,2.781C2.415,2.835 2.513,2.854 2.577,2.889C2.563,3.178 2.465,3.433 2.267,3.648C2.01,3.824 2.007,4.053 2.07,4.339C2.202,4.931 2.071,5.191 1.559,5.503C1.204,5.719 1.21,5.87 1.572,6.083C1.9,6.276 2.353,6.255 2.561,6.654C1.954,6.635 1.352,6.653 0.749,6.746C0.454,6.792 0.206,6.622 0,6.412" style="fill:rgb(132,134,134);fill-rule:nonzero;"/>
                </g>
                <g transform="matrix(1,0,0,1,643.1463,1207.5695)">
                    <path d="M0,-4.117C0.024,-3.451 0.024,-3.451 -1.006,-3.309C-0.992,-3.285 -0.981,-3.249 -0.966,-3.247C-0.019,-3.134 0.114,-2.955 -0.037,-1.995C-0.077,-1.742 -0.077,-1.742 0.237,-1.59C-0.355,-1.323 -0.968,-1.473 -1.663,-1.55C-1.473,-1.353 -1.3,-1.321 -1.133,-1.279C-0.792,-1.075 -0.668,-0.735 -0.623,-0.376C-0.567,0.079 -0.755,0.232 -1.239,0.183C-1.464,0.141 -1.69,0.099 -1.916,0.057C-2.15,0.036 -2.404,0.04 -2.375,-0.31C-2.584,-0.646 -2.338,-0.868 -2.167,-1.101C-1.973,-1.366 -1.97,-1.596 -2.199,-1.852C-2.615,-2.317 -2.584,-2.706 -2.093,-3.076C-1.817,-3.284 -1.609,-3.464 -1.55,-3.86C-1.478,-4.349 -0.978,-4.239 -0.625,-4.288C-0.401,-4.318 -0.173,-4.301 0,-4.117" style="fill:rgb(193,194,194);fill-rule:nonzero;"/>
                </g>
                <g transform="matrix(1,0,0,1,635.6677,1261.2866)">
                    <path d="M0,-42.979C0.327,-43.156 0.533,-43.592 1.009,-43.45C0.406,-43.23 0.203,-42.84 0.203,-42.165C0.199,-28.113 0.165,-14.062 0.138,-0.01C0.137,0.198 0.146,0.406 0.151,0.613C-0.134,0.447 -0.003,0.17 -0.003,-0.052C-0.009,-10.84 -0.006,-21.628 -0.005,-32.416C-0.005,-32.605 -0.008,-32.794 -0.009,-32.983C-0.062,-33.033 -0.1,-33.092 -0.124,-33.161C-0.214,-33.726 -0.12,-34.297 -0.188,-34.863C-0.201,-37.3 -0.194,-39.737 -0.192,-42.174C-0.192,-42.455 -0.214,-42.747 0,-42.979" style="fill:rgb(124,126,125);fill-rule:nonzero;"/>
                </g>
                <g transform="matrix(1,0,0,1,633.8602,1206.0673)">
                    <path d="M0,1.893C0.747,1.536 1.313,1.012 1.451,0.162C1.526,-0.298 2.081,-0.367 2.147,-0.806C2.938,-0.463 3.728,-0.119 4.519,0.224C4.28,0.635 4.011,0.216 3.698,0.261C4.482,0.768 5.319,1.058 6.116,1.426C6.356,1.537 6.612,1.616 6.814,1.792C6.973,1.93 6.962,2.045 6.743,2.105C5.705,1.877 4.797,1.327 3.829,0.925C3.449,0.767 3.076,0.586 2.696,0.424C2.237,0.228 2.203,0.251 2.193,0.772C2.185,1.204 2.197,1.636 2.189,2.067C2.184,2.289 2.219,2.525 2.024,2.699C1.35,2.43 0.675,2.162 0,1.893" style="fill:rgb(116,117,117);fill-rule:nonzero;"/>
                </g>
                <g transform="matrix(1,0,0,1,640.6418,1207.7416)">
                    <path d="M0,0.362C0.126,0.106 -0.139,0.153 -0.224,0.112C-1.088,-0.298 -1.958,-0.697 -2.834,-1.081C-3.089,-1.193 -3.281,-1.332 -3.346,-1.623C-2.934,-1.826 -2.671,-1.174 -2.263,-1.451C-1.446,-1.176 -0.725,-0.664 0.13,-0.482L0.589,-0.115C0.751,0.175 1.053,0.189 1.324,0.23C2.093,0.345 2.647,0.76 2.8,1.504C2.857,1.782 3.315,1.502 3.128,1.856L3.117,1.844C2.617,2.128 2.095,2.188 1.551,1.988C1.409,1.878 1.449,1.737 1.541,1.642C1.802,1.369 1.796,1.095 1.545,0.845C1.287,0.588 0.99,0.376 0.588,0.542C0.518,0.571 0.453,0.61 0.376,0.62C0.208,0.595 0.035,0.579 0,0.362" style="fill:rgb(151,152,153);fill-rule:nonzero;"/>
                </g>
                <g transform="matrix(1,0,0,1,631.5628,1202.4188)">
                    <path d="M0,0.689C-0.368,0.886 -0.619,0.553 -0.924,0.474C-1.381,0.356 -1.788,0.068 -2.371,0.015C-1.793,0.493 -1.129,0.562 -0.588,0.886C-0.415,0.989 -0.186,1.018 -0.105,1.246C-0.233,1.364 -0.384,1.351 -0.524,1.291C-1.553,0.849 -2.612,0.482 -3.621,-0.007C-3.707,-0.049 -3.77,-0.118 -3.805,-0.21C-3.873,-0.632 -3.55,-0.62 -3.287,-0.675C-2.191,-0.221 -1.096,0.234 0,0.689" style="fill:rgb(153,154,155);fill-rule:nonzero;"/>
                </g>
                <g transform="matrix(1,0,0,1,627.8325,1202.8977)">
                    <path d="M0,-0.723C1.188,-0.177 2.38,0.359 3.626,0.767C3.597,0.878 4.022,0.788 3.735,1.014C3.502,1.138 3.295,1.013 3.091,0.933C1.675,0.373 0.281,-0.239 -1.133,-0.8C-1.323,-0.876 -1.529,-0.941 -1.593,-1.176C-1.453,-1.392 -1.467,-1.687 -1.243,-1.861C-1.135,-1.817 -1.026,-1.774 -0.918,-1.73C-1.107,-1.407 -1.033,-1.219 -0.655,-1.119C-0.408,-1.055 -0.179,-0.92 0,-0.723" style="fill:rgb(82,83,84);fill-rule:nonzero;"/>
                </g>
                <g transform="matrix(1,0,0,1,627.8325,1201.1677)">
                    <path d="M0,1.007C-0.328,0.983 -0.567,0.739 -0.872,0.653C-1.047,0.604 -1.273,0.569 -1.318,0.366C-1.384,0.062 -0.995,0.189 -0.918,0C-0.464,0.192 -0.01,0.384 0.444,0.576C0.311,0.735 -0.029,0.682 0,1.007" style="fill:rgb(132,134,134);fill-rule:nonzero;"/>
                </g>
                <g transform="matrix(1,0,0,1,626.1466,1207.8581)">
                    <path d="M0,1.118C-0.215,1.333 -0.287,1.062 -0.339,0.98C-0.615,0.541 -1.028,0.316 -1.497,0.149C-1.647,0.478 -1.028,0.55 -1.255,0.897C-1.528,0.561 -1.801,0.226 -2.073,-0.11C-1.502,-0.215 -1.071,0.131 -0.599,0.348C-0.266,0.501 -0.027,0.727 0,1.118" style="fill:rgb(98,100,100);fill-rule:nonzero;"/>
                </g>
                <g transform="matrix(1,0,0,1,640.3423,1214.7459)">
                    <path d="M0,0.968C-0.014,0.565 0.38,0.587 0.585,0.416C1.084,0 1.568,0.08 2.025,0.501C1.203,0.021 0.631,0.622 0,0.968" style="fill:rgb(144,146,147);fill-rule:nonzero;"/>
                </g>
                <g transform="matrix(1,0,0,1,645.1016,1211.0824)">
                    <path d="M0,1.541C-0.734,1.221 -1.484,1.268 -2.24,1.441C-2.312,1.457 -2.39,1.444 -2.465,1.44C-3.095,1.401 -3.091,1.225 -3.017,0.631C-2.94,0 -2.617,0.163 -2.27,0.188C-2.204,0.524 -1.999,0.69 -1.674,0.811C-1.104,1.021 -0.508,1.186 0,1.541" style="fill:rgb(144,146,147);fill-rule:nonzero;"/>
                </g>
                <g transform="matrix(1,0,0,1,642.1367,1210.9382)">
                    <path d="M0,-1.37C0.538,-1.084 1.082,-1.415 1.622,-1.353C1.595,-1.183 1.65,-1.034 1.708,-0.874C1.966,-0.165 1.811,0.087 1.053,0.234C0.966,0.269 0.868,0.196 0.913,0.153C1.246,-0.164 1.026,-0.316 0.742,-0.417C0.379,-0.546 0.339,-1.005 -0.021,-1.124C-0.281,-1.208 -0.542,-1.292 -0.802,-1.376C-0.831,-1.439 -0.818,-1.493 -0.763,-1.536C-0.475,-1.639 -0.221,-1.579 0,-1.37" style="fill:rgb(124,126,125);fill-rule:nonzero;"/>
                </g>
                <g transform="matrix(1,0,0,1,642.1155,1211.2855)">
                    <path d="M0,-1.471C0.268,-1.408 0.534,-1.439 0.629,-1.017C0.663,-0.865 1.173,-0.699 1.419,-0.46C1.359,-0.261 1.144,-0.307 1.026,-0.205C1.019,-0.199 1.027,-0.168 1.035,-0.153C1.044,-0.137 1.061,-0.126 1.075,-0.113C0.971,-0.02 0.847,0 0.714,-0.014C0.44,-0.364 0.282,-0.825 -0.326,-1.009C0.178,-1.013 0.115,-1.231 0,-1.471" style="fill:rgb(144,146,147);fill-rule:nonzero;"/>
                </g>
                <g transform="matrix(0.208325,-0.97806,-0.97806,-0.208325,646.460437,1214.899922)">
                    <path d="M-0.893,-0.759C-1.178,-0.598 -0.98,-0.354 -0.979,-0.156C-0.979,0.265 -0.925,0.687 -0.893,1.113C-0.68,1.07 -0.751,0.893 -0.728,0.763C-0.782,0.256 -0.838,-0.251 -0.893,-0.759" style="fill:rgb(76,77,77);fill-rule:nonzero;"/>
                </g>
                <g transform="matrix(-0.007922,0.999969,0.999969,0.007922,629.795246,1266.067499)">
                    <path d="M-1.654,-1.641C-0.56,-1.641 0.534,-1.641 1.628,-1.641" style="fill:rgb(254,254,252);fill-rule:nonzero;"/>
                </g>
                <g transform="matrix(1,0,0,1,633.1782,1211.5827)">
                    <path d="M0,52.358C-0.208,52.325 -0.415,52.29 -0.579,52.139C-0.587,52.056 -0.561,51.973 -0.485,51.953C0.224,51.762 0.352,51.162 0.377,50.586C0.424,49.474 0.654,48.366 0.568,47.261C0.506,46.47 0.669,45.686 0.529,44.902C0.437,44.391 0.627,43.893 0.632,43.38C0.647,41.887 0.691,40.388 0.657,38.903C0.622,37.377 0.913,35.858 0.671,34.325C0.583,33.771 0.78,33.163 0.73,32.579C0.498,29.86 0.658,27.136 0.634,24.415C0.624,23.288 0.718,22.16 0.74,21.032C0.749,20.633 0.671,20.247 0.662,19.851C0.64,18.765 0.819,17.671 0.555,16.593C0.491,16.333 0.51,16.066 0.509,15.802C0.505,13.383 0.525,10.964 0.508,8.545C0.506,8.281 0.531,8.014 0.433,7.759C0.359,7.214 0.372,6.667 0.419,6.121C0.591,5.447 0.385,4.792 0.316,4.131C0.184,3.762 0.168,3.367 0.057,2.991C-0.176,2.198 -0.42,1.417 -1.114,0.88C-1.202,0.812 -1.249,0.703 -1.264,0.587L-1.264,0C-0.625,0.544 -0.093,1.066 0.197,1.705C0.574,2.538 0.862,3.43 0.982,4.348C1.048,4.861 1.009,5.388 1.01,5.909C1.012,7.951 0.944,9.997 1.031,12.036C1.114,13.997 1.026,15.968 1.309,17.922C1.364,18.303 1.239,18.706 1.244,19.098C1.254,19.926 1.249,20.752 1.325,21.583C1.403,22.438 1.255,23.311 1.243,24.177C1.225,25.456 1.208,26.737 1.248,28.016C1.281,29.097 1.31,30.177 1.313,31.258C1.319,33.65 1.418,36.044 1.326,38.432C1.255,40.256 1.288,42.08 1.195,43.903C1.147,44.83 1.296,45.772 1.204,46.692C1.038,48.354 1.252,50.026 0.957,51.691C0.853,52.272 0.666,52.283 0.251,52.259C0.169,52.255 0.084,52.323 0,52.358" style="fill:rgb(163,165,164);fill-rule:nonzero;"/>
                </g>
                <g transform="matrix(1,0,0,1,631.9144,1263.5779)">
                    <path d="M0,-51.408C1.097,-50.687 1.351,-49.525 1.59,-48.357C1.615,-48.231 1.582,-48.091 1.707,-47.999C1.723,-47.316 1.91,-46.643 1.821,-45.955L1.821,-44.252C1.871,-43.991 1.877,-43.727 1.877,-43.462C1.879,-41.404 1.89,-39.346 1.87,-37.288C1.86,-36.269 1.937,-35.259 2.033,-34.247C2.099,-33.552 1.949,-32.859 2.016,-32.159C2.088,-31.412 1.96,-30.656 2.067,-29.91C2.138,-29.414 1.993,-28.935 1.992,-28.448C1.987,-25.707 1.959,-22.965 2.001,-20.225C2.027,-18.554 2.08,-16.883 2.039,-15.213C2.002,-13.707 2.026,-12.201 1.977,-10.698C1.943,-9.667 1.948,-8.635 1.899,-7.603C1.847,-6.518 1.902,-5.424 1.897,-4.335C1.893,-3.282 1.822,-2.225 1.692,-1.18C1.59,-0.357 1.196,0.002 0.619,-0.01C0.413,-0.014 0.219,-0.128 0.006,-0.088C-0.174,-0.169 -0.261,-0.311 -0.2,-0.499C-0.128,-0.722 0.033,-0.592 0.175,-0.576C0.605,-0.528 0.854,-0.786 0.978,-1.147C1.317,-2.13 1.417,-3.143 1.442,-4.186C1.47,-5.317 1.465,-6.447 1.477,-7.578C1.49,-8.857 1.378,-10.147 1.507,-11.413C1.667,-12.989 1.614,-14.569 1.635,-16.136C1.658,-17.884 1.615,-19.644 1.601,-21.398C1.575,-24.561 1.56,-27.725 1.61,-30.887C1.63,-32.162 1.639,-33.438 1.574,-34.706C1.512,-35.913 1.408,-37.123 1.5,-38.322C1.597,-39.569 1.598,-40.828 1.535,-42.053C1.424,-44.232 1.735,-46.432 1.263,-48.592C1.065,-49.498 0.827,-50.394 0.024,-50.996C-0.11,-51.097 -0.124,-51.252 -0.091,-51.41C-0.061,-51.408 -0.03,-51.407 0,-51.408" style="fill:rgb(167,169,168);fill-rule:nonzero;"/>
                </g>
                <g transform="matrix(1,0,0,1,635.6582,1214.2023)">
                    <path d="M0,13.973L0,14.101C-0.166,14.254 -0.101,14.455 -0.103,14.637C-0.11,15.261 -0.095,15.886 -0.112,16.51C-0.118,16.739 0.003,17.154 -0.251,17.155C-0.574,17.157 -0.558,16.688 -0.534,16.468C-0.269,14.076 -0.894,11.733 -0.895,9.358C-0.895,9.15 -0.904,8.942 -0.9,8.734C-0.848,6.17 -1.121,3.621 -1.257,1.066C-1.328,-0.27 -1.967,-1.371 -2.923,-2.301C-3.186,-2.557 -3.542,-2.753 -3.631,-3.159C-3.603,-3.167 -3.576,-3.176 -3.549,-3.184C-2.913,-3.104 -2.529,-2.61 -2.118,-2.223C-1.331,-1.48 -0.668,-0.611 -0.43,0.476C-0.276,1.178 -0.391,1.904 -0.46,2.615C-0.505,3.082 -0.51,3.556 -0.618,4.017C-0.63,4.068 -0.591,4.131 -0.655,4.17C-0.548,4.142 -0.65,3.999 -0.545,3.971C-0.417,4.25 -0.177,4.066 0.01,4.105C0.007,6.832 0.004,9.558 0.001,12.284C-0.083,12.847 -0.082,13.41 0,13.973" style="fill:rgb(140,142,143);fill-rule:nonzero;"/>
                </g>
                <g transform="matrix(1,0,0,1,631.7094,1210.6979)">
                    <path d="M0,0.792C-0.013,0.528 -0.026,0.264 -0.039,0C0.084,0.063 0.207,0.125 0.329,0.187C0.393,0.241 0.39,0.292 0.321,0.34L0.318,0.346C0.132,0.438 0.299,0.78 0,0.792" style="fill:rgb(140,142,143);fill-rule:nonzero;"/>
                </g>
                <g transform="matrix(1,0,0,1,631.9203,1219.5572)">
                    <path d="M0,43.933C0.119,43.79 0.266,43.816 0.415,43.866C0.945,44.046 1.251,43.721 1.454,43.332C1.615,43.022 1.683,42.657 1.702,42.295C1.803,40.428 1.796,38.56 1.831,36.692C1.85,35.666 1.854,34.636 1.887,33.61C1.93,32.282 1.946,30.945 1.938,29.612C1.912,24.96 1.928,20.307 1.928,15.655C1.928,13.678 2.007,11.698 1.91,9.727C1.757,6.61 1.857,3.494 1.82,0.379C1.817,0.176 1.696,-0.028 1.815,-0.231C1.998,-0.062 1.925,0.159 1.925,0.358C1.93,2.543 1.935,4.729 1.925,6.914C1.92,7.895 1.978,8.866 2.137,9.837C2.246,10.499 2.009,11.165 2.106,11.849C2.197,12.501 2.11,13.175 2.139,13.839C2.166,14.463 2.069,15.079 2.06,15.695C2.019,18.361 1.957,21.032 2.075,23.693C2.145,25.27 2.161,26.847 2.126,28.416C2.07,30.88 2.103,33.344 2.024,35.806C1.981,37.144 2.028,38.479 2.01,39.813C1.996,40.822 1.867,41.835 1.785,42.846C1.734,43.476 1.47,44.08 0.679,44.164C0.453,44.087 0.226,44.01 0,43.933" style="fill:rgb(167,169,168);fill-rule:nonzero;"/>
                </g>
                <g transform="matrix(1,0,0,1,631.71,1199.9979)">
                    <path d="M0,6.501C-0.003,5.745 -0.007,4.989 -0.01,4.234C0.355,4.716 0.138,5.289 0.236,5.848C0.543,5.772 0.647,5.493 0.731,5.284C1.014,4.573 1.274,3.868 1.249,3.059C1.213,1.851 1.315,0.64 1.338,-0.571C1.344,-0.885 1.445,-1.004 1.764,-1.004C2.08,-1.004 2.396,-1.066 2.711,-1.1C2.457,-0.947 2.477,-0.699 2.478,-0.45C2.481,1.081 2.499,2.612 2.471,4.143C2.458,4.854 2.413,5.576 2.191,6.258C1.999,6.847 1.938,7.601 1.01,7.517C0.53,7.321 0.041,7.133 0,6.501" style="fill:rgb(167,169,168);fill-rule:nonzero;"/>
                </g>
                <g transform="matrix(1,0,0,1,635.9059,1217.0405)">
                    <path d="M0,-4.525C-0.006,-2.898 -0.012,-1.271 -0.018,0.356C-0.339,0.553 -0.706,0.704 -0.792,1.133L-0.792,1.63C-0.923,1.031 -0.987,0.422 -0.87,-0.18C-0.461,-2.275 -1.163,-3.929 -2.815,-5.227C-3.16,-5.498 -3.385,-5.93 -3.875,-6.003C-3.873,-6.053 -3.87,-6.104 -3.867,-6.155C-2.563,-5.647 -1.264,-5.128 0,-4.525" style="fill:rgb(124,126,125);fill-rule:nonzero;"/>
                </g>
                <g transform="matrix(1,0,0,1,624.2889,1202.2271)">
                    <path d="M0,-1.732C0.717,-1.736 1.191,-1.15 1.075,-0.427C1.041,-0.219 0.888,-0.189 0.754,-0.186C0.302,-0.179 -0.133,0.004 -0.591,-0.057C-0.525,-0.297 -0.384,-0.368 -0.123,-0.406C0.203,-0.453 0.13,-0.794 0.114,-1.033C0.098,-1.267 -0.093,-1.476 0,-1.732" style="fill:rgb(163,165,164);fill-rule:nonzero;"/>
                </g>
                <g transform="matrix(0.997386,0.072264,0.072264,-0.997386,641.863068,1207.69999)">
                    <path d="M0.048,-0.05C0.587,-0.026 0.561,0.329 0.44,0.681C0.35,0.941 0.182,1.172 0.048,1.417C0.993,1.511 1.276,0.842 1.46,0.08C1.052,-0.064 0.57,-0.219 0.048,-0.05" style="fill:rgb(163,165,164);fill-rule:nonzero;"/>
                </g>
                <g transform="matrix(1,0,0,1,627.8141,1212.1753)">
                    <path d="M0,-1.129C0.308,-0.753 0.616,-0.377 0.924,0C0.552,-0.088 0.017,-0.742 0,-1.129" style="fill:rgb(90,92,92);fill-rule:nonzero;"/>
                </g>
                <g transform="matrix(1,0,0,1,635.6582,1226.4863)">
                    <path d="M0,1.689C-0.173,1.126 -0.175,0.563 0.001,0C0.001,0.563 0,1.126 0,1.689" style="fill:rgb(148,150,151);fill-rule:nonzero;"/>
                </g>
                <g transform="matrix(1,0,0,1,641.3196,1207.9071)">
                    <path d="M0,1.541C-0.674,1.147 -0.74,0.914 -0.322,0.406C0,-0.12 0.368,0.193 0.718,0.358C1.096,0.535 1.265,0.88 1.237,1.264C1.227,1.406 0.965,1.529 0.817,1.661C0.545,1.621 0.272,1.581 0,1.541" style="fill:rgb(183,184,185);fill-rule:nonzero;"/>
                </g>
                <g transform="matrix(1,0,0,1,633.7349,1215.5793)">
                    <path d="M0,2.044C-0.018,1.362 -0.182,0.687 -0.114,0C-0.019,0.678 0.223,1.348 0,2.044" style="fill:rgb(167,169,168);fill-rule:nonzero;"/>
                </g>
                <g transform="matrix(1,0,0,1,635.6464,1215.3369)">
                    <path d="M0,-1.63L0,0C-0.223,-0.517 -0.538,-1.033 0,-1.63" style="fill:rgb(140,142,143);fill-rule:nonzero;"/>
                </g>
                <g transform="matrix(1,0,0,1,554.5812,1247.7528)">
                    <path d="M0,-10.869L-3.78,-10.869L0.658,-5.434L-3.78,0L0,0L4.438,-5.434L0,-10.869Z" style="fill:rgb(128,128,128);fill-rule:nonzero;"/>
                </g>
                <g transform="matrix(1,0,0,1,560.0882,1247.7528)">
                    <path d="M0,-10.869L-3.78,-10.869L0.658,-5.434L-3.78,0L0,0L4.438,-5.434L0,-10.869Z" style="fill:rgb(128,128,128);fill-rule:nonzero;"/>
                </g>
                <g transform="matrix(1,0,0,1,565.5955,1247.7528)">
                    <path d="M0,-10.869L-3.78,-10.869L0.658,-5.434L-3.78,0L0,0L4.438,-5.434L0,-10.869Z" style="fill:rgb(128,128,128);fill-rule:nonzero;"/>
                </g>
                <g transform="matrix(1,0,0,1,604.8772,1246.4859)">
                    <path d="M0,-10.869L-3.78,-10.869L0.658,-5.434L-3.78,0L0,0L4.438,-5.434L0,-10.869Z" style="fill:rgb(128,128,128);fill-rule:nonzero;"/>
                </g>
                <g transform="matrix(1,0,0,1,610.3842,1246.4859)">
                    <path d="M0,-10.869L-3.78,-10.869L0.659,-5.434L-3.78,0L0,0L4.438,-5.434L0,-10.869Z" style="fill:rgb(128,128,128);fill-rule:nonzero;"/>
                </g>
                <g transform="matrix(1,0,0,1,615.8915,1246.4859)">
                    <path d="M0,-10.869L-3.78,-10.869L0.658,-5.434L-3.78,0L0,0L4.438,-5.434L0,-10.869Z" style="fill:rgb(128,128,128);fill-rule:nonzero;"/>
                </g>
            </g>
        </g>
    </g>
</svg>
