<?xml version="1.0" encoding="UTF-8" standalone="no"?><!DOCTYPE svg PUBLIC "-//W3C//DTD SVG 1.1//EN" "http://www.w3.org/Graphics/SVG/1.1/DTD/svg11.dtd"><svg width="100%" height="100%" viewBox="0 0 191 235" version="1.1" xmlns="http://www.w3.org/2000/svg" xmlns:xlink="http://www.w3.org/1999/xlink" xml:space="preserve" xmlns:serif="http://www.serif.com/" style="fill-rule:evenodd;clip-rule:evenodd;stroke-linejoin:round;stroke-miterlimit:2;"><path d="M46.346,123.326l-33.95,-21.217l33.95,-18.675l0,39.892Zm48.608,-114.163l37.658,24.621l-37.663,23.029l-36.775,-23.025l36.779,-24.625Zm4.137,81.038l0,-26.154l37.146,-22.708l0,26.15l-37.146,22.713Zm78.892,7.483l-37.579,23.7l-37.583,-23.7l37.583,-22.975l37.579,22.975Zm3.729,101.925l-37.142,23.425l0,-94.429l37.142,-23.421l0,94.425Zm-45.475,23.425l-37.146,-23.425l0,-94.425l37.146,23.421l0,94.429Zm-81.558,-181.604l36.079,22.588l0,129.917l-36.079,-25.1l0,-127.404Zm-46.346,67.967l38.013,23.758l0,29.8l-38.013,-26.925l0,-26.633Zm-8.333,28.788c0,1.35 0.654,2.617 1.758,3.4l46.346,32.829c0.004,0 0.008,0 0.013,0.004c0.004,0.004 0.008,0.013 0.017,0.017l44.413,30.896c0.025,0.017 0.054,0.021 0.079,0.038c0.029,0.021 0.05,0.05 0.079,0.067l45.479,28.675c0.037,0.025 0.079,0.029 0.112,0.05c0.221,0.133 0.458,0.229 0.696,0.312c0.112,0.042 0.217,0.1 0.329,0.129c0.342,0.092 0.696,0.146 1.054,0.146c0.008,0 0.021,0.008 0.029,0.008c0,0 0,-0.004 0.004,-0.004l0,0.004c0.012,0 0.025,-0.008 0.038,-0.008c0.35,-0.004 0.7,-0.05 1.042,-0.142c0.117,-0.033 0.229,-0.096 0.346,-0.137c0.196,-0.075 0.396,-0.129 0.587,-0.233c0.038,-0.021 0.067,-0.054 0.104,-0.079c0.033,-0.021 0.071,-0.025 0.1,-0.046l45.475,-28.675c1.217,-0.762 1.946,-2.096 1.946,-3.525l0,-104.279c0,-0.267 -0.054,-0.525 -0.104,-0.788c-0.017,-0.079 -0.013,-0.162 -0.033,-0.242c-0.117,-0.458 -0.321,-0.879 -0.579,-1.267c-0.067,-0.1 -0.146,-0.183 -0.221,-0.279c-0.258,-0.329 -0.567,-0.617 -0.921,-0.854c-0.054,-0.037 -0.079,-0.092 -0.133,-0.125l-43.483,-26.588l0,-33.583c0,-0.217 -0.05,-0.421 -0.083,-0.629c-0.017,-0.108 -0.017,-0.212 -0.042,-0.321c-0.108,-0.458 -0.292,-0.887 -0.542,-1.279c-0.054,-0.088 -0.125,-0.158 -0.188,-0.242c-0.246,-0.333 -0.542,-0.625 -0.887,-0.875c-0.058,-0.038 -0.088,-0.104 -0.146,-0.142l-45.479,-29.737c-1.4,-0.917 -3.204,-0.904 -4.596,0.025l-44.417,29.738c-0.062,0.042 -0.092,0.108 -0.154,0.154c-0.338,0.254 -0.625,0.546 -0.871,0.879c-0.054,0.075 -0.121,0.142 -0.171,0.221c-0.25,0.392 -0.421,0.825 -0.525,1.283c-0.029,0.121 -0.033,0.233 -0.05,0.354c-0.025,0.192 -0.075,0.375 -0.075,0.571l0,40.021l-44.183,24.304c-0.088,0.046 -0.146,0.117 -0.225,0.167c-0.113,0.071 -0.213,0.15 -0.317,0.233c-0.354,0.275 -0.663,0.592 -0.908,0.958c-0.021,0.033 -0.058,0.05 -0.079,0.083c-0.004,0.013 -0.004,0.021 -0.012,0.033c-0.254,0.417 -0.413,0.879 -0.513,1.362c-0.025,0.125 -0.033,0.246 -0.05,0.371c-0.017,0.146 -0.058,0.292 -0.058,0.442l0,36.304Z" style="fill:#848686;fill-rule:nonzero;"/></svg>