<?xml version="1.0" encoding="UTF-8" standalone="no"?><!DOCTYPE svg PUBLIC "-//W3C//DTD SVG 1.1//EN" "http://www.w3.org/Graphics/SVG/1.1/DTD/svg11.dtd"><svg width="100%" height="100%" viewBox="0 0 506 298" version="1.1" xmlns="http://www.w3.org/2000/svg" xmlns:xlink="http://www.w3.org/1999/xlink" xml:space="preserve" xmlns:serif="http://www.serif.com/" style="fill-rule:evenodd;clip-rule:evenodd;stroke-linejoin:round;stroke-miterlimit:2;"><path d="M21.966,213.098c-0.193,-1.164 -0.551,-2.332 -0.554,-3.496c-0.045,-25.214 -0.054,-50.428 -0.063,-75.643c0,-0.493 0.06,-0.99 0.09,-1.483c2.344,-0.839 4.037,0.168 5.463,1.928c-0.56,1.227 -0.033,2.001 0.984,2.72c5.469,3.869 11.312,7.076 17.558,9.456c4.735,1.805 9.525,3.496 14.23,5.376c2.927,1.17 5.334,3.333 8.409,4.413c14.167,4.976 27.786,11.345 41.463,17.464c11.339,5.072 22.919,9.441 34.423,14.044c4.979,1.992 9.754,4.447 15.214,5.021c1.784,0.19 2.632,1.724 2.69,3.484c0.178,5.46 0.165,10.93 0.147,16.387c-0.006,2.509 0.526,4.922 0.514,7.398c-0.066,16.008 0.036,32.013 -0.006,48.022c-0.009,2.741 -0.881,5.481 0.003,8.225c0.018,0.346 -0.117,0.62 -0.397,0.824c-1.357,0.472 -2.533,-0.168 -3.697,-0.668c-5.457,-2.335 -10.978,-4.516 -16.438,-6.847c-3.087,-1.318 -4.865,-3.252 -4.997,-6.625c-0.057,-21.065 -0.009,-42.125 -0.03,-63.184c-0.003,-1.992 0.129,-4.028 -1.706,-5.436c-5.909,-3.394 -12.485,-5.229 -18.683,-7.954c-2.978,-0.719 -5.469,-2.858 -8.658,-2.939c-1.94,1.218 -1.327,3.192 -1.333,4.871c-0.051,19.682 -0.03,39.366 -0.033,59.048c0,1.191 0.054,2.389 -0.102,3.574c-0.147,1.107 -0.376,2.19 -1.691,2.524c-1.549,0.144 -2.927,-0.505 -4.293,-1.062c-16.953,-6.914 -33.767,-14.158 -50.738,-21.023c-7.563,-3.063 -15.079,-6.234 -22.615,-9.35c-1.564,-0.647 -3.15,-1.282 -4.459,-2.383c-2.311,-1.95 -2.548,-4.407 -0.695,-6.685" style="fill:#dbdbdb;fill-rule:nonzero;"/><path d="M288.42,143.76c0.602,1.122 0.343,2.335 0.349,3.511c0.075,17.573 0.132,35.145 0.196,52.715c0.945,1.068 0.791,2.383 0.8,3.646c0.033,5.012 -0.015,10.024 0.033,15.03c0.129,1.249 0.039,2.503 0.018,3.752c-0.15,1.504 -0.165,3.048 -1.182,4.314c-5.761,-2.909 -11.011,-0.096 -16.3,1.591c-8.427,2.687 -16.793,5.569 -24.971,8.941c-3.947,1.625 -7.813,3.463 -11.724,5.181c-11.826,5.187 -23.535,10.653 -35.275,16.02c-8.719,3.986 -17.744,7.587 -25.729,13.108c-1.883,1.303 -3.64,2.72 -5.099,4.765c1.495,0.797 2.888,0.259 4.221,0.328c1.588,0.081 3.192,0.027 4.747,0.409c0.996,0.247 1.922,0.704 2.07,1.874c0.132,1.047 -0.557,1.772 -1.399,2.079c-3.18,1.161 -5.776,4.01 -9.585,3.376c-0.842,-1.685 1.291,-1.697 1.604,-2.948c-2.28,-0.878 -4.802,-1.083 -7.028,-2.136c-0.942,-0.442 -2.566,-0.478 -1.859,-2.308l-0.027,-0.027c0.187,-0.211 0.376,-0.418 0.566,-0.623c3.177,-6.917 7.536,-12.639 14.468,-16.399c3.318,-1.799 6.327,-4.335 9.164,-7.001c2.753,-2.581 6.414,-3.929 9.645,-5.873c4.75,-2.858 9.982,-4.946 14.062,-8.872c0.737,-0.71 1.658,-1.113 2.657,-1.273c1.658,-0.268 2.996,-1.014 3.974,-2.395c0.229,-0.325 0.472,-0.755 0.818,-0.848c5.412,-1.444 8.03,-6.868 12.952,-9.053c2.049,-0.906 3.601,-2.497 3.595,-5.054c-0.003,-1.294 0.945,-1.889 1.968,-2.392c9.266,-3.863 18.614,-7.521 27.811,-11.553c3.015,-1.321 4.465,-3.132 4.425,-6.559c-0.138,-12.13 -0.027,-24.261 -0.078,-36.394c-0.006,-1.844 0.235,-4.037 -2.702,-3.947c-0.719,0.211 -1.423,0.469 -2.088,0.818c-4.979,2.13 -9.988,4.188 -14.997,6.243c-1.348,0.427 -2.629,1.029 -3.956,1.516c-1.333,0.367 -2.476,1.273 -3.896,1.393c-1.33,-0.448 -2.596,1.041 -3.941,0.135c-0.526,-1.282 -0.478,-2.687 -1.011,-4.007c-0.788,-1.95 0.021,-2.765 2.118,-2.5c4.552,0.575 6.125,-1.309 4.79,-5.755c-0.256,-0.854 -0.776,-1.646 -0.848,-2.536c-0.159,-1.959 -0.972,-2.434 -2.687,-1.405c-0.608,0.364 -1.631,0.632 -1.883,-0.048c-0.716,-1.916 -2.885,-2.037 -3.83,-3.273c-1.236,-1.619 -2.461,-1.937 -4.263,-1.805c-1.895,0.138 -3.24,-1.074 -4.07,-2.581c-2.007,-3.637 -5.527,-3.216 -8.677,-3.09c-1.757,0.069 -2.524,2.356 -3.628,3.688c-1.221,1.471 -2.283,2.539 -4.407,2.35c-1.613,-0.144 -3.333,0.668 -4.221,1.883c-1.528,2.091 -3.685,3.279 -5.596,4.829c-1.616,1.315 -3.18,2.611 -4.122,4.603c-1.044,2.202 -3.454,2.867 -5.37,4.064c-3.189,1.998 -5.512,4.63 -6.444,8.382c-0.62,2.491 -2.521,4.131 -4.582,5.238c-3.219,1.733 -6.607,3.12 -9.742,5.066c-2.25,1.399 -3.045,0.779 -3.291,-1.892c3.962,-6.67 8.658,-12.843 13.102,-19.185c15.289,-21.827 30.834,-43.47 46.195,-65.245c0.987,-1.399 1.646,-3.309 3.905,-3.237c5.794,-0.875 9.937,2.326 14.254,5.469c11.568,8.421 22.874,17.209 34.956,24.907c2.596,1.658 4.991,3.646 7.867,4.829c2.109,0.869 2.837,2.283 2.828,4.618c-0.084,23.563 -0.051,47.128 -0.048,70.694c0,0.915 -0.024,1.835 -0.009,2.449c-0.268,-0.232 0.036,-0.897 0.036,-1.471c-0.018,-19.29 -0.018,-38.578 -0.003,-57.868c0.003,-0.758 -0.292,-1.601 0.376,-2.262" style="fill:#afb0b0;fill-rule:nonzero;"/><path d="M82.777,2.917c1.838,-3.342 2.35,-3.532 6.134,-1.98c22.284,9.143 44.55,18.34 66.855,27.437c25.332,10.331 50.696,20.575 76.04,30.882c1.366,0.554 2.641,1.321 3.962,1.989c1.901,1.441 1.751,2.918 0.43,4.793c-10.707,15.184 -21.709,30.16 -32.284,45.437c-12.214,17.645 -25.112,34.811 -37.011,52.682c-2.741,4.116 -5.587,8.21 -8.893,11.938c-1.255,0.481 -1.817,2.563 -3.694,1.61c-0.346,-1.601 0.734,-2.629 1.601,-3.67c3.526,-4.242 5.379,-9.468 8.845,-14.332c-2.256,0.208 -3.535,1.164 -4.774,2.205c-1.619,1.363 -3.556,1.736 -5.271,0.668c-2.202,-1.372 -4.495,-1.423 -6.874,-1.297c-3.839,0.202 -7.374,-0.93 -11.056,-1.844c-5.797,-1.438 -11.372,-3.472 -16.968,-5.412c-3.902,-1.354 -7.702,-3.135 -11.48,-4.847c-5.436,-2.464 -10.9,-4.711 -16.742,-6.065c-3.773,-0.875 -7.494,-2.082 -10.295,-5.051c-0.644,-0.683 -1.465,-1.023 -2.383,-1.104c-1.33,-0.114 -2.479,-0.641 -3.559,-1.402c-3.451,-2.431 -7.431,-3.673 -11.387,-4.922c-1.953,-0.617 -3.234,-2.196 -5.048,-3.066c-6.173,-2.963 -12.56,-5.406 -18.818,-8.159c-2.834,-1.246 -5.367,-2.966 -7.031,-5.767c-0.758,-1.276 -2.025,-2.175 -3.168,-3.138c-1.345,-1.128 -2.205,-2.563 -2.545,-4.272c-0.256,-1.303 -0.301,-2.669 0.906,-3.547c1.173,-0.851 2.419,-0.743 3.532,0.25c0.623,1.098 0.566,2.464 1.384,3.487c0.566,0.809 1.297,1.456 2.055,2.079c2.981,2.298 6.64,3.144 10.015,4.537c22.218,9.164 44.469,18.256 66.731,27.305c9.48,3.854 18.884,7.879 28.451,11.514c1.221,0.463 2.44,0.818 3.737,0.903c2.169,0.83 3.917,0.289 5.746,-1.182c2.996,-2.413 5.475,-5.205 7.299,-8.55c0.924,-1.691 2.295,-2.987 3.391,-4.519c10.1,-14.14 20.506,-28.057 30.789,-42.062c4.462,-6.077 9.182,-11.971 13.036,-18.493c3.406,-5.764 2.62,-8.315 -3.691,-10.482c-17.191,-7.293 -34.522,-14.239 -51.806,-21.309c-17.374,-7.109 -34.685,-14.372 -52.05,-21.505c-3.661,-1.504 -6.619,-1.61 -9.489,1.179c-2.413,0.214 -4.016,-0.821 -4.573,-3.189c-0.289,-1.23 -1.056,-2.07 -1.79,-3.002c-1.074,-1.369 -0.872,-2.464 1.014,-2.632c1.164,-0.105 2.046,-0.493 2.879,-1.279c1.318,-1.236 1.715,-2.335 0.003,-3.592c-1.212,-0.891 -1.468,-2.097 -1.264,-3.661c0.25,-1.931 -1.54,-4.089 0.839,-5.803c-0.638,0.373 -1.11,0.728 -1.727,0.244" style="fill:#c1c2c2;fill-rule:nonzero;"/><path d="M82.777,2.917c1.252,-0.117 1.564,-1.751 2.906,-1.829c0.307,1.161 -0.433,1.901 -0.948,2.711c-0.65,1.02 -2.632,2.1 0.247,2.858c0.806,0.211 0.322,0.74 0.009,1.092c-1.709,1.91 -0.83,3.21 1.008,4.269c1.748,1.008 1.962,2.175 0.277,3.388c-1.396,1.008 -2.025,3.685 -4.696,2.163c-0.415,-0.238 -1.116,0.695 -0.451,1.194c1.688,1.264 2.295,2.921 2.753,4.919c0.265,1.173 2.073,1.351 3.168,2.004c0.388,1.727 -0.906,2.771 -1.727,3.92c-12.645,17.696 -25.356,35.344 -38.226,52.877c-4.756,6.483 -9.615,12.9 -14.017,19.639c-0.367,0.566 -0.614,1.291 -1.489,1.267c-1.059,-0.442 -2.223,-1.176 -3.18,-0.063c-0.842,0.978 -0.641,2.292 -0.181,3.4c0.52,1.258 1.065,2.461 2.335,3.336c1.784,1.23 3.493,2.705 4.335,4.802c0.728,1.811 2.617,2.127 3.941,2.915c2.124,1.261 4.242,2.663 6.877,3.174c3.992,0.773 7.482,3.033 11.071,4.88c2.223,1.143 4.516,2.166 6.646,3.619c1.3,0.888 3.61,2.028 5.596,2.283c2.948,0.376 4.883,2.819 7.407,3.433c5.59,1.363 9.263,6.285 15.094,7.211c6.327,1.008 12.025,4.095 17.967,6.402c4.203,1.634 8.111,4.089 12.75,4.985c2.81,0.542 5.542,2.647 8.511,3.222c6.847,1.321 13.34,5.154 20.695,3.156c0.924,-0.25 1.447,0.418 2.07,0.906c2.244,1.754 4.522,2.19 6.507,-0.298c1.264,-1.585 3.61,-1.125 4.793,-2.765c0.078,-0.111 0.629,-0.072 0.755,0.075c0.487,0.554 0.135,1.125 -0.144,1.637c-1.715,3.102 -3.556,6.14 -5.142,9.308c-1.601,3.192 -4.507,5.515 -5.74,8.92c-0.081,1.519 -1.318,1.243 -2.211,1.33c-1.619,0.159 -3.144,-0.331 -4.633,-0.936c-18.586,-7.575 -37.242,-14.979 -55.799,-22.615c-16.267,-6.697 -32.681,-13.027 -48.924,-19.787c-11.739,-4.883 -23.526,-9.693 -35.419,-14.221c-1.209,-0.46 -2.416,-1.011 -3.697,-1.14c-2.536,-0.253 -3.682,-1.516 -3.321,-4.07c2.69,-5.108 6.453,-9.486 9.778,-14.152c11.152,-15.65 22.446,-31.201 33.725,-46.764c9.239,-12.753 18.52,-25.482 27.814,-38.196c2.38,-3.252 4.883,-6.414 7.326,-9.618c1.429,-1.435 2.569,-3.09 3.643,-4.793l-0.057,-0.048Z" style="fill:#c5c6c6;fill-rule:nonzero;"/><path d="M162.307,277.01c1.435,2.235 4.074,1.95 6.122,2.9c0.337,0.153 0.809,0 1.167,0.126c1.074,0.379 2.78,0.171 2.99,1.429c0.208,1.24 -1.429,1.336 -2.356,1.823c-0.313,0.165 -0.49,0.59 -0.731,0.897c0.135,0.418 0.021,0.797 -0.286,1.068c-3.538,3.126 -3.219,6.763 -1.45,10.611c0.072,0.15 -0.06,0.349 -0.205,0.511c-3.406,1.236 -6.213,-0.68 -9.179,-1.742c-15.033,-6.207 -30.142,-12.227 -45.155,-18.475c-16.011,-6.667 -32.122,-13.09 -48.148,-19.715c-0.181,-0.075 -0.391,-0.066 -0.59,-0.09c-5.325,-2.347 -10.659,-4.684 -16.168,-6.589c-6.167,-2.966 -12.6,-5.307 -18.902,-7.957c-5.755,-2.422 -11.562,-4.729 -17.302,-7.19c-0.478,-0.202 -0.924,-0.361 -1.414,-0.093c-3.731,-1.125 -5.65,-3.418 -4.934,-7.491c0.135,-0.77 0.015,-1.585 0.018,-2.377c0.009,-5.06 0.319,-5.566 5.075,-7.416c3.679,-1.429 7.401,-2.765 11.104,-4.143c-1.188,3.83 -0.572,5.641 3.027,7.166c10.963,4.645 21.989,9.137 32.982,13.707c15.286,6.357 30.563,12.729 45.843,19.092c1.763,0.951 3.285,-0.493 4.955,-0.499c1.88,-0.499 3.487,0.463 5.187,0.942c0.445,0.063 0.869,0.19 1.288,0.346c4.799,2.028 9.648,3.926 14.501,5.815c1.2,0.626 2.626,0.653 3.794,1.378c1.258,1.182 3.315,1.161 4.263,2.813c0.331,2.611 1.802,3.962 4.293,4.976c6.73,2.741 13.322,5.815 20.208,8.177" style="fill:#bcbebe;fill-rule:nonzero;"/><path d="M157.557,175.541c4.04,-5.126 7.711,-10.518 11.456,-15.858c7.792,-11.107 15.683,-22.143 23.508,-33.226c4.164,-5.897 8.237,-11.859 12.419,-17.744c7.903,-11.128 15.861,-22.218 23.782,-33.331c2.467,-3.463 4.811,-7.019 7.374,-10.409c1.149,-1.516 0.253,-2.533 -0.328,-3.728c5.96,3.866 10.677,9.188 16.086,13.707c14.946,12.488 29.802,25.085 44.682,37.651c3.947,3.333 7.834,6.739 11.793,10.06c1.862,1.561 2.139,3.249 0.695,5.178c-1.128,1.51 -2.295,2.993 -3.49,4.453c-1.483,1.811 -3.324,2.419 -5.557,1.489c-1.354,-0.563 -2.708,-1.134 -4.058,-1.703c-2.684,-2.256 -5.102,-4.799 -7.602,-7.238c-8.321,-8.12 -17.413,-15.343 -26.201,-22.925c-7.509,-6.477 -15.07,-12.897 -22.437,-19.54c-1.137,-1.023 -2.491,-3.273 -4.101,-0.349c-1.802,3.024 -4.052,5.734 -6.026,8.637c-0.56,0.818 -1.158,1.573 -2.121,1.94c-9.17,12.921 -18.337,25.846 -27.507,38.77c-9.967,14.047 -19.937,28.093 -29.898,42.146c-1.595,2.247 -3.144,4.528 -4.714,6.793c-0.734,2.641 -2.617,4.212 -4.973,5.346c-1.444,0.469 -2.876,1.11 -4.407,0.325c-0.611,-1.54 -0.689,-3.21 -1.104,-4.808c-0.641,-2.461 1.435,-3.929 2.729,-5.638" style="fill:#888a8a;fill-rule:nonzero;"/><path d="M158.156,294.308c3.012,1.098 6.02,2.193 9.323,1.697c2.256,-2.133 5.409,-2.371 8.012,-3.776c0.803,-0.433 1.682,-0.43 1.549,-1.953c-0.153,-1.742 1.116,-3.168 2.708,-3.983c2.184,-1.119 3.932,-2.687 5.307,-4.684c3.015,-4.383 8.153,-5.852 12.545,-9.182c-4.705,0.358 -8.953,1.032 -13.216,1.552c-1.188,0.144 -2.368,0.313 -3.562,0.171c-0.695,-0.081 -1.555,-0.159 -1.757,-0.894c-0.241,-0.894 0.557,-1.396 1.218,-1.844c0.578,-0.391 1.224,-0.659 1.865,-0.927c18.89,-7.915 37.847,-15.665 56.746,-23.554c15.596,-6.51 31.367,-12.591 46.884,-19.293c0.824,-0.355 1.697,-0.496 2.512,-0.839c0.211,-1.381 0.418,-2.762 0.629,-4.146c4.567,0.343 8.544,2.175 12.127,4.922c0.794,0.608 1.131,1.616 1.423,2.575c0.262,0.863 0.376,1.751 0.385,2.647c0.084,7.795 0.536,9.293 -7.618,12.759c-13.165,5.596 -26.378,11.08 -39.583,16.583c-25.855,10.779 -51.698,21.589 -77.631,32.182c-4.32,1.763 -8.442,4.052 -13.361,3.057l-7.073,-2.605c-0.06,-0.457 -0.051,-0.827 0.566,-0.466" style="fill:#848686;fill-rule:nonzero;"/><path d="M157.557,175.541c0.027,1.417 -1.582,1.934 -1.778,3.243c-0.193,1.306 -0.9,2.702 0.298,3.827c1.273,1.197 0.298,2.049 -0.274,3.002c-2.211,1.321 -4.218,0.057 -6.122,-0.707c-3.559,-1.426 -7.133,-2.831 -10.659,-4.347c-0.674,-0.28 -1.33,-0.614 -2.031,-0.83c-1.974,-0.833 -3.983,-1.579 -5.933,-2.473c-2.777,-1.161 -5.557,-2.308 -8.4,-3.285c-1.24,-0.412 -2.386,-1.041 -3.604,-1.504c-4.841,-2.043 -9.729,-3.968 -14.606,-5.915c-1.495,-0.539 -2.954,-1.167 -4.407,-1.811c-2.241,-0.984 -4.534,-1.835 -6.805,-2.738c-2.711,-1.107 -5.442,-2.163 -8.156,-3.267c-5.846,-2.461 -11.688,-4.928 -17.648,-7.106c-1.095,-0.433 -2.229,-0.776 -3.297,-1.282c-5.716,-2.356 -11.357,-4.889 -17.191,-6.947c-1.974,-0.93 -4.164,-1.345 -6.038,-2.509c-2.365,-1.089 -4.805,-1.989 -7.232,-2.918c-2.298,-1.261 -5.169,-1.414 -6.998,-3.583c-1.751,-0.629 -3.336,-1.7 -5.235,-1.913c-5.406,-2.807 -11.222,-4.642 -16.787,-7.067c-4.305,-1.874 -5.487,-4.456 -4.104,-8.923c0.34,2.211 1.766,2.909 3.848,3.433c7.199,1.802 13.791,5.283 20.683,7.939c6.898,2.653 13.737,5.466 20.587,8.252c9.417,3.83 18.803,7.738 28.235,11.538c8.884,3.583 17.825,7.028 26.709,10.617c6.51,2.629 12.882,5.629 19.471,8.042c9.543,3.49 18.803,7.645 28.229,11.402c1.995,0.794 4.116,1.513 6.243,0.217c1.002,-0.794 2.001,-1.591 3.002,-2.386" style="fill:#adaeae;fill-rule:nonzero;"/><path d="M227.431,92.605c2.545,-3.583 5.09,-7.169 7.633,-10.752c2.647,0.43 4.221,2.533 6.098,4.074c14.281,11.742 28.144,23.984 42.351,35.819c1.531,1.276 2.924,2.699 4.251,4.185c0.803,0.9 1.57,1.889 0.584,3.159c0.024,4.892 0.048,9.781 0.072,14.672c-0.045,12.224 -0.105,24.447 -0.132,36.671c-0.024,8.634 -0.006,17.272 -0.551,25.957l0,-2.831c-0.009,-23.46 -0.066,-46.92 0.033,-70.378c0.009,-2.587 -0.915,-3.746 -3.123,-4.946c-7.735,-4.218 -14.811,-9.483 -22.07,-14.459c-5.716,-3.92 -10.843,-8.631 -16.86,-12.145c-2.458,-1.432 -4.603,-3.4 -6.886,-5.132c-2.849,-2.16 -5.611,-4.561 -9.588,-2.515c-1.399,0.719 -1.023,-1.149 -1.811,-1.378" style="fill:#949697;fill-rule:nonzero;"/><path d="M288.348,129.089c-0.168,-3.517 -3.243,-4.886 -5.373,-6.724c-12.825,-11.083 -25.816,-21.98 -38.761,-32.928c-3.024,-2.557 -6.095,-5.057 -9.146,-7.587c0.635,-2.75 1.94,-2.906 3.944,-1.128c5.394,4.799 10.791,9.597 16.273,14.296c9.004,7.72 18.253,15.166 27.046,23.117c4.209,3.809 8.812,7.335 12.073,12.109c0.463,0.677 2.034,0.415 1.516,1.838c-2.524,-0.999 -5.048,-1.998 -7.572,-2.993" style="fill:#707171;fill-rule:nonzero;"/><path d="M158.156,294.308l-0.566,0.466c-19.582,-8.021 -39.165,-16.038 -58.744,-24.059c-11.489,-4.708 -22.982,-9.423 -34.471,-14.131c-0.165,-0.12 -0.217,-0.238 -0.159,-0.352c0.057,-0.117 0.111,-0.174 0.168,-0.174c6.044,1.643 11.652,4.425 17.419,6.766c25.244,10.244 50.437,20.623 75.643,30.963c0.265,0.108 0.475,0.346 0.71,0.52" style="fill:#909293;fill-rule:nonzero;"/><path d="M10.704,234.524c0.328,-0.499 0.797,-0.56 1.294,-0.352c11.974,4.97 23.948,9.946 35.915,14.931c0.162,0.069 0.268,0.28 0.4,0.421c-0.253,0.283 -0.533,0.316 -0.842,0.093c-12.254,-5.03 -24.51,-10.063 -36.767,-15.094" style="fill:#909293;fill-rule:nonzero;"/><path d="M47.472,249.619c0.28,-0.03 0.56,-0.063 0.839,-0.093c5.578,1.643 10.909,3.881 16.074,6.534c-0.006,0.174 -0.009,0.349 -0.009,0.523c-5.635,-2.323 -11.27,-4.642 -16.905,-6.965" style="fill:#909293;fill-rule:nonzero;"/><path d="M82.833,2.964c-0.545,2.106 -1.718,3.734 -3.64,4.793c0.9,-1.835 1.98,-3.535 3.64,-4.793" style="fill:#c1c2c2;fill-rule:nonzero;"/><path d="M132.948,261.317c-0.96,-0.229 -1.922,-0.46 -2.882,-0.689c-4.802,-2.732 -10.042,-4.395 -15.193,-6.288c-0.331,-0.027 -0.662,-0.057 -0.993,-0.084c-0.526,-0.46 -1.092,-0.906 -1.751,-1.113c-2.214,-0.698 -2.663,-2.335 -2.638,-4.416c0.051,-4.958 0.015,-9.919 0.015,-14.88c-0.003,-14.781 -0.003,-29.561 0,-44.342c0,-0.993 -0.054,-1.989 0.051,-2.975c0.253,-2.329 0.954,-2.759 3.099,-1.91c1.36,0.539 2.635,1.366 4.197,1.179c5.999,2.434 11.998,4.865 18,7.296c2.181,1.889 2.747,4.245 2.729,7.121c-0.114,19.441 -0.063,38.882 -0.057,58.32c0.003,5.039 0.466,5.319 -4.576,2.783" style="fill:#848686;fill-rule:nonzero;"/><path d="M85.277,158.203l8.318,3.069c-0.466,1.197 -1.282,2.497 1.128,2.44c2.055,-0.045 3.679,1.089 5.355,2.262c0.057,-0.62 -0.472,-1.267 0.123,-1.781c1.399,0.59 2.795,1.179 4.191,1.769c0.71,2.259 2.47,3.363 4.603,3.719c2.41,0.4 4.585,1.134 6.498,2.684c1.357,1.095 2.693,1.101 3.818,-0.409c1.191,0.412 2.38,0.824 3.568,1.24c1.017,2.705 5.927,4.787 8.358,3.544c1.995,0.8 3.986,1.601 5.981,2.401c-0.039,2.037 1.149,0.563 1.799,0.626c5.096,1.685 9.796,4.422 15.052,5.677c0.56,0.132 1.155,0.117 1.733,0.171c1.64,0.307 3.153,-0.406 4.729,-0.602c1.399,1.922 1.883,4.182 2.01,6.453c0.328,5.846 1.062,11.691 0.791,17.549c-0.259,5.578 0.692,11.092 0.469,16.667c-0.599,15.184 0.442,30.368 0.039,45.552c-0.051,1.956 0.057,3.965 -0.927,5.785c-0.211,-0.012 -0.424,-0.024 -0.635,-0.033c-1.781,-1.588 -1.023,-3.755 -0.918,-5.542c0.695,-12.01 0.319,-24.011 0.15,-36.018c-0.048,-3.454 0.262,-6.917 0.162,-10.37c-0.274,-9.489 -0.716,-18.975 -0.56,-28.475c0.027,-1.573 -0.487,-2.999 -2.151,-3.039c-5.334,-0.12 -9.829,-2.681 -14.591,-4.558c-5.518,-2.172 -11.171,-4.067 -16.67,-6.225c-4.519,-1.769 -9.188,-3.412 -13.496,-5.83c-6.676,-3.746 -14.035,-5.987 -20.987,-9.14c-3.228,-1.462 -6.492,-2.846 -9.666,-4.416c-2.052,-1.014 -4.07,-2.031 -6.264,-2.735c-5.731,-1.844 -11.231,-4.055 -16.511,-7.16c-4.708,-2.768 -10.325,-3.956 -15.47,-6.023c-7.097,-2.849 -13.866,-6.33 -19.859,-11.156c-0.442,-0.355 -0.954,-0.755 -0.839,-1.483c0.539,-0.836 1.567,0.608 2.064,-0.427c2.413,0.984 4.826,1.968 7.238,2.948c2.422,3.502 3.505,3.947 7.178,2.963c1.983,0.815 3.962,1.628 5.942,2.443c0.764,2.804 2.711,4.401 5.478,4.72c2.518,0.289 4.874,0.906 7.052,2.145c1.604,0.915 3.189,0.912 4.832,0.202c1.026,0.343 2.142,0.466 2.996,1.23c-0.478,1.294 0.033,2.151 1.27,2.53c4.164,1.273 7.867,3.679 12.061,4.868c1.522,0.43 3.09,0.881 4.555,-0.235" style="fill:#c5c6c6;fill-rule:nonzero;"/><path d="M63.123,163.717c0.217,0.147 0.436,0.295 0.653,0.442c1.528,0.888 2.208,2.253 2.094,3.974c-0.451,6.715 0.638,13.397 0.181,20.148c-0.262,3.869 0.415,7.873 0.349,11.829c-0.027,1.667 0.078,3.46 -1.937,4.245c-3.785,-1.456 -7.569,-2.921 -11.056,-5.048c-4.925,-1.36 -5.463,-5.262 -5.463,-9.459c0.003,-9.257 -1.08,-18.553 1.11,-27.732c0.752,-3.156 0.629,-3.039 3.875,-2.046c3.463,1.059 6.489,3.306 10.196,3.646" style="fill:#c6c671;fill-rule:nonzero;"/><path d="M69.072,166.123c2.226,0.936 4.606,1.504 6.673,2.813c0.126,0.153 0.25,0.373 0.415,0.409c5.584,1.188 6.829,4.829 6.51,10.112c-0.554,9.185 0.289,18.397 0.202,27.603c-0.012,1.161 0.274,2.395 -0.536,3.442c-0.545,0.572 -1.24,0.635 -1.907,0.376c-3.391,-1.312 -6.901,-2.362 -9.919,-4.501c-4.14,-1.438 -4.326,-4.898 -4.344,-8.451c-0.045,-9.985 0.614,-19.973 0.048,-29.953c-0.15,-2.65 1.531,-1.823 2.858,-1.85" style="fill:#c6c671;fill-rule:nonzero;"/><path d="M108.573,253.163c-1.501,1.17 -3.162,0.545 -4.774,0.406c-0.042,-0.003 -0.102,-0.156 -0.096,-0.235c0.006,-0.093 0.075,-0.181 0.117,-0.271c2.259,0.262 1.682,-1.417 1.685,-2.569c0.03,-12.287 0.036,-24.576 0.033,-36.863c-0.003,-9.317 -0.048,-18.632 -0.03,-27.946c0.003,-1.959 0.096,-4.019 3.084,-3.021c0.981,0.845 1.188,1.925 1.185,3.186c-0.027,21.261 -0.021,42.522 -0.009,63.78c0,1.342 -0.147,2.572 -1.194,3.532" style="fill:#949697;fill-rule:nonzero;"/><path d="M42.958,197.465c-0.854,-1.158 -1.227,-2.443 -1.233,-3.89c-0.045,-11.318 -0.15,-22.636 -0.171,-33.954c-0.009,-3.574 0.984,-4.128 4.356,-2.675c0.927,1.417 0.794,3.024 0.797,4.6c0.012,9.892 0.006,19.781 0,29.673c0,1.486 0.024,2.966 0.343,4.425c-0.957,2.825 -1.408,3.024 -4.092,1.82" style="fill:#8e9091;fill-rule:nonzero;"/><path d="M42.958,197.465c1.525,0.165 3.246,0.725 3.499,-1.712c0.25,-0.162 0.52,-0.211 0.812,-0.168c1.892,1.462 4.308,1.946 6.24,3.336c2.44,1.014 4.874,2.052 7.329,3.036c1.185,0.472 2.256,1.062 3.021,2.115c2.705,-0.638 4.907,0.526 7.037,1.953c3.526,1.79 7.205,3.21 10.924,4.528c1.24,-0.731 0.695,-1.943 0.761,-2.963c0.262,-3.92 -0.46,-7.876 0.406,-11.778c0.957,5.006 0.608,10.066 0.235,15.07c-0.214,2.87 -1.718,3.373 -4.465,2.274c-10.828,-4.32 -21.658,-8.628 -32.471,-12.988c-1.348,-0.542 -2.867,-1.008 -3.327,-2.702" style="fill:#c7c8c8;fill-rule:nonzero;"/><path d="M53.508,198.921c-2.265,-0.821 -4.645,-1.384 -6.556,-2.981c-0.454,-1.306 -0.815,-2.602 -0.809,-4.028c0.042,-10.479 0.042,-20.954 0,-31.43c-0.006,-1.519 0.033,-2.789 2.031,-2.711c4.982,1.983 9.967,3.965 14.949,5.945c-1.573,1.029 -2.789,-0.247 -4.083,-0.71c-2.326,-0.827 -4.585,-1.844 -6.88,-2.759c-1.246,-0.499 -1.847,-0.635 -2.226,1.261c-1.273,6.363 -1.474,12.696 -1.221,19.167c0.178,4.588 0.108,9.161 0.511,13.77c0.304,3.466 3.273,2.449 4.534,3.992c0.042,0.048 0,0.196 -0.042,0.274c-0.045,0.084 -0.135,0.141 -0.208,0.211" style="fill:#666869;fill-rule:nonzero;"/><path d="M108.573,253.163c0.728,-1.94 0.599,-3.965 0.602,-5.978c0.012,-20.226 0.024,-40.452 0.036,-60.678c0.003,-1.315 0.105,-2.644 -0.62,-3.842c2.753,1.044 5.509,2.091 8.261,3.135c-1.45,1.089 -2.675,-0.078 -3.782,-0.602c-2.305,-1.089 -2.681,-0.247 -2.678,1.901c0.042,15.015 0.003,30.031 -0.003,45.049c0,5.271 0.105,10.542 -0.018,15.81c-0.057,2.362 0.09,4.356 2.789,5.117c0.542,0.153 0.707,0.647 0.719,1.179c-1.814,-0.156 -3.354,-1.619 -5.307,-1.092" style="fill:#525354;fill-rule:nonzero;"/><path d="M70.894,206.024c-2.274,-0.903 -4.597,-1.64 -7.037,-1.953c1.67,-0.526 1.649,-1.943 1.667,-3.276c0.057,-4.152 -0.545,-8.337 -0.343,-12.425c0.331,-6.727 -0.611,-13.409 -0.153,-20.109c0.108,-1.558 -0.223,-2.921 -1.252,-4.104c1.766,0.656 3.529,1.312 5.295,1.965c-1.646,0.28 -2.049,0.894 -1.892,2.834c0.31,3.827 -0.205,7.765 -0.03,11.574c0.343,7.383 -1.068,14.763 0.162,22.124c0.156,0.939 0.584,1.291 1.357,1.688c0.809,0.415 2.106,0.322 2.226,1.682" style="fill:#565758;fill-rule:nonzero;"/><path d="M132.948,261.317c4.248,1.02 4.257,1.02 4.26,-3.415c0.012,-18.46 -0.012,-36.923 0.054,-55.383c0.012,-3.397 0.075,-6.709 -2.41,-9.426c2.268,1.071 2.969,2.975 2.966,5.343c-0.015,21.806 -0.012,43.614 -0.012,65.42c-1.588,-0.906 -3.679,-0.848 -4.859,-2.539" style="fill:#545556;fill-rule:nonzero;"/><path d="M82.986,195.809c-0.03,4.365 -0.027,8.728 -0.135,13.09c-0.015,0.578 0.833,2.082 -1.032,1.655c0.674,-1.092 0.487,-2.305 0.487,-3.487c0.003,-8.932 -0.241,-17.87 0.075,-26.794c0.19,-5.289 -0.454,-9.51 -6.562,-10.671c-0.084,-0.018 -0.22,-0.114 -0.214,-0.159c0.021,-0.171 0.087,-0.34 0.138,-0.508c1.107,0.4 2.199,0.845 3.321,1.194c2.753,0.851 3.845,2.702 3.824,5.554c-0.051,6.709 0.054,13.418 0.096,20.127" style="fill:#4c4d4d;fill-rule:nonzero;"/><path d="M48.173,157.772c-1.176,0.487 -1.754,1.191 -1.745,2.641c0.081,10.545 0.102,21.093 -0.015,31.637c-0.015,1.381 1.33,2.476 0.539,3.89c-0.168,-0.054 -0.334,-0.117 -0.496,-0.187c-0.193,-0.656 -0.554,-1.312 -0.557,-1.968c-0.06,-12.281 -0.394,-24.561 0.009,-36.842c0.755,0.277 1.51,0.551 2.265,0.827" style="fill:#353536;fill-rule:nonzero;"/><path d="M162.916,277.017c-0.15,-12.909 0.526,-25.837 -0.34,-38.722c-0.457,-6.82 1.155,-13.586 0.072,-20.361c-0.584,-3.64 -0.217,-7.287 -0.298,-10.927c-0.159,-7.106 -0.015,-14.227 -2.067,-21.15c-0.069,-0.235 0.156,-0.56 0.247,-0.842c1.844,-1.315 3.388,-2.933 4.784,-4.699c0.457,0.596 0.048,2.632 1.549,1.495c4.377,-3.312 10.301,-4.01 13.999,-8.406c0.316,-0.379 0.86,-0.74 0.906,-1.152c0.668,-6.24 5.343,-8.917 10.124,-11.532c0.596,-0.328 1.438,-0.734 1.582,-1.267c0.936,-3.403 3.737,-5.129 6.384,-6.682c2.419,-1.417 3.216,-4.609 6.231,-5.187c0.361,-0.069 0.725,-0.638 0.999,-0.575c4.642,1.026 5.593,-2.951 7.587,-5.521c0.361,-0.469 0.797,-1.134 1.402,-0.96c3.535,1.014 8.048,-0.241 9.985,4.546c0.701,1.733 2.521,2.109 4.359,1.697c0.193,-0.045 0.382,-0.12 0.563,-0.196c0.581,-0.241 1.64,-0.292 1.628,0.054c-0.126,3.222 4.215,1.739 4.419,4.167c0.171,2.064 0.761,1.907 2.103,0.984c2.223,-1.525 3.415,-1.498 3.315,1.796c-0.06,2.058 1.772,3.779 1.209,6.237c-0.839,3.64 -1.844,4.516 -5.445,3.481c-0.695,-0.202 -1.42,-1.08 -2.109,-0.129c-0.505,0.698 0.021,1.483 0.46,1.88c1.366,1.236 0.331,2.602 0.403,3.896c-0.232,1.366 -1.561,2.109 -1.916,3.409c-0.138,0.295 -0.274,0.584 -0.394,0.884c-0.824,2.422 -0.34,4.913 -0.415,7.368c-0.15,5.042 0.19,10.09 -0.181,15.13c-0.933,4.603 -0.211,9.26 -0.424,13.887c-0.057,1.282 -0.012,2.569 0.006,3.842c0.027,0.481 0.087,0.957 0.638,1.167c0.223,0.075 0.406,0.205 0.563,0.376c0.253,0.403 0.352,0.857 0.463,1.306c0.144,0.554 0.46,1.065 0.454,1.661c-0.328,0.364 -0.99,0.803 -0.927,1.08c0.83,3.703 -1.928,4.928 -4.272,6.598c-2.485,1.772 -4.841,3.908 -7.199,5.65c-3.162,2.335 -6.282,5.4 -10.412,6.303c-2.717,0.596 -3.848,3.198 -6.176,4.362c-3.592,1.796 -7.166,3.758 -10.5,5.951c-3.625,2.386 -7.711,3.908 -10.975,7.193c-2.614,2.632 -5.954,5 -9.453,6.835c-3.815,1.998 -6.754,4.919 -8.968,8.728c-1.246,2.136 -2.07,4.597 -3.962,6.345" style="fill:#b5b6b7;fill-rule:nonzero;"/><path d="M288.292,226.799c-3.49,3.186 -8.117,4.043 -12.269,5.782c-20.933,8.77 -41.975,17.29 -62.968,25.921c-10.268,4.221 -20.518,8.481 -30.765,12.756c-0.978,0.409 -2.061,0.719 -3.096,2.064c7.019,0.337 13.541,-1.995 20.31,-1.279c-3.09,1.369 -5.087,4.173 -8.469,5.202c-2.491,0.761 -4.155,3.324 -5.779,5.427c-1.312,1.7 -2.72,3.078 -4.651,4.031c-1.892,0.936 -3.622,2.085 -2.311,4.717c0.388,0.773 -0.548,0.542 -0.851,0.692c-3.204,1.588 -6.501,2.954 -9.964,3.89c-1.098,-0.605 -2.572,-0.918 -1.649,-2.804c0.274,-0.557 0.174,-1.375 0.054,-2.037c-0.596,-3.279 0.906,-5.43 3.616,-6.977c3.646,-0.436 6.51,-2.762 9.799,-4.07c0.593,-0.238 1.056,-0.716 0.698,-1.39c-0.403,-0.761 -1.215,-1.047 -2.016,-1.065c-2.566,-0.057 -5.139,-0.012 -7.705,-0.063c-0.752,-0.015 -1.763,0.388 -2.19,-0.439c-0.466,-0.912 0.56,-1.369 1.071,-1.889c3.932,-3.989 8.475,-6.965 13.653,-9.248c5.325,-2.35 10.608,-4.862 15.656,-7.849c2.593,-1.537 5.593,-2.452 8.418,-3.58c12.142,-4.847 23.617,-11.152 35.741,-16.044c6.956,-2.807 13.755,-6.086 20.96,-8.15c6.357,-1.817 12.296,-5.006 18.981,-5.704c2.286,-0.238 4.72,-1.059 5.725,2.106" style="fill:#949697;fill-rule:nonzero;"/><path d="M248.214,165.288c5.027,-2.124 10.057,-4.245 15.085,-6.369c1.691,0.235 1.946,1.489 1.953,2.846c0.048,12.485 0.075,24.971 -0.012,37.456c-0.006,1.005 -0.277,1.959 -0.713,2.858c-0.4,1.098 -1.267,1.706 -2.289,2.157c-4.134,1.823 -8.469,3.192 -12.398,5.481c-0.256,0.147 -0.578,0.006 -0.866,-0.078c-2.196,-1.573 -1.971,-4.077 -1.998,-6.222c-0.135,-9.612 -0.253,-19.23 -0.045,-28.842c0.066,-3.108 -0.427,-6.375 1.285,-9.287" style="fill:#c6c671;fill-rule:nonzero;"/><path d="M240.448,168.199c1.261,-0.484 2.518,-0.966 3.779,-1.45c2.247,-0.448 2.999,0.283 2.96,2.732c-0.165,11.02 -0.069,22.04 -0.069,33.063c0,0.397 -0.054,0.803 0.006,1.191c0.836,5.364 0.147,6.384 -5.885,8.406c-1.417,0.475 -2.687,1.3 -4.14,1.679c-1.576,0.409 -2.497,-0.165 -2.687,-1.817c-0.123,-1.089 -0.087,-2.184 -0.09,-3.276c-0.033,-11.73 0.06,-23.457 -0.051,-35.184c0.021,-0.551 -0.09,-1.131 0.349,-1.591l-0.018,0.039c1.366,-2.163 3.237,-3.544 5.846,-3.791" style="fill:#c6c671;fill-rule:nonzero;"/><path d="M249.527,209.57c2.241,-3.027 6.092,-2.942 9.022,-4.648c1.685,-0.978 3.767,-1.164 5.301,-2.5c1.173,-1.628 1.194,-3.496 1.188,-5.391c-0.033,-12.961 0.042,-25.924 -0.048,-38.885c3.012,-0.972 4.206,-0.298 4.218,2.693c0.048,13.394 -0.012,26.788 0.033,40.181c0.009,2.647 -1.61,4.037 -3.649,4.904c-9.522,4.037 -19.095,7.951 -28.656,11.893c-0.355,0.144 -0.782,0.108 -1.176,0.156c-0.545,-0.328 -0.948,-0.755 -1.032,-1.414c-0.018,-1.622 0.533,-2.563 2.274,-3.195c2.87,-1.044 5.836,-1.95 8.496,-3.478c1.387,-0.797 2.681,-0.346 4.028,-0.316" style="fill:#808281;fill-rule:nonzero;"/><path d="M249.527,209.57c-4.293,0.572 -8.051,2.696 -12.064,4.08c-1.552,0.536 -2.401,1.393 -2.735,2.909c-0.09,-0.542 -0.178,-1.08 -0.268,-1.622c-0.963,-1.197 -0.725,-2.629 -0.731,-3.995c-0.075,-12.067 0.412,-24.131 0.274,-36.198c0.027,-0.602 0.171,-1.155 0.626,-1.588c0.951,0.897 0.539,2.061 0.542,3.105c0.036,11.336 0.033,22.672 0.039,34.008l0,3.348c3.547,-1.432 6.739,-2.726 9.934,-4.013c1.252,-0.505 1.366,-1.546 1.363,-2.702c-0.009,-12.726 -0.096,-25.455 0.081,-38.181c0.033,-2.271 -1.685,-1.221 -2.362,-1.974c1.33,-0.484 2.66,-0.972 3.989,-1.459c-0.767,10.301 -0.52,20.62 -0.436,30.933c0.03,3.61 -0.271,7.25 0.427,10.867c0.208,1.074 0.626,1.79 1.321,2.482" style="fill:#424243;fill-rule:nonzero;"/><path d="M264.992,158.146c1.056,0.728 0.569,1.826 0.572,2.741c0.039,12.136 0.027,24.276 0.03,36.412c0,1.907 -0.006,3.809 -1.745,5.123c0.788,-2.918 0.566,-5.903 0.569,-8.872c0.012,-10.397 0.006,-20.795 0.012,-31.192c0.003,-1.276 0.196,-2.605 -1.131,-3.439c0.566,-0.259 1.128,-0.514 1.694,-0.773" style="fill:#424243;fill-rule:nonzero;"/><path d="M240.448,168.199c-2.386,0.59 -4.236,2.004 -5.846,3.791c0.048,-1.591 1.3,-2.247 2.365,-3.045c1.161,-0.247 2.043,-1.796 3.481,-0.746" style="fill:#d3d4d4;fill-rule:nonzero;"/><path d="M31.591,103.391c4.774,-8.261 10.816,-15.641 16.381,-23.346c13.063,-18.093 26.375,-36.006 39.077,-54.357c3.288,-3.815 4.293,-4.064 8.673,-2.271c33.653,13.782 67.315,27.555 100.962,41.352c1.465,0.599 2.837,1.417 4.254,2.136c0.298,0.09 0.475,0.292 0.548,0.593c-0.539,2.723 -2.166,4.919 -3.824,6.965c-7.437,9.188 -13.749,19.182 -20.783,28.656c-7.563,10.187 -14.82,20.602 -22.642,30.599c-3.165,3.821 -6.098,7.813 -8.911,11.89c-0.912,1.327 -1.865,2.587 -3.159,3.526c-1.546,1.122 -3.216,1.333 -5.048,0.511c-7.939,-3.565 -16.207,-6.354 -24.122,-9.937c-9.766,-4.419 -19.874,-7.954 -29.727,-12.139c-7.843,-3.333 -15.629,-6.829 -23.632,-9.805c-7.314,-2.717 -14.585,-5.572 -21.712,-8.758c-1.718,-0.767 -3.64,-1.017 -5.211,-2.127c-1.053,-0.945 -1.233,-2.169 -1.125,-3.487" style="fill:#e8e9ea;fill-rule:nonzero;"/><path d="M201.18,67.454c-0.081,-0.184 -0.159,-0.367 -0.241,-0.551c1.291,0.147 2.521,0.478 3.571,1.288c3.363,2.593 3.719,5.175 1.152,9.239c-3.264,5.172 -6.847,10.112 -10.488,15.033c-4.931,6.67 -9.844,13.361 -14.745,20.058c-6.525,8.92 -12.816,18.012 -19.513,26.8c-3.493,4.582 -6.017,9.964 -11.101,13.34c-1.904,1.264 -3.415,1.784 -5.409,0.785c-0.105,-0.196 -0.165,-0.466 -0.03,-0.542c7.296,-4.046 10.825,-11.462 15.518,-17.747c4.218,-5.641 8.604,-11.171 12.56,-17.016c5.232,-7.729 11.005,-15.079 16.363,-22.726c3.189,-4.555 6.3,-9.185 9.838,-13.475c1.989,-2.413 3.096,-5.322 4.952,-7.783c0.439,-0.587 0.478,-1.294 0.178,-1.965c-18.361,25.476 -36.821,50.892 -55.326,76.271c-1.212,1.661 -2.305,3.538 -4.57,4.046c-2.265,-0.686 -1.369,-2.025 -0.578,-3.198c1.775,-2.629 3.613,-5.214 5.581,-7.711c4.723,-6.002 8.71,-12.551 13.394,-18.565c5.117,-6.574 9.456,-13.719 14.943,-20.003c1.065,-1.258 1.916,-2.647 2.56,-4.167c5.873,-8.439 11.929,-16.742 18.09,-24.974c1.435,-1.922 3.198,-3.785 3.3,-6.438" style="fill:#a5a7a6;fill-rule:nonzero;"/><path d="M143.672,152.1c3.351,-1.742 4.904,-5.12 6.971,-7.948c16.351,-22.362 32.603,-44.793 48.837,-67.243c1.477,-2.046 3.303,-3.947 3.658,-6.965c1.883,2.01 2.004,3.37 0.548,5.623c-8.006,12.401 -17.124,24.002 -25.623,36.045c-4.943,7.004 -10.298,13.719 -15.193,20.753c-3.679,5.286 -7.645,10.343 -11.417,15.551c-1.82,2.515 -4.028,4.54 -7.046,5.53c-5.208,-0.238 -9.645,-2.891 -14.284,-4.771c-28.232,-11.441 -56.424,-22.982 -84.569,-34.637c-3.776,-1.564 -8.033,-2.289 -11.083,-5.391c1.209,-0.803 2.259,-0.117 3.351,0.34c23.373,9.793 46.917,19.167 70.336,28.842c10.834,4.477 21.649,8.992 32.585,13.21c0.993,0.313 1.877,0.912 2.93,1.062" style="fill:#7c7e7d;fill-rule:nonzero;"/><path d="M140.815,151.745c-7.461,-2.374 -14.546,-5.704 -21.778,-8.646c-27.564,-11.213 -55.058,-22.591 -82.586,-33.897c-0.629,-0.259 -1.318,-0.376 -1.98,-0.557c-0.722,-0.454 -1.387,-0.963 -1.757,-1.766c3.854,-0.223 6.998,2.037 10.331,3.327c3.388,1.315 6.959,2.359 10.136,3.911c4.38,2.136 8.989,3.547 13.409,5.481c9.874,4.32 19.868,8.349 29.826,12.476c5.361,2.22 10.782,4.413 16.147,6.574c7.163,2.882 13.986,6.823 21.694,8.331c0.475,0.093 0.933,0.352 1.357,0.602c4.654,2.72 6.092,2.121 9.161,-2.497c2.774,-4.17 5.584,-8.373 9.179,-11.941c0.963,1.032 0.15,1.778 -0.403,2.575c-3.37,4.823 -7.166,9.335 -10.418,14.242c-0.581,0.875 -1.537,1.197 -2.317,1.784" style="fill:#d5d6d6;fill-rule:nonzero;"/><path d="M114.873,254.34c5.376,1.339 10.605,3.039 15.193,6.288c-5.078,-2.064 -10.289,-3.8 -15.193,-6.288" style="fill:#545556;fill-rule:nonzero;"/><path d="M85.277,158.203c0.078,1.45 -0.599,2.112 -1.995,1.64c-2.918,-0.981 -6.011,-1.191 -8.701,-3.204c-1.953,-1.462 -4.738,-1.811 -7.151,-2.663c-0.782,-0.277 -1.516,-0.749 -1.619,-1.585c-0.132,-1.056 0.755,-1.236 1.579,-1.351c6.173,1.859 12.082,4.377 17.886,7.163" style="fill:#c5c6c6;fill-rule:nonzero;"/><path d="M64.395,149.811c-0.767,1.763 -2.025,1.883 -3.625,1.17c-2.837,-1.267 -5.5,-2.84 -8.878,-2.714c-2.374,0.09 -3.752,-2.256 -5.454,-3.661c-1.062,-0.875 0.301,-1.267 0.596,-1.865c5.975,1.895 11.706,4.389 17.362,7.07" style="fill:#c5c6c6;fill-rule:nonzero;"/><path d="M119.313,171.954c0.178,2.268 -0.888,3.129 -2.753,1.823c-2.945,-2.058 -6.282,-2.888 -9.588,-3.998c-1.24,-0.415 -4.07,-1.002 -2.578,-3.818c5.136,1.598 10.1,3.616 14.919,5.993" style="fill:#c5c6c6;fill-rule:nonzero;"/><path d="M100.203,164.192c-0.59,1.405 2.62,1.775 1.08,3.078c-1.339,1.128 -1.625,-1.249 -2.738,-1.54c-1.378,-0.361 -2.398,-1.595 -4.149,-1.218c-1.005,0.217 -2.593,-0.078 -2.957,-1.441c-0.475,-1.781 1.703,-0.854 2.157,-1.799c2.202,0.975 4.404,1.946 6.607,2.921" style="fill:#c5c6c6;fill-rule:nonzero;"/><path d="M131.238,176.738c0.153,1.188 0.187,2.268 -1.558,1.57c-2.094,-0.839 -4.17,-1.736 -6.288,-2.518c-1.688,-0.626 -1.459,-1.513 -0.511,-2.596c2.798,1.155 5.728,1.995 8.358,3.544" style="fill:#c5c6c6;fill-rule:nonzero;"/><path d="M41.093,140.3c-0.897,0.728 -1.36,2.449 -3.024,1.459c-1.793,-1.068 -4.639,-1.197 -4.155,-4.422c2.479,0.782 4.907,1.682 7.178,2.963" style="fill:#c5c6c6;fill-rule:nonzero;"/><path d="M139.017,179.766c-0.569,1.91 -1.989,1.252 -2.741,0.533c-0.746,-0.713 0.939,-0.478 0.942,-1.158c0.599,0.208 1.2,0.418 1.799,0.626" style="fill:#c5c6c6;fill-rule:nonzero;"/><path d="M184.571,194.139c0.229,-2.485 1.826,-3.869 3.95,-4.744c3.015,-1.243 6.062,-2.401 9.095,-3.595c2.608,-0.178 4.765,-1.601 7.091,-2.554l-0.03,0.015c0.346,-0.214 0.755,-0.235 1.119,-0.382c3.709,-1.513 4.898,-0.806 4.459,3.24c-1.035,9.525 -0.379,19.062 -0.445,28.59c-0.024,3.288 -1.188,5.208 -4.164,6.372c-6.381,2.5 -12.633,5.322 -19.074,7.684c-2.178,0.46 -1.853,-1.08 -1.853,-2.335c-0.006,-7.804 0.021,-15.611 -0.015,-23.415c-0.015,-2.957 0.193,-5.921 -0.132,-8.875" style="fill:#c6c671;fill-rule:nonzero;"/><path d="M213.676,217.914c-0.644,3.451 -2.756,5.448 -6.059,6.501c-6.562,2.088 -12.819,4.94 -19.059,7.822c-2.509,1.155 -3.61,0.533 -4.098,-2.449c0.776,-1.173 2.127,-1.303 3.276,-1.808c6.137,-2.515 12.269,-5.039 18.418,-7.515c2.488,-1.002 3.427,-2.53 3.385,-5.199c-0.126,-8.024 -0.081,-16.05 -0.03,-24.077c0.024,-3.445 0.629,-6.889 -0.045,-10.331c2.19,-1.158 3.613,-0.542 4.26,1.85c0.529,3.634 0.187,7.29 0.22,10.936c0.063,7.121 0.03,14.242 0.006,21.36c-0.003,0.972 0.25,1.983 -0.274,2.909" style="fill:#868888;fill-rule:nonzero;"/><path d="M209.465,180.858c1.11,0.698 0.584,1.808 0.587,2.711c0.03,10.527 -0.063,21.056 0.036,31.583c0.03,3.051 -1.221,4.747 -4.001,5.818c-6.288,2.419 -12.506,5.015 -18.752,7.539c-0.274,-0.066 -0.463,-0.232 -0.578,-0.481c5.737,-2.401 11.444,-4.862 17.215,-7.175c4.874,-1.956 4.904,-1.88 4.907,-7.007c0.006,-7.338 0.081,-14.675 -0.027,-22.013c-0.03,-2.109 0.602,-4.101 0.617,-6.179c0.024,-3.496 -0.075,-3.58 -3.327,-2.53c-0.454,0.147 -0.975,0.096 -1.462,0.138c1.378,-1.233 3.135,-1.712 4.787,-2.404" style="fill:#424243;fill-rule:nonzero;"/><path d="M234.63,173.155c-0.06,0.391 -0.117,0.779 -0.178,1.17c-0.418,9.396 -0.03,18.797 -0.202,28.193c-0.075,4.137 0.388,8.288 -0.277,12.413c-0.208,0.436 -0.412,0.376 -0.608,-0.012c-0.484,-6.348 -0.4,-12.699 -0.039,-19.05c0.018,-6.622 0.036,-13.24 0.057,-19.859c0.006,-1.477 -0.141,-2.999 1.236,-4.058c0.003,0.4 0.006,0.803 0.009,1.203" style="fill:#d3d4d4;fill-rule:nonzero;"/><path d="M233.975,214.93c-0.003,-12.684 -0.009,-25.368 -0.003,-38.051c0,-0.872 -0.202,-1.802 0.481,-2.554c0.003,13.538 0.006,27.076 0.009,40.615c-0.162,-0.003 -0.325,-0.006 -0.487,-0.009" style="fill:#afb0b0;fill-rule:nonzero;"/><path d="M186.757,228.027c0.193,0.159 0.385,0.322 0.578,0.481c-0.96,0.427 -1.916,0.854 -2.876,1.282c0.039,-11.884 0.075,-23.767 0.111,-35.651c0.767,0.969 0.409,2.103 0.412,3.159c0.042,9.621 0.036,19.239 0.054,28.86c0,1.131 -0.358,2.635 1.721,1.868" style="fill:#333334;fill-rule:nonzero;"/><path d="M213.676,217.914c0.015,-11.736 0.03,-23.472 0.048,-35.205c0.767,0.71 0.536,1.646 0.536,2.509c0.015,10.069 0.015,20.142 0.003,30.211c-0.003,0.86 0.229,1.805 -0.587,2.485" style="fill:#afb0b0;fill-rule:nonzero;"/><path d="M233.327,195.869c0.012,6.351 0.027,12.702 0.039,19.05c-1.008,-0.993 -0.608,-2.268 -0.554,-3.4c0.247,-5.214 -0.692,-10.47 0.514,-15.65" style="fill:#afb0b0;fill-rule:nonzero;"/><path d="M204.708,183.245c-2.145,1.459 -4.269,2.975 -7.091,2.554c2.41,-0.722 4.543,-2.214 7.091,-2.554" style="fill:#424243;fill-rule:nonzero;"/><path d="M171.405,59.752c6.649,1.922 12.943,4.777 19.339,7.359c5.689,2.298 5.659,2.341 2.043,7.223c-4.128,5.569 -8.297,11.107 -12.311,16.754c-1.173,1.646 -2.464,2.482 -4.45,2.214c-0.888,0.542 -1.766,0.187 -2.566,-0.144c-5.584,-2.301 -11.342,-4.188 -16.706,-7.004c-3.219,-1.694 -3.577,-3.021 -1.546,-6.131c4.013,-6.14 8.677,-11.808 12.906,-17.792c0.83,-1.176 2.097,-1.784 3.291,-2.479" style="fill:#b7b680;fill-rule:nonzero;"/><path d="M143.343,50.222c1.495,-1.282 3.036,-1.396 4.889,-0.62c6.787,2.852 13.628,5.575 20.449,8.349c1.032,1.519 0.199,2.807 -0.605,4.013c-4.413,6.616 -9.317,12.879 -14.08,19.245c-1.447,1.934 -3.385,2.341 -5.572,1.339c-5.966,-2.732 -12.23,-4.735 -18.231,-7.377c-3.087,-1.36 -3.794,-2.927 -1.956,-5.545c4.392,-6.261 9.107,-12.293 13.61,-18.478c0.37,-0.505 0.918,-0.743 1.495,-0.927" style="fill:#b7b680;fill-rule:nonzero;"/><path d="M157.445,119.627c1.074,1.035 0.857,2.052 0.048,3.156c-4.675,6.378 -9.32,12.78 -13.986,19.167c-1.246,1.706 -2.744,2.377 -4.877,1.471c-6.357,-2.708 -12.756,-5.322 -19.137,-7.97c-0.854,-0.355 -1.468,-0.972 -1.943,-1.748c-0.578,-1.39 0.114,-2.473 0.903,-3.499c4.359,-5.68 8.325,-11.646 12.687,-17.326c2.602,-3.388 3.544,-3.697 7.605,-2.022c5.235,2.163 10.515,4.224 15.698,6.507c1.158,0.511 2.476,0.881 3.002,2.262" style="fill:#b7b680;fill-rule:nonzero;"/><path d="M116.133,131.87c-0.96,1.032 -1.98,1.396 -3.439,0.863c-6.883,-2.509 -13.58,-5.442 -20.268,-8.415c-1.209,-0.536 -1.646,-1.327 -1.354,-2.578c-0.036,-1.495 0.797,-2.632 1.591,-3.773c3.746,-5.382 7.822,-10.524 11.676,-15.825c2.265,-3.114 4.263,-3.574 7.795,-2.034c5.466,2.386 11.125,4.272 16.613,6.601c3.959,1.685 4.477,3.033 1.977,6.45c-4.104,5.611 -8.207,11.222 -12.365,16.796c-0.599,0.803 -1.246,1.552 -2.226,1.913" style="fill:#b7b680;fill-rule:nonzero;"/><path d="M116.292,39.943c1.772,-1.968 3.706,-2.031 6.092,-0.963c6.107,2.735 12.299,5.274 18.472,7.855c1.041,0.433 1.706,0.963 1.315,2.193c0.024,1.261 -0.551,2.274 -1.273,3.258c-4.116,5.593 -8.156,11.243 -12.416,16.73c-2.277,2.93 -3.812,3.342 -7.235,2.103c-5.692,-2.064 -11.285,-4.38 -16.869,-6.712c-4.128,-1.727 -4.48,-3.141 -1.901,-6.748c3.809,-5.325 7.783,-10.536 11.568,-15.882c0.572,-0.809 1.173,-1.622 2.247,-1.835" style="fill:#b7b680;fill-rule:nonzero;"/><path d="M89.878,120.542c-1.306,1.128 -2.647,1.444 -4.365,0.743c-6.411,-2.623 -12.861,-5.151 -19.318,-7.669c-1.243,-0.487 -2.064,-1.152 -1.934,-2.596c-0.072,-1.525 0.881,-2.608 1.703,-3.703c4.161,-5.554 8.117,-11.258 12.217,-16.854c2.157,-2.948 3.138,-3.144 6.583,-1.781c6.173,2.446 12.16,5.337 18.409,7.611c2.389,0.869 3.051,2.443 1.718,4.425c-4.432,6.571 -9.01,13.042 -13.999,19.209c-0.25,0.307 -0.665,0.43 -1.014,0.614" style="fill:#b7b680;fill-rule:nonzero;"/><path d="M74.596,51.17c1.934,-4.735 5.497,-8.409 8.282,-12.585c1.98,-2.963 4.29,-5.707 6.33,-8.634c1.438,-2.064 2.981,-2.876 5.503,-1.763c6.877,3.045 13.83,5.927 20.75,8.875c1.008,1.471 -0.108,2.602 -0.794,3.598c-4.293,6.216 -8.968,12.157 -13.286,18.358c-1.465,2.106 -3.309,2.536 -5.725,1.706c-6.492,-2.235 -12.732,-5.12 -19.185,-7.446c-1.011,-0.361 -1.7,-1.005 -1.874,-2.109" style="fill:#b7b680;fill-rule:nonzero;"/><path d="M63.156,109.85c-1.095,2.124 -2.314,1.543 -4.176,0.698c-5.773,-2.617 -11.733,-4.823 -17.597,-7.25c-3.042,-1.261 -3.577,-2.663 -1.73,-5.238c4.456,-6.213 9.068,-12.311 13.604,-18.463c0.608,-0.824 1.411,-1.372 2.298,-1.826c1.306,-0.451 2.524,-0.174 3.746,0.37c5.343,2.395 10.8,4.516 16.231,6.703c3.986,1.604 4.344,3.183 1.766,6.727c-3.794,5.217 -7.587,10.427 -11.432,15.605c-0.761,1.023 -1.393,2.202 -2.711,2.675" style="fill:#b7b680;fill-rule:nonzero;"/><path d="M176.022,95.037c0.238,1.116 0.141,2.172 -0.569,3.117c-5.009,6.664 -9.576,13.659 -14.94,20.058c-2.951,1.155 -5.442,-0.505 -7.921,-1.519c-4.768,-1.953 -9.54,-3.89 -14.326,-5.788c-3.03,-1.203 -3.55,-2.518 -1.748,-5.214c4.086,-6.113 8.592,-11.929 13.024,-17.792c2.232,-2.957 3.977,-3.27 7.296,-1.757c5.506,2.512 11.177,4.624 16.778,6.895c1.089,0.442 1.943,0.921 2.407,2.001" style="fill:#b7b680;fill-rule:nonzero;"/><path d="M56.694,76.179c-0.205,-1.209 0.475,-2.094 1.125,-2.969c4.979,-6.682 9.967,-13.358 14.952,-20.034c1.312,-0.812 2.608,-0.584 3.965,-0.06c6.101,2.359 12.055,5.084 18.213,7.296c2.295,0.824 3.015,2.813 1.604,4.771c-4.648,6.447 -9.257,12.924 -13.983,19.315c-1.209,1.631 -2.984,2.043 -4.82,1.354c-6.691,-2.512 -13.276,-5.289 -19.82,-8.159c-0.701,-0.31 -1.164,-0.731 -1.236,-1.513" style="fill:#b7b680;fill-rule:nonzero;"/><path d="M56.694,76.179c6.895,3.764 14.272,6.405 21.574,9.215c1.375,0.529 2.717,0.069 3.673,-1.249c4.666,-6.432 9.359,-12.84 14.041,-19.26c1.351,-1.85 0.788,-3.096 -1.227,-3.917c-6.155,-2.503 -12.308,-5.015 -18.457,-7.539c-1.155,-0.472 -2.335,-0.403 -3.526,-0.253c0.153,-1.08 1.763,-0.839 1.826,-2.007c2.169,2.064 5.114,2.473 7.729,3.565c4.474,1.871 9.038,3.532 13.535,5.343c1.859,0.746 3.357,0.764 4.672,-1.074c4.678,-6.525 9.441,-12.991 14.158,-19.486c0.52,-0.716 1.032,-1.474 0.773,-2.455c1.709,0.548 -0.009,2.082 0.827,2.882c-4.504,6.173 -9.013,12.347 -13.514,18.523c-2.103,2.888 -1.98,3.628 1.357,5.021c6.128,2.56 12.311,4.985 18.484,7.434c1.886,0.746 3.412,0.325 4.663,-1.417c4.925,-6.853 9.919,-13.656 14.889,-20.479l1.173,1.194c-4.588,6.222 -9.17,12.443 -13.764,18.659c-2.512,3.394 -2.344,4.239 1.51,5.833c6.029,2.497 12.118,4.853 18.138,7.368c1.838,0.767 3.144,0.153 4.155,-1.212c4.952,-6.691 9.856,-13.418 14.736,-20.16c0.569,-0.782 1.11,-1.691 0.563,-2.759c0.951,0.533 0.806,2.723 2.723,1.802c-5.903,6.73 -10.903,14.14 -16.132,21.381c-1.429,1.977 -0.863,3.213 1.212,4.185c6.381,2.99 12.94,5.536 19.54,7.985c0,0.578 -0.003,1.155 -0.003,1.733c-3.836,-2.554 -8.349,-3.562 -12.473,-5.469c-2.777,-1.285 -5.719,-2.217 -8.571,-3.348c-1.718,-0.683 -3.018,-0.328 -4.134,1.197c-4.624,6.324 -9.296,12.612 -13.956,18.908c-1.3,1.76 -1.125,3.036 1.074,3.884c6.369,2.461 12.714,4.979 19.071,7.476c1.119,0.439 2.256,0.758 3.478,0.529c-0.548,1.498 -2.575,-0.214 -3.066,1.414c-6.751,-2.87 -13.508,-5.719 -20.244,-8.622c-1.67,-0.719 -3.207,-0.65 -4.287,0.815c-5.012,6.793 -9.946,13.641 -14.883,20.488c-0.277,0.382 -0.325,0.927 -0.481,1.396c-1.2,-0.048 -0.256,-1.754 -1.417,-1.835c4.808,-6.546 9.555,-13.141 14.459,-19.618c1.67,-2.205 1.357,-3.436 -1.155,-4.429c-6.071,-2.404 -12.1,-4.91 -18.171,-7.311c-2.139,-0.848 -4.179,-1.077 -5.776,1.227c-4.684,6.754 -10.024,13.036 -14.414,20.003c-0.4,-0.4 -0.797,-0.8 -1.194,-1.2c4.48,-6.17 8.977,-12.329 13.442,-18.511c2.542,-3.52 2.332,-3.968 -1.709,-5.593c-5.782,-2.323 -11.559,-4.669 -17.248,-7.208c-2.464,-1.098 -4.055,-0.626 -5.56,1.51c-4.799,6.793 -9.69,13.523 -14.543,20.277c-0.37,-0.388 -0.737,-0.779 -1.107,-1.167c4.507,-6.155 9.004,-12.314 13.517,-18.463c2.732,-3.725 2.557,-4.275 -1.814,-6.053c-5.136,-2.088 -10.241,-4.245 -15.379,-6.324c-1.267,-0.511 -2.614,-0.833 -3.923,-1.24c-0.671,-1.282 1.384,-0.614 1.137,-1.591" style="fill:#f5f5f5;fill-rule:nonzero;"/><path d="M140.815,151.745c-0.018,-0.37 -0.199,-0.951 -0.03,-1.083c5.749,-4.468 8.83,-11.032 13.117,-16.643c0.147,-0.193 0.039,-0.578 0.051,-0.875c5.65,-7.596 11.33,-15.178 16.881,-22.837c4.841,-6.682 9.961,-13.192 14.402,-20.151c4.985,-7.807 11.42,-14.582 15.945,-22.702c1.243,1.922 -0.382,3.183 -1.243,4.41c-4.125,5.885 -8.4,11.664 -12.621,17.479c-2.368,3.264 -4.735,6.528 -7.1,9.79c-0.833,1.351 -1.781,2.635 -2.383,4.119c-8.511,11.276 -16.784,22.726 -24.898,34.288c-2.78,3.959 -5.833,7.726 -8.649,11.661c-0.542,0.761 -2.076,1.601 -0.614,2.9c-0.975,0.054 -1.989,0.427 -2.858,-0.355" style="fill:#c9caca;fill-rule:nonzero;"/><path d="M177.834,103.251c0.021,-1.82 1.065,-3.048 2.383,-4.119c-0.226,1.703 -1.291,2.918 -2.383,4.119" style="fill:#c1c2c2;fill-rule:nonzero;"/><path d="M132.027,107.515c-0.19,-0.057 -0.872,-0.199 -1.51,-0.454c-6.246,-2.53 -12.473,-5.111 -18.737,-7.605c-2.374,-0.945 -2.783,-2.326 -1.321,-4.347c4.531,-6.279 9.056,-12.563 13.61,-18.827c1.197,-1.646 2.726,-2.1 4.702,-1.261c6.387,2.708 12.801,5.346 19.212,7.997c2.094,0.866 2.35,2.16 1.056,3.938c-4.609,6.345 -9.194,12.708 -13.815,19.047c-0.644,0.884 -1.429,1.685 -3.198,1.513" style="fill:#b7b680;fill-rule:nonzero;"/><path d="M101.111,63.87c0.779,0.253 2.223,0.623 3.583,1.185c5.4,2.226 10.785,4.489 16.156,6.79c3.081,1.321 3.291,2.1 1.315,4.771c-4.365,5.9 -8.809,11.739 -13.12,17.675c-1.447,1.992 -2.933,2.542 -5.301,1.555c-6.213,-2.587 -12.509,-4.985 -18.776,-7.443c-2.232,-0.875 -2.482,-2.166 -1.179,-4.143c4.146,-6.306 8.944,-12.127 13.388,-18.213c0.773,-1.062 1.564,-2.395 3.935,-2.178" style="fill:#b7b680;fill-rule:nonzero;"/><path d="M503.723,121.15c0.554,0.993 1.14,1.971 1.309,3.126c-0.31,1.327 0.12,2.635 0.12,3.962c-0.036,25.253 -0.024,50.51 -0.03,75.763c-0.003,0.884 0.09,1.778 -0.156,2.647c-1.643,2.957 -4.218,4.952 -7.124,6.474c-5.487,2.879 -11.297,4.741 -17.552,4.994c-2.41,-0.701 -2.407,-0.701 -1.613,-2.984c0.514,-1.48 0.96,-3.042 0.749,-4.57c-0.848,-6.119 0.009,-12.251 -0.135,-18.376c-0.171,-7.157 -0.969,-14.302 -0.725,-21.475c0.081,-2.455 0.009,-4.898 1.853,-7.377c-5.331,0.346 -10.238,0.563 -15.133,0.096c-0.611,-0.244 -1.185,-0.523 -1.246,-1.294c0.665,-0.809 1.613,-0.704 2.47,-0.647c7.437,0.49 14.793,-0.554 22.097,-1.534c5.403,-0.725 10.62,-2.59 14.627,-7.256c-5.175,4.453 -10.942,6.718 -17.341,7.506c-1.721,-0.199 -2.229,-1.24 -2.395,-2.882c-0.364,-3.664 -0.472,-7.344 -0.806,-11.008c-0.199,-2.169 0.069,-4.314 0.593,-6.384c0.65,-2.557 2.918,-3.574 5.033,-4.66c0.208,-0.099 0.421,-0.184 0.635,-0.265c1.474,-0.28 2.771,-0.981 4.031,-1.76c3.15,-1.754 6.462,-3.249 8.619,-6.39c1.023,-1.492 2.118,-2.846 1.519,-4.823c-0.117,-0.385 -0.087,-0.921 0.599,-0.884" style="fill:#a1a3a2;fill-rule:nonzero;"/><path d="M431.203,124.695c0.569,-4.651 3.938,-7.305 7.284,-9.85c2.909,-2.211 6.384,-3.394 9.883,-4.386c0.776,-0.22 1.381,-0.382 1.498,-1.318c0.268,-2.082 1.745,-3.219 3.466,-4.013c7.001,-3.231 14.323,-3.833 21.872,-2.581c2.948,0.487 5.761,1.33 8.318,2.879c1.387,0.839 2.816,1.724 2.891,3.64c0.15,0.674 0.114,1.339 -0.072,2.004c-1.107,1.974 -2.924,3.102 -4.934,3.905c-1.781,0.71 -3.613,1.315 -5.478,1.799c-2.542,0.496 -5.057,1.194 -7.687,0.99c-4.838,0.033 -9.609,-0.722 -14.399,-1.261c-1.342,-0.15 -2.584,-0.526 -3.806,-1.137c-2.265,-1.134 -5.752,0.536 -6.471,2.999c-0.132,0.457 -0.178,0.96 0.153,1.264c1.345,1.221 1.727,2.855 2.193,4.507c0.394,1.39 1.534,2.142 2.924,2.467c1.227,0.289 2.473,0.505 3.74,0.554c1.158,0.045 2.205,0.4 3.008,1.249c3.069,3.237 7.175,3.688 11.237,4.025c2.374,0.199 4.726,0.397 7.049,0.912c0.635,0.141 1.414,0.256 1.543,1.059c0.141,0.881 -0.56,1.306 -1.2,1.694c-0.767,0.469 -1.628,0.713 -2.497,0.924c-3.114,0.755 -6.294,1.167 -9.477,1.164c-3.565,-0.006 -7.109,0.352 -10.674,0.28c-2.762,-0.057 -3.685,0.773 -4.359,3.463c-0.436,1.751 -0.4,3.562 -0.138,5.313c0.355,2.368 0.4,4.735 0.298,7.103c-0.072,1.591 0.102,3.078 0.827,4.495c-0.773,0.993 -1.724,0.529 -2.614,0.277c-3.773,-1.077 -7.232,-2.825 -10.515,-4.955c-3.078,-2.292 -4.167,-5.223 -4.007,-9.146c0.244,-6.035 0.49,-12.088 0.325,-18.135c-0.021,-0.728 0.159,-1.477 -0.181,-2.181" style="fill:#d3d4d4;fill-rule:nonzero;"/><path d="M431.203,124.695c0.668,0.68 0.385,1.54 0.388,2.32c0.024,6.498 0.123,13 -0.042,19.492c-0.063,2.428 0.536,4.272 2.449,5.752c0.629,0.484 1.083,1.191 1.616,1.799c2.356,1.983 5.34,2.843 7.918,4.441c0.241,0.454 0.412,0.9 -0.214,1.2c-3.622,-0.385 -6.42,-2.416 -9.14,-4.594c-0.581,-0.46 -0.984,-1.104 -1.706,-1.721c-0.325,0.752 -0.181,1.474 -0.181,2.16c-0.009,15.112 0.039,30.226 -0.048,45.341c-0.018,2.819 0.316,5.286 2.744,7.079c0.529,0.391 0.912,0.969 1.164,1.601c0.936,1.986 2.96,2.587 4.663,3.52c5.927,3.255 12.254,5.304 18.99,6.125c1.462,0.178 2.957,-0.057 4.389,0.388c0.229,0.099 0.406,0.256 0.539,0.463c-0.057,1.781 -1.465,1.396 -2.452,1.399c-4.435,0.018 -4.453,-0.021 -5.22,4.471c-0.427,2.488 0.099,5.003 -0.292,7.524c-0.367,2.371 -1.161,4.395 -2.786,6.152c-1.125,1.215 -2.422,1.91 -4.089,1.937c-1.85,0.03 -3.691,-0.021 -5.533,0.397c-1.754,0.397 -2.942,-1.276 -4.555,-1.513c-3.977,-1.3 -6.092,-4.407 -7.714,-7.991c-0.445,-1.483 -0.888,-2.969 -1.333,-4.456c0.352,-0.857 0.171,-1.757 0.171,-2.638c0.012,-28.984 0.009,-57.971 0.021,-86.958c0,-0.875 -0.193,-1.778 0.181,-2.632c0.024,-3.688 0.048,-7.374 0.069,-11.059" style="fill:#cfd0d0;fill-rule:nonzero;"/><path d="M485.962,110.856c-0.102,-0.662 0.141,-1.233 0.451,-1.79c0.517,0.722 1.146,1.14 2.058,1.447c6.089,2.073 11.763,4.808 15.25,10.638c-0.009,1.775 0.352,3.532 -0.897,5.193c-2.548,3.391 -5.758,5.794 -9.72,7.235c-1.267,0.758 -2.675,1.194 -4.019,1.778c-1.649,0.208 -2.978,1.965 -4.871,1.011c-0.126,-1.384 1.071,-1.357 1.868,-1.706c3.051,-1.339 6.134,-2.608 8.695,-4.826c0.445,-0.388 0.869,-0.803 1.252,-1.258c0.421,-0.499 1.107,-1.059 0.746,-1.712c-0.469,-0.845 -1.321,-0.343 -1.983,-0.117c-6.369,2.184 -12.946,2.99 -19.642,3.002c-2.738,0.006 -5.439,-0.59 -8.186,-0.505c-0.638,0.021 -1.369,-0.072 -1.588,-0.909c0.695,-0.945 1.742,-0.755 2.65,-0.686c5.099,0.379 9.982,-0.984 14.919,-1.841c3.222,-0.56 5.909,-2.286 8.159,-4.645c1.775,-1.856 1.579,-3.478 -0.548,-4.976c-0.361,-0.256 -0.734,-0.514 -1.143,-0.677c-2.118,-0.842 -3.309,-2.359 -3.451,-4.657" style="fill:#b7b8b9;fill-rule:nonzero;"/><path d="M505.171,153.67c0,24.134 -0.009,48.268 0.021,72.405c0,1.567 -0.286,3.069 -0.517,4.594c-1.056,-0.144 -1.005,-0.996 -0.948,-1.685c0.554,-6.868 -0.015,-13.752 0.337,-20.623c0.015,-0.295 0.06,-0.59 0.12,-0.878c0.018,-0.138 0.036,-0.274 0.054,-0.412c0.466,-0.809 0.451,-1.697 0.451,-2.59c-0.009,-25.879 -0.015,-51.755 -0.003,-77.634c0.003,-0.857 -0.298,-1.787 0.343,-2.572c0.057,0.418 0.114,0.836 0.171,1.252c0.319,7.013 0.054,14.026 0.141,21.038c0.009,0.812 0,1.625 0,2.437c-0.09,1.555 0.19,3.123 -0.171,4.669" style="fill:#888a8a;fill-rule:nonzero;"/><path d="M431.135,135.753c0.009,30.115 0.018,60.23 0.021,90.345c0,0.647 0.178,1.351 -0.397,1.886c-0.018,-1.182 -0.036,-2.368 -0.054,-3.55c0.015,-28.629 0.03,-57.255 0.063,-85.884c0,-0.936 -0.292,-1.937 0.367,-2.798" style="fill:#d3d4d4;fill-rule:nonzero;"/><path d="M505.179,149.108c0.105,0.036 0.214,0.072 0.319,0.102c0,1.453 0.003,2.909 0.003,4.362c-0.111,0.03 -0.22,0.063 -0.328,0.096c0,-1.519 0.003,-3.042 0.006,-4.561" style="fill:#a1a3a2;fill-rule:nonzero;"/><path d="M464.141,219.977c-5.888,0.129 -11.634,-1.038 -16.98,-3.228c-3.463,-1.414 -7.076,-2.852 -10.133,-5.196c-0.445,-0.343 -1.369,-0.412 -0.966,-1.375c1.249,-0.397 1.977,0.596 2.864,1.116c0.743,0.436 1.474,0.881 2.277,1.194c4.323,2.091 9.001,3.111 13.138,4.224c0.241,-2.097 2.061,-4.425 0.578,-6.832c0.009,-1.369 0.921,-2.305 1.634,-3.327c3.303,-4.741 6.757,-9.38 10.081,-14.107c1.715,-2.44 1.643,-2.584 -1.218,-3.054c-1.318,-0.217 -2.635,-0.436 -3.923,-0.788c-0.776,-0.214 -1.667,-0.385 -1.492,-1.549c-0.223,-5.012 -0.027,-10.024 -0.078,-15.033c0.021,-0.298 -0.226,-0.057 -0.223,-0.048c0.376,5.081 0.129,10.169 0.168,15.256c-0.096,0.277 -0.289,0.391 -0.578,0.349c-0.875,-0.722 -0.665,-1.742 -0.671,-2.672c-0.03,-3.977 0.012,-7.954 -0.036,-11.932c-0.009,-0.674 0.454,-1.796 -0.987,-1.715c-0.223,0.027 -0.442,0.015 -0.659,-0.027c-1.664,-2.81 1.176,-4.314 1.953,-6.393c0.46,-1.233 1.682,-1.763 3.15,-1.152c0.972,0.403 2.046,0.117 2.882,0.165c-0.671,-0.009 -1.543,0.111 -2.386,-0.087c-0.514,-0.12 -1.044,-0.394 -0.43,-1.059c1.035,-0.569 1.971,-0.087 2.921,0.262c4.955,-0.096 9.922,0.313 14.862,-0.394c0.581,-0.084 1.495,-0.4 1.781,0.391c0.256,0.707 -0.716,0.788 -1.059,1.218c-0.86,1.077 -1.294,2.344 -1.315,3.697c-0.105,6.354 0.728,12.708 0.656,19.017c-0.063,5.722 1.038,11.474 -0.132,17.197c-0.232,1.131 -0.165,2.386 0.048,3.532c0.611,3.273 0.4,6.39 -1.303,9.284c0.542,0.713 1.546,0.048 2.013,0.797c-0.915,0.918 -2.145,1.008 -3.291,1.062c-5,0.229 -10.003,1.146 -14.997,-0.126c-1.552,-0.394 -3.201,-0.099 -4.23,-0.409c1.616,0.406 3.878,0.054 6.008,0.722c0.322,0.319 0.343,0.659 0.072,1.02" style="fill:#bec0c0;fill-rule:nonzero;"/><path d="M484.178,136.245c1.73,0.22 3.18,-1.101 4.907,-0.888c-0.099,0.108 -0.174,0.274 -0.298,0.319c-5.731,2.16 -5.587,6.282 -5.256,12.064c0.178,3.126 0.656,6.243 0.596,9.365c-0.03,1.516 0.463,2.292 1.808,2.696c-3.045,1.567 -6.441,1.306 -9.684,1.808c-3.075,0.475 -6.191,0.208 -9.293,0.238c-1.327,0.012 -2.635,0.033 -3.95,0.334c-0.836,0.196 -1.784,0.193 -2.458,-0.593c-0.132,-0.623 0.358,-0.782 0.758,-0.86c2.341,-0.46 2.837,-2.268 2.837,-4.173c0,-4.353 0.298,-8.701 0.105,-13.054c-0.093,-2.076 0.981,-3.755 3.117,-4.344c4.991,-1.375 10.051,-2.479 15.16,-3.336c0.596,-0.099 1.188,-0.051 1.652,0.424" style="fill:#b5b6b7;fill-rule:nonzero;"/><path d="M464.118,219.11c-2.84,-0.223 -5.677,-0.469 -8.457,-1.285c8.321,1.065 16.625,1.077 24.916,-0.117c7.377,-1.074 14.492,-2.831 20.572,-7.503c1.197,-0.921 1.931,-2.22 3.09,-3.135l-0.009,-0.009c0.593,1.585 0.051,2.84 -1.059,3.998c-3.177,3.309 -7.238,4.976 -11.462,6.477c-3.845,1.366 -7.861,1.11 -11.787,1.682c-4.326,0.629 -8.695,0.511 -13.054,0.487c-0.957,-0.003 -1.94,0.093 -2.75,-0.596" style="fill:#888a8a;fill-rule:nonzero;"/><path d="M460.51,161.238c0.623,0.566 1.396,0.385 2.118,0.406c7.834,0.211 15.623,-0.156 23.307,-1.844c3.339,-0.656 6.571,-1.64 9.72,-2.945c3.168,-1.315 5.836,-3.327 8.43,-5.56c-0.563,2.524 -2.187,4.134 -4.299,5.385c-5.28,3.123 -11.137,3.86 -17.097,4.624c-6.194,0.794 -12.371,0.689 -18.565,0.809c-1.823,0.866 -3.818,0.427 -5.71,0.764c-0.752,0.087 -1.441,-0.102 -2.097,-0.457c-0.22,-0.144 -0.355,-0.349 -0.412,-0.605c0.147,-1.294 1.206,-1.107 2.052,-1.27c0.909,0.024 1.859,-0.108 2.554,0.692" style="fill:#868888;fill-rule:nonzero;"/><path d="M458.28,162.453c1.907,-0.809 3.902,-0.123 5.842,-0.343c0.304,0.286 0.605,0.572 0.906,0.857c-1.044,0.006 -2.088,0.012 -3.135,0.021c-1.3,0.469 -2.629,1.134 -3.613,-0.536" style="fill:#b5b6b7;fill-rule:nonzero;"/><path d="M489.085,135.357c1.128,-1.068 2.575,-1.417 4.019,-1.778c-1.095,1.146 -2.398,1.826 -4.019,1.778" style="fill:#b5b6b7;fill-rule:nonzero;"/><path d="M460.51,161.238c-0.872,-0.021 -1.742,-0.045 -2.614,-0.066c-2.62,-0.063 -5.268,0 -7.792,-0.848c-0.746,-0.253 -1.871,-0.114 -2.01,-1.342c-1.315,-0.824 -1.64,-1.838 -1.414,-3.484c0.548,-3.974 -0.403,-7.954 -0.4,-11.95c0,-1.724 0.635,-3.24 1.441,-4.591c0.954,-1.595 2.912,-1.149 4.419,-1.24c4.389,-0.262 8.797,0.039 13.189,-0.433c2.277,-0.241 4.555,-0.394 6.766,-1.035c0.635,-0.181 1.255,-0.424 1.859,-0.692c0.463,-0.205 1.119,-0.397 1.092,-0.978c-0.03,-0.743 -0.77,-0.478 -1.233,-0.584c-2.38,-0.551 -4.796,-0.713 -7.223,-0.93c-4.239,-0.382 -8.532,-0.827 -11.658,-4.407c-1.552,-1.778 -3.935,-0.692 -5.9,-1.236c-2.28,-0.635 -4.206,-2.085 -4.182,-4.419c0.015,-1.167 -0.304,-1.793 -1.191,-2.341c-1.357,-0.83 -1.486,-1.82 -0.502,-3.102c1.059,-1.375 2.214,-2.566 3.842,-3.261c0.878,-0.373 1.79,-0.554 2.551,0.003c3.219,2.356 7.091,1.646 10.659,2.283c2.596,0.463 5.274,0.713 7.945,0.52c-0.114,1.206 -1.161,0.939 -1.856,1.089c-2.314,0.505 -4.17,1.697 -5.22,3.791c-1.378,2.756 -3.55,3.58 -6.333,3.162c2.148,1.14 4.528,1.832 7.016,2.178c1.164,0.575 2.66,-0.15 3.691,0.936c2.69,0.942 5.545,0.602 8.282,0.746c7.326,0.379 14.57,-0.499 21.499,-3.171c0.86,-0.331 1.811,-0.599 2.449,0.235c0.689,0.9 -0.057,1.697 -0.599,2.365c-2.87,3.526 -6.935,5.193 -10.966,6.871c-0.671,0.28 -1.435,0.319 -1.94,0.939c-5.554,0.617 -10.906,2.232 -16.36,3.345c-2.046,0.418 -3.084,2.311 -2.933,4.456c0.235,3.318 0.373,6.712 -0.25,10.036c-0.25,1.318 0.623,2.482 0.099,3.905c-0.773,2.1 -1.546,3.797 -4.224,3.249" style="fill:#c9caca;fill-rule:nonzero;"/><path d="M465.452,128.262c-1.318,-0.196 -2.72,0.304 -3.962,-0.496c0.563,-1.604 1.925,-1.005 2.951,-0.939c3.785,0.241 5.292,-0.59 6.832,-4.034c0.418,-0.942 0.803,-1.901 1.146,-2.873c0.656,-1.85 1.829,-3.15 3.74,-3.725c2.759,-1.107 5.818,-1.522 8.156,-3.604c0.602,-0.536 1.24,-1.02 1.646,-1.736c0.208,0.078 0.593,0.15 0.596,0.229c0.042,2.687 2.217,3.309 4.046,4.362c3.147,1.814 3.216,3.998 0.587,6.525c-2.93,2.81 -6.378,4.098 -10.331,4.895c-5.12,1.035 -10.217,1.537 -15.407,1.396" style="fill:#9d9f9f;fill-rule:nonzero;"/><path d="M476.159,116.195c-2.205,1.387 -3.222,3.58 -3.968,5.93c-0.46,1.438 -1.146,2.792 -2.157,3.839c-1.285,1.336 -2.771,2.314 -4.928,1.549c-1.089,-0.385 -2.464,-0.551 -3.616,0.253c-3.24,-0.141 -6.029,-1.432 -8.61,-3.315c1.27,0.042 2.482,0.343 3.728,0.22c1.465,-0.147 2.753,-0.596 3.424,-2.043c1.459,-3.147 3.806,-4.991 7.365,-5.132c0.259,-0.009 0.505,-0.253 0.758,-0.388c2.741,0.31 5.325,-0.713 8.006,-0.912" style="fill:#b3b4b4;fill-rule:nonzero;"/><path d="M448.093,158.98c2.521,1.131 5.238,1.384 7.927,1.745c0.644,0.087 1.357,-0.144 1.877,0.448c-0.62,0.211 -1.637,-0.382 -1.742,0.863c-0.451,0.719 -1.083,0.927 -1.88,0.647c-1.33,-1.348 -3.216,-1.203 -4.835,-1.772c-2.109,-0.737 -4.465,-0.821 -6.261,-2.383c-2.626,-1.312 -5.587,-2.067 -7.566,-4.471c3.33,1.57 6.474,3.565 10.103,4.456c0.782,0.193 1.582,0.313 2.377,0.466" style="fill:#b5b6b7;fill-rule:nonzero;"/><path d="M464.118,219.11c6.408,-0.054 12.783,-0.4 19.182,-0.891c5.033,-0.385 9.528,-1.778 14.011,-3.628c2.617,-1.08 4.651,-3.081 6.528,-5.184c0.602,-0.674 0.349,-1.549 0.391,-2.347c0.665,0.584 0.442,1.372 0.442,2.082c0.012,5.839 -0.069,11.682 0.036,17.518c0.024,1.339 -1.197,2.675 -0.033,4.007c-0.099,0.43 -0.403,0.951 -0.262,1.276c2.043,4.666 -1.456,6.613 -4.395,8.562c-5.391,3.58 -11.652,4.717 -17.907,5.77c-2.422,0.409 -4.847,0.563 -7.296,0.409c-0.051,-0.912 0.659,-0.581 1.089,-0.635c6.703,-0.863 13.228,-2.317 19.284,-5.481c0.936,-0.487 1.721,-1.212 2.581,-1.555c-7.022,4.477 -15,6.291 -23.274,7.13c-1.261,-0.027 -2.464,-0.517 -3.728,-0.517c0.433,0.039 1.074,-0.262 0.915,0.65c-2.825,0.295 -5.647,0.409 -8.466,-0.063c1.131,-1.24 2.563,-1.396 5.072,-0.557c-0.554,-1.233 0.349,-1.835 1.17,-2.253c3.162,-1.604 4.29,-4.495 5.175,-7.636c1.243,-4.41 2.112,-8.92 3.535,-13.283c0.286,-0.872 0.641,-1.64 1.432,-2.163c-4.546,0.563 -9.086,0.247 -13.619,0.244c-0.533,-0.003 -1.011,-0.211 -1.405,-0.584c-0.144,-0.006 -0.292,-0.006 -0.436,-0.006c-0.009,-0.289 -0.015,-0.578 -0.024,-0.866" style="fill:#a5a7a6;fill-rule:nonzero;"/><path d="M454.343,162.503c0.605,-0.153 1.209,-0.31 1.814,-0.463c0.135,0.009 0.271,0.033 0.4,0.075c1.227,1.57 0.042,1.793 -1.095,1.763c-1.631,-0.042 -3.231,-0.439 -4.835,-0.755c-0.872,-0.171 -1.73,-0.433 -2.608,-0.575c-2.527,-0.409 -3.433,0.256 -3.755,2.75c-0.084,0.662 -0.208,1.327 -0.165,1.995c0.451,7.226 -0.337,14.32 -2.175,21.315c-0.62,2.371 -0.454,4.79 0.445,7.007c0.767,1.892 0.764,3.715 0.566,5.65c-0.388,3.734 -1.041,7.437 -1.342,11.18c-0.027,0.34 -0.274,0.487 -0.623,0.406c-1.94,-0.331 -3.162,-1.983 -4.907,-2.672c-0.075,-0.126 -0.114,-0.304 -0.226,-0.376c-4.083,-2.744 -4.383,-6.724 -4.317,-11.243c0.226,-14.886 0.081,-29.775 0.099,-44.664c0,-0.698 -0.235,-1.447 0.331,-2.335c2.942,4.149 6.968,6.534 11.688,7.849c3.445,0.529 6.703,1.823 10.124,2.461c0.277,0.054 0.394,0.412 0.581,0.632" style="fill:#d3d4d4;fill-rule:nonzero;"/><path d="M464.579,219.983c5.656,-0.099 11.318,0.331 17.464,-0.557c-4.681,2.834 -4.209,7.467 -5.382,11.306c-1.116,3.643 -1.736,7.44 -3.703,10.788c-0.593,1.011 -1.751,1.33 -2.551,2.073c-0.584,0.542 -2.368,0.268 -1.426,2.001c0.144,0.265 -0.59,0.202 -0.912,0.211c-1.628,0.048 -3.255,0.054 -4.88,0.078c-2.644,0.848 -5.154,-0.322 -7.723,-0.548c-0.65,-0.057 -1.27,-0.301 -1.913,-0.018c-0.208,0.042 -0.415,0.081 -0.626,0.123c-2.359,-0.596 -4.717,-1.194 -7.073,-1.79c-2.088,-1.197 -4.176,-2.395 -6.264,-3.592c0.184,-0.262 0.514,-0.505 0.731,-0.31c3.165,2.819 6.868,0.836 10.295,1.074c2.599,0.178 5.111,-3.881 5.542,-7.527c0.403,-3.394 -0.199,-6.817 0.761,-10.211c0.719,-2.542 0.984,-2.891 3.752,-2.44c1.303,0.214 2.873,1.077 3.908,-0.662" style="fill:#bec0c0;fill-rule:nonzero;"/><path d="M454.343,162.503c-2.837,-0.722 -5.677,-1.423 -8.505,-2.175c-0.764,-0.205 -1.588,-0.319 -2.199,-0.918c-0.153,-0.295 -0.307,-0.587 -0.457,-0.881c3.351,0.894 6.691,1.835 10.066,2.638c0.857,0.208 1.107,0.581 1.095,1.336" style="fill:#bec0c0;fill-rule:nonzero;"/><path d="M453.553,245.317c1.495,-0.993 2.951,0.108 4.404,0.205c1.736,0.114 3.481,0.298 5.232,0.361c2.855,0.575 5.71,0.626 8.565,-0.027c0.833,-0.448 1.697,-0.277 2.557,-0.111c7.966,-0.578 15.524,-2.56 22.495,-6.553c0.545,-0.313 0.996,-0.857 1.925,-0.722c-2.142,2.091 -4.663,3.252 -7.241,4.239c-5.045,1.934 -10.262,3.204 -15.668,3.61c-0.343,0.027 -0.671,0.241 -1.008,0.367c-7.142,0.397 -14.242,0.156 -21.261,-1.369" style="fill:#707171;fill-rule:nonzero;"/><path d="M440.97,212.85c-0.036,-4.486 1.053,-8.857 1.519,-13.289c0.235,-2.235 -1.273,-3.673 -1.327,-5.689c-0.048,-1.841 -0.274,-3.631 0.138,-5.478c0.945,-4.236 1.73,-8.466 2.067,-12.846c0.277,-3.592 -0.223,-7.148 0.205,-10.725c0.313,-2.596 1.354,-3.379 4.23,-3.021c2.473,0.307 4.901,1.005 7.35,1.522c0.99,0.211 1.853,0.256 1.405,-1.209c0.575,0.114 1.149,0.226 1.724,0.34c1.116,0.77 2.395,0.442 3.613,0.533c1.712,1.056 3.737,-0.087 6.137,0.993c-2.422,0.481 -4.23,0.436 -6.044,0.117c-0.505,-0.09 -0.987,-0.292 -1.504,-0.117c-1.233,0.418 -3.706,5.563 -3.382,7.031c0.472,1.038 -0.337,1.664 -0.803,2.365c-3.685,5.551 -7.876,10.737 -11.64,16.234c-1.417,2.073 -1.339,2.446 0.972,3.294c1.598,0.584 3.252,0.996 4.88,1.498c2.714,0.836 3.054,1.291 3.084,4.08c0.03,2.885 0.027,5.773 -0.003,8.658c-0.012,1.246 0.325,2.172 1.628,2.53c1.164,1.983 1.637,3.971 -0.199,5.824c-1.095,1.104 0.334,1.179 0.845,1.934c-5.313,-1.005 -10.325,-2.049 -14.895,-4.579" style="fill:#cfd0d0;fill-rule:nonzero;"/><path d="M455.219,209.669c-1.501,0.996 -2.205,0.469 -2.214,-1.209c-0.021,-3.484 -0.111,-6.971 0.036,-10.449c0.075,-1.766 -0.623,-2.506 -2.214,-2.918c-2.148,-0.551 -4.269,-1.218 -6.363,-1.937c-2.106,-0.725 -2.151,-1.375 -0.884,-3.183c4.453,-6.36 9.371,-12.386 13.52,-18.96c0.123,-0.003 0.247,-0.006 0.37,-0.009c0.957,-0.641 1.564,-0.758 1.549,0.764c-0.045,4.525 -0.03,9.05 0,13.571c0.003,0.713 -0.274,1.483 0.259,2.139c0.138,-0.018 0.277,-0.03 0.415,-0.039c0.162,-0.15 0.295,-0.129 0.4,0.066c2.175,1.002 4.552,1.173 6.862,1.525c2.001,0.307 2.226,0.863 1.041,2.488c-3.664,5.021 -7.229,10.115 -10.822,15.19c-0.683,0.966 -1.306,1.974 -1.956,2.96" style="fill:#b7b680;fill-rule:nonzero;"/><path d="M459.277,187.478c-0.815,-0.608 -0.472,-1.489 -0.478,-2.253c-0.036,-4.344 -0.084,-8.695 0.015,-13.039c0.027,-1.2 -0.409,-1.342 -1.345,-1.182c0.37,-0.421 0.575,-1.279 1.227,-1.068c0.731,0.238 0.584,1.095 0.584,1.754c0.003,5.262 0,10.527 -0.003,15.789" style="fill:#707171;fill-rule:nonzero;"/><path d="M460.093,187.504c-0.135,-0.006 -0.268,-0.03 -0.4,-0.066l0,-16.402l0.4,0l0,16.469Z" style="fill:#cfd0d0;fill-rule:nonzero;"/><path d="M474.312,245.744c-0.854,0.036 -1.706,0.075 -2.56,0.111c-0.424,-0.045 -0.851,-0.093 -1.504,-0.162c2.187,-0.445 2.41,-0.439 4.064,0.051" style="fill:#bec0c0;fill-rule:nonzero;"/><path d="M332.465,159.196l-15.5,0l18.198,22.284l-18.198,22.284l15.5,0l18.198,-22.284l-18.198,-22.284Z" style="fill:#808080;fill-rule:nonzero;"/><path d="M355.047,159.196l-15.5,0l18.198,22.284l-18.198,22.284l15.5,0l18.198,-22.284l-18.198,-22.284Z" style="fill:#808080;fill-rule:nonzero;"/><path d="M377.628,159.196l-15.5,0l18.198,22.284l-18.198,22.284l15.5,0l18.198,-22.284l-18.198,-22.284Z" style="fill:#808080;fill-rule:nonzero;"/></svg>