<?xml version="1.0" encoding="UTF-8" standalone="no"?>
<!DOCTYPE svg PUBLIC "-//W3C//DTD SVG 1.1//EN" "http://www.w3.org/Graphics/SVG/1.1/DTD/svg11.dtd">
<svg width="100%" height="100%" viewBox="0 0 246 145" version="1.1" xmlns="http://www.w3.org/2000/svg" xmlns:xlink="http://www.w3.org/1999/xlink" xml:space="preserve" xmlns:serif="http://www.serif.com/" style="fill-rule:evenodd;clip-rule:evenodd;stroke-miterlimit:10;">
    <g transform="matrix(1,0,0,1,-9588.02135,-2397.646583)">
        <g transform="matrix(2,0,0,2,8640,0)">
            <g transform="matrix(1.365838,0,0,1.365838,479.344755,1246.480891)">
                <path d="M0,2.995C-0.034,2.788 -0.098,2.58 -0.098,2.373C-0.107,-2.11 -0.108,-6.592 -0.11,-11.075C-0.11,-11.163 -0.099,-11.251 -0.093,-11.339C0.323,-11.488 0.624,-11.309 0.878,-10.996C0.778,-10.778 0.872,-10.64 1.053,-10.513C2.025,-9.825 3.064,-9.255 4.174,-8.832C5.016,-8.51 5.868,-8.21 6.704,-7.875C7.225,-7.667 7.653,-7.283 8.199,-7.091C10.718,-6.206 13.139,-5.074 15.571,-3.986C17.587,-3.084 19.646,-2.308 21.692,-1.489C22.577,-1.135 23.425,-0.698 24.397,-0.596C24.714,-0.563 24.865,-0.29 24.875,0.023C24.906,0.994 24.904,1.966 24.901,2.937C24.9,3.383 24.994,3.812 24.992,4.252C24.981,7.098 24.999,9.944 24.991,12.79C24.99,13.277 24.835,13.765 24.992,14.252C24.995,14.314 24.971,14.363 24.921,14.399C24.68,14.483 24.471,14.369 24.264,14.28C23.293,13.865 22.312,13.477 21.341,13.063C20.793,12.828 20.476,12.484 20.453,11.885C20.442,8.14 20.451,4.395 20.447,0.651C20.447,0.297 20.47,-0.065 20.144,-0.316C19.093,-0.919 17.924,-1.245 16.823,-1.729C16.293,-1.857 15.85,-2.238 15.283,-2.253C14.938,-2.036 15.047,-1.685 15.046,-1.386C15.037,2.113 15.041,5.613 15.04,9.112C15.04,9.324 15.05,9.537 15.022,9.748C14.996,9.944 14.955,10.137 14.721,10.196C14.446,10.222 14.201,10.106 13.958,10.007C10.944,8.778 7.954,7.49 4.937,6.269C3.593,5.725 2.256,5.161 0.916,4.607C0.638,4.492 0.356,4.379 0.124,4.183C-0.287,3.837 -0.329,3.4 0,2.995" style="fill:rgb(219,219,219);fill-rule:nonzero;"/>
            </g>
        </g>
        <g transform="matrix(2,0,0,2,8640,0)">
            <g transform="matrix(1.365838,0,0,1.365838,544.049976,1255.354742)">
                <path d="M0,-15.83C0.107,-15.631 0.061,-15.415 0.062,-15.206C0.075,-12.082 0.086,-8.957 0.097,-5.833C0.265,-5.644 0.238,-5.41 0.239,-5.185C0.245,-4.294 0.236,-3.403 0.245,-2.513C0.268,-2.291 0.252,-2.068 0.248,-1.846C0.222,-1.579 0.219,-1.304 0.038,-1.079C-0.987,-1.596 -1.92,-1.096 -2.86,-0.796C-4.358,-0.318 -5.846,0.195 -7.3,0.794C-8.001,1.083 -8.689,1.41 -9.384,1.715C-11.487,2.637 -13.569,3.609 -15.656,4.563C-17.206,5.272 -18.811,5.912 -20.23,6.894C-20.565,7.125 -20.877,7.377 -21.137,7.741C-20.871,7.883 -20.623,7.787 -20.387,7.799C-20.104,7.814 -19.819,7.804 -19.542,7.872C-19.365,7.916 -19.201,7.997 -19.174,8.205C-19.151,8.392 -19.273,8.52 -19.423,8.575C-19.989,8.782 -20.45,9.288 -21.127,9.175C-21.277,8.876 -20.898,8.873 -20.842,8.651C-21.247,8.495 -21.696,8.459 -22.092,8.271C-22.259,8.192 -22.548,8.186 -22.422,7.861L-22.427,7.856C-22.394,7.819 -22.36,7.782 -22.326,7.745C-21.762,6.516 -20.987,5.498 -19.754,4.83C-19.164,4.51 -18.629,4.059 -18.125,3.585C-17.636,3.126 -16.984,2.886 -16.41,2.541C-15.565,2.033 -14.635,1.661 -13.91,0.963C-13.779,0.837 -13.615,0.766 -13.438,0.737C-13.143,0.69 -12.905,0.557 -12.731,0.311C-12.69,0.254 -12.647,0.177 -12.585,0.161C-11.623,-0.096 -11.158,-1.06 -10.283,-1.449C-9.919,-1.61 -9.642,-1.893 -9.643,-2.348C-9.644,-2.578 -9.476,-2.684 -9.294,-2.773C-7.646,-3.46 -5.984,-4.11 -4.349,-4.827C-3.813,-5.062 -3.555,-5.384 -3.562,-5.993C-3.587,-8.149 -3.567,-10.306 -3.576,-12.463C-3.577,-12.791 -3.535,-13.181 -4.057,-13.165C-4.185,-13.127 -4.31,-13.082 -4.428,-13.02C-5.313,-12.641 -6.204,-12.275 -7.094,-11.91C-7.334,-11.834 -7.562,-11.727 -7.798,-11.64C-8.035,-11.575 -8.238,-11.414 -8.491,-11.392C-8.727,-11.472 -8.952,-11.207 -9.191,-11.369C-9.284,-11.597 -9.276,-11.846 -9.371,-12.081C-9.511,-12.427 -9.367,-12.573 -8.994,-12.526C-8.185,-12.423 -7.905,-12.758 -8.143,-13.549C-8.188,-13.701 -8.28,-13.841 -8.293,-13.999C-8.322,-14.348 -8.466,-14.433 -8.771,-14.249C-8.879,-14.185 -9.061,-14.137 -9.106,-14.258C-9.233,-14.599 -9.619,-14.62 -9.787,-14.84C-10.007,-15.128 -10.224,-15.184 -10.545,-15.161C-10.882,-15.136 -11.121,-15.352 -11.269,-15.62C-11.625,-16.267 -12.251,-16.191 -12.811,-16.169C-13.124,-16.157 -13.26,-15.75 -13.456,-15.513C-13.674,-15.252 -13.862,-15.062 -14.24,-15.096C-14.527,-15.121 -14.832,-14.977 -14.99,-14.761C-15.262,-14.389 -15.646,-14.178 -15.985,-13.902C-16.273,-13.669 -16.551,-13.438 -16.718,-13.084C-16.904,-12.692 -17.332,-12.574 -17.673,-12.361C-18.24,-12.006 -18.653,-11.538 -18.819,-10.871C-18.929,-10.428 -19.267,-10.137 -19.633,-9.94C-20.205,-9.632 -20.808,-9.385 -21.365,-9.039C-21.765,-8.79 -21.907,-8.9 -21.951,-9.375C-21.246,-10.561 -20.411,-11.659 -19.621,-12.787C-16.903,-16.667 -14.139,-20.515 -11.407,-24.387C-11.232,-24.635 -11.115,-24.975 -10.713,-24.962C-9.683,-25.118 -8.946,-24.549 -8.179,-23.99C-6.123,-22.493 -4.112,-20.93 -1.964,-19.561C-1.503,-19.267 -1.077,-18.913 -0.565,-18.703C-0.19,-18.549 -0.061,-18.297 -0.062,-17.882C-0.078,-13.692 -0.072,-9.503 -0.071,-5.313C-0.071,-5.15 -0.076,-4.986 -0.073,-4.878C-0.121,-4.919 -0.066,-5.037 -0.066,-5.139C-0.07,-8.569 -0.07,-11.998 -0.067,-15.428C-0.067,-15.563 -0.119,-15.712 0,-15.83" style="fill:rgb(175,176,176);fill-rule:nonzero;"/>
            </g>
        </g>
        <g transform="matrix(2,0,0,2,8640,0)">
            <g transform="matrix(1.365838,0,0,1.365838,494.112061,1241.349573)">
                <path d="M0,-30.617C0.327,-31.211 0.418,-31.245 1.09,-30.969C5.053,-29.343 9.011,-27.708 12.977,-26.091C17.481,-24.254 21.991,-22.432 26.496,-20.6C26.739,-20.502 26.966,-20.365 27.201,-20.247C27.539,-19.99 27.512,-19.728 27.277,-19.395C25.374,-16.695 23.418,-14.032 21.538,-11.316C19.366,-8.179 17.073,-5.127 14.957,-1.95C14.47,-1.218 13.964,-0.49 13.376,0.173C13.153,0.259 13.053,0.628 12.719,0.459C12.658,0.174 12.85,-0.009 13.004,-0.193C13.631,-0.948 13.96,-1.877 14.576,-2.742C14.175,-2.705 13.948,-2.534 13.728,-2.35C13.44,-2.107 13.095,-2.041 12.79,-2.231C12.399,-2.475 11.991,-2.484 11.568,-2.462C10.886,-2.425 10.257,-2.626 9.602,-2.789C8.572,-3.045 7.58,-3.406 6.585,-3.752C5.892,-3.992 5.216,-4.309 4.545,-4.613C3.578,-5.052 2.606,-5.451 1.568,-5.692C0.897,-5.847 0.235,-6.062 -0.263,-6.59C-0.377,-6.711 -0.523,-6.772 -0.686,-6.786C-0.923,-6.806 -1.127,-6.9 -1.319,-7.035C-1.933,-7.467 -2.64,-7.688 -3.344,-7.91C-3.691,-8.02 -3.919,-8.301 -4.241,-8.455C-5.339,-8.982 -6.474,-9.417 -7.587,-9.906C-8.091,-10.127 -8.541,-10.434 -8.837,-10.931C-8.972,-11.158 -9.197,-11.318 -9.4,-11.489C-9.639,-11.69 -9.793,-11.945 -9.852,-12.249C-9.898,-12.48 -9.906,-12.723 -9.691,-12.88C-9.483,-13.031 -9.261,-13.011 -9.064,-12.835C-8.953,-12.64 -8.963,-12.397 -8.818,-12.215C-8.717,-12.071 -8.587,-11.956 -8.452,-11.846C-7.922,-11.437 -7.272,-11.287 -6.672,-11.039C-2.721,-9.41 1.234,-7.793 5.193,-6.184C6.878,-5.499 8.55,-4.784 10.251,-4.137C10.469,-4.055 10.685,-3.992 10.916,-3.977C11.301,-3.829 11.612,-3.925 11.937,-4.187C12.47,-4.616 12.911,-5.113 13.235,-5.707C13.399,-6.008 13.643,-6.238 13.838,-6.51C15.633,-9.025 17.483,-11.499 19.312,-13.989C20.105,-15.069 20.944,-16.117 21.63,-17.277C22.235,-18.302 22.096,-18.755 20.973,-19.14C17.917,-20.437 14.835,-21.672 11.762,-22.929C8.673,-24.193 5.596,-25.484 2.508,-26.752C1.857,-27.02 1.331,-27.039 0.821,-26.543C0.392,-26.504 0.107,-26.689 0.008,-27.11C-0.044,-27.328 -0.18,-27.478 -0.31,-27.643C-0.501,-27.887 -0.466,-28.081 -0.13,-28.112C0.077,-28.13 0.234,-28.2 0.382,-28.339C0.616,-28.559 0.687,-28.754 0.383,-28.977C0.167,-29.136 0.122,-29.351 0.158,-29.629C0.202,-29.972 -0.116,-30.355 0.307,-30.66C0.194,-30.594 0.11,-30.531 0,-30.617" style="fill:rgb(193,194,194);fill-rule:nonzero;"/>
            </g>
        </g>
        <g transform="matrix(2,0,0,2,8640,0)">
            <g transform="matrix(1.365838,0,0,1.365838,494.112061,1241.956005)">
                <path d="M0,-31.061C0.222,-31.082 0.278,-31.372 0.516,-31.386C0.571,-31.18 0.44,-31.048 0.348,-30.904C0.233,-30.723 -0.12,-30.531 0.392,-30.396C0.535,-30.358 0.449,-30.264 0.394,-30.202C0.09,-29.862 0.246,-29.631 0.573,-29.443C0.883,-29.264 0.922,-29.056 0.622,-28.841C0.374,-28.662 0.262,-28.185 -0.213,-28.456C-0.287,-28.498 -0.411,-28.332 -0.293,-28.244C0.007,-28.019 0.115,-27.724 0.196,-27.369C0.244,-27.16 0.565,-27.129 0.76,-27.013C0.828,-26.706 0.599,-26.52 0.452,-26.316C-1.796,-23.17 -4.056,-20.032 -6.344,-16.915C-7.19,-15.762 -8.053,-14.621 -8.836,-13.423C-8.901,-13.323 -8.945,-13.193 -9.101,-13.197C-9.289,-13.276 -9.496,-13.407 -9.666,-13.209C-9.816,-13.035 -9.78,-12.801 -9.698,-12.604C-9.606,-12.381 -9.509,-12.167 -9.283,-12.011C-8.966,-11.792 -8.662,-11.53 -8.512,-11.158C-8.383,-10.835 -8.047,-10.779 -7.812,-10.64C-7.434,-10.415 -7.057,-10.166 -6.589,-10.075C-5.879,-9.937 -5.259,-9.536 -4.62,-9.208C-4.225,-9.004 -3.818,-8.822 -3.439,-8.564C-3.208,-8.406 -2.797,-8.203 -2.444,-8.158C-1.92,-8.091 -1.576,-7.657 -1.127,-7.548C-0.133,-7.305 0.52,-6.43 1.557,-6.265C2.681,-6.087 3.695,-5.537 4.751,-5.127C5.498,-4.837 6.193,-4.4 7.018,-4.241C7.517,-4.145 8.003,-3.77 8.531,-3.668C9.749,-3.433 10.903,-2.752 12.21,-3.107C12.375,-3.152 12.468,-3.033 12.579,-2.946C12.978,-2.634 13.383,-2.557 13.735,-2.999C13.96,-3.281 14.377,-3.199 14.587,-3.491C14.602,-3.51 14.699,-3.503 14.722,-3.477C14.808,-3.379 14.746,-3.277 14.696,-3.186C14.391,-2.634 14.064,-2.094 13.782,-1.531C13.498,-0.963 12.981,-0.551 12.762,0.055C12.747,0.325 12.527,0.276 12.368,0.291C12.08,0.319 11.809,0.232 11.545,0.125C8.24,-1.222 4.923,-2.538 1.624,-3.896C-1.268,-5.087 -4.186,-6.212 -7.074,-7.414C-9.162,-8.282 -11.257,-9.137 -13.372,-9.942C-13.587,-10.024 -13.801,-10.122 -14.029,-10.145C-14.48,-10.19 -14.684,-10.415 -14.62,-10.869C-14.141,-11.777 -13.472,-12.555 -12.881,-13.385C-10.898,-16.168 -8.89,-18.932 -6.885,-21.699C-5.242,-23.967 -3.592,-26.23 -1.94,-28.49C-1.517,-29.069 -1.072,-29.631 -0.637,-30.2C-0.383,-30.456 -0.181,-30.75 0.01,-31.053L0,-31.061Z" style="fill:rgb(197,198,198);fill-rule:nonzero;"/>
            </g>
        </g>
        <g transform="matrix(2,0,0,2,8640,0)">
            <g transform="matrix(1.365838,0,0,1.365838,513.425014,1255.574778)">
                <path d="M0,7.7C0.255,8.097 0.724,8.046 1.089,8.215C1.148,8.243 1.232,8.215 1.296,8.238C1.487,8.305 1.79,8.269 1.828,8.492C1.864,8.713 1.574,8.73 1.409,8.816C1.353,8.846 1.322,8.921 1.279,8.976C1.303,9.05 1.283,9.118 1.228,9.166C0.599,9.721 0.656,10.368 0.97,11.052C0.983,11.079 0.959,11.114 0.934,11.143C0.328,11.363 -0.171,11.023 -0.698,10.834C-3.371,9.73 -6.057,8.66 -8.726,7.548C-11.573,6.363 -14.437,5.221 -17.287,4.043C-17.319,4.03 -17.356,4.032 -17.391,4.027C-18.338,3.61 -19.286,3.195 -20.266,2.856C-21.362,2.329 -22.506,1.912 -23.627,1.441C-24.65,1.011 -25.682,0.6 -26.703,0.163C-26.788,0.127 -26.867,0.099 -26.954,0.146C-27.617,-0.054 -27.959,-0.461 -27.832,-1.186C-27.808,-1.323 -27.829,-1.467 -27.829,-1.608C-27.827,-2.508 -27.771,-2.598 -26.926,-2.926C-26.272,-3.181 -25.61,-3.418 -24.952,-3.663C-25.163,-2.982 -25.053,-2.66 -24.414,-2.389C-22.465,-1.563 -20.504,-0.765 -18.549,0.048C-15.832,1.178 -13.115,2.311 -10.399,3.443C-10.085,3.611 -9.814,3.355 -9.518,3.353C-9.184,3.265 -8.898,3.436 -8.596,3.521C-8.517,3.532 -8.441,3.555 -8.367,3.582C-7.514,3.943 -6.651,4.28 -5.789,4.616C-5.575,4.728 -5.322,4.732 -5.114,4.861C-4.89,5.072 -4.525,5.068 -4.356,5.361C-4.297,5.826 -4.036,6.066 -3.593,6.246C-2.396,6.733 -1.224,7.28 0,7.7" style="fill:rgb(188,190,190);fill-rule:nonzero;"/>
            </g>
        </g>
        <g transform="matrix(2,0,0,2,8640,0)">
            <g transform="matrix(1.365838,0,0,1.365838,512.271427,1216.423571)">
                <path d="M0,18.324C0.718,17.413 1.371,16.454 2.037,15.504C3.422,13.53 4.825,11.568 6.217,9.597C6.957,8.549 7.681,7.489 8.424,6.442C9.829,4.464 11.244,2.492 12.653,0.516C13.092,-0.099 13.508,-0.732 13.964,-1.334C14.168,-1.604 14.009,-1.785 13.905,-1.997C14.965,-1.31 15.804,-0.363 16.765,0.44C19.423,2.66 22.064,4.9 24.71,7.134C25.412,7.727 26.103,8.332 26.807,8.923C27.138,9.2 27.187,9.5 26.93,9.843C26.73,10.112 26.522,10.375 26.31,10.635C26.046,10.957 25.719,11.065 25.322,10.9C25.081,10.8 24.841,10.698 24.6,10.597C24.123,10.196 23.693,9.744 23.248,9.31C21.769,7.866 20.152,6.582 18.59,5.234C17.255,4.082 15.911,2.941 14.601,1.76C14.399,1.578 14.158,1.178 13.872,1.698C13.552,2.236 13.151,2.717 12.8,3.234C12.701,3.379 12.595,3.513 12.423,3.578C10.793,5.876 9.163,8.174 7.533,10.472C5.761,12.969 3.988,15.466 2.217,17.965C1.934,18.365 1.658,18.77 1.379,19.173C1.249,19.642 0.914,19.922 0.495,20.124C0.238,20.207 -0.016,20.321 -0.289,20.181C-0.398,19.907 -0.411,19.61 -0.485,19.326C-0.599,18.889 -0.23,18.628 0,18.324" style="fill:rgb(136,138,138);fill-rule:nonzero;"/>
            </g>
        </g>
        <g transform="matrix(2,0,0,2,8640,0)">
            <g transform="matrix(1.365838,0,0,1.365838,512.416889,1253.880456)">
                <path d="M0,12.016C0.535,12.211 1.071,12.406 1.658,12.318C2.059,11.938 2.62,11.896 3.082,11.646C3.225,11.569 3.381,11.57 3.357,11.299C3.33,10.989 3.556,10.736 3.839,10.591C4.227,10.392 4.538,10.113 4.783,9.758C5.318,8.979 6.232,8.718 7.013,8.126C6.176,8.189 5.421,8.309 4.663,8.401C4.452,8.427 4.242,8.458 4.03,8.432C3.906,8.418 3.753,8.404 3.718,8.273C3.675,8.115 3.816,8.025 3.934,7.946C4.037,7.876 4.152,7.828 4.266,7.781C7.624,6.373 10.995,4.996 14.355,3.593C17.128,2.435 19.932,1.354 22.691,0.163C22.837,0.099 22.992,0.075 23.137,0.013C23.175,-0.232 23.212,-0.478 23.249,-0.723C24.061,-0.662 24.768,-0.337 25.405,0.151C25.546,0.26 25.606,0.439 25.658,0.61C25.705,0.763 25.725,0.921 25.727,1.08C25.742,2.466 25.822,2.732 24.373,3.349C22.032,4.344 19.682,5.318 17.335,6.297C12.738,8.213 8.143,10.135 3.533,12.018C2.764,12.332 2.032,12.739 1.157,12.562C0.738,12.408 0.319,12.253 -0.101,12.099C-0.111,12.018 -0.109,11.952 0,12.016" style="fill:rgb(132,134,134);fill-rule:nonzero;"/>
            </g>
        </g>
        <g transform="matrix(2,0,0,2,8640,0)">
            <g transform="matrix(1.365838,0,0,1.365838,512.271427,1229.878444)">
                <path d="M0,8.473C0.005,8.725 -0.282,8.817 -0.316,9.049C-0.351,9.282 -0.476,9.53 -0.263,9.73C-0.037,9.943 -0.21,10.094 -0.312,10.264C-0.705,10.499 -1.062,10.274 -1.4,10.138C-2.033,9.884 -2.669,9.635 -3.295,9.365C-3.415,9.315 -3.532,9.256 -3.657,9.218C-4.007,9.069 -4.365,8.937 -4.712,8.778C-5.205,8.572 -5.699,8.368 -6.205,8.194C-6.425,8.121 -6.629,8.009 -6.846,7.926C-7.706,7.563 -8.575,7.221 -9.443,6.875C-9.708,6.779 -9.968,6.667 -10.226,6.553C-10.624,6.378 -11.032,6.227 -11.436,6.066C-11.918,5.869 -12.404,5.681 -12.886,5.485C-13.926,5.047 -14.964,4.609 -16.024,4.222C-16.219,4.145 -16.42,4.084 -16.61,3.994C-17.626,3.575 -18.629,3.125 -19.667,2.759C-20.017,2.593 -20.407,2.52 -20.74,2.313C-21.16,2.119 -21.594,1.959 -22.026,1.794C-22.435,1.57 -22.945,1.542 -23.27,1.156C-23.581,1.045 -23.863,0.854 -24.201,0.816C-25.162,0.317 -26.196,-0.009 -27.185,-0.44C-27.951,-0.773 -28.161,-1.232 -27.915,-2.026C-27.854,-1.633 -27.601,-1.509 -27.231,-1.416C-25.951,-1.095 -24.779,-0.477 -23.553,-0.005C-22.327,0.468 -21.111,0.968 -19.893,1.463C-18.219,2.144 -16.55,2.838 -14.873,3.514C-13.294,4.151 -11.704,4.764 -10.124,5.401C-8.967,5.869 -7.834,6.402 -6.663,6.831C-4.966,7.452 -3.32,8.19 -1.644,8.858C-1.289,9 -0.912,9.128 -0.534,8.897C-0.356,8.756 -0.178,8.614 0,8.473" style="fill:rgb(173,174,174);fill-rule:nonzero;"/>
            </g>
        </g>
        <g transform="matrix(2,0,0,2,8640,0)">
            <g transform="matrix(1.365838,0,0,1.365838,529.239646,1246.330512)">
                <path d="M0,-18.318C0.452,-18.955 0.905,-19.593 1.357,-20.23C1.828,-20.153 2.108,-19.779 2.441,-19.505C4.98,-17.418 7.445,-15.241 9.971,-13.137C10.243,-12.91 10.491,-12.657 10.727,-12.393C10.87,-12.233 11.006,-12.057 10.831,-11.831C10.835,-10.962 10.839,-10.092 10.843,-9.223C10.835,-7.05 10.825,-4.876 10.82,-2.703C10.816,-1.168 10.819,0.368 10.722,1.912L10.722,1.409C10.72,-2.762 10.71,-6.933 10.728,-11.104C10.73,-11.564 10.565,-11.77 10.173,-11.984C8.797,-12.733 7.539,-13.669 6.249,-14.554C5.232,-15.251 4.321,-16.089 3.251,-16.713C2.814,-16.968 2.433,-17.318 2.027,-17.626C1.52,-18.01 1.029,-18.437 0.322,-18.073C0.073,-17.945 0.14,-18.278 0,-18.318" style="fill:rgb(148,150,151);fill-rule:nonzero;"/>
            </g>
        </g>
        <g transform="matrix(2,0,0,2,8640,0)">
            <g transform="matrix(1.365838,0,0,1.365838,544.032357,1218.719682)">
                <path d="M0,8.384C-0.03,7.759 -0.577,7.515 -0.955,7.189C-3.236,5.218 -5.545,3.28 -7.847,1.334C-8.385,0.88 -8.931,0.435 -9.473,-0.015C-9.36,-0.503 -9.128,-0.532 -8.772,-0.215C-7.813,0.638 -6.853,1.491 -5.879,2.327C-4.278,3.699 -2.634,5.023 -1.07,6.436C-0.321,7.113 0.497,7.74 1.077,8.589C1.159,8.71 1.438,8.663 1.346,8.916C0.897,8.739 0.449,8.561 0,8.384" style="fill:rgb(112,113,113);fill-rule:nonzero;"/>
            </g>
        </g>
        <g transform="matrix(2,0,0,2,8640,0)">
            <g transform="matrix(1.365838,0,0,1.365838,512.416889,1261.116667)">
                <path d="M0,6.718C-0.034,6.746 -0.067,6.773 -0.101,6.801C-3.582,5.375 -7.064,3.949 -10.545,2.523C-12.588,1.686 -14.631,0.848 -16.674,0.011C-16.703,-0.01 -16.712,-0.031 -16.702,-0.052C-16.692,-0.072 -16.682,-0.083 -16.672,-0.083C-15.598,0.209 -14.601,0.704 -13.575,1.12C-9.087,2.942 -4.608,4.787 -0.126,6.626C-0.079,6.645 -0.042,6.687 0,6.718" style="fill:rgb(144,146,147);fill-rule:nonzero;"/>
            </g>
        </g>
        <g transform="matrix(2,0,0,2,8640,0)">
            <g transform="matrix(1.365838,0,0,1.365838,476.609937,1259.35856)">
                <path d="M0,-2.624C0.058,-2.713 0.142,-2.723 0.23,-2.687C2.359,-1.803 4.488,-0.918 6.615,-0.032C6.644,-0.02 6.663,0.018 6.687,0.043C6.642,0.093 6.592,0.099 6.537,0.06C4.358,-0.835 2.179,-1.729 0,-2.624" style="fill:rgb(144,146,147);fill-rule:nonzero;"/>
            </g>
        </g>
        <g transform="matrix(2,0,0,2,8640,0)">
            <g transform="matrix(-0.486038,1.276433,1.276433,0.486038,489.102116,1258.65169)">
                <path d="M1.468,-2.233C1.445,-2.188 1.422,-2.143 1.399,-2.1C1.32,-1.068 1.354,-0.041 1.468,0.985C1.497,0.995 1.526,1.006 1.556,1.016C1.527,-0.066 1.497,-1.149 1.468,-2.233" style="fill:rgb(144,146,147);fill-rule:nonzero;"/>
            </g>
        </g>
        <g transform="matrix(2,0,0,2,8640,0)">
            <g transform="matrix(1.365838,0,0,1.365838,494.12572,1200.706734)">
                <path d="M0,-0.852C-0.097,-0.478 -0.306,-0.188 -0.647,0C-0.487,-0.326 -0.295,-0.628 0,-0.852" style="fill:rgb(193,194,194);fill-rule:nonzero;"/>
            </g>
        </g>
        <g transform="matrix(2,0,0,2,8640,0)">
            <g transform="matrix(1.365838,0,0,1.365838,506.295339,1244.066089)">
                <path d="M0,13.336C-0.171,13.295 -0.342,13.254 -0.512,13.214C-1.366,12.728 -2.298,12.432 -3.213,12.096C-3.272,12.091 -3.331,12.085 -3.39,12.08C-3.484,11.999 -3.584,11.92 -3.701,11.883C-4.095,11.758 -4.175,11.468 -4.171,11.097C-4.161,10.216 -4.168,9.334 -4.168,8.452L-4.168,0.568C-4.168,0.392 -4.177,0.214 -4.159,0.039C-4.114,-0.375 -3.989,-0.451 -3.608,-0.3C-3.366,-0.205 -3.139,-0.058 -2.862,-0.091C-1.795,0.342 -0.728,0.774 0.338,1.206C0.726,1.542 0.827,1.961 0.824,2.472C0.803,5.929 0.812,9.385 0.814,12.841C0.814,13.737 0.897,13.787 0,13.336" style="fill:rgb(132,134,134);fill-rule:nonzero;"/>
            </g>
        </g>
        <g transform="matrix(2,0,0,2,8640,0)">
            <g transform="matrix(1.365838,0,0,1.365838,494.719177,1260.21016)">
                <path d="M0,-16.817L1.479,-16.271C1.396,-16.058 1.251,-15.827 1.679,-15.837C2.045,-15.846 2.334,-15.644 2.632,-15.435C2.642,-15.545 2.548,-15.66 2.654,-15.752C2.902,-15.647 3.151,-15.542 3.399,-15.437C3.525,-15.036 3.838,-14.839 4.217,-14.776C4.645,-14.705 5.032,-14.575 5.372,-14.299C5.613,-14.104 5.851,-14.103 6.051,-14.372C6.263,-14.299 6.474,-14.225 6.686,-14.152C6.867,-13.671 7.739,-13.301 8.172,-13.522C8.526,-13.379 8.88,-13.237 9.235,-13.095C9.228,-12.733 9.439,-12.995 9.555,-12.983C10.461,-12.684 11.296,-12.197 12.231,-11.974C12.33,-11.95 12.436,-11.953 12.539,-11.944C12.831,-11.889 13.099,-12.016 13.38,-12.051C13.628,-11.709 13.715,-11.307 13.737,-10.903C13.795,-9.864 13.926,-8.825 13.878,-7.783C13.831,-6.791 14.001,-5.811 13.961,-4.82C13.855,-2.12 14.04,0.579 13.968,3.279C13.959,3.627 13.978,3.984 13.804,4.307C13.766,4.305 13.728,4.303 13.69,4.301C13.374,4.019 13.509,3.634 13.527,3.316C13.651,1.181 13.584,-0.953 13.554,-3.087C13.546,-3.702 13.601,-4.317 13.583,-4.931C13.534,-6.618 13.455,-8.305 13.484,-9.994C13.488,-10.273 13.397,-10.527 13.101,-10.534C12.153,-10.556 11.353,-11.011 10.507,-11.344C9.526,-11.731 8.521,-12.068 7.543,-12.451C6.74,-12.766 5.91,-13.058 5.143,-13.488C3.957,-14.154 2.648,-14.552 1.412,-15.113C0.838,-15.373 0.258,-15.619 -0.307,-15.898C-0.671,-16.078 -1.03,-16.259 -1.42,-16.384C-2.439,-16.712 -3.417,-17.105 -4.356,-17.657C-5.193,-18.149 -6.191,-18.361 -7.106,-18.728C-8.368,-19.235 -9.571,-19.853 -10.637,-20.712C-10.715,-20.775 -10.806,-20.846 -10.786,-20.975C-10.691,-21.124 -10.507,-20.867 -10.419,-21.051C-9.99,-20.876 -9.561,-20.702 -9.132,-20.527C-8.702,-19.904 -8.509,-19.825 -7.856,-20C-7.504,-19.855 -7.152,-19.711 -6.8,-19.566C-6.664,-19.067 -6.318,-18.783 -5.825,-18.727C-5.378,-18.675 -4.959,-18.566 -4.572,-18.345C-4.287,-18.183 -4.005,-18.183 -3.713,-18.309C-3.53,-18.248 -3.332,-18.226 -3.18,-18.091C-3.265,-17.86 -3.174,-17.708 -2.954,-17.641C-2.214,-17.414 -1.555,-16.987 -0.81,-16.775C-0.539,-16.698 -0.26,-16.619 0,-16.817" style="fill:rgb(197,198,198);fill-rule:nonzero;"/>
            </g>
        </g>
        <g transform="matrix(2,0,0,2,8640,0)">
            <g transform="matrix(1.365838,0,0,1.365838,489.339276,1247.292472)">
                <path d="M0,-6.379C0.039,-6.353 0.077,-6.327 0.116,-6.3C0.388,-6.143 0.509,-5.9 0.488,-5.594C0.408,-4.4 0.602,-3.212 0.52,-2.012C0.474,-1.324 0.594,-0.612 0.583,0.091C0.578,0.388 0.596,0.707 0.238,0.846C-0.435,0.587 -1.108,0.327 -1.728,-0.051C-2.603,-0.293 -2.699,-0.987 -2.699,-1.733C-2.698,-3.379 -2.891,-5.032 -2.502,-6.663C-2.368,-7.225 -2.39,-7.204 -1.813,-7.027C-1.197,-6.839 -0.659,-6.44 0,-6.379" style="fill:rgb(198,198,113);fill-rule:nonzero;"/>
            </g>
        </g>
        <g transform="matrix(2,0,0,2,8640,0)">
            <g transform="matrix(1.365838,0,0,1.365838,489.339276,1247.292472)">
                <path d="M0,-6.379C0.039,-6.353 0.077,-6.327 0.116,-6.3C0.388,-6.143 0.509,-5.9 0.488,-5.594C0.408,-4.4 0.602,-3.212 0.52,-2.012C0.474,-1.324 0.594,-0.612 0.583,0.091C0.578,0.388 0.596,0.707 0.238,0.846C-0.435,0.587 -1.108,0.327 -1.728,-0.051C-2.603,-0.293 -2.699,-0.987 -2.699,-1.733C-2.698,-3.379 -2.891,-5.032 -2.502,-6.663C-2.368,-7.225 -2.39,-7.204 -1.813,-7.027C-1.197,-6.839 -0.659,-6.44 0,-6.379Z" style="fill:none;fill-rule:nonzero;stroke:rgb(35,35,35);stroke-width:0.18px;"/>
            </g>
        </g>
        <g transform="matrix(2,0,0,2,8640,0)">
            <g transform="matrix(1.365838,0,0,1.365838,490.783923,1249.90095)">
                <path d="M0,-7.861C0.396,-7.694 0.819,-7.594 1.186,-7.361C1.209,-7.334 1.231,-7.295 1.26,-7.288C2.253,-7.077 2.475,-6.429 2.418,-5.49C2.319,-3.857 2.469,-2.219 2.454,-0.583C2.452,-0.376 2.502,-0.157 2.358,0.029C2.262,0.131 2.138,0.142 2.019,0.096C1.416,-0.137 0.792,-0.324 0.255,-0.704C-0.48,-0.96 -0.514,-1.575 -0.517,-2.207C-0.525,-3.982 -0.408,-5.757 -0.508,-7.532C-0.535,-8.003 -0.236,-7.856 0,-7.861Z" style="fill:rgb(198,198,113);fill-rule:nonzero;stroke:rgb(35,35,35);stroke-width:0.18px;"/>
            </g>
        </g>
        <g transform="matrix(2,0,0,2,8640,0)">
            <g transform="matrix(1.365838,0,0,1.365838,500.376342,1243.222274)">
                <path d="M0,12.504C-0.267,12.712 -0.562,12.601 -0.849,12.576C-0.856,12.576 -0.867,12.548 -0.866,12.534C-0.865,12.518 -0.853,12.502 -0.845,12.486C-0.443,12.533 -0.546,12.234 -0.546,12.03C-0.54,9.845 -0.539,7.66 -0.54,5.475C-0.54,3.819 -0.548,2.163 -0.545,0.507C-0.545,0.159 -0.528,-0.208 0.003,-0.03C0.178,0.12 0.214,0.312 0.214,0.536C0.209,4.316 0.21,8.096 0.212,11.876C0.212,12.114 0.186,12.334 0,12.504" style="fill:rgb(148,150,151);fill-rule:nonzero;"/>
            </g>
        </g>
        <g transform="matrix(2,0,0,2,8640,0)">
            <g transform="matrix(1.365838,0,0,1.365838,484.442473,1236.875633)">
                <path d="M0,7.248C-0.152,7.042 -0.218,6.814 -0.219,6.556C-0.227,4.544 -0.246,2.532 -0.25,0.52C-0.251,-0.116 -0.075,-0.214 0.525,0.044C0.69,0.296 0.666,0.582 0.666,0.862C0.668,2.621 0.668,4.379 0.667,6.138C0.667,6.402 0.67,6.665 0.728,6.924C0.557,7.427 0.477,7.462 0,7.248" style="fill:rgb(142,144,145);fill-rule:nonzero;"/>
            </g>
        </g>
        <g transform="matrix(2,0,0,2,8640,0)">
            <g transform="matrix(1.365838,0,0,1.365838,484.442473,1250.383773)">
                <path d="M0,-2.642C0.271,-2.613 0.577,-2.513 0.622,-2.946C0.666,-2.975 0.715,-2.984 0.767,-2.976C1.103,-2.716 1.532,-2.63 1.876,-2.383C2.31,-2.203 2.742,-2.018 3.179,-1.844C3.389,-1.759 3.58,-1.655 3.716,-1.467C4.197,-1.581 4.588,-1.374 4.967,-1.12C5.594,-0.802 6.248,-0.55 6.909,-0.315C7.13,-0.445 7.033,-0.661 7.045,-0.842C7.091,-1.539 6.963,-2.243 7.117,-2.936C7.287,-2.046 7.225,-1.147 7.158,-0.257C7.12,0.254 6.853,0.342 6.365,0.148C4.44,-0.621 2.514,-1.387 0.591,-2.162C0.352,-2.258 0.082,-2.341 0,-2.642" style="fill:rgb(199,200,200);fill-rule:nonzero;"/>
            </g>
        </g>
        <g transform="matrix(2,0,0,2,8640,0)">
            <g transform="matrix(1.365838,0,0,1.365838,487.004376,1237.11725)">
                <path d="M0,7.33C-0.403,7.184 -0.826,7.084 -1.166,6.8C-1.246,6.568 -1.311,6.337 -1.31,6.084C-1.302,4.221 -1.302,2.358 -1.309,0.496C-1.311,0.226 -1.303,0 -0.948,0.014C-0.062,0.366 0.823,0.719 1.709,1.071C1.43,1.254 1.214,1.027 0.984,0.945C0.57,0.798 0.169,0.617 -0.24,0.454C-0.461,0.365 -0.568,0.341 -0.635,0.678C-0.862,1.809 -0.897,2.935 -0.853,4.086C-0.821,4.902 -0.834,5.714 -0.762,6.534C-0.708,7.15 -0.18,6.969 0.044,7.244C0.052,7.253 0.044,7.278 0.037,7.293C0.029,7.307 0.013,7.318 0,7.33" style="fill:rgb(102,104,105);fill-rule:nonzero;"/>
            </g>
        </g>
        <g transform="matrix(2,0,0,2,8640,0)">
            <g transform="matrix(1.365838,0,0,1.365838,500.376342,1243.446271)">
                <path d="M0,12.34C0.13,11.995 0.107,11.635 0.107,11.277C0.109,7.681 0.112,4.085 0.114,0.489C0.114,0.255 0.132,0.019 0.003,-0.194C0.493,-0.008 0.982,0.177 1.472,0.363C1.214,0.557 0.996,0.35 0.8,0.256C0.39,0.062 0.323,0.212 0.324,0.594C0.331,3.264 0.324,5.934 0.323,8.604C0.323,9.541 0.342,10.478 0.32,11.415C0.31,11.835 0.336,12.189 0.816,12.324C0.912,12.352 0.942,12.439 0.943,12.534C0.621,12.507 0.347,12.246 0,12.34" style="fill:rgb(82,83,84);fill-rule:nonzero;"/>
            </g>
        </g>
        <g transform="matrix(2,0,0,2,8640,0)">
            <g transform="matrix(1.365838,0,0,1.365838,491.226455,1238.687691)">
                <path d="M0,7.443C-0.405,7.283 -0.817,7.152 -1.251,7.096C-0.954,7.003 -0.958,6.75 -0.955,6.513C-0.945,5.775 -1.051,5.031 -1.016,4.304C-0.957,3.108 -1.124,1.92 -1.043,0.729C-1.024,0.452 -1.083,0.21 -1.266,0C-0.952,0.116 -0.638,0.232 -0.324,0.349C-0.617,0.399 -0.689,0.508 -0.661,0.853C-0.605,1.533 -0.697,2.233 -0.666,2.911C-0.605,4.223 -0.856,5.535 -0.637,6.844C-0.609,7.011 -0.533,7.074 -0.396,7.144C-0.252,7.218 -0.021,7.201 0,7.443" style="fill:rgb(86,87,88);fill-rule:nonzero;"/>
            </g>
        </g>
        <g transform="matrix(2,0,0,2,8640,0)">
            <g transform="matrix(1.365838,0,0,1.365838,506.295339,1246.330648)">
                <path d="M0,11.678C0.755,11.859 0.757,11.859 0.758,11.071C0.76,7.789 0.755,4.506 0.767,1.224C0.769,0.62 0.78,0.031 0.338,-0.452C0.742,-0.261 0.866,0.077 0.866,0.498C0.863,4.375 0.864,8.252 0.864,12.13C0.581,11.969 0.21,11.978 0,11.678" style="fill:rgb(84,85,86);fill-rule:nonzero;"/>
            </g>
        </g>
        <g transform="matrix(2,0,0,2,8640,0)">
            <g transform="matrix(1.365838,0,0,1.365838,494.162871,1243.532046)">
                <path d="M0,2.08C-0.005,2.856 -0.005,3.632 -0.024,4.408C-0.027,4.51 0.124,4.778 -0.207,4.701C-0.088,4.508 -0.121,4.292 -0.121,4.082C-0.12,2.494 -0.164,0.904 -0.107,-0.682C-0.074,-1.622 -0.188,-2.373 -1.274,-2.58C-1.289,-2.582 -1.313,-2.6 -1.312,-2.608C-1.309,-2.638 -1.296,-2.668 -1.288,-2.698C-1.091,-2.627 -0.897,-2.548 -0.697,-2.486C-0.208,-2.335 -0.013,-2.005 -0.017,-1.499C-0.026,-0.306 -0.007,0.887 0,2.08" style="fill:rgb(76,77,77);fill-rule:nonzero;"/>
            </g>
        </g>
        <g transform="matrix(2,0,0,2,8640,0)">
            <g transform="matrix(1.365838,0,0,1.365838,485.709015,1246.204172)">
                <path d="M0,-6.639C-0.209,-6.552 -0.312,-6.427 -0.31,-6.169C-0.296,-4.295 -0.292,-2.419 -0.313,-0.545C-0.316,-0.299 -0.077,-0.104 -0.217,0.147C-0.247,0.137 -0.277,0.126 -0.305,0.114C-0.34,-0.003 -0.404,-0.119 -0.404,-0.236C-0.415,-2.419 -0.474,-4.603 -0.403,-6.786C-0.268,-6.737 -0.134,-6.688 0,-6.639" style="fill:rgb(53,53,54);fill-rule:nonzero;"/>
            </g>
        </g>
        <g transform="matrix(2,0,0,2,8640,0)">
            <g transform="matrix(1.365838,0,0,1.365838,513.572662,1232.89121)">
                <path d="M0,24.309C-0.027,22.014 0.094,19.715 -0.06,17.425C-0.142,16.212 0.145,15.009 -0.048,13.804C-0.151,13.157 -0.086,12.509 -0.1,11.862C-0.129,10.598 -0.103,9.332 -0.468,8.101C-0.48,8.059 -0.44,8.002 -0.424,7.951C-0.096,7.718 0.178,7.43 0.426,7.116C0.508,7.222 0.435,7.584 0.702,7.382C1.48,6.793 2.533,6.669 3.19,5.887C3.247,5.82 3.344,5.756 3.351,5.682C3.471,4.573 4.302,4.097 5.151,3.632C5.257,3.574 5.407,3.502 5.433,3.407C5.599,2.802 6.097,2.495 6.568,2.219C6.998,1.967 7.14,1.399 7.676,1.297C7.74,1.285 7.804,1.184 7.853,1.194C8.679,1.377 8.848,0.67 9.202,0.213C9.267,0.13 9.344,0.012 9.452,0.043C10.08,0.223 10.882,0 11.227,0.851C11.352,1.159 11.675,1.226 12.002,1.152C12.036,1.144 12.07,1.131 12.102,1.117C12.205,1.075 12.394,1.066 12.391,1.127C12.369,1.7 13.141,1.437 13.177,1.868C13.208,2.235 13.313,2.207 13.551,2.043C13.946,1.772 14.158,1.776 14.141,2.362C14.13,2.728 14.456,3.034 14.355,3.471C14.206,4.118 14.028,4.274 13.387,4.09C13.264,4.054 13.135,3.898 13.012,4.067C12.922,4.191 13.016,4.331 13.094,4.401C13.337,4.621 13.153,4.864 13.166,5.094C13.125,5.337 12.888,5.469 12.825,5.7C12.8,5.753 12.776,5.804 12.755,5.857C12.609,6.288 12.695,6.731 12.682,7.168C12.655,8.064 12.715,8.961 12.649,9.857C12.483,10.676 12.611,11.503 12.574,12.326C12.564,12.554 12.571,12.783 12.575,13.01C12.58,13.095 12.59,13.179 12.688,13.217C12.728,13.23 12.761,13.253 12.788,13.284C12.833,13.355 12.851,13.436 12.871,13.516C12.896,13.615 12.952,13.705 12.951,13.811C12.893,13.876 12.775,13.954 12.786,14.003C12.934,14.662 12.444,14.879 12.027,15.176C11.585,15.491 11.167,15.871 10.747,16.181C10.185,16.596 9.63,17.141 8.896,17.301C8.413,17.407 8.212,17.87 7.798,18.077C7.159,18.396 6.524,18.745 5.931,19.135C5.286,19.559 4.56,19.83 3.98,20.414C3.515,20.882 2.921,21.303 2.299,21.629C1.621,21.985 1.098,22.504 0.704,23.181C0.483,23.561 0.337,23.998 0,24.309" style="fill:rgb(181,182,183);fill-rule:nonzero;"/>
            </g>
        </g>
        <g transform="matrix(2,0,0,2,8640,0)">
            <g transform="matrix(1.365838,0,0,1.365838,544.018835,1269.934928)">
                <path d="M0,-11.741C-0.62,-11.175 -1.443,-11.022 -2.181,-10.713C-5.903,-9.153 -9.644,-7.639 -13.377,-6.104C-15.202,-5.354 -17.025,-4.596 -18.846,-3.836C-19.02,-3.764 -19.213,-3.708 -19.397,-3.469C-18.149,-3.409 -16.989,-3.824 -15.786,-3.697C-16.335,-3.454 -16.69,-2.955 -17.291,-2.772C-17.735,-2.637 -18.03,-2.181 -18.319,-1.807C-18.552,-1.505 -18.803,-1.26 -19.146,-1.09C-19.482,-0.924 -19.79,-0.719 -19.557,-0.251C-19.488,-0.114 -19.654,-0.155 -19.708,-0.129C-20.278,0.154 -20.864,0.397 -21.48,0.563C-21.675,0.456 -21.937,0.4 -21.773,0.065C-21.724,-0.034 -21.742,-0.18 -21.763,-0.298C-21.869,-0.881 -21.602,-1.263 -21.12,-1.538C-20.472,-1.615 -19.963,-2.029 -19.378,-2.262C-19.273,-2.304 -19.19,-2.389 -19.254,-2.509C-19.326,-2.644 -19.47,-2.695 -19.612,-2.698C-20.069,-2.708 -20.526,-2.7 -20.982,-2.709C-21.116,-2.712 -21.296,-2.64 -21.371,-2.788C-21.455,-2.95 -21.272,-3.031 -21.181,-3.123C-20.482,-3.832 -19.674,-4.362 -18.754,-4.768C-17.807,-5.185 -16.868,-5.632 -15.97,-6.163C-15.509,-6.437 -14.976,-6.599 -14.474,-6.8C-12.315,-7.662 -10.275,-8.782 -8.119,-9.652C-6.882,-10.152 -5.674,-10.734 -4.392,-11.101C-3.263,-11.424 -2.207,-11.991 -1.018,-12.115C-0.611,-12.158 -0.178,-12.304 0,-11.741" style="fill:rgb(148,150,151);fill-rule:nonzero;"/>
            </g>
        </g>
        <g transform="matrix(2,0,0,2,8640,0)">
            <g transform="matrix(1.365838,0,0,1.365838,534.286418,1248.240773)">
                <path d="M0,-6.794C0.894,-7.171 1.788,-7.549 2.682,-7.926C2.983,-7.885 3.028,-7.662 3.029,-7.42C3.038,-5.201 3.042,-2.981 3.027,-0.761C3.026,-0.582 2.978,-0.413 2.9,-0.253C2.829,-0.058 2.675,0.05 2.493,0.131C1.758,0.455 0.987,0.698 0.289,1.105C0.244,1.132 0.186,1.106 0.135,1.091C-0.256,0.812 -0.215,0.367 -0.221,-0.015C-0.244,-1.724 -0.265,-3.434 -0.228,-5.143C-0.217,-5.696 -0.304,-6.276 0,-6.794Z" style="fill:rgb(198,198,113);fill-rule:nonzero;stroke:rgb(35,35,35);stroke-width:0.18px;"/>
            </g>
        </g>
        <g transform="matrix(2,0,0,2,8640,0)">
            <g transform="matrix(1.365838,0,0,1.365838,532.400469,1250.384456)">
                <path d="M0,-7.846C0.224,-7.932 0.448,-8.018 0.672,-8.104C1.071,-8.184 1.205,-8.054 1.198,-7.618C1.169,-5.659 1.186,-3.699 1.186,-1.74C1.186,-1.669 1.176,-1.597 1.187,-1.528C1.336,-0.574 1.213,-0.393 0.141,-0.033C-0.111,0.051 -0.337,0.198 -0.595,0.265C-0.876,0.338 -1.04,0.236 -1.073,-0.058C-1.095,-0.252 -1.088,-0.446 -1.089,-0.64C-1.095,-2.726 -1.078,-4.811 -1.098,-6.896C-1.095,-6.994 -1.114,-7.097 -1.036,-7.179L-1.039,-7.172C-0.797,-7.557 -0.464,-7.802 0,-7.846Z" style="fill:rgb(198,198,113);fill-rule:nonzero;stroke:rgb(35,35,35);stroke-width:0.18px;"/>
            </g>
        </g>
        <g transform="matrix(2,0,0,2,8640,0)">
            <g transform="matrix(1.365838,0,0,1.365838,534.605341,1239.032565)">
                <path d="M0,7.821C0.398,7.283 1.083,7.298 1.604,6.995C1.904,6.821 2.274,6.788 2.546,6.55C2.755,6.261 2.759,5.928 2.758,5.592C2.752,3.287 2.765,0.982 2.75,-1.322C3.285,-1.494 3.497,-1.375 3.499,-0.843C3.508,1.538 3.497,3.919 3.505,6.301C3.507,6.772 3.219,7.019 2.856,7.173C1.164,7.891 -0.538,8.586 -2.239,9.287C-2.301,9.313 -2.378,9.306 -2.448,9.315C-2.544,9.257 -2.616,9.181 -2.631,9.063C-2.635,8.775 -2.536,8.608 -2.227,8.495C-1.716,8.31 -1.189,8.149 -0.716,7.877C-0.47,7.736 -0.24,7.816 0,7.821" style="fill:rgb(128,130,129);fill-rule:nonzero;"/>
            </g>
        </g>
        <g transform="matrix(2,0,0,2,8640,0)">
            <g transform="matrix(1.365838,0,0,1.365838,534.605341,1240.657912)">
                <path d="M0,6.631C-0.763,6.733 -1.431,7.11 -2.145,7.356C-2.421,7.451 -2.572,7.604 -2.631,7.873C-2.647,7.777 -2.663,7.682 -2.679,7.585C-2.85,7.372 -2.807,7.118 -2.809,6.875C-2.822,4.73 -2.736,2.585 -2.76,0.439C-2.755,0.332 -2.729,0.234 -2.649,0.157C-2.48,0.316 -2.553,0.523 -2.553,0.709C-2.546,2.724 -2.547,4.74 -2.546,6.755C-2.545,6.928 -2.546,7.101 -2.546,7.351C-1.915,7.096 -1.347,6.866 -0.779,6.637C-0.557,6.547 -0.537,6.362 -0.537,6.157C-0.539,3.894 -0.554,1.631 -0.523,-0.632C-0.517,-1.035 -0.822,-0.849 -0.943,-0.982C-0.706,-1.069 -0.47,-1.155 -0.233,-1.242C-0.369,0.589 -0.326,2.424 -0.311,4.258C-0.305,4.9 -0.359,5.547 -0.235,6.19C-0.198,6.381 -0.124,6.508 0,6.631" style="fill:rgb(66,66,67);fill-rule:nonzero;"/>
            </g>
        </g>
        <g transform="matrix(2,0,0,2,8640,0)">
            <g transform="matrix(1.365838,0,0,1.365838,538.360714,1247.978942)">
                <path d="M0,-7.872C0.188,-7.743 0.101,-7.548 0.102,-7.385C0.108,-5.227 0.106,-3.069 0.107,-0.911C0.107,-0.572 0.106,-0.234 -0.203,0C-0.063,-0.519 -0.103,-1.05 -0.102,-1.577C-0.1,-3.426 -0.101,-5.275 -0.1,-7.123C-0.1,-7.35 -0.065,-7.586 -0.301,-7.735C-0.201,-7.78 -0.1,-7.826 0,-7.872" style="fill:rgb(66,66,67);fill-rule:nonzero;"/>
            </g>
        </g>
        <g transform="matrix(2,0,0,2,8640,0)">
            <g transform="matrix(1.365838,0,0,1.365838,481.682114,1215.504635)">
                <path d="M0,6.169C0.849,4.7 1.923,3.388 2.912,2.018C5.235,-1.199 7.602,-4.383 9.86,-7.646C10.445,-8.324 10.624,-8.369 11.402,-8.05C17.386,-5.6 23.37,-3.151 29.353,-0.698C29.613,-0.591 29.857,-0.446 30.109,-0.318C30.162,-0.302 30.194,-0.266 30.207,-0.213C30.111,0.271 29.821,0.662 29.527,1.026C28.204,2.659 27.082,4.436 25.832,6.12C24.487,7.932 23.197,9.783 21.806,11.561C21.243,12.24 20.722,12.95 20.222,13.675C20.059,13.91 19.89,14.135 19.66,14.301C19.385,14.501 19.088,14.538 18.763,14.392C17.351,13.759 15.881,13.263 14.473,12.626C12.738,11.84 10.94,11.211 9.188,10.467C7.794,9.875 6.41,9.253 4.987,8.724C3.687,8.241 2.394,7.733 1.127,7.167C0.821,7.031 0.479,6.987 0.2,6.789C0.013,6.621 -0.019,6.403 0,6.169" style="fill:rgb(232,233,234);fill-rule:nonzero;"/>
            </g>
        </g>
        <g transform="matrix(2,0,0,2,8640,0)">
            <g transform="matrix(1.365838,0,0,1.365838,522.864732,1236.19367)">
                <path d="M0,-15.368C-0.014,-15.401 -0.028,-15.433 -0.043,-15.466C0.187,-15.44 0.405,-15.381 0.592,-15.237C1.19,-14.776 1.253,-14.317 0.797,-13.594C0.216,-12.675 -0.42,-11.797 -1.068,-10.921C-1.945,-9.736 -2.818,-8.546 -3.689,-7.355C-4.849,-5.769 -5.968,-4.153 -7.159,-2.591C-7.779,-1.776 -8.228,-0.819 -9.132,-0.219C-9.471,0.006 -9.739,0.098 -10.094,-0.079C-10.113,-0.114 -10.123,-0.162 -10.099,-0.175C-8.802,-0.895 -8.175,-2.214 -7.34,-3.331C-6.591,-4.334 -5.811,-5.317 -5.107,-6.356C-4.177,-7.73 -3.15,-9.037 -2.198,-10.397C-1.631,-11.207 -1.078,-12.029 -0.449,-12.793C-0.095,-13.221 0.102,-13.739 0.431,-14.176C0.51,-14.281 0.517,-14.406 0.463,-14.525C-2.801,-9.996 -6.083,-5.477 -9.374,-0.965C-9.589,-0.67 -9.783,-0.336 -10.186,-0.245C-10.589,-0.367 -10.43,-0.606 -10.289,-0.814C-9.973,-1.281 -9.646,-1.741 -9.297,-2.185C-8.457,-3.252 -7.748,-4.417 -6.915,-5.486C-6.005,-6.654 -5.234,-7.925 -4.258,-9.043C-4.069,-9.266 -3.918,-9.513 -3.803,-9.783C-2.759,-11.284 -1.682,-12.76 -0.587,-14.224C-0.331,-14.565 -0.018,-14.896 0,-15.368" style="fill:rgb(165,167,166);fill-rule:nonzero;"/>
            </g>
        </g>
        <g transform="matrix(2,0,0,2,8640,0)">
            <g transform="matrix(1.365838,0,0,1.365838,508.899719,1216.13456)">
                <path d="M0,14.368C0.596,14.058 0.872,13.458 1.24,12.955C4.146,8.979 7.036,4.99 9.922,0.999C10.185,0.636 10.51,0.297 10.573,-0.239C10.907,0.118 10.929,0.36 10.67,0.761C9.246,2.966 7.625,5.028 6.114,7.169C5.235,8.414 4.283,9.608 3.413,10.859C2.759,11.799 2.054,12.698 1.383,13.624C1.06,14.071 0.667,14.431 0.131,14.607C-0.796,14.565 -1.584,14.093 -2.409,13.759C-7.429,11.725 -12.441,9.673 -17.445,7.601C-18.116,7.323 -18.873,7.194 -19.416,6.642C-19.2,6.499 -19.014,6.621 -18.819,6.703C-14.664,8.443 -10.478,10.11 -6.314,11.831C-4.388,12.626 -2.465,13.429 -0.521,14.179C-0.345,14.235 -0.187,14.341 0,14.368" style="fill:rgb(124,126,125);fill-rule:nonzero;"/>
            </g>
        </g>
        <g transform="matrix(2,0,0,2,8640,0)">
            <g transform="matrix(1.365838,0,0,1.365838,508.205873,1224.72418)">
                <path d="M0,8.016C-1.326,7.594 -2.586,7.002 -3.872,6.479C-8.773,4.485 -13.661,2.462 -18.555,0.452C-18.667,0.406 -18.79,0.386 -18.908,0.353C-19.036,0.273 -19.154,0.182 -19.22,0.039C-18.534,0 -17.975,0.401 -17.383,0.631C-16.781,0.865 -16.146,1.05 -15.581,1.326C-14.802,1.706 -13.983,1.956 -13.197,2.3C-11.442,3.069 -9.664,3.785 -7.894,4.519C-6.941,4.914 -5.977,5.304 -5.023,5.687C-3.75,6.2 -2.536,6.901 -1.166,7.169C-1.082,7.185 -1,7.231 -0.925,7.276C-0.097,7.759 0.158,7.653 0.704,6.832C1.197,6.09 1.696,5.343 2.336,4.709C2.507,4.892 2.363,5.025 2.264,5.167C1.665,6.024 0.99,6.826 0.412,7.699C0.308,7.854 0.138,7.912 0,8.016" style="fill:rgb(213,214,214);fill-rule:nonzero;"/>
            </g>
        </g>
        <g transform="matrix(2,0,0,2,8640,0)">
            <g transform="matrix(1.365838,0,0,1.365838,501.906218,1262.113592)">
                <path d="M0,-1.118C0.956,-0.88 1.886,-0.578 2.701,0C1.798,-0.367 0.872,-0.676 0,-1.118" style="fill:rgb(84,85,86);fill-rule:nonzero;"/>
            </g>
        </g>
        <g transform="matrix(2,0,0,2,8640,0)">
            <g transform="matrix(1.365838,0,0,1.365838,494.719177,1236.01297)">
                <path d="M0,0.899C0.014,1.157 -0.106,1.274 -0.355,1.191C-0.873,1.016 -1.423,0.979 -1.902,0.621C-2.249,0.361 -2.744,0.299 -3.173,0.148C-3.312,0.098 -3.442,0.014 -3.461,-0.134C-3.484,-0.322 -3.326,-0.354 -3.18,-0.375C-2.082,-0.044 -1.032,0.404 0,0.899" style="fill:rgb(197,198,198);fill-rule:nonzero;"/>
            </g>
        </g>
        <g transform="matrix(2,0,0,2,8640,0)">
            <g transform="matrix(1.365838,0,0,1.365838,489.648229,1233.943588)">
                <path d="M0,0.922C-0.136,1.235 -0.36,1.257 -0.645,1.13C-1.149,0.905 -1.622,0.625 -2.223,0.648C-2.645,0.664 -2.89,0.246 -3.193,-0.004C-3.381,-0.159 -3.139,-0.228 -3.087,-0.335C-2.025,0.002 -1.005,0.445 0,0.922" style="fill:rgb(197,198,198);fill-rule:nonzero;"/>
            </g>
        </g>
        <g transform="matrix(2,0,0,2,8640,0)">
            <g transform="matrix(0.237258,-1.345074,-1.345074,-0.237258,501.69819,1238.352031)">
                <path d="M-1.443,-1.211C-1.834,-1.312 -2.018,-1.152 -1.847,-0.785C-1.578,-0.206 -1.536,0.404 -1.443,1.017C-1.408,1.248 -1.393,1.761 -0.855,1.587C-0.975,0.639 -1.175,-0.293 -1.443,-1.211" style="fill:rgb(197,198,198);fill-rule:nonzero;"/>
            </g>
        </g>
        <g transform="matrix(2,0,0,2,8640,0)">
            <g transform="matrix(1.365838,0,0,1.365838,498.343838,1239.00798)">
                <path d="M0,-0.229C-0.105,0.021 0.466,0.087 0.192,0.318C-0.046,0.519 -0.097,0.096 -0.295,0.044C-0.54,-0.02 -0.721,-0.239 -1.032,-0.172C-1.211,-0.134 -1.493,-0.186 -1.558,-0.428C-1.643,-0.745 -1.255,-0.58 -1.175,-0.748C-0.783,-0.575 -0.392,-0.402 0,-0.229" style="fill:rgb(197,198,198);fill-rule:nonzero;"/>
            </g>
        </g>
        <g transform="matrix(2,0,0,2,8640,0)">
            <g transform="matrix(0.164266,-1.355924,-1.355924,-0.164266,505.035651,1240.478553)">
                <path d="M-0.844,-0.725C-1.051,-0.777 -1.24,-0.806 -1.154,-0.484C-1.051,-0.095 -0.937,0.289 -0.844,0.68C-0.77,0.991 -0.609,0.969 -0.397,0.826C-0.541,0.308 -0.626,-0.227 -0.844,-0.725" style="fill:rgb(197,198,198);fill-rule:nonzero;"/>
            </g>
        </g>
        <g transform="matrix(2,0,0,2,8640,0)">
            <g transform="matrix(1.365838,0,0,1.365838,483.989561,1232.768967)">
                <path d="M0,0.091C-0.159,0.22 -0.242,0.527 -0.537,0.35C-0.856,0.16 -1.363,0.138 -1.276,-0.436C-0.836,-0.297 -0.404,-0.137 0,0.091" style="fill:rgb(197,198,198);fill-rule:nonzero;"/>
            </g>
        </g>
        <g transform="matrix(2,0,0,2,8640,0)">
            <g transform="matrix(1.365838,0,0,1.365838,507.769351,1242.790122)">
                <path d="M0,-0.229C-0.101,0.111 -0.353,-0.007 -0.487,-0.134C-0.62,-0.261 -0.321,-0.219 -0.32,-0.34C-0.213,-0.303 -0.107,-0.266 0,-0.229" style="fill:rgb(197,198,198);fill-rule:nonzero;"/>
            </g>
        </g>
        <g transform="matrix(2,0,0,2,8640,0)">
            <g transform="matrix(1.365838,0,0,1.365838,518.831549,1251.385752)">
                <path d="M0,-3.967C0.041,-4.409 0.325,-4.655 0.702,-4.81C1.238,-5.031 1.78,-5.237 2.319,-5.45C2.783,-5.481 3.167,-5.734 3.58,-5.904L3.575,-5.901C3.636,-5.939 3.709,-5.943 3.774,-5.969C4.433,-6.238 4.644,-6.112 4.566,-5.393C4.382,-3.7 4.499,-2.004 4.487,-0.31C4.483,0.275 4.276,0.616 3.747,0.823C2.612,1.267 1.501,1.769 0.355,2.189C-0.032,2.271 0.026,1.997 0.026,1.774C0.025,0.386 0.03,-1.001 0.024,-2.389C0.021,-2.915 0.058,-3.442 0,-3.967Z" style="fill:rgb(198,198,113);fill-rule:nonzero;stroke:rgb(35,35,35);stroke-width:0.18px;"/>
            </g>
        </g>
        <g transform="matrix(2,0,0,2,8640,0)">
            <g transform="matrix(1.365838,0,0,1.365838,525.899352,1246.220152)">
                <path d="M0,4.042C-0.114,4.656 -0.49,5.011 -1.078,5.198C-2.244,5.569 -3.357,6.077 -4.466,6.589C-4.912,6.794 -5.108,6.684 -5.195,6.153C-5.057,5.945 -4.816,5.922 -4.612,5.832C-3.521,5.385 -2.431,4.936 -1.337,4.496C-0.895,4.318 -0.728,4.046 -0.736,3.572C-0.758,2.145 -0.75,0.717 -0.741,-0.71C-0.737,-1.322 -0.629,-1.934 -0.749,-2.546C-0.359,-2.752 -0.107,-2.643 0.008,-2.217C0.103,-1.571 0.042,-0.921 0.048,-0.273C0.059,0.993 0.053,2.259 0.049,3.525C0.048,3.697 0.093,3.877 0,4.042" style="fill:rgb(134,136,136);fill-rule:nonzero;"/>
            </g>
        </g>
        <g transform="matrix(2,0,0,2,8640,0)">
            <g transform="matrix(1.365838,0,0,1.365838,524.876749,1254.313563)">
                <path d="M0,-8.472C0.197,-8.348 0.104,-8.151 0.104,-7.99C0.11,-6.118 0.093,-4.247 0.111,-2.375C0.116,-1.832 -0.107,-1.531 -0.601,-1.34C-1.718,-0.91 -2.824,-0.449 -3.935,0C-3.983,-0.011 -4.017,-0.041 -4.037,-0.086C-3.018,-0.512 -2.002,-0.95 -0.977,-1.361C-0.11,-1.709 -0.105,-1.695 -0.104,-2.607C-0.103,-3.911 -0.09,-5.216 -0.109,-6.521C-0.114,-6.896 -0.002,-7.25 0,-7.62C0.005,-8.241 -0.013,-8.256 -0.591,-8.069C-0.672,-8.043 -0.764,-8.052 -0.851,-8.045C-0.606,-8.264 -0.293,-8.349 0,-8.472" style="fill:rgb(66,66,67);fill-rule:nonzero;"/>
            </g>
        </g>
        <g transform="matrix(2,0,0,2,8640,0)">
            <g transform="matrix(1.365744,0.016081,0.016081,-1.365744,530.770773,1251.015549)">
                <path d="M0.042,-0C0.015,2.255 -0.013,4.51 -0.038,6.764C-0.04,6.919 -0.077,7.084 0.042,7.219C0.071,4.813 0.1,2.406 0.129,-0.001C0.1,-0 0.071,-0.001 0.042,-0" style="fill:rgb(175,176,176);fill-rule:nonzero;"/>
            </g>
        </g>
        <g transform="matrix(2,0,0,2,8640,0)">
            <g transform="matrix(1.365838,0,0,1.365838,519.36245,1246.394979)">
                <path d="M0,5.712C0.034,5.741 0.068,5.769 0.102,5.798C-0.068,5.873 -0.238,5.949 -0.409,6.025C-0.402,3.913 -0.395,1.8 -0.389,-0.313C-0.252,-0.141 -0.316,0.061 -0.315,0.248C-0.308,1.959 -0.309,3.67 -0.306,5.38C-0.306,5.581 -0.37,5.848 0,5.712" style="fill:rgb(51,51,52);fill-rule:nonzero;"/>
            </g>
        </g>
        <g transform="matrix(2,0,0,2,8640,0)">
            <g transform="matrix(1.36562,0.024432,0.024432,-1.36562,525.822907,1251.738415)">
                <path d="M0.056,-0.001C0.022,2.085 -0.014,4.172 -0.048,6.257C0.091,6.134 0.053,5.967 0.056,5.813C0.09,4.023 0.122,2.233 0.152,0.443C0.155,0.29 0.199,0.123 0.056,-0.001" style="fill:rgb(175,176,176);fill-rule:nonzero;"/>
            </g>
        </g>
        <g transform="matrix(2,0,0,2,8640,0)">
            <g transform="matrix(1.365838,0,0,1.365838,530.671317,1251.013698)">
                <path d="M0,-3.387C0.002,-2.258 0.005,-1.129 0.007,0C-0.172,-0.177 -0.101,-0.403 -0.092,-0.604C-0.047,-1.532 -0.214,-2.466 0,-3.387" style="fill:rgb(175,176,176);fill-rule:nonzero;"/>
            </g>
        </g>
        <g transform="matrix(2,0,0,2,8640,0)">
            <g transform="matrix(1.365838,0,0,1.365838,523.721523,1244.044645)">
                <path d="M0,-0.529C-0.381,-0.269 -0.759,0 -1.261,-0.075C-0.832,-0.203 -0.453,-0.469 0,-0.529" style="fill:rgb(66,66,67);fill-rule:nonzero;"/>
            </g>
        </g>
        <g transform="matrix(2,0,0,2,8640,0)">
            <g transform="matrix(1.365838,0,0,1.365838,515.634394,1221.611571)">
                <path d="M0,-6.061C1.182,-5.719 2.301,-5.212 3.438,-4.752C4.45,-4.344 4.444,-4.336 3.801,-3.468C3.068,-2.478 2.327,-1.494 1.612,-0.49C1.404,-0.197 1.175,-0.048 0.822,-0.096C0.664,0 0.508,-0.062 0.365,-0.121C-0.627,-0.531 -1.651,-0.866 -2.605,-1.367C-3.177,-1.668 -3.241,-1.904 -2.88,-2.457C-2.166,-3.548 -1.337,-4.556 -0.585,-5.62C-0.437,-5.829 -0.213,-5.937 0,-6.061" style="fill:rgb(183,182,128);fill-rule:nonzero;"/>
            </g>
        </g>
        <g transform="matrix(2,0,0,2,8640,0)">
            <g transform="matrix(1.365838,0,0,1.365838,508.819818,1218.774179)">
                <path d="M0,-5.678C0.266,-5.906 0.54,-5.926 0.869,-5.788C2.076,-5.281 3.292,-4.797 4.505,-4.304C4.688,-4.033 4.54,-3.805 4.397,-3.59C3.613,-2.414 2.741,-1.3 1.894,-0.169C1.637,0.176 1.292,0.248 0.904,0.07C-0.157,-0.416 -1.271,-0.772 -2.338,-1.242C-2.887,-1.484 -3.012,-1.763 -2.686,-2.228C-1.905,-3.341 -1.067,-4.414 -0.266,-5.513C-0.2,-5.603 -0.102,-5.645 0,-5.678" style="fill:rgb(183,182,128);fill-rule:nonzero;"/>
            </g>
        </g>
        <g transform="matrix(2,0,0,2,8640,0)">
            <g transform="matrix(1.365838,0,0,1.365838,512.244111,1231.334291)">
                <path d="M0,-2.534C0.191,-2.35 0.152,-2.169 0.009,-1.973C-0.822,-0.839 -1.649,0.299 -2.478,1.435C-2.7,1.738 -2.966,1.857 -3.345,1.696C-4.475,1.215 -5.613,0.75 -6.748,0.279C-6.9,0.216 -7.009,0.107 -7.093,-0.031C-7.196,-0.279 -7.073,-0.471 -6.933,-0.653C-6.158,-1.663 -5.453,-2.724 -4.677,-3.734C-4.215,-4.336 -4.047,-4.391 -3.325,-4.093C-2.394,-3.709 -1.456,-3.342 -0.534,-2.936C-0.328,-2.845 -0.094,-2.779 0,-2.534" style="fill:rgb(183,182,128);fill-rule:nonzero;"/>
            </g>
        </g>
        <g transform="matrix(2,0,0,2,8640,0)">
            <g transform="matrix(1.365838,0,0,1.365838,502.212165,1223.097876)">
                <path d="M0,5.673C-0.171,5.856 -0.352,5.921 -0.612,5.826C-1.835,5.381 -3.026,4.859 -4.215,4.331C-4.43,4.235 -4.508,4.094 -4.455,3.872C-4.462,3.606 -4.314,3.404 -4.173,3.201C-3.507,2.244 -2.782,1.33 -2.097,0.387C-1.694,-0.166 -1.339,-0.248 -0.711,0.026C0.261,0.45 1.267,0.785 2.243,1.2C2.947,1.499 3.039,1.739 2.594,2.346C1.865,3.344 1.135,4.342 0.396,5.333C0.289,5.475 0.174,5.609 0,5.673" style="fill:rgb(183,182,128);fill-rule:nonzero;"/>
            </g>
        </g>
        <g transform="matrix(2,0,0,2,8640,0)">
            <g transform="matrix(1.365838,0,0,1.365838,502.250682,1215.902504)">
                <path d="M0,-5.403C0.315,-5.753 0.659,-5.764 1.083,-5.574C2.169,-5.088 3.27,-4.637 4.367,-4.178C4.552,-4.1 4.671,-4.006 4.601,-3.788C4.605,-3.564 4.503,-3.383 4.375,-3.209C3.643,-2.214 2.925,-1.209 2.167,-0.234C1.762,0.287 1.49,0.361 0.881,0.14C-0.131,-0.227 -1.126,-0.639 -2.118,-1.053C-2.852,-1.36 -2.915,-1.611 -2.456,-2.253C-1.779,-3.2 -1.072,-4.126 -0.399,-5.077C-0.298,-5.22 -0.191,-5.365 0,-5.403" style="fill:rgb(183,182,128);fill-rule:nonzero;"/>
            </g>
        </g>
        <g transform="matrix(2,0,0,2,8640,0)">
            <g transform="matrix(1.365838,0,0,1.365838,495.836569,1220.378356)">
                <path d="M0,5.65C-0.232,5.851 -0.471,5.907 -0.776,5.782C-1.916,5.315 -3.063,4.866 -4.21,4.419C-4.432,4.332 -4.578,4.214 -4.554,3.957C-4.567,3.686 -4.398,3.493 -4.252,3.299C-3.512,2.311 -2.809,1.297 -2.08,0.302C-1.696,-0.222 -1.522,-0.257 -0.909,-0.014C0.189,0.42 1.253,0.934 2.364,1.339C2.789,1.493 2.906,1.773 2.669,2.125C1.881,3.294 1.067,4.445 0.18,5.541C0.136,5.595 0.062,5.617 0,5.65" style="fill:rgb(183,182,128);fill-rule:nonzero;"/>
            </g>
        </g>
        <g transform="matrix(2,0,0,2,8640,0)">
            <g transform="matrix(1.365838,0,0,1.365838,492.12545,1207.920682)">
                <path d="M0,2.437C0.344,1.595 0.977,0.942 1.473,0.2C1.825,-0.328 2.235,-0.815 2.598,-1.336C2.854,-1.702 3.128,-1.847 3.576,-1.649C4.799,-1.108 6.035,-0.595 7.266,-0.071C7.445,0.191 7.246,0.391 7.124,0.568C6.361,1.674 5.53,2.73 4.762,3.833C4.502,4.207 4.174,4.284 3.744,4.136C2.59,3.738 1.481,3.226 0.333,2.812C0.154,2.748 0.031,2.633 0,2.437" style="fill:rgb(183,182,128);fill-rule:nonzero;"/>
            </g>
        </g>
        <g transform="matrix(2,0,0,2,8640,0)">
            <g transform="matrix(1.365838,0,0,1.365838,489.347471,1218.115162)">
                <path d="M0,5.406C-0.195,5.784 -0.411,5.681 -0.743,5.53C-1.769,5.065 -2.829,4.673 -3.871,4.241C-4.412,4.017 -4.507,3.768 -4.178,3.31C-3.386,2.206 -2.566,1.121 -1.76,0.027C-1.652,-0.119 -1.509,-0.217 -1.351,-0.297C-1.119,-0.378 -0.902,-0.329 -0.685,-0.232C0.265,0.194 1.235,0.571 2.201,0.96C2.909,1.245 2.973,1.526 2.514,2.156C1.84,3.083 1.165,4.01 0.482,4.931C0.347,5.112 0.234,5.322 0,5.406" style="fill:rgb(183,182,128);fill-rule:nonzero;"/>
            </g>
        </g>
        <g transform="matrix(2,0,0,2,8640,0)">
            <g transform="matrix(1.365838,0,0,1.365838,516.755338,1225.282261)">
                <path d="M0,-2.475C0.042,-2.277 0.025,-2.089 -0.101,-1.921C-0.992,-0.736 -1.804,0.508 -2.758,1.645C-3.282,1.851 -3.725,1.555 -4.166,1.375C-5.014,1.028 -5.862,0.683 -6.713,0.346C-7.251,0.132 -7.344,-0.101 -7.024,-0.581C-6.297,-1.668 -5.496,-2.702 -4.708,-3.744C-4.311,-4.27 -4.001,-4.326 -3.411,-4.057C-2.432,-3.61 -1.424,-3.235 -0.428,-2.831C-0.234,-2.752 -0.082,-2.667 0,-2.475" style="fill:rgb(183,182,128);fill-rule:nonzero;"/>
            </g>
        </g>
        <g transform="matrix(2,0,0,2,8640,0)">
            <g transform="matrix(1.365838,0,0,1.365838,487.777987,1214.055207)">
                <path d="M0,2.392C-0.036,2.177 0.084,2.02 0.2,1.864C1.085,0.676 1.972,-0.511 2.859,-1.698C3.092,-1.842 3.322,-1.801 3.564,-1.708C4.648,-1.289 5.707,-0.805 6.802,-0.411C7.21,-0.265 7.338,0.089 7.087,0.437C6.26,1.583 5.441,2.735 4.601,3.871C4.386,4.161 4.07,4.234 3.744,4.112C2.554,3.665 1.383,3.172 0.22,2.661C0.095,2.606 0.013,2.531 0,2.392" style="fill:rgb(183,182,128);fill-rule:nonzero;"/>
            </g>
        </g>
        <g transform="matrix(2,0,0,2,8640,0)">
            <g transform="matrix(1.365838,0,0,1.365838,487.777987,1221.792681)">
                <path d="M0,-3.273C1.226,-2.604 2.538,-2.134 3.836,-1.635C4.08,-1.541 4.319,-1.622 4.489,-1.857C5.318,-3 6.153,-4.14 6.985,-5.281C7.225,-5.61 7.125,-5.831 6.767,-5.977C5.672,-6.422 4.579,-6.869 3.485,-7.318C3.28,-7.402 3.071,-7.389 2.859,-7.363C2.886,-7.555 3.172,-7.512 3.183,-7.719C3.569,-7.353 4.093,-7.28 4.557,-7.086C5.353,-6.753 6.164,-6.458 6.964,-6.136C7.295,-6.003 7.56,-6 7.795,-6.327C8.626,-7.487 9.473,-8.636 10.312,-9.791C10.404,-9.919 10.495,-10.053 10.449,-10.228C10.753,-10.13 10.448,-9.858 10.596,-9.716C9.795,-8.618 8.994,-7.52 8.194,-6.422C7.82,-5.908 7.842,-5.777 8.435,-5.529C9.524,-5.074 10.623,-4.643 11.721,-4.208C12.056,-4.075 12.328,-4.15 12.55,-4.459C13.426,-5.678 14.314,-6.887 15.197,-8.1C15.267,-8.029 15.336,-7.959 15.406,-7.888C14.59,-6.782 13.776,-5.675 12.959,-4.571C12.512,-3.967 12.542,-3.817 13.227,-3.533C14.299,-3.09 15.382,-2.67 16.452,-2.223C16.779,-2.087 17.011,-2.196 17.191,-2.439C18.072,-3.629 18.943,-4.825 19.811,-6.023C19.912,-6.162 20.008,-6.324 19.911,-6.514C20.08,-6.419 20.054,-6.029 20.395,-6.194C19.346,-4.997 18.457,-3.679 17.527,-2.392C17.273,-2.041 17.373,-1.821 17.742,-1.648C18.877,-1.116 20.043,-0.664 21.217,-0.229C21.216,-0.126 21.216,-0.023 21.216,0.08C20.534,-0.374 19.731,-0.554 18.998,-0.893C18.504,-1.121 17.981,-1.287 17.474,-1.488C17.169,-1.609 16.938,-1.546 16.74,-1.275C15.917,-0.151 15.087,0.967 14.258,2.087C14.027,2.399 14.058,2.626 14.449,2.777C15.581,3.215 16.71,3.662 17.84,4.106C18.039,4.185 18.241,4.241 18.458,4.2C18.361,4.467 18,4.163 17.913,4.452C16.713,3.942 15.511,3.435 14.314,2.919C14.017,2.791 13.744,2.803 13.551,3.064C12.661,4.272 11.783,5.489 10.905,6.706C10.856,6.774 10.847,6.871 10.82,6.955C10.606,6.946 10.775,6.643 10.568,6.629C11.423,5.464 12.266,4.292 13.138,3.141C13.435,2.748 13.38,2.53 12.933,2.353C11.854,1.926 10.782,1.48 9.702,1.053C9.322,0.902 8.959,0.862 8.675,1.271C7.843,2.472 6.893,3.589 6.113,4.828C6.042,4.757 5.971,4.686 5.9,4.614C6.697,3.518 7.496,2.422 8.29,1.323C8.742,0.697 8.705,0.618 7.987,0.329C6.958,-0.084 5.931,-0.501 4.92,-0.953C4.482,-1.148 4.199,-1.064 3.931,-0.684C3.078,0.524 2.209,1.72 1.346,2.921C1.28,2.852 1.215,2.783 1.149,2.713C1.95,1.619 2.75,0.524 3.552,-0.569C4.038,-1.231 4.007,-1.329 3.23,-1.645C2.317,-2.017 1.409,-2.4 0.495,-2.77C0.27,-2.861 0.031,-2.918 -0.202,-2.99C-0.322,-3.218 0.044,-3.099 0,-3.273" style="fill:rgb(245,245,245);fill-rule:nonzero;"/>
            </g>
        </g>
        <g transform="matrix(2,0,0,2,8640,0)">
            <g transform="matrix(1.365838,0,0,1.365838,508.205873,1215.392773)">
                <path d="M0,14.848C-0.003,14.782 -0.035,14.679 -0.005,14.656C1.017,13.861 1.564,12.694 2.327,11.697C2.353,11.662 2.334,11.594 2.336,11.541C3.34,10.19 4.35,8.842 5.337,7.48C6.198,6.293 7.108,5.135 7.898,3.898C8.784,2.509 9.928,1.305 10.732,-0.139C10.954,0.203 10.664,0.427 10.512,0.645C9.779,1.692 9.018,2.719 8.268,3.753C7.847,4.333 7.426,4.914 7.005,5.494C6.857,5.734 6.689,5.962 6.582,6.226C5.069,8.231 3.598,10.266 2.155,12.322C1.661,13.026 1.118,13.696 0.617,14.395C0.521,14.531 0.248,14.68 0.508,14.911C0.335,14.921 0.155,14.987 0,14.848" style="fill:rgb(201,202,202);fill-rule:nonzero;"/>
            </g>
        </g>
        <g transform="matrix(2,0,0,2,8640,0)">
            <g transform="matrix(1.365838,0,0,1.365838,517.195411,1222.896688)">
                <path d="M0,0.732C0.004,0.409 0.19,0.19 0.424,0C0.384,0.303 0.194,0.519 0,0.732" style="fill:rgb(193,194,194);fill-rule:nonzero;"/>
            </g>
        </g>
        <g transform="matrix(2,0,0,2,8640,0)">
            <g transform="matrix(1.365838,0,0,1.365838,506.071888,1216.878941)">
                <path d="M0,5.896C-0.034,5.886 -0.155,5.861 -0.268,5.815C-1.379,5.365 -2.486,4.906 -3.6,4.463C-4.022,4.295 -4.094,4.05 -3.835,3.69C-3.029,2.574 -2.225,1.456 -1.415,0.343C-1.202,0.05 -0.93,-0.031 -0.579,0.118C0.557,0.6 1.697,1.069 2.837,1.54C3.209,1.694 3.255,1.924 3.025,2.241C2.205,3.369 1.39,4.5 0.569,5.627C0.454,5.784 0.315,5.927 0,5.896" style="fill:rgb(183,182,128);fill-rule:nonzero;"/>
            </g>
        </g>
        <g transform="matrix(2,0,0,2,8640,0)">
            <g transform="matrix(1.365838,0,0,1.365838,498.564284,1222.286432)">
                <path d="M0,-5.823C0.139,-5.778 0.395,-5.712 0.637,-5.613C1.597,-5.216 2.555,-4.814 3.509,-4.405C4.057,-4.17 4.094,-4.032 3.743,-3.557C2.967,-2.508 2.177,-1.47 1.41,-0.414C1.153,-0.06 0.889,0.038 0.468,-0.137C-0.637,-0.598 -1.756,-1.024 -2.87,-1.461C-3.267,-1.617 -3.311,-1.846 -3.08,-2.198C-2.343,-3.318 -1.49,-4.354 -0.7,-5.436C-0.562,-5.624 -0.421,-5.861 0,-5.823" style="fill:rgb(183,182,128);fill-rule:nonzero;"/>
            </g>
        </g>
        <g transform="matrix(2,0,0,2,8640,0)">
            <g transform="matrix(1.365838,0,0,1.365838,596.333445,1251.78048)">
                <path d="M0,-17.233C0.098,-17.056 0.203,-16.883 0.233,-16.677C0.177,-16.441 0.254,-16.209 0.254,-15.973C0.248,-11.483 0.25,-6.993 0.249,-2.503C0.248,-2.345 0.265,-2.186 0.221,-2.032C-0.071,-1.506 -0.529,-1.152 -1.046,-0.881C-2.021,-0.369 -3.054,-0.038 -4.166,0.007C-4.595,-0.118 -4.594,-0.117 -4.453,-0.524C-4.361,-0.787 -4.282,-1.064 -4.32,-1.336C-4.47,-2.424 -4.318,-3.514 -4.344,-4.603C-4.374,-5.876 -4.516,-7.146 -4.473,-8.421C-4.458,-8.858 -4.471,-9.292 -4.143,-9.733C-5.091,-9.671 -5.963,-9.632 -6.834,-9.716C-6.942,-9.759 -7.045,-9.809 -7.055,-9.946C-6.937,-10.089 -6.769,-10.071 -6.616,-10.061C-5.294,-9.973 -3.986,-10.159 -2.687,-10.333C-1.727,-10.462 -0.799,-10.794 -0.087,-11.624C-1.007,-10.832 -2.032,-10.429 -3.17,-10.289C-3.476,-10.325 -3.566,-10.51 -3.595,-10.801C-3.66,-11.453 -3.679,-12.107 -3.739,-12.759C-3.774,-13.144 -3.727,-13.526 -3.634,-13.894C-3.518,-14.348 -3.114,-14.529 -2.738,-14.722C-2.702,-14.74 -2.664,-14.755 -2.626,-14.769C-2.364,-14.819 -2.133,-14.943 -1.909,-15.082C-1.349,-15.394 -0.76,-15.66 -0.377,-16.218C-0.194,-16.484 0,-16.724 -0.107,-17.076C-0.127,-17.144 -0.122,-17.24 0,-17.233" style="fill:rgb(161,163,162);fill-rule:nonzero;"/>
            </g>
        </g>
        <g transform="matrix(2,0,0,2,8640,0)">
            <g transform="matrix(1.365838,0,0,1.365838,578.723146,1231.953015)">
                <path d="M0,-2.086C0.101,-2.913 0.7,-3.385 1.295,-3.837C1.812,-4.231 2.43,-4.44 3.052,-4.617C3.19,-4.656 3.297,-4.685 3.319,-4.851C3.366,-5.222 3.629,-5.424 3.935,-5.565C5.179,-6.139 6.481,-6.247 7.823,-6.024C8.348,-5.937 8.848,-5.787 9.302,-5.512C9.549,-5.363 9.803,-5.205 9.816,-4.865C9.843,-4.745 9.837,-4.627 9.804,-4.509C9.606,-4.158 9.284,-3.957 8.926,-3.814C8.609,-3.688 8.284,-3.581 7.952,-3.494C7.5,-3.406 7.053,-3.282 6.585,-3.318C5.725,-3.312 4.877,-3.447 4.026,-3.542C3.787,-3.569 3.566,-3.636 3.349,-3.745C2.946,-3.946 2.326,-3.649 2.199,-3.211C2.175,-3.13 2.167,-3.041 2.226,-2.987C2.465,-2.77 2.533,-2.479 2.616,-2.185C2.686,-1.938 2.888,-1.805 3.135,-1.747C3.354,-1.695 3.575,-1.657 3.8,-1.649C4.007,-1.64 4.193,-1.577 4.335,-1.427C4.881,-0.851 5.611,-0.771 6.333,-0.711C6.755,-0.676 7.173,-0.64 7.586,-0.549C7.699,-0.524 7.838,-0.503 7.861,-0.36C7.886,-0.204 7.761,-0.128 7.647,-0.059C7.511,0.024 7.358,0.068 7.204,0.105C6.65,0.239 6.084,0.313 5.518,0.312C4.885,0.311 4.255,0.374 3.621,0.362C3.13,0.352 2.965,0.499 2.846,0.977C2.768,1.289 2.774,1.611 2.821,1.922C2.884,2.343 2.892,2.764 2.874,3.185C2.861,3.468 2.892,3.732 3.021,3.984C2.883,4.161 2.714,4.078 2.556,4.033C1.885,3.842 1.27,3.531 0.687,3.152C0.14,2.745 -0.054,2.224 -0.026,1.526C0.018,0.453 0.062,-0.623 0.032,-1.698C0.028,-1.828 0.061,-1.961 0,-2.086" style="fill:rgb(211,212,212);fill-rule:nonzero;"/>
            </g>
        </g>
        <g transform="matrix(2,0,0,2,8640,0)">
            <g transform="matrix(1.365838,0,0,1.365838,578.723146,1257.67175)">
                <path d="M0,-20.916C0.119,-20.795 0.069,-20.642 0.069,-20.504C0.073,-19.348 0.091,-18.192 0.061,-17.038C0.05,-16.606 0.157,-16.278 0.497,-16.015C0.608,-15.929 0.689,-15.803 0.784,-15.695C1.203,-15.343 1.734,-15.19 2.192,-14.906C2.235,-14.825 2.265,-14.746 2.154,-14.692C1.51,-14.761 1.012,-15.122 0.529,-15.509C0.426,-15.591 0.354,-15.706 0.226,-15.815C0.168,-15.682 0.193,-15.553 0.193,-15.432C0.192,-12.744 0.2,-10.057 0.185,-7.37C0.182,-6.869 0.241,-6.43 0.673,-6.111C0.767,-6.042 0.835,-5.939 0.88,-5.827C1.046,-5.473 1.406,-5.367 1.709,-5.201C2.763,-4.622 3.888,-4.258 5.085,-4.112C5.345,-4.08 5.611,-4.122 5.866,-4.043C5.906,-4.025 5.938,-3.997 5.961,-3.96C5.951,-3.644 5.701,-3.712 5.525,-3.712C4.737,-3.709 4.734,-3.715 4.597,-2.917C4.522,-2.475 4.615,-2.027 4.546,-1.579C4.48,-1.157 4.339,-0.797 4.05,-0.485C3.85,-0.269 3.62,-0.146 3.323,-0.141C2.995,-0.135 2.667,-0.144 2.339,-0.07C2.028,0 1.817,-0.297 1.53,-0.339C0.822,-0.57 0.447,-1.123 0.158,-1.76L-0.079,-2.552C-0.016,-2.705 -0.048,-2.865 -0.048,-3.021C-0.046,-8.174 -0.047,-13.328 -0.045,-18.482C-0.044,-18.638 -0.079,-18.798 -0.012,-18.95C-0.008,-19.605 -0.004,-20.261 0,-20.916" style="fill:rgb(207,208,208);fill-rule:nonzero;"/>
            </g>
        </g>
        <g transform="matrix(2,0,0,2,8640,0)">
            <g transform="matrix(1.365838,0,0,1.365838,592.020538,1231.735164)">
                <path d="M0,-4.387C-0.018,-4.505 0.025,-4.606 0.08,-4.705C0.172,-4.577 0.284,-4.503 0.446,-4.448C1.529,-4.08 2.538,-3.593 3.158,-2.557C3.156,-2.241 3.22,-1.929 2.998,-1.633C2.545,-1.031 1.974,-0.603 1.27,-0.347C1.044,-0.212 0.794,-0.135 0.555,-0.031C0.262,0.006 0.026,0.318 -0.311,0.149C-0.333,-0.097 -0.121,-0.092 0.022,-0.155C0.564,-0.393 1.112,-0.618 1.567,-1.012C1.647,-1.081 1.722,-1.155 1.79,-1.236C1.864,-1.325 1.987,-1.424 1.922,-1.54C1.839,-1.691 1.688,-1.601 1.57,-1.561C0.438,-1.173 -0.732,-1.03 -1.922,-1.027C-2.409,-1.026 -2.889,-1.132 -3.378,-1.117C-3.492,-1.114 -3.621,-1.13 -3.66,-1.279C-3.537,-1.447 -3.351,-1.413 -3.189,-1.401C-2.282,-1.333 -1.414,-1.575 -0.537,-1.728C0.036,-1.828 0.514,-2.135 0.914,-2.554C1.23,-2.884 1.195,-3.173 0.817,-3.439C0.752,-3.484 0.686,-3.53 0.614,-3.559C0.237,-3.709 0.025,-3.978 0,-4.387" style="fill:rgb(183,184,185);fill-rule:nonzero;"/>
            </g>
        </g>
        <g transform="matrix(2,0,0,2,8640,0)">
            <g transform="matrix(1.365838,0,0,1.365838,596.685422,1247.700584)">
                <path d="M0,-8.464C0,-4.173 -0.002,0.118 0.004,4.409C0.004,4.688 -0.047,4.955 -0.088,5.226C-0.276,5.201 -0.267,5.049 -0.257,4.927C-0.159,3.705 -0.26,2.481 -0.197,1.26C-0.194,1.207 -0.186,1.155 -0.175,1.104C-0.172,1.079 -0.169,1.055 -0.166,1.03C-0.083,0.886 -0.086,0.729 -0.086,0.57C-0.087,-4.031 -0.088,-8.632 -0.086,-13.233C-0.086,-13.386 -0.139,-13.551 -0.025,-13.69C-0.015,-13.616 -0.005,-13.542 0.006,-13.468C0.062,-12.221 0.015,-10.974 0.03,-9.727C0.032,-9.583 0.03,-9.438 0.03,-9.294C0.014,-9.018 0.064,-8.739 0,-8.464" style="fill:rgb(136,138,138);fill-rule:nonzero;"/>
            </g>
        </g>
        <g transform="matrix(2,0,0,2,8640,0)">
            <g transform="matrix(1.365838,0,0,1.365838,578.70662,1254.18613)">
                <path d="M0,-16.398C0.002,-11.044 0.003,-5.69 0.004,-0.335C0.004,-0.22 0.035,-0.095 -0.067,0C-0.07,-0.21 -0.073,-0.421 -0.077,-0.631C-0.074,-5.721 -0.071,-10.811 -0.065,-15.901C-0.065,-16.067 -0.117,-16.245 0,-16.398" style="fill:rgb(211,212,212);fill-rule:nonzero;"/>
            </g>
        </g>
        <g transform="matrix(2,0,0,2,8640,0)">
            <g transform="matrix(-1.362332,0.0978,0.0978,1.362332,596.803107,1236.135696)">
                <path d="M0.027,-0.812C0.008,-0.804 -0.01,-0.796 -0.029,-0.79C-0.01,-0.532 0.008,-0.274 0.027,-0.016C0.047,-0.012 0.067,-0.008 0.086,-0.003C0.067,-0.272 0.046,-0.543 0.027,-0.812" style="fill:rgb(161,163,162);fill-rule:nonzero;"/>
            </g>
        </g>
        <g transform="matrix(2,0,0,2,8640,0)">
            <g transform="matrix(1.365838,0,0,1.365838,586.721632,1238.228359)">
                <path d="M0,10.26C-1.047,10.283 -2.068,10.075 -3.019,9.686C-3.634,9.435 -4.277,9.179 -4.82,8.762C-4.9,8.701 -5.064,8.689 -4.992,8.518C-4.77,8.447 -4.641,8.624 -4.483,8.716C-4.351,8.794 -4.221,8.873 -4.078,8.929C-3.309,9.3 -2.478,9.482 -1.742,9.68C-1.7,9.307 -1.376,8.893 -1.639,8.465C-1.638,8.222 -1.476,8.055 -1.349,7.874C-0.762,7.03 -0.147,6.206 0.444,5.365C0.748,4.932 0.736,4.906 0.227,4.822C-0.008,4.784 -0.242,4.745 -0.471,4.682C-0.609,4.644 -0.767,4.614 -0.736,4.407C-0.775,3.515 -0.741,2.625 -0.75,1.734C-0.746,1.681 -0.79,1.724 -0.79,1.725C-0.723,2.629 -0.766,3.533 -0.76,4.438C-0.777,4.487 -0.811,4.507 -0.862,4.5C-1.018,4.371 -0.98,4.19 -0.982,4.025C-0.987,3.318 -0.979,2.61 -0.988,1.903C-0.99,1.783 -0.907,1.584 -1.163,1.598C-1.203,1.604 -1.242,1.601 -1.281,1.593C-1.576,1.094 -1.071,0.827 -0.934,0.457C-0.852,0.238 -0.634,0.144 -0.373,0.252C-0.201,0.324 -0.01,0.273 0.139,0.282C0.02,0.28 -0.135,0.302 -0.285,0.266C-0.377,0.245 -0.471,0.196 -0.362,0.078C-0.178,-0.023 -0.011,0.062 0.158,0.124C1.039,0.107 1.922,0.18 2.8,0.054C2.903,0.039 3.066,-0.017 3.117,0.124C3.162,0.25 2.99,0.264 2.928,0.34C2.775,0.532 2.699,0.757 2.695,0.998C2.676,2.128 2.824,3.257 2.812,4.379C2.8,5.396 2.996,6.419 2.788,7.436C2.747,7.637 2.758,7.861 2.797,8.064C2.905,8.646 2.868,9.2 2.565,9.715C2.661,9.842 2.84,9.724 2.922,9.857C2.76,10.02 2.541,10.036 2.337,10.045C1.449,10.086 0.559,10.25 -0.329,10.023C-0.605,9.953 -0.898,10.005 -1.081,9.95C-0.794,10.023 -0.392,9.96 -0.013,10.079C0.044,10.135 0.048,10.196 0,10.26" style="fill:rgb(190,192,192);fill-rule:nonzero;"/>
            </g>
        </g>
        <g transform="matrix(2,0,0,2,8640,0)">
            <g transform="matrix(1.365838,0,0,1.365838,591.587431,1237.986742)">
                <path d="M0,-4.45C0.307,-4.411 0.565,-4.646 0.872,-4.608C0.855,-4.589 0.841,-4.559 0.82,-4.551C-0.199,-4.167 -0.174,-3.434 -0.115,-2.406C-0.083,-1.851 0.001,-1.296 -0.009,-0.741C-0.014,-0.472 0.073,-0.334 0.312,-0.262C-0.229,0.017 -0.833,-0.03 -1.409,0.06C-1.956,0.144 -2.51,0.097 -3.062,0.102C-3.298,0.104 -3.53,0.107 -3.764,0.161C-3.913,0.196 -4.081,0.196 -4.201,0.056C-4.224,-0.055 -4.137,-0.083 -4.066,-0.097C-3.65,-0.179 -3.562,-0.5 -3.562,-0.839C-3.562,-1.613 -3.509,-2.386 -3.543,-3.16C-3.56,-3.529 -3.369,-3.828 -2.989,-3.932C-2.102,-4.177 -1.202,-4.373 -0.294,-4.525C-0.188,-4.543 -0.083,-4.535 0,-4.45" style="fill:rgb(181,182,183);fill-rule:nonzero;"/>
            </g>
        </g>
        <g transform="matrix(2,0,0,2,8640,0)">
            <g transform="matrix(1.365838,0,0,1.365838,586.716032,1249.28482)">
                <path d="M0,2.011C-0.505,1.971 -1.009,1.928 -1.503,1.783C-0.024,1.972 1.452,1.974 2.927,1.762C4.238,1.571 5.503,1.259 6.584,0.428C6.797,0.264 6.927,0.033 7.133,-0.13L7.132,-0.131C7.237,0.15 7.141,0.374 6.943,0.58C6.378,1.168 5.656,1.464 4.906,1.731C4.222,1.974 3.508,1.929 2.81,2.03C2.04,2.142 1.264,2.121 0.489,2.117C0.319,2.116 0.144,2.134 0,2.011" style="fill:rgb(136,138,138);fill-rule:nonzero;"/>
            </g>
        </g>
        <g transform="matrix(2,0,0,2,8640,0)">
            <g transform="matrix(1.365838,0,0,1.365838,585.839847,1235.986609)">
                <path d="M0,1.458C0.111,1.558 0.248,1.526 0.377,1.53C1.769,1.568 3.154,1.503 4.52,1.203C5.114,1.086 5.689,0.911 6.249,0.679C6.812,0.445 7.286,0.087 7.747,-0.31C7.648,0.139 7.359,0.425 6.983,0.647C6.044,1.203 5.003,1.334 3.943,1.47C2.842,1.611 1.744,1.592 0.642,1.613C0.318,1.768 -0.036,1.689 -0.373,1.749C-0.506,1.765 -0.629,1.731 -0.746,1.668C-0.785,1.642 -0.809,1.606 -0.819,1.56C-0.793,1.331 -0.604,1.364 -0.454,1.335C-0.293,1.339 -0.124,1.316 0,1.458" style="fill:rgb(134,136,136);fill-rule:nonzero;"/>
            </g>
        </g>
        <g transform="matrix(2,0,0,2,8640,0)">
            <g transform="matrix(-0.104408,1.361842,1.361842,0.104408,586.284484,1237.568391)">
                <path d="M0.57,-0.681C0.4,-0.354 0.495,0.01 0.429,0.351C0.476,0.408 0.523,0.465 0.57,0.523C0.585,0.338 0.6,0.152 0.615,-0.032C0.717,-0.257 0.852,-0.483 0.57,-0.681" style="fill:rgb(181,182,183);fill-rule:nonzero;"/>
            </g>
        </g>
        <g transform="matrix(2,0,0,2,8640,0)">
            <g transform="matrix(1.365838,0,0,1.365838,592.778988,1231.272282)">
                <path d="M0,0.308C0.201,0.118 0.458,0.056 0.714,-0.008C0.52,0.196 0.288,0.316 0,0.308" style="fill:rgb(181,182,183);fill-rule:nonzero;"/>
            </g>
        </g>
        <g transform="matrix(2,0,0,2,8640,0)">
            <g transform="matrix(1.365838,0,0,1.365838,585.839847,1226.577349)">
                <path d="M0,8.347C-0.155,8.343 -0.31,8.339 -0.465,8.335C-0.931,8.324 -1.401,8.335 -1.85,8.184C-1.983,8.14 -2.183,8.164 -2.208,7.946C-2.441,7.799 -2.499,7.619 -2.459,7.326C-2.361,6.62 -2.53,5.912 -2.53,5.202C-2.53,4.895 -2.417,4.626 -2.274,4.385C-2.105,4.102 -1.756,4.181 -1.488,4.165C-0.708,4.118 0.076,4.172 0.857,4.088C1.262,4.045 1.667,4.018 2.06,3.904C2.173,3.872 2.283,3.829 2.39,3.781C2.473,3.745 2.589,3.711 2.585,3.607C2.579,3.475 2.447,3.522 2.365,3.503C1.942,3.406 1.513,3.377 1.081,3.338C0.327,3.271 -0.436,3.191 -0.992,2.555C-1.268,2.239 -1.691,2.432 -2.041,2.335C-2.446,2.222 -2.788,1.964 -2.784,1.549C-2.782,1.341 -2.838,1.23 -2.996,1.133C-3.237,0.985 -3.26,0.809 -3.085,0.581C-2.897,0.337 -2.692,0.125 -2.402,0.002C-2.246,-0.065 -2.084,-0.097 -1.948,0.002C-1.376,0.421 -0.688,0.295 -0.054,0.408C0.408,0.491 0.884,0.535 1.359,0.501C1.339,0.715 1.152,0.667 1.029,0.694C0.618,0.784 0.288,0.996 0.101,1.368C-0.144,1.858 -0.53,2.005 -1.025,1.93C-0.643,2.133 -0.22,2.256 0.222,2.318C0.429,2.42 0.695,2.291 0.879,2.484C1.357,2.651 1.865,2.591 2.351,2.616C3.654,2.684 4.942,2.528 6.174,2.053C6.327,1.994 6.496,1.947 6.609,2.095C6.731,2.255 6.599,2.396 6.503,2.515C5.993,3.142 5.27,3.438 4.553,3.737C4.434,3.786 4.298,3.794 4.208,3.903C3.221,4.013 2.269,4.3 1.299,4.498C0.935,4.573 0.751,4.909 0.778,5.29C0.819,5.881 0.844,6.484 0.733,7.075C0.689,7.309 0.844,7.516 0.751,7.769C0.614,8.142 0.476,8.444 0,8.347" style="fill:rgb(201,202,202);fill-rule:nonzero;"/>
            </g>
        </g>
        <g transform="matrix(2,0,0,2,8640,0)">
            <g transform="matrix(1.365838,0,0,1.365838,587.039872,1225.816441)">
                <path d="M0,3.041C-0.234,3.006 -0.484,3.095 -0.704,2.953C-0.604,2.667 -0.362,2.774 -0.18,2.786C0.493,2.828 0.761,2.681 1.035,2.069C1.11,1.901 1.178,1.731 1.239,1.558C1.355,1.229 1.564,0.998 1.904,0.896C2.394,0.699 2.938,0.625 3.354,0.255C3.461,0.159 3.574,0.073 3.647,-0.054C3.683,-0.04 3.752,-0.027 3.752,-0.013C3.76,0.465 4.146,0.575 4.472,0.763C5.031,1.085 5.044,1.473 4.576,1.922C4.055,2.422 3.442,2.651 2.739,2.793C1.829,2.977 0.923,3.066 0,3.041" style="fill:rgb(157,159,159);fill-rule:nonzero;"/>
            </g>
        </g>
        <g transform="matrix(2,0,0,2,8640,0)">
            <g transform="matrix(1.365838,0,0,1.365838,589.640155,1229.973506)">
                <path d="M0,-2.148C-0.392,-1.902 -0.573,-1.511 -0.706,-1.094C-0.787,-0.838 -0.91,-0.597 -1.089,-0.411C-1.317,-0.173 -1.582,0 -1.965,-0.136C-2.159,-0.204 -2.403,-0.234 -2.608,-0.091C-3.184,-0.116 -3.68,-0.345 -4.139,-0.68C-3.913,-0.673 -3.698,-0.619 -3.476,-0.641C-3.216,-0.668 -2.987,-0.747 -2.867,-1.005C-2.608,-1.564 -2.191,-1.892 -1.558,-1.917C-1.512,-1.919 -1.468,-1.962 -1.423,-1.986C-0.936,-1.931 -0.477,-2.113 0,-2.148" style="fill:rgb(179,180,180);fill-rule:nonzero;"/>
            </g>
        </g>
        <g transform="matrix(2,0,0,2,8640,0)">
            <g transform="matrix(1.365838,0,0,1.365838,582.824622,1237.201522)">
                <path d="M0,0.167C0.448,0.368 0.931,0.413 1.409,0.477C1.524,0.493 1.65,0.452 1.743,0.557C1.633,0.594 1.452,0.489 1.434,0.711C1.353,0.839 1.241,0.875 1.099,0.826C0.863,0.586 0.528,0.611 0.239,0.511C-0.136,0.379 -0.554,0.365 -0.874,0.087C-1.341,-0.146 -1.867,-0.281 -2.219,-0.708C-1.627,-0.429 -1.068,-0.074 -0.423,0.084C-0.283,0.118 -0.141,0.14 0,0.167" style="fill:rgb(181,182,183);fill-rule:nonzero;"/>
            </g>
        </g>
        <g transform="matrix(2,0,0,2,8640,0)">
            <g transform="matrix(1.365838,0,0,1.365838,586.716032,1255.839478)">
                <path d="M0,-2.788C1.139,-2.798 2.273,-2.859 3.411,-2.946C4.306,-3.015 5.105,-3.263 5.901,-3.591C6.367,-3.783 6.729,-4.139 7.062,-4.513C7.169,-4.633 7.124,-4.788 7.132,-4.93C7.25,-4.827 7.21,-4.686 7.21,-4.56C7.212,-3.522 7.198,-2.483 7.217,-1.445C7.221,-1.207 7.004,-0.97 7.211,-0.733C7.193,-0.657 7.139,-0.564 7.165,-0.506C7.528,0.324 6.905,0.67 6.383,1.016C5.424,1.652 4.311,1.855 3.199,2.042C2.769,2.115 2.337,2.142 1.902,2.115C1.893,1.953 2.019,2.012 2.095,2.002C3.287,1.848 4.448,1.59 5.524,1.027C5.691,0.941 5.83,0.812 5.983,0.751C4.735,1.547 3.317,1.869 1.845,2.019C1.621,2.014 1.407,1.926 1.183,1.927C1.26,1.934 1.374,1.88 1.345,2.042C0.843,2.094 0.341,2.115 -0.16,2.031C0.041,1.811 0.296,1.783 0.742,1.932C0.643,1.713 0.804,1.605 0.95,1.531C1.512,1.246 1.713,0.732 1.87,0.174C2.091,-0.61 2.245,-1.412 2.499,-2.188C2.549,-2.343 2.613,-2.479 2.753,-2.573C1.945,-2.472 1.138,-2.528 0.332,-2.529C0.237,-2.529 0.152,-2.567 0.082,-2.633C0.056,-2.634 0.03,-2.634 0.004,-2.634C0.003,-2.685 0.001,-2.737 0,-2.788" style="fill:rgb(165,167,166);fill-rule:nonzero;"/>
            </g>
        </g>
        <g transform="matrix(2,0,0,2,8640,0)">
            <g transform="matrix(1.365838,0,0,1.365838,584.342205,1247.873226)">
                <path d="M0,-7.02C0.108,-7.048 0.215,-7.075 0.323,-7.103C0.347,-7.101 0.37,-7.097 0.394,-7.089C0.612,-6.81 0.401,-6.77 0.199,-6.775C-0.091,-6.783 -0.376,-6.854 -0.66,-6.91C-0.816,-6.941 -0.968,-6.987 -1.124,-7.012C-1.574,-7.085 -1.735,-6.966 -1.792,-6.523C-1.807,-6.406 -1.829,-6.288 -1.822,-6.169C-1.741,-4.884 -1.881,-3.622 -2.208,-2.379C-2.318,-1.958 -2.289,-1.528 -2.129,-1.133C-1.993,-0.796 -1.993,-0.473 -2.028,-0.129C-2.097,0.535 -2.213,1.194 -2.267,1.859C-2.272,1.92 -2.315,1.946 -2.378,1.931C-2.723,1.873 -2.94,1.579 -3.25,1.457C-3.263,1.434 -3.27,1.402 -3.29,1.389C-4.016,0.902 -4.07,0.194 -4.057,-0.609C-4.018,-3.256 -4.043,-5.903 -4.04,-8.551C-4.04,-8.675 -4.082,-8.808 -3.981,-8.966C-3.458,-8.228 -2.742,-7.804 -1.903,-7.57C-1.291,-7.476 -0.711,-7.246 -0.103,-7.132C-0.054,-7.123 -0.033,-7.059 0,-7.02" style="fill:rgb(211,212,212);fill-rule:nonzero;"/>
            </g>
        </g>
        <g transform="matrix(2,0,0,2,8640,0)">
            <g transform="matrix(1.365838,0,0,1.365838,586.828031,1258.604071)">
                <path d="M0,-4.657C1.005,-4.675 2.012,-4.598 3.105,-4.756C2.273,-4.252 2.357,-3.428 2.148,-2.746C1.95,-2.098 1.839,-1.423 1.49,-0.828C1.384,-0.648 1.178,-0.591 1.036,-0.459C0.932,-0.363 0.615,-0.412 0.783,-0.103C0.808,-0.056 0.677,-0.068 0.62,-0.066C0.331,-0.058 0.042,-0.056 -0.247,-0.052C-0.717,0.099 -1.163,-0.11 -1.62,-0.149C-1.736,-0.159 -1.846,-0.203 -1.96,-0.153C-1.997,-0.145 -2.034,-0.138 -2.072,-0.131C-2.491,-0.237 -2.91,-0.343 -3.329,-0.449C-3.701,-0.662 -4.072,-0.875 -4.443,-1.088C-4.41,-1.134 -4.351,-1.178 -4.313,-1.143C-3.75,-0.641 -3.092,-0.994 -2.483,-0.952C-2.02,-0.92 -1.574,-1.642 -1.497,-2.29C-1.425,-2.894 -1.533,-3.502 -1.362,-4.105C-1.234,-4.558 -1.187,-4.62 -0.695,-4.539C-0.463,-4.502 -0.184,-4.348 0,-4.657" style="fill:rgb(190,192,192);fill-rule:nonzero;"/>
            </g>
        </g>
        <g transform="matrix(2,0,0,2,8640,0)">
            <g transform="matrix(1.365838,0,0,1.365838,584.342205,1237.319394)">
                <path d="M0,0.707C-0.504,0.579 -1.009,0.454 -1.512,0.32C-1.648,0.284 -1.795,0.263 -1.903,0.157C-1.93,0.105 -1.958,0.053 -1.985,0C-1.389,0.159 -0.795,0.327 -0.195,0.47C-0.042,0.506 0.002,0.573 0,0.707" style="fill:rgb(190,192,192);fill-rule:nonzero;"/>
            </g>
        </g>
        <g transform="matrix(2,0,0,2,8640,0)">
            <g transform="matrix(1.365838,0,0,1.365838,584.150578,1257.129375)">
                <path d="M0,0.927C0.266,0.75 0.525,0.946 0.783,0.963C1.092,0.984 1.402,1.016 1.713,1.027C2.221,1.13 2.729,1.139 3.236,1.023C3.384,0.943 3.538,0.974 3.691,1.003C5.107,0.9 6.451,0.548 7.69,-0.162C7.787,-0.218 7.867,-0.314 8.033,-0.29C7.651,0.082 7.204,0.288 6.745,0.463C5.848,0.807 4.921,1.033 3.959,1.105C3.898,1.11 3.84,1.148 3.78,1.171C2.51,1.241 1.248,1.198 0,0.927" style="fill:rgb(112,113,113);fill-rule:nonzero;"/>
            </g>
        </g>
        <g transform="matrix(2,0,0,2,8640,0)">
            <g transform="matrix(1.365838,0,0,1.365838,581.094924,1239.1391)">
                <path d="M0,8.326C-0.007,7.528 0.187,6.752 0.27,5.963C0.312,5.566 0.044,5.31 0.034,4.952C0.026,4.624 -0.015,4.306 0.059,3.978C0.227,3.225 0.367,2.473 0.427,1.694C0.476,1.055 0.387,0.423 0.463,-0.213C0.518,-0.675 0.703,-0.814 1.214,-0.75C1.655,-0.695 2.086,-0.572 2.522,-0.479C2.698,-0.442 2.851,-0.434 2.771,-0.694C2.873,-0.674 2.975,-0.654 3.077,-0.634C3.276,-0.497 3.503,-0.555 3.72,-0.539C4.024,-0.352 4.384,-0.554 4.811,-0.363C4.381,-0.277 4.059,-0.285 3.737,-0.342C3.647,-0.358 3.561,-0.393 3.469,-0.363C3.25,-0.289 2.81,0.626 2.868,0.888C2.952,1.072 2.808,1.183 2.725,1.308C2.07,2.295 1.325,3.217 0.656,4.194C0.404,4.562 0.418,4.629 0.828,4.779C1.113,4.884 1.407,4.957 1.696,5.046C2.179,5.195 2.239,5.275 2.244,5.772C2.25,6.285 2.249,6.798 2.244,7.311C2.242,7.532 2.302,7.697 2.533,7.76C2.74,8.113 2.824,8.467 2.498,8.796C2.303,8.993 2.557,9.006 2.648,9.14C1.704,8.961 0.812,8.776 0,8.326" style="fill:rgb(207,208,208);fill-rule:nonzero;"/>
            </g>
        </g>
        <g transform="matrix(2,0,0,2,8640,0)">
            <g transform="matrix(1.365838,0,0,1.365838,584.555002,1240.405915)">
                <path d="M0,6.833C-0.267,7.01 -0.392,6.917 -0.394,6.618C-0.397,5.999 -0.414,5.379 -0.387,4.76C-0.374,4.446 -0.498,4.314 -0.781,4.242C-1.163,4.143 -1.54,4.025 -1.912,3.897C-2.286,3.768 -2.295,3.652 -2.07,3.331C-1.278,2.2 -0.404,1.129 0.335,-0.04C0.356,-0.04 0.378,-0.041 0.4,-0.042C0.57,-0.155 0.678,-0.177 0.676,0.095C0.668,0.899 0.67,1.703 0.675,2.508C0.676,2.634 0.627,2.771 0.722,2.888C0.746,2.884 0.771,2.882 0.796,2.881C0.824,2.854 0.848,2.858 0.867,2.892C1.253,3.071 1.676,3.101 2.086,3.164C2.442,3.218 2.482,3.317 2.271,3.606C1.62,4.499 0.986,5.404 0.348,6.307C0.227,6.478 0.116,6.657 0,6.833" style="fill:rgb(183,182,128);fill-rule:nonzero;"/>
            </g>
        </g>
        <g transform="matrix(2,0,0,2,8640,0)">
            <g transform="matrix(1.365838,0,0,1.365838,585.540591,1240.039324)">
                <path d="M0,3.156C-0.145,3.048 -0.084,2.891 -0.085,2.756C-0.091,1.983 -0.1,1.21 -0.083,0.437C-0.078,0.224 -0.155,0.198 -0.322,0.227C-0.256,0.152 -0.219,0 -0.104,0.037C0.027,0.079 0.001,0.232 0.001,0.349C0.001,1.285 0,2.22 0,3.156" style="fill:rgb(112,113,113);fill-rule:nonzero;"/>
            </g>
        </g>
        <g transform="matrix(2,0,0,2,8640,0)">
            <g transform="matrix(1.365437,-0.03311,-0.03311,-1.365437,585.787097,1244.35443)">
                <path d="M-0.036,-0C-0.059,0.001 -0.083,0.006 -0.106,0.013C-0.083,0.985 -0.059,1.957 -0.035,2.928C-0.012,2.928 0.011,2.927 0.035,2.927L-0.036,-0Z" style="fill:rgb(207,208,208);fill-rule:nonzero;"/>
            </g>
        </g>
        <g transform="matrix(2,0,0,2,8640,0)">
            <g transform="matrix(1.365838,0,0,1.365838,589.191614,1258.406298)">
                <path d="M0,0.068C-0.152,0.075 -0.303,0.081 -0.455,0.088C-0.531,0.08 -0.607,0.072 -0.722,0.059C-0.334,-0.02 -0.294,-0.019 0,0.068" style="fill:rgb(190,192,192);fill-rule:nonzero;"/>
            </g>
        </g>
        <g transform="matrix(2,0,0,2,8640,0)">
            <g transform="matrix(1.365838,0,0,1.365838,554.745719,1248.304831)">
                <path d="M0,-7.924L-2.756,-7.924L0.48,-3.962L-2.756,0L0,0L3.236,-3.962L0,-7.924Z" style="fill:rgb(128,128,128);fill-rule:nonzero;"/>
            </g>
        </g>
        <g transform="matrix(2,0,0,2,8640,0)">
            <g transform="matrix(1.365838,0,0,1.365838,560.229287,1248.304831)">
                <path d="M0,-7.924L-2.756,-7.924L0.48,-3.962L-2.756,0L0,0L3.236,-3.962L0,-7.924Z" style="fill:rgb(128,128,128);fill-rule:nonzero;"/>
            </g>
        </g>
        <g transform="matrix(2,0,0,2,8640,0)">
            <g transform="matrix(1.365838,0,0,1.365838,565.712991,1248.304831)">
                <path d="M0,-7.924L-2.756,-7.924L0.48,-3.962L-2.756,0L0,0L3.236,-3.962L0,-7.924Z" style="fill:rgb(128,128,128);fill-rule:nonzero;"/>
            </g>
        </g>
    </g>
</svg>
