<?xml version="1.0" encoding="UTF-8" standalone="no"?><!DOCTYPE svg PUBLIC "-//W3C//DTD SVG 1.1//EN" "http://www.w3.org/Graphics/SVG/1.1/DTD/svg11.dtd"><svg width="100%" height="100%" viewBox="0 0 520 303" version="1.1" xmlns="http://www.w3.org/2000/svg" xmlns:xlink="http://www.w3.org/1999/xlink" xml:space="preserve" xmlns:serif="http://www.serif.com/" style="fill-rule:evenodd;clip-rule:evenodd;stroke-linejoin:round;stroke-miterlimit:2;"><path d="M431.309,247.836c-5.637,-1.987 -8.167,-6.679 -10.096,-11.804c-0.554,-1.471 -0.721,-3.079 -0.717,-4.717c0.038,-33.283 0.029,-66.567 0.05,-99.854c0.004,-5.908 2.833,-10.167 8.096,-12.6c8.083,-3.733 16.279,-7.221 24.425,-10.812c3.754,-1.654 7.483,-1.804 11.333,-0.175c14.471,6.117 28.971,12.158 43.45,18.258c1.092,0.458 2.079,1.158 3.113,1.75c1.25,1.708 0.475,2.996 -0.913,4.083c-1.983,1.554 -4.196,2.737 -6.429,3.879c-4.104,2.1 -8.283,4.058 -12.346,6.25c-2.283,1.229 -3.683,2.95 -3.892,5.638c-0.108,1.396 -0.337,2.783 -0.287,4.192c0.321,8.796 0.675,17.596 0.287,26.396c-0.454,10.3 0.475,20.6 0.029,30.892c-0.446,10.396 0.304,20.792 -0.221,31.192c-0.217,4.279 -0.125,8.604 -0.021,12.892c0.125,5.038 -0.887,9.512 -4.054,13.454c-1.213,0.733 -2.512,0.554 -3.817,0.375c-7.858,-1.904 -14.771,-6.125 -22.196,-9.112c-8.175,-3.288 -16.354,-6.592 -24.425,-10.138c-0.421,-0.188 -0.904,-0.488 -1.371,-0.037" style="fill:#cfd0d0;fill-rule:nonzero;"/><path d="M515.217,131.835c2.133,2.554 3.237,5.508 3.421,8.817c-0.367,1.079 -0.183,2.192 -0.183,3.288c-0.012,20.375 0.013,40.746 -0.021,61.121c-0.017,9.729 0.7,19.438 0.592,29.167c-0.008,0.712 0.146,1.392 0.308,2.071c0.788,6.162 0.413,12.058 -4.042,16.979c-2.071,5.471 -6.746,7.829 -11.708,9.958c-3.596,1.538 -7.137,3.196 -10.833,4.488c-1.329,0.467 -2.642,1.05 -4.025,0.188c-0.462,-1.575 0.879,-1.758 1.775,-2.137c5.863,-2.479 11.608,-5.225 17.396,-7.867c1.15,-0.529 2,-1.363 3.317,-2.317c-0.879,0.125 -1.158,0.425 -1.508,0.596c-5.163,2.104 -10.133,4.625 -15.233,6.854c-1,0.433 -2.008,0.879 -3.125,0.988c-3.8,0.633 -3.942,0.508 -2.962,-3.121c0.579,-2.154 0.829,-4.35 0.858,-6.55c0.129,-8.783 1.492,-17.504 -0.058,-26.375c-1.071,-6.154 0.05,-12.567 -0.237,-18.875c-0.404,-9.004 -0.079,-18.021 -0.425,-27.046c-0.258,-6.738 -0.588,-13.583 0.275,-20.363c0.429,-3.383 -0.479,-6.771 -0.046,-10.2c0.233,-1.842 0.829,-3.233 2.254,-4.358c2.133,-1.683 4.379,-3.183 6.833,-4.358c4.438,-2.125 8.721,-4.525 12.979,-6.992c1.767,-1.025 3.308,-2.221 4.4,-3.954" style="fill:#a1a3a2;fill-rule:nonzero;"/><path d="M515.217,131.835c0.712,2.183 -0.883,2.992 -2.337,3.833c-4.942,2.863 -9.896,5.708 -15.062,8.162c-1.263,0.6 -2.388,1.483 -3.646,2.083c-4.825,2.292 -5.1,6.346 -4.496,10.904c0.312,2.367 -0.279,4.838 -0.171,7.146c0.329,6.967 -0.783,13.921 0.079,20.879c0.329,2.671 0.225,5.404 0.238,8.108c0.029,7.125 0.096,14.254 0,21.379c-0.117,8.463 0.983,16.867 1.104,25.3c0.096,6.45 -0.637,12.917 -1.15,19.362c-0.125,1.55 -0.833,3.058 -1.292,4.663c1.071,0.733 1.996,-1.471 3.125,-0.283c-1.871,2.5 -5.846,3.913 -8.433,2.996c-0.579,-0.913 -0.383,-1.525 0.45,-2.296c1.867,-1.713 2.542,-4.038 2.562,-6.5c0.079,-8.567 0.108,-17.129 0.117,-25.696c0.004,-5.879 -0.471,-11.796 0.029,-17.629c0.625,-7.267 0.133,-14.517 0.238,-21.758c0.071,-4.992 -0.583,-10.121 -0.104,-15.083c0.708,-7.342 -0.483,-14.617 0,-21.937c0.2,-3.029 -0.233,-6.1 0.254,-9.196c0.283,-1.804 1.021,-2.937 2.433,-3.85c4.392,-2.838 9.262,-4.758 13.846,-7.229c1.937,-1.046 3.862,-2.108 5.771,-3.204c1.571,-0.904 2.592,-2.137 2.192,-4.108c1.771,0.942 3.35,2.087 4.254,3.954" style="fill:#b5b6b7;fill-rule:nonzero;"/><path d="M478.458,267.56c-3.421,-0.229 -5.854,-2.821 -8.983,-3.754c-1.046,-0.312 -2.067,-0.713 -3.1,-1.071c-10.317,-4.358 -20.633,-8.708 -30.95,-13.071c-1.383,-0.583 -2.742,-1.217 -4.117,-1.829c0.887,-1.258 1.808,-0.312 2.637,0.033c13.542,5.629 27.071,11.3 40.613,16.938c1.454,0.604 2.975,1.05 4.462,1.571c0.046,0.504 -0.225,0.858 -0.562,1.183" style="fill:#a3a5a4;fill-rule:nonzero;"/><path d="M432.021,138.701c13.9,5.7 27.8,11.4 41.704,17.092c2.854,1.167 4.042,3.217 4.025,6.329c-0.071,11.433 0.012,22.867 0.029,34.304c0.008,3.242 -0.8,3.825 -3.8,2.588c-13.329,-5.504 -26.646,-11.042 -39.967,-16.563c-1.213,-0.504 -2.346,-1.129 -3.288,-2.067c-1.371,-0.908 -1.979,-2.279 -1.996,-3.838c-0.108,-11.492 -0.125,-22.983 0.025,-34.479c0.025,-1.808 0.296,-4.083 3.267,-3.367" style="fill:#6e6e6f;fill-rule:nonzero;"/><path d="M432.021,138.701c-2.225,-0.062 -2.354,1.721 -2.363,3.117c-0.092,11.617 -0.096,23.233 -0.021,34.854c0.008,1.238 0.708,2.475 1.087,3.713c-2.154,-0.075 -2.971,-1.308 -2.971,-3.338c0.004,-12.237 -0.067,-24.479 0.017,-36.721c0.029,-3.633 2.425,-2.133 4.25,-1.625" style="fill:#a1a3a2;fill-rule:nonzero;"/><path d="M478.458,267.56c0.188,-0.396 0.375,-0.792 0.562,-1.183c1.383,-0.004 2.771,-0.004 4.154,-0.008c3.075,-0.25 5.717,-1.729 8.438,-2.996c6.133,-2.379 11.837,-5.746 18.092,-7.858c1.254,1.712 -0.629,1.8 -1.308,2.154c-2.729,1.433 -5.55,2.704 -8.4,3.879c-3.775,1.562 -7.417,3.421 -11.192,4.992c-2.9,1.208 -5.729,1.596 -8.754,1.142c-0.158,-0.008 -0.312,-0.017 -0.467,-0.025c-0.375,-0.029 -0.75,-0.062 -1.125,-0.096" style="fill:#5a5c5c;fill-rule:nonzero;"/><path d="M488.626,267.666c-3.025,0.029 -6.054,0.221 -9.071,-0.2c10.496,-0.371 18.883,-6.55 28.158,-10.275c0.729,-0.292 2.133,-0.188 1.988,-1.679c0.621,-0.746 1.387,-1.904 2.329,-0.954c1.062,1.071 -0.279,1.671 -1.038,2.246c-2.467,1.875 -5.325,2.996 -8.104,4.271c-4.762,2.183 -9.508,4.392 -14.262,6.592" style="fill:#868888;fill-rule:nonzero;"/><path d="M430.812,159.451c0,-5.612 0.071,-11.229 -0.033,-16.842c-0.046,-2.425 0.846,-3.158 3.05,-2.258c13.142,5.367 26.279,10.754 39.417,16.133c3.05,1.25 3.917,3.779 3.921,6.758c0.008,10.929 -0.058,21.858 0.008,32.783c0.012,2.658 -0.967,3.167 -3.262,2.196c-11.521,-4.854 -23.05,-9.688 -34.579,-14.513c-9.321,-3.904 -8.554,-2.642 -8.542,-13.429c0.004,-3.613 0.004,-7.221 0.004,-10.829l0.017,0Z" style="fill:#909293;fill-rule:nonzero;"/><path d="M437.412,151.417c3.742,0.104 6.758,2.304 10.075,3.592c7.817,3.033 15.517,6.367 23.329,9.412c2.054,0.8 3.425,2.042 3.279,4.096c-0.329,4.575 1.071,9.088 0.142,13.692c-0.567,2.804 -1.479,3.708 -4.171,2.642c-6.775,-2.692 -13.583,-5.321 -20.225,-8.321c-4.167,-1.883 -8.654,-3.121 -12.446,-5.812c-1.25,-2.008 -1.604,-4.192 -1.508,-6.538c0.112,-2.887 0,-5.779 0.042,-8.667c0.021,-1.533 0.312,-2.975 1.483,-4.096" style="fill:#848686;fill-rule:nonzero;"/><path d="M437.412,151.417c-1.087,5.221 -0.429,10.504 -0.596,15.758c-0.029,0.971 0.308,1.742 0.971,2.412c0.613,0.621 0.458,1 -0.392,1.129c-1.604,-0.95 -2.354,-2.379 -2.35,-4.225c0,-3.892 -0.087,-7.792 0.054,-11.679c0.05,-1.45 -0.163,-3.438 2.312,-3.396" style="fill:#5c5e5e;fill-rule:nonzero;"/><path d="M22.321,216.54c-0.196,-1.183 -0.558,-2.367 -0.562,-3.554c-0.046,-25.621 -0.054,-51.242 -0.067,-76.863c0,-0.504 0.062,-1.004 0.096,-1.508c2.379,-0.85 4.1,0.171 5.55,1.958c-0.571,1.25 -0.033,2.038 1,2.767c5.558,3.929 11.496,7.188 17.838,9.608c4.817,1.833 9.679,3.55 14.462,5.463c2.975,1.192 5.421,3.387 8.546,4.483c14.396,5.058 28.233,11.529 42.133,17.746c11.521,5.158 23.287,9.596 34.979,14.271c5.058,2.025 9.908,4.521 15.458,5.104c1.817,0.192 2.675,1.75 2.733,3.537c0.179,5.55 0.171,11.108 0.15,16.654c-0.008,2.55 0.533,5 0.525,7.517c-0.071,16.267 0.033,32.533 -0.008,48.796c-0.008,2.787 -0.896,5.575 0.004,8.358c0.017,0.354 -0.121,0.633 -0.404,0.842c-1.379,0.475 -2.575,-0.175 -3.758,-0.679c-5.546,-2.371 -11.154,-4.592 -16.704,-6.958c-3.133,-1.338 -4.942,-3.304 -5.079,-6.733c-0.058,-21.404 -0.008,-42.804 -0.029,-64.204c0,-2.025 0.133,-4.096 -1.733,-5.525c-6.004,-3.446 -12.683,-5.312 -18.983,-8.079c-3.025,-0.733 -5.558,-2.908 -8.8,-2.992c-1.971,1.237 -1.346,3.246 -1.35,4.95c-0.054,20.004 -0.033,40.004 -0.037,60.004c0,1.213 0.058,2.429 -0.104,3.629c-0.146,1.125 -0.379,2.229 -1.717,2.567c-1.575,0.146 -2.975,-0.512 -4.363,-1.079c-17.229,-7.025 -34.312,-14.387 -51.558,-21.367c-7.683,-3.108 -15.321,-6.329 -22.979,-9.5c-1.592,-0.658 -3.2,-1.3 -4.533,-2.421c-2.346,-1.979 -2.587,-4.475 -0.704,-6.792" style="fill:#dbdbdb;fill-rule:nonzero;"/><path d="M293.079,146.082c0.613,1.137 0.346,2.375 0.354,3.567c0.075,17.858 0.133,35.713 0.196,53.571c0.962,1.083 0.808,2.417 0.817,3.704c0.033,5.092 -0.017,10.183 0.033,15.271c0.133,1.271 0.042,2.542 0.021,3.812c-0.154,1.529 -0.171,3.096 -1.204,4.383c-5.854,-2.954 -11.192,-0.096 -16.562,1.617c-8.562,2.729 -17.067,5.662 -25.375,9.083c-4.008,1.654 -7.938,3.521 -11.913,5.267c-12.021,5.271 -23.917,10.829 -35.846,16.283c-8.858,4.05 -18.029,7.708 -26.142,13.317c-1.917,1.325 -3.7,2.762 -5.183,4.842c1.521,0.812 2.933,0.263 4.288,0.333c1.612,0.083 3.246,0.029 4.825,0.417c1.012,0.25 1.954,0.717 2.104,1.904c0.133,1.067 -0.567,1.8 -1.421,2.112c-3.233,1.179 -5.871,4.075 -9.742,3.429c-0.858,-1.713 1.312,-1.725 1.629,-2.996c-2.317,-0.892 -4.879,-1.1 -7.142,-2.167c-0.954,-0.454 -2.608,-0.488 -1.887,-2.346l-0.029,-0.029c0.188,-0.213 0.383,-0.425 0.575,-0.633c3.229,-7.029 7.658,-12.846 14.704,-16.662c3.371,-1.829 6.425,-4.408 9.312,-7.117c2.796,-2.621 6.517,-3.992 9.8,-5.967c4.829,-2.904 10.142,-5.025 14.288,-9.017c0.75,-0.721 1.683,-1.129 2.7,-1.292c1.683,-0.271 3.046,-1.029 4.038,-2.433c0.233,-0.329 0.479,-0.767 0.833,-0.862c5.5,-1.467 8.158,-6.979 13.163,-9.196c2.079,-0.925 3.658,-2.537 3.65,-5.137c0,-1.317 0.963,-1.921 2,-2.429c9.412,-3.929 18.913,-7.646 28.258,-11.742c3.062,-1.342 4.538,-3.183 4.5,-6.662c-0.142,-12.325 -0.029,-24.654 -0.079,-36.983c-0.008,-1.875 0.238,-4.1 -2.75,-4.012c-0.729,0.217 -1.442,0.479 -2.121,0.833c-5.058,2.162 -10.15,4.254 -15.237,6.346c-1.371,0.433 -2.675,1.042 -4.021,1.537c-1.354,0.375 -2.517,1.292 -3.958,1.417c-1.35,-0.458 -2.637,1.058 -4.008,0.137c-0.529,-1.304 -0.483,-2.729 -1.025,-4.071c-0.8,-1.983 0.021,-2.812 2.154,-2.542c4.625,0.583 6.225,-1.329 4.867,-5.85c-0.262,-0.867 -0.787,-1.671 -0.862,-2.575c-0.162,-1.992 -0.987,-2.475 -2.733,-1.429c-0.613,0.371 -1.654,0.646 -1.913,-0.05c-0.725,-1.946 -2.929,-2.067 -3.887,-3.325c-1.258,-1.646 -2.504,-1.967 -4.333,-1.833c-1.929,0.142 -3.296,-1.092 -4.137,-2.625c-2.037,-3.696 -5.617,-3.267 -8.817,-3.137c-1.783,0.071 -2.562,2.392 -3.687,3.746c-1.242,1.496 -2.317,2.583 -4.479,2.388c-1.637,-0.146 -3.383,0.683 -4.287,1.917c-1.554,2.125 -3.746,3.329 -5.688,4.904c-1.642,1.338 -3.229,2.654 -4.188,4.679c-1.058,2.237 -3.508,2.912 -5.454,4.129c-3.242,2.029 -5.6,4.704 -6.55,8.517c-0.629,2.533 -2.562,4.196 -4.658,5.325c-3.271,1.758 -6.713,3.171 -9.896,5.146c-2.287,1.421 -3.096,0.792 -3.346,-1.921c4.025,-6.779 8.8,-13.054 13.312,-19.496c15.537,-22.179 31.333,-44.175 46.946,-66.3c1,-1.421 1.671,-3.362 3.967,-3.292c5.888,-0.887 10.096,2.367 14.483,5.558c11.754,8.558 23.242,17.487 35.521,25.312c2.638,1.683 5.071,3.704 7.992,4.904c2.146,0.883 2.883,2.321 2.875,4.692c-0.083,23.946 -0.054,47.892 -0.05,71.837c0,0.933 -0.025,1.867 -0.008,2.488c-0.271,-0.233 0.038,-0.908 0.038,-1.492c-0.021,-19.604 -0.021,-39.204 0,-58.804c0,-0.771 -0.3,-1.629 0.379,-2.3" style="fill:#afb0b0;fill-rule:nonzero;"/><path d="M84.114,2.964c1.867,-3.396 2.388,-3.587 6.233,-2.012c22.646,9.292 45.271,18.638 67.933,27.879c25.742,10.5 51.517,20.912 77.271,31.383c1.383,0.563 2.683,1.342 4.025,2.021c1.933,1.463 1.779,2.967 0.438,4.871c-10.879,15.429 -22.058,30.65 -32.804,46.171c-12.413,17.929 -25.521,35.371 -37.613,53.533c-2.783,4.183 -5.675,8.342 -9.033,12.129c-1.275,0.492 -1.846,2.604 -3.754,1.638c-0.354,-1.629 0.746,-2.675 1.625,-3.729c3.583,-4.313 5.467,-9.625 8.987,-14.567c-2.292,0.212 -3.592,1.183 -4.85,2.242c-1.646,1.383 -3.613,1.762 -5.358,0.679c-2.238,-1.396 -4.567,-1.446 -6.983,-1.321c-3.9,0.208 -7.496,-0.942 -11.238,-1.871c-5.887,-1.463 -11.554,-3.529 -17.242,-5.5c-3.967,-1.375 -7.825,-3.187 -11.663,-4.925c-5.525,-2.504 -11.079,-4.787 -17.017,-6.162c-3.833,-0.888 -7.612,-2.117 -10.458,-5.133c-0.654,-0.692 -1.487,-1.042 -2.421,-1.121c-1.354,-0.117 -2.521,-0.654 -3.617,-1.425c-3.508,-2.471 -7.55,-3.733 -11.571,-5.004c-1.987,-0.625 -3.288,-2.229 -5.133,-3.113c-6.271,-3.013 -12.763,-5.496 -19.121,-8.292c-2.879,-1.267 -5.454,-3.017 -7.142,-5.862c-0.771,-1.296 -2.058,-2.208 -3.221,-3.183c-1.367,-1.15 -2.242,-2.608 -2.583,-4.346c-0.263,-1.321 -0.308,-2.713 0.917,-3.604c1.192,-0.867 2.458,-0.754 3.592,0.254c0.629,1.117 0.571,2.504 1.404,3.542c0.575,0.825 1.317,1.483 2.088,2.112c3.029,2.338 6.746,3.196 10.179,4.613c22.575,9.312 45.183,18.55 67.808,27.746c9.629,3.917 19.188,8.004 28.908,11.7c1.242,0.471 2.483,0.829 3.8,0.917c2.204,0.846 3.979,0.296 5.838,-1.2c3.046,-2.454 5.562,-5.292 7.417,-8.687c0.938,-1.721 2.333,-3.038 3.446,-4.592c10.263,-14.371 20.838,-28.513 31.283,-42.746c4.533,-6.171 9.333,-12.158 13.25,-18.792c3.458,-5.858 2.663,-8.446 -3.75,-10.646c-17.471,-7.412 -35.083,-14.471 -52.646,-21.658c-17.654,-7.221 -35.246,-14.6 -52.892,-21.85c-3.717,-1.529 -6.725,-1.633 -9.642,1.196c-2.45,0.221 -4.079,-0.833 -4.646,-3.237c-0.296,-1.25 -1.075,-2.104 -1.817,-3.05c-1.096,-1.392 -0.892,-2.504 1.029,-2.679c1.179,-0.104 2.075,-0.5 2.925,-1.296c1.342,-1.258 1.742,-2.371 0.004,-3.65c-1.233,-0.908 -1.492,-2.133 -1.287,-3.721c0.254,-1.963 -1.562,-4.154 0.854,-5.896c-0.646,0.375 -1.129,0.737 -1.754,0.246" style="fill:#c1c2c2;fill-rule:nonzero;"/><path d="M84.114,2.964c1.271,-0.121 1.592,-1.779 2.95,-1.858c0.317,1.179 -0.438,1.933 -0.958,2.754c-0.662,1.037 -2.675,2.133 0.246,2.904c0.821,0.217 0.333,0.754 0.013,1.108c-1.737,1.942 -0.846,3.263 1.025,4.342c1.775,1.021 1.992,2.208 0.279,3.442c-1.417,1.021 -2.054,3.742 -4.771,2.196c-0.421,-0.242 -1.133,0.708 -0.458,1.212c1.712,1.283 2.333,2.971 2.796,5c0.271,1.192 2.108,1.375 3.221,2.037c0.392,1.754 -0.921,2.813 -1.754,3.983c-12.85,17.979 -25.767,35.913 -38.846,53.729c-4.833,6.587 -9.771,13.108 -14.242,19.958c-0.371,0.575 -0.625,1.312 -1.513,1.287c-1.075,-0.45 -2.258,-1.196 -3.233,-0.067c-0.854,0.996 -0.65,2.329 -0.183,3.458c0.529,1.275 1.083,2.496 2.375,3.387c1.808,1.25 3.55,2.75 4.404,4.879c0.742,1.842 2.658,2.162 4.004,2.963c2.158,1.279 4.308,2.704 6.988,3.225c4.058,0.788 7.604,3.083 11.25,4.958c2.262,1.163 4.592,2.204 6.754,3.679c1.321,0.9 3.671,2.062 5.688,2.321c2.992,0.379 4.958,2.863 7.525,3.488c5.683,1.383 9.412,6.388 15.337,7.329c6.429,1.021 12.221,4.158 18.254,6.504c4.275,1.658 8.246,4.154 12.958,5.062c2.854,0.554 5.633,2.692 8.65,3.275c6.958,1.346 13.554,5.238 21.029,3.208c0.938,-0.254 1.471,0.425 2.104,0.921c2.279,1.779 4.596,2.225 6.612,-0.304c1.283,-1.608 3.667,-1.142 4.867,-2.808c0.083,-0.112 0.642,-0.071 0.771,0.079c0.496,0.563 0.137,1.142 -0.15,1.658c-1.742,3.154 -3.613,6.242 -5.225,9.462c-1.621,3.242 -4.579,5.6 -5.829,9.062c-0.083,1.542 -1.342,1.262 -2.246,1.35c-1.646,0.162 -3.2,-0.333 -4.712,-0.95c-18.883,-7.696 -37.842,-15.221 -56.7,-22.979c-16.529,-6.804 -33.204,-13.238 -49.712,-20.104c-11.929,-4.967 -23.904,-9.854 -35.992,-14.454c-1.229,-0.467 -2.454,-1.025 -3.754,-1.158c-2.579,-0.258 -3.742,-1.542 -3.379,-4.137c2.737,-5.188 6.558,-9.638 9.938,-14.379c11.333,-15.904 22.808,-31.704 34.267,-47.517c9.392,-12.962 18.821,-25.896 28.267,-38.817c2.417,-3.304 4.958,-6.517 7.446,-9.775c1.45,-1.454 2.608,-3.138 3.7,-4.871l-0.058,-0.046Z" style="fill:#c5c6c6;fill-rule:nonzero;"/><path d="M164.929,281.485c1.458,2.271 4.142,1.979 6.221,2.946c0.342,0.158 0.821,0 1.188,0.129c1.088,0.383 2.825,0.175 3.037,1.454c0.208,1.258 -1.454,1.354 -2.396,1.85c-0.317,0.167 -0.496,0.6 -0.742,0.913c0.137,0.425 0.021,0.808 -0.287,1.083c-3.596,3.175 -3.275,6.875 -1.475,10.783c0.071,0.154 -0.062,0.358 -0.208,0.521c-3.463,1.254 -6.312,-0.692 -9.329,-1.771c-15.275,-6.304 -30.625,-12.425 -45.883,-18.775c-16.271,-6.771 -32.638,-13.3 -48.925,-20.033c-0.183,-0.075 -0.396,-0.067 -0.596,-0.092c-5.417,-2.383 -10.833,-4.758 -16.429,-6.692c-6.271,-3.017 -12.808,-5.396 -19.208,-8.088c-5.85,-2.462 -11.75,-4.808 -17.583,-7.304c-0.483,-0.208 -0.937,-0.367 -1.437,-0.096c-3.787,-1.142 -5.742,-3.475 -5.013,-7.617c0.138,-0.779 0.017,-1.608 0.017,-2.412c0.013,-5.142 0.325,-5.658 5.158,-7.533c3.742,-1.454 7.521,-2.812 11.283,-4.213c-1.204,3.892 -0.579,5.733 3.075,7.283c11.142,4.721 22.346,9.283 33.517,13.929c15.533,6.458 31.058,12.933 46.583,19.4c1.792,0.962 3.342,-0.5 5.037,-0.508c1.908,-0.508 3.542,0.471 5.271,0.954c0.45,0.067 0.883,0.196 1.308,0.354c4.871,2.058 9.804,3.987 14.733,5.908c1.221,0.637 2.667,0.663 3.854,1.4c1.279,1.204 3.367,1.183 4.333,2.858c0.333,2.654 1.829,4.029 4.358,5.058c6.842,2.783 13.542,5.908 20.537,8.308" style="fill:#bcbebe;fill-rule:nonzero;"/><path d="M160.102,178.376c4.104,-5.208 7.833,-10.688 11.642,-16.117c7.917,-11.283 15.938,-22.496 23.887,-33.758c4.233,-5.992 8.371,-12.054 12.617,-18.033c8.033,-11.308 16.121,-22.575 24.171,-33.867c2.508,-3.521 4.887,-7.138 7.492,-10.579c1.167,-1.542 0.258,-2.575 -0.333,-3.788c6.054,3.929 10.85,9.337 16.346,13.929c15.188,12.688 30.283,25.488 45.404,38.258c4.012,3.388 7.962,6.85 11.983,10.221c1.892,1.587 2.175,3.3 0.708,5.262c-1.146,1.533 -2.333,3.042 -3.546,4.525c-1.508,1.842 -3.379,2.458 -5.646,1.512c-1.379,-0.571 -2.754,-1.15 -4.129,-1.729c-2.725,-2.292 -5.183,-4.875 -7.721,-7.354c-8.458,-8.254 -17.696,-15.592 -26.625,-23.296c-7.633,-6.583 -15.312,-13.108 -22.8,-19.858c-1.154,-1.037 -2.533,-3.325 -4.167,-0.354c-1.829,3.075 -4.121,5.829 -6.125,8.779c-0.567,0.833 -1.175,1.6 -2.154,1.971c-9.317,13.133 -18.633,26.263 -27.95,39.396c-10.129,14.275 -20.262,28.546 -30.383,42.829c-1.617,2.283 -3.192,4.6 -4.792,6.9c-0.742,2.688 -2.658,4.283 -5.054,5.438c-1.462,0.475 -2.917,1.125 -4.479,0.329c-0.617,-1.567 -0.696,-3.262 -1.121,-4.887c-0.65,-2.5 1.463,-3.992 2.775,-5.729" style="fill:#888a8a;fill-rule:nonzero;"/><path d="M160.711,299.062c3.058,1.117 6.121,2.229 9.475,1.725c2.292,-2.167 5.496,-2.408 8.142,-3.837c0.812,-0.442 1.708,-0.438 1.571,-1.983c-0.154,-1.771 1.137,-3.221 2.754,-4.05c2.221,-1.133 3.996,-2.729 5.392,-4.758c3.062,-4.454 8.283,-5.946 12.75,-9.329c-4.783,0.363 -9.1,1.05 -13.433,1.575c-1.204,0.146 -2.404,0.321 -3.617,0.175c-0.708,-0.083 -1.583,-0.162 -1.787,-0.908c-0.246,-0.908 0.567,-1.417 1.238,-1.871c0.587,-0.4 1.246,-0.671 1.896,-0.946c19.196,-8.042 38.458,-15.917 57.667,-23.933c15.846,-6.612 31.871,-12.796 47.638,-19.604c0.837,-0.363 1.725,-0.504 2.554,-0.854c0.212,-1.404 0.425,-2.804 0.637,-4.208c4.642,0.346 8.683,2.208 12.325,5c0.808,0.617 1.15,1.642 1.446,2.617c0.262,0.875 0.383,1.775 0.392,2.687c0.087,7.921 0.546,9.446 -7.742,12.967c-13.375,5.688 -26.804,11.258 -40.221,16.854c-26.275,10.95 -52.533,21.933 -78.883,32.696c-4.392,1.796 -8.579,4.121 -13.579,3.108c-2.396,-0.883 -4.792,-1.763 -7.188,-2.646c-0.062,-0.467 -0.05,-0.842 0.575,-0.475" style="fill:#848686;fill-rule:nonzero;"/><path d="M160.102,178.376c0.025,1.442 -1.608,1.967 -1.808,3.296c-0.196,1.325 -0.912,2.742 0.304,3.887c1.292,1.217 0.3,2.083 -0.279,3.05c-2.246,1.346 -4.283,0.062 -6.221,-0.717c-3.617,-1.45 -7.25,-2.875 -10.829,-4.417c-0.688,-0.283 -1.35,-0.625 -2.067,-0.842c-2.004,-0.85 -4.046,-1.608 -6.029,-2.517c-2.821,-1.179 -5.642,-2.342 -8.533,-3.338c-1.258,-0.417 -2.425,-1.054 -3.662,-1.529c-4.917,-2.075 -9.888,-4.029 -14.842,-6.008c-1.521,-0.55 -3.004,-1.188 -4.479,-1.842c-2.275,-1 -4.604,-1.863 -6.913,-2.783c-2.758,-1.125 -5.533,-2.196 -8.292,-3.321c-5.942,-2.5 -11.875,-5.004 -17.933,-7.217c-1.113,-0.442 -2.263,-0.792 -3.35,-1.304c-5.804,-2.396 -11.542,-4.967 -17.471,-7.058c-2.004,-0.946 -4.229,-1.367 -6.133,-2.55c-2.4,-1.108 -4.879,-2.021 -7.35,-2.963c-2.333,-1.283 -5.25,-1.442 -7.108,-3.646c-1.779,-0.638 -3.392,-1.725 -5.321,-1.946c-5.492,-2.85 -11.4,-4.713 -17.058,-7.175c-4.371,-1.908 -5.575,-4.529 -4.171,-9.071c0.346,2.246 1.796,2.958 3.913,3.487c7.317,1.833 14.012,5.371 21.017,8.067c7.013,2.7 13.958,5.558 20.917,8.388c9.571,3.892 19.112,7.862 28.692,11.725c9.029,3.642 18.117,7.142 27.142,10.787c6.617,2.671 13.092,5.721 19.788,8.171c9.696,3.55 19.108,7.767 28.683,11.587c2.029,0.808 4.183,1.538 6.346,0.221c1.017,-0.808 2.033,-1.617 3.05,-2.425" style="fill:#adaeae;fill-rule:nonzero;"/><path d="M231.105,94.1c2.588,-3.642 5.171,-7.283 7.758,-10.925c2.688,0.438 4.287,2.575 6.192,4.137c14.517,11.933 28.6,24.371 43.038,36.4c1.554,1.296 2.975,2.742 4.317,4.25c0.821,0.917 1.6,1.921 0.596,3.213c0.025,4.967 0.05,9.938 0.075,14.908c-0.046,12.421 -0.108,24.842 -0.138,37.263c-0.021,8.775 -0.004,17.55 -0.558,26.375l0,-2.875c-0.008,-23.838 -0.067,-47.679 0.033,-71.517c0.012,-2.629 -0.929,-3.804 -3.171,-5.025c-7.862,-4.283 -15.05,-9.633 -22.429,-14.692c-5.808,-3.983 -11.017,-8.771 -17.133,-12.342c-2.496,-1.454 -4.675,-3.454 -6.996,-5.213c-2.896,-2.196 -5.7,-4.637 -9.742,-2.558c-1.425,0.729 -1.042,-1.167 -1.842,-1.4" style="fill:#949697;fill-rule:nonzero;"/><path d="M293.006,131.174c-0.175,-3.575 -3.296,-4.963 -5.458,-6.833c-13.033,-11.263 -26.233,-22.333 -39.388,-33.458c-3.075,-2.6 -6.196,-5.142 -9.296,-7.708c0.646,-2.796 1.971,-2.958 4.008,-1.15c5.483,4.879 10.962,9.754 16.533,14.529c9.15,7.842 18.55,15.413 27.483,23.487c4.279,3.871 8.954,7.454 12.271,12.308c0.471,0.683 2.067,0.421 1.538,1.867c-2.562,-1.017 -5.129,-2.029 -7.692,-3.042" style="fill:#707171;fill-rule:nonzero;"/><path d="M160.711,299.062c-0.192,0.158 -0.383,0.317 -0.575,0.475c-19.896,-8.15 -39.796,-16.3 -59.692,-24.45c-11.679,-4.783 -23.354,-9.571 -35.029,-14.358c-0.167,-0.121 -0.221,-0.242 -0.162,-0.358c0.058,-0.117 0.113,-0.175 0.171,-0.175c6.142,1.667 11.842,4.496 17.7,6.875c25.654,10.408 51.254,20.958 76.867,31.463c0.267,0.113 0.483,0.35 0.721,0.529" style="fill:#909293;fill-rule:nonzero;"/><path d="M10.876,238.312c0.333,-0.508 0.812,-0.567 1.317,-0.358c12.167,5.05 24.333,10.108 36.492,15.175c0.167,0.071 0.275,0.283 0.408,0.425c-0.258,0.292 -0.542,0.321 -0.854,0.096c-12.454,-5.113 -24.908,-10.225 -37.363,-15.338" style="fill:#909293;fill-rule:nonzero;"/><path d="M48.238,253.651c0.283,-0.033 0.567,-0.062 0.854,-0.096c5.667,1.671 11.083,3.946 16.333,6.642c-0.004,0.175 -0.008,0.354 -0.008,0.533c-5.729,-2.363 -11.454,-4.721 -17.179,-7.079" style="fill:#909293;fill-rule:nonzero;"/><path d="M84.171,3.012c-0.554,2.137 -1.746,3.796 -3.7,4.871c0.917,-1.867 2.013,-3.592 3.7,-4.871" style="fill:#c1c2c2;fill-rule:nonzero;"/><path d="M135.095,265.539c-0.975,-0.233 -1.954,-0.467 -2.929,-0.7c-4.879,-2.775 -10.204,-4.467 -15.438,-6.392c-0.338,-0.025 -0.671,-0.054 -1.008,-0.083c-0.538,-0.467 -1.108,-0.921 -1.779,-1.129c-2.254,-0.713 -2.704,-2.375 -2.683,-4.488c0.054,-5.042 0.017,-10.083 0.017,-15.121c-0.004,-15.021 -0.004,-30.042 0,-45.063c0,-1.008 -0.054,-2.021 0.054,-3.021c0.254,-2.367 0.967,-2.804 3.146,-1.942c1.383,0.55 2.679,1.387 4.267,1.2c6.096,2.471 12.192,4.942 18.288,7.412c2.221,1.921 2.792,4.313 2.775,7.233c-0.117,19.754 -0.067,39.512 -0.058,59.267c0.004,5.117 0.475,5.404 -4.65,2.825" style="fill:#848686;fill-rule:nonzero;"/><path d="M86.654,160.758c2.817,1.042 5.638,2.079 8.454,3.117c-0.475,1.221 -1.304,2.537 1.142,2.483c2.092,-0.05 3.742,1.104 5.446,2.3c0.058,-0.633 -0.479,-1.287 0.125,-1.812c1.421,0.596 2.842,1.196 4.258,1.796c0.721,2.296 2.508,3.421 4.679,3.779c2.446,0.404 4.658,1.154 6.6,2.725c1.379,1.117 2.737,1.121 3.883,-0.413c1.208,0.417 2.417,0.838 3.625,1.258c1.033,2.75 6.021,4.862 8.492,3.6c2.025,0.812 4.05,1.629 6.075,2.442c-0.037,2.071 1.167,0.571 1.829,0.638c5.179,1.708 9.954,4.492 15.296,5.767c0.567,0.133 1.171,0.121 1.758,0.175c1.671,0.312 3.204,-0.412 4.808,-0.612c1.421,1.954 1.912,4.25 2.042,6.558c0.333,5.942 1.079,11.879 0.804,17.829c-0.262,5.671 0.7,11.275 0.479,16.942c-0.608,15.425 0.446,30.854 0.037,46.283c-0.054,1.988 0.058,4.029 -0.942,5.879c-0.213,-0.013 -0.429,-0.021 -0.646,-0.033c-1.812,-1.617 -1.037,-3.817 -0.933,-5.633c0.708,-12.2 0.325,-24.396 0.154,-36.596c-0.05,-3.513 0.267,-7.029 0.167,-10.537c-0.279,-9.646 -0.729,-19.283 -0.571,-28.938c0.029,-1.596 -0.496,-3.05 -2.183,-3.088c-5.421,-0.121 -9.992,-2.725 -14.829,-4.629c-5.608,-2.208 -11.35,-4.137 -16.938,-6.325c-4.592,-1.8 -9.338,-3.471 -13.717,-5.925c-6.783,-3.808 -14.263,-6.087 -21.325,-9.287c-3.279,-1.488 -6.6,-2.896 -9.825,-4.492c-2.079,-1.029 -4.133,-2.058 -6.363,-2.775c-5.825,-1.875 -11.412,-4.125 -16.775,-7.279c-4.788,-2.808 -10.496,-4.021 -15.721,-6.117c-7.213,-2.896 -14.092,-6.433 -20.183,-11.337c-0.446,-0.363 -0.967,-0.767 -0.85,-1.508c0.546,-0.846 1.592,0.621 2.096,-0.433c2.454,1 4.904,2 7.358,2.996c2.458,3.558 3.558,4.013 7.292,3.013c2.013,0.825 4.025,1.654 6.038,2.479c0.779,2.85 2.754,4.475 5.571,4.8c2.554,0.292 4.95,0.917 7.162,2.179c1.629,0.925 3.242,0.925 4.908,0.204c1.046,0.346 2.179,0.475 3.046,1.25c-0.483,1.317 0.033,2.183 1.292,2.571c4.229,1.292 7.996,3.737 12.254,4.946c1.546,0.438 3.142,0.896 4.629,-0.237" style="fill:#c5c6c6;fill-rule:nonzero;"/><path d="M64.142,166.361c0.221,0.15 0.442,0.3 0.662,0.45c1.554,0.9 2.246,2.287 2.129,4.037c-0.458,6.821 0.646,13.612 0.183,20.475c-0.267,3.929 0.421,8 0.354,12.017c-0.025,1.696 0.079,3.517 -1.971,4.317c-3.842,-1.483 -7.692,-2.967 -11.233,-5.129c-5.004,-1.383 -5.554,-5.35 -5.55,-9.613c0.004,-9.408 -1.1,-18.854 1.125,-28.179c0.767,-3.208 0.642,-3.088 3.938,-2.079c3.521,1.075 6.596,3.358 10.362,3.704" style="fill:#c6c671;fill-rule:nonzero;"/><path d="M70.188,168.807c2.258,0.95 4.679,1.529 6.779,2.858c0.129,0.154 0.254,0.379 0.425,0.417c5.671,1.204 6.938,4.904 6.617,10.275c-0.567,9.333 0.292,18.692 0.2,28.046c-0.008,1.183 0.279,2.433 -0.542,3.5c-0.554,0.583 -1.263,0.642 -1.938,0.379c-3.446,-1.329 -7.013,-2.4 -10.083,-4.571c-4.204,-1.462 -4.396,-4.975 -4.412,-8.588c-0.046,-10.146 0.625,-20.296 0.05,-30.438c-0.154,-2.692 1.558,-1.85 2.904,-1.879" style="fill:#c6c671;fill-rule:nonzero;"/><path d="M110.327,257.252c-1.525,1.188 -3.213,0.554 -4.854,0.413c-0.042,0 -0.1,-0.158 -0.096,-0.242c0.004,-0.092 0.079,-0.179 0.121,-0.271c2.296,0.267 1.708,-1.442 1.708,-2.613c0.033,-12.483 0.038,-24.971 0.033,-37.458c0,-9.467 -0.046,-18.933 -0.029,-28.396c0.004,-1.992 0.1,-4.083 3.137,-3.071c0.996,0.858 1.204,1.954 1.2,3.238c-0.025,21.604 -0.017,43.208 -0.008,64.812c0,1.363 -0.15,2.613 -1.213,3.587" style="fill:#949697;fill-rule:nonzero;"/><path d="M43.651,200.655c-0.867,-1.175 -1.246,-2.479 -1.254,-3.954c-0.046,-11.5 -0.15,-23 -0.175,-34.5c-0.008,-3.633 1,-4.196 4.429,-2.721c0.942,1.442 0.808,3.075 0.808,4.675c0.012,10.054 0.008,20.104 0.004,30.154c-0.004,1.508 0.021,3.012 0.346,4.496c-0.975,2.871 -1.433,3.075 -4.158,1.85" style="fill:#8e9091;fill-rule:nonzero;"/><path d="M43.651,200.655c1.55,0.167 3.3,0.737 3.554,-1.738c0.254,-0.167 0.529,-0.217 0.829,-0.171c1.921,1.483 4.375,1.975 6.337,3.387c2.479,1.033 4.954,2.088 7.446,3.083c1.204,0.483 2.296,1.079 3.071,2.15c2.75,-0.646 4.987,0.537 7.15,1.983c3.583,1.821 7.321,3.262 11.104,4.604c1.258,-0.746 0.7,-1.975 0.771,-3.012c0.267,-3.988 -0.471,-8.004 0.413,-11.971c0.975,5.088 0.617,10.229 0.237,15.312c-0.217,2.921 -1.742,3.429 -4.533,2.312c-11.004,-4.387 -22.012,-8.767 -33,-13.196c-1.367,-0.55 -2.908,-1.025 -3.379,-2.746" style="fill:#c7c8c8;fill-rule:nonzero;"/><path d="M54.372,202.134c-2.3,-0.833 -4.721,-1.408 -6.663,-3.029c-0.458,-1.329 -0.829,-2.646 -0.821,-4.096c0.042,-10.646 0.042,-21.292 0,-31.938c-0.008,-1.542 0.033,-2.833 2.062,-2.75c5.062,2.012 10.129,4.025 15.192,6.037c-1.6,1.046 -2.833,-0.25 -4.15,-0.721c-2.363,-0.842 -4.658,-1.871 -6.988,-2.804c-1.267,-0.504 -1.879,-0.642 -2.267,1.283c-1.292,6.462 -1.496,12.9 -1.238,19.475c0.179,4.662 0.108,9.308 0.517,13.992c0.312,3.525 3.325,2.488 4.608,4.058c0.042,0.05 0,0.196 -0.042,0.279c-0.046,0.083 -0.142,0.142 -0.212,0.213" style="fill:#666869;fill-rule:nonzero;"/><path d="M110.327,257.252c0.742,-1.971 0.608,-4.029 0.608,-6.075c0.017,-20.554 0.029,-41.104 0.042,-61.658c0,-1.333 0.104,-2.688 -0.629,-3.904c2.796,1.062 5.592,2.125 8.392,3.188c-1.475,1.104 -2.717,-0.079 -3.842,-0.612c-2.342,-1.108 -2.725,-0.25 -2.721,1.929c0.042,15.258 0.004,30.521 -0.004,45.779c0,5.354 0.108,10.713 -0.021,16.067c-0.054,2.4 0.096,4.425 2.837,5.2c0.55,0.154 0.721,0.654 0.729,1.196c-1.842,-0.158 -3.408,-1.646 -5.392,-1.108" style="fill:#525354;fill-rule:nonzero;"/><path d="M72.039,209.352c-2.312,-0.917 -4.671,-1.667 -7.15,-1.983c1.696,-0.533 1.675,-1.975 1.696,-3.329c0.054,-4.221 -0.554,-8.471 -0.35,-12.625c0.333,-6.838 -0.621,-13.629 -0.158,-20.438c0.108,-1.583 -0.225,-2.967 -1.271,-4.167c1.792,0.667 3.588,1.329 5.383,1.996c-1.675,0.283 -2.083,0.908 -1.925,2.879c0.317,3.887 -0.208,7.892 -0.029,11.762c0.346,7.5 -1.087,15 0.163,22.483c0.158,0.95 0.592,1.308 1.383,1.712c0.821,0.421 2.138,0.329 2.258,1.708" style="fill:#565758;fill-rule:nonzero;"/><path d="M135.095,265.539c4.317,1.038 4.329,1.038 4.329,-3.471c0.012,-18.758 -0.013,-37.517 0.054,-56.275c0.017,-3.454 0.079,-6.821 -2.45,-9.579c2.308,1.087 3.017,3.025 3.017,5.429c-0.017,22.158 -0.012,44.317 -0.012,66.475c-1.613,-0.921 -3.742,-0.863 -4.938,-2.579" style="fill:#545556;fill-rule:nonzero;"/><path d="M84.326,198.972c-0.029,4.433 -0.025,8.871 -0.138,13.304c-0.013,0.583 0.846,2.113 -1.046,1.679c0.683,-1.108 0.492,-2.346 0.496,-3.542c0,-9.079 -0.25,-18.163 0.075,-27.229c0.192,-5.375 -0.463,-9.662 -6.671,-10.846c-0.083,-0.017 -0.221,-0.113 -0.217,-0.158c0.021,-0.175 0.092,-0.346 0.142,-0.517c1.125,0.408 2.233,0.858 3.375,1.212c2.796,0.863 3.908,2.746 3.888,5.642c-0.054,6.817 0.054,13.637 0.096,20.454" style="fill:#4c4d4d;fill-rule:nonzero;"/><path d="M48.951,160.321c-1.196,0.496 -1.783,1.213 -1.775,2.683c0.083,10.717 0.104,21.433 -0.013,32.146c-0.017,1.404 1.35,2.521 0.546,3.954c-0.171,-0.054 -0.337,-0.117 -0.504,-0.188c-0.196,-0.667 -0.562,-1.333 -0.567,-2c-0.058,-12.479 -0.4,-24.958 0.013,-37.438c0.767,0.283 1.533,0.562 2.3,0.842" style="fill:#353536;fill-rule:nonzero;"/><path d="M165.547,281.492c-0.15,-13.117 0.533,-26.254 -0.346,-39.346c-0.463,-6.933 1.175,-13.808 0.075,-20.692c-0.596,-3.7 -0.221,-7.404 -0.304,-11.104c-0.163,-7.221 -0.013,-14.458 -2.1,-21.492c-0.071,-0.238 0.163,-0.567 0.25,-0.858c1.875,-1.333 3.442,-2.975 4.863,-4.771c0.463,0.604 0.046,2.671 1.571,1.521c4.45,-3.367 10.471,-4.079 14.225,-8.546c0.325,-0.383 0.875,-0.75 0.921,-1.171c0.683,-6.338 5.433,-9.058 10.287,-11.717c0.608,-0.333 1.463,-0.746 1.613,-1.287c0.946,-3.454 3.792,-5.212 6.488,-6.787c2.454,-1.442 3.267,-4.688 6.329,-5.271c0.367,-0.071 0.733,-0.65 1.012,-0.588c4.717,1.046 5.688,-3 7.708,-5.608c0.371,-0.475 0.812,-1.15 1.429,-0.975c3.592,1.029 8.175,-0.246 10.146,4.621c0.712,1.758 2.562,2.142 4.429,1.721c0.196,-0.046 0.388,-0.121 0.571,-0.2c0.587,-0.242 1.667,-0.292 1.654,0.058c-0.129,3.275 4.283,1.767 4.488,4.233c0.179,2.1 0.779,1.942 2.142,1c2.258,-1.55 3.467,-1.525 3.367,1.825c-0.058,2.092 1.804,3.842 1.229,6.338c-0.85,3.7 -1.871,4.592 -5.533,3.537c-0.704,-0.204 -1.442,-1.1 -2.142,-0.129c-0.512,0.708 0.021,1.504 0.467,1.908c1.388,1.254 0.338,2.642 0.412,3.958c-0.238,1.388 -1.587,2.142 -1.95,3.467c-0.142,0.3 -0.279,0.592 -0.4,0.896c-0.838,2.463 -0.346,4.996 -0.421,7.487c-0.154,5.125 0.192,10.254 -0.188,15.375c-0.946,4.675 -0.213,9.408 -0.425,14.108c-0.062,1.304 -0.017,2.613 0.004,3.908c0.029,0.488 0.088,0.971 0.646,1.183c0.229,0.075 0.417,0.208 0.571,0.383c0.258,0.408 0.358,0.871 0.475,1.325c0.146,0.567 0.462,1.083 0.458,1.688c-0.329,0.371 -1.004,0.817 -0.942,1.1c0.846,3.762 -1.958,5.008 -4.338,6.704c-2.529,1.8 -4.921,3.971 -7.321,5.742c-3.212,2.371 -6.383,5.487 -10.575,6.404c-2.762,0.604 -3.912,3.25 -6.279,4.433c-3.65,1.821 -7.283,3.817 -10.671,6.046c-3.683,2.421 -7.833,3.971 -11.15,7.308c-2.658,2.675 -6.05,5.079 -9.608,6.946c-3.875,2.033 -6.858,5 -9.112,8.867c-1.263,2.175 -2.1,4.671 -4.025,6.45" style="fill:#b5b6b7;fill-rule:nonzero;"/><path d="M292.949,230.463c-3.546,3.238 -8.246,4.108 -12.467,5.875c-21.275,8.912 -42.654,17.571 -63.988,26.342c-10.433,4.287 -20.85,8.617 -31.258,12.962c-0.996,0.413 -2.096,0.729 -3.146,2.096c7.129,0.342 13.758,-2.025 20.637,-1.3c-3.142,1.392 -5.171,4.242 -8.608,5.287c-2.529,0.771 -4.221,3.379 -5.871,5.517c-1.333,1.725 -2.767,3.125 -4.729,4.096c-1.917,0.946 -3.679,2.117 -2.342,4.792c0.392,0.787 -0.558,0.55 -0.867,0.704c-3.258,1.613 -6.608,3 -10.125,3.954c-1.117,-0.617 -2.617,-0.937 -1.679,-2.85c0.279,-0.567 0.179,-1.4 0.054,-2.071c-0.604,-3.333 0.925,-5.521 3.675,-7.092c3.708,-0.442 6.621,-2.804 9.958,-4.133c0.604,-0.242 1.075,-0.729 0.712,-1.413c-0.412,-0.775 -1.238,-1.067 -2.05,-1.083c-2.608,-0.058 -5.221,-0.012 -7.829,-0.067c-0.762,-0.012 -1.792,0.396 -2.225,-0.446c-0.475,-0.925 0.567,-1.387 1.088,-1.917c3.996,-4.054 8.613,-7.079 13.871,-9.4c5.412,-2.387 10.783,-4.938 15.912,-7.975c2.633,-1.562 5.683,-2.492 8.554,-3.637c12.338,-4.925 23.996,-11.333 36.317,-16.304c7.071,-2.854 13.979,-6.183 21.3,-8.279c6.458,-1.85 12.492,-5.088 19.288,-5.8c2.321,-0.242 4.796,-1.075 5.817,2.142" style="fill:#949697;fill-rule:nonzero;"/><path d="M252.224,167.957c5.108,-2.158 10.221,-4.312 15.329,-6.471c1.717,0.238 1.979,1.513 1.983,2.892c0.05,12.688 0.075,25.375 -0.012,38.062c-0.004,1.021 -0.283,1.987 -0.725,2.9c-0.404,1.117 -1.287,1.733 -2.325,2.192c-4.204,1.854 -8.608,3.246 -12.6,5.571c-0.258,0.15 -0.588,0.008 -0.879,-0.079c-2.233,-1.596 -2,-4.142 -2.033,-6.321c-0.133,-9.767 -0.254,-19.542 -0.042,-29.308c0.067,-3.158 -0.433,-6.479 1.304,-9.438" style="fill:#c6c671;fill-rule:nonzero;"/><path d="M244.332,170.915c1.279,-0.492 2.558,-0.983 3.838,-1.475c2.283,-0.454 3.05,0.287 3.012,2.779c-0.171,11.196 -0.071,22.396 -0.071,33.596c0,0.404 -0.054,0.817 0.004,1.212c0.85,5.45 0.15,6.483 -5.979,8.538c-1.442,0.483 -2.729,1.325 -4.204,1.708c-1.608,0.417 -2.542,-0.171 -2.733,-1.846c-0.125,-1.108 -0.088,-2.221 -0.092,-3.329c-0.033,-11.921 0.062,-23.838 -0.05,-35.754c0.017,-0.558 -0.092,-1.15 0.354,-1.617l-0.017,0.042c1.383,-2.2 3.287,-3.604 5.938,-3.854" style="fill:#c6c671;fill-rule:nonzero;"/><path d="M253.558,212.956c2.279,-3.075 6.192,-2.992 9.171,-4.721c1.708,-0.996 3.825,-1.183 5.383,-2.542c1.192,-1.654 1.212,-3.554 1.208,-5.479c-0.033,-13.171 0.042,-26.342 -0.05,-39.513c3.058,-0.987 4.275,-0.304 4.288,2.733c0.05,13.613 -0.012,27.221 0.033,40.833c0.008,2.692 -1.633,4.104 -3.708,4.983c-9.675,4.1 -19.404,8.079 -29.121,12.083c-0.358,0.146 -0.796,0.108 -1.196,0.158c-0.55,-0.329 -0.963,-0.767 -1.046,-1.438c-0.021,-1.646 0.542,-2.604 2.312,-3.246c2.917,-1.058 5.929,-1.983 8.633,-3.533c1.408,-0.808 2.721,-0.354 4.092,-0.321" style="fill:#808281;fill-rule:nonzero;"/><path d="M253.558,212.956c-4.363,0.579 -8.179,2.738 -12.258,4.146c-1.579,0.542 -2.442,1.417 -2.779,2.954c-0.092,-0.546 -0.179,-1.096 -0.271,-1.646c-0.979,-1.217 -0.738,-2.671 -0.746,-4.058c-0.075,-12.263 0.421,-24.521 0.279,-36.787c0.029,-0.608 0.175,-1.171 0.638,-1.613c0.962,0.912 0.546,2.096 0.55,3.158c0.037,11.517 0.033,23.037 0.037,34.554c0.004,0.988 0,1.979 0,3.404c3.604,-1.458 6.85,-2.771 10.096,-4.079c1.271,-0.512 1.388,-1.571 1.388,-2.746c-0.013,-12.933 -0.1,-25.867 0.079,-38.796c0.033,-2.308 -1.712,-1.242 -2.4,-2.004c1.35,-0.496 2.7,-0.992 4.054,-1.488c-0.779,10.471 -0.529,20.958 -0.442,31.438c0.029,3.667 -0.275,7.367 0.433,11.042c0.213,1.088 0.633,1.817 1.342,2.521" style="fill:#424243;fill-rule:nonzero;"/><path d="M269.273,160.7c1.071,0.738 0.579,1.854 0.579,2.783c0.042,12.333 0.029,24.667 0.033,37c0,1.942 -0.004,3.871 -1.775,5.208c0.8,-2.967 0.575,-6 0.579,-9.017c0.012,-10.562 0.004,-21.129 0.012,-31.696c0,-1.296 0.196,-2.646 -1.15,-3.496c0.575,-0.258 1.146,-0.521 1.721,-0.783" style="fill:#424243;fill-rule:nonzero;"/><path d="M244.332,170.915c-2.425,0.6 -4.304,2.037 -5.938,3.854c0.046,-1.617 1.317,-2.283 2.4,-3.096c1.179,-0.25 2.075,-1.825 3.537,-0.758" style="fill:#d3d4d4;fill-rule:nonzero;"/><path d="M32.101,105.06c4.85,-8.396 10.992,-15.892 16.646,-23.725c13.275,-18.383 26.8,-36.583 39.708,-55.233c3.342,-3.875 4.362,-4.129 8.812,-2.308c34.2,14.004 68.404,28 102.596,42.021c1.487,0.608 2.883,1.442 4.321,2.171c0.304,0.092 0.483,0.296 0.558,0.6c-0.546,2.767 -2.204,5 -3.888,7.079c-7.558,9.337 -13.971,19.492 -21.117,29.117c-7.688,10.354 -15.058,20.938 -23.008,31.096c-3.217,3.879 -6.2,7.938 -9.054,12.079c-0.929,1.35 -1.9,2.633 -3.208,3.583c-1.575,1.142 -3.271,1.354 -5.133,0.521c-8.067,-3.621 -16.467,-6.458 -24.513,-10.1c-9.921,-4.487 -20.192,-8.079 -30.208,-12.333c-7.967,-3.387 -15.879,-6.937 -24.013,-9.963c-7.429,-2.762 -14.817,-5.662 -22.062,-8.896c-1.746,-0.783 -3.7,-1.038 -5.296,-2.163c-1.067,-0.963 -1.25,-2.208 -1.142,-3.546" style="fill:#e8e9ea;fill-rule:nonzero;"/><path d="M204.429,68.543c-0.083,-0.188 -0.162,-0.375 -0.246,-0.558c1.312,0.15 2.562,0.483 3.629,1.308c3.421,2.633 3.779,5.258 1.171,9.388c-3.317,5.254 -6.954,10.275 -10.654,15.275c-5.013,6.779 -10.004,13.579 -14.983,20.383c-6.629,9.063 -13.025,18.304 -19.829,27.233c-3.55,4.654 -6.117,10.125 -11.283,13.554c-1.933,1.283 -3.467,1.812 -5.496,0.796c-0.104,-0.196 -0.167,-0.471 -0.029,-0.55c7.417,-4.113 11,-11.646 15.771,-18.033c4.283,-5.733 8.742,-11.35 12.762,-17.292c5.317,-7.854 11.183,-15.321 16.625,-23.092c3.242,-4.629 6.4,-9.333 10,-13.696c2.021,-2.45 3.146,-5.404 5.029,-7.908c0.446,-0.596 0.488,-1.312 0.179,-1.992c-18.658,25.888 -37.412,51.713 -56.221,77.5c-1.229,1.692 -2.338,3.596 -4.642,4.113c-2.3,-0.696 -1.392,-2.058 -0.588,-3.246c1.804,-2.675 3.675,-5.3 5.671,-7.838c4.8,-6.1 8.85,-12.758 13.612,-18.867c5.2,-6.679 9.608,-13.942 15.183,-20.325c1.083,-1.279 1.946,-2.692 2.604,-4.233c5.967,-8.575 12.121,-17.017 18.379,-25.379c1.462,-1.954 3.25,-3.846 3.354,-6.542" style="fill:#a5a7a6;fill-rule:nonzero;"/><path d="M145.994,154.557c3.408,-1.771 4.983,-5.204 7.083,-8.079c16.612,-22.721 33.129,-45.517 49.625,-68.329c1.504,-2.075 3.358,-4.008 3.721,-7.075c1.912,2.042 2.033,3.425 0.554,5.717c-8.138,12.6 -17.404,24.388 -26.038,36.621c-5.025,7.117 -10.467,13.942 -15.438,21.092c-3.737,5.371 -7.771,10.508 -11.604,15.804c-1.846,2.554 -4.092,4.608 -7.158,5.617c-5.292,-0.242 -9.8,-2.938 -14.513,-4.85c-28.692,-11.625 -57.337,-23.35 -85.937,-35.196c-3.838,-1.587 -8.162,-2.325 -11.263,-5.479c1.229,-0.812 2.296,-0.117 3.408,0.346c23.746,9.95 47.671,19.479 71.471,29.308c11.008,4.55 22,9.142 33.113,13.425c1.004,0.317 1.908,0.925 2.975,1.079" style="fill:#7c7e7d;fill-rule:nonzero;"/><path d="M143.09,154.197c-7.583,-2.412 -14.779,-5.796 -22.129,-8.783c-28.008,-11.396 -55.95,-22.958 -83.921,-34.446c-0.642,-0.262 -1.342,-0.383 -2.013,-0.567c-0.733,-0.463 -1.413,-0.979 -1.783,-1.796c3.917,-0.225 7.108,2.071 10.496,3.383c3.442,1.333 7.071,2.396 10.3,3.971c4.45,2.171 9.133,3.604 13.625,5.571c10.033,4.392 20.192,8.487 30.308,12.679c5.45,2.258 10.958,4.483 16.408,6.679c7.279,2.929 14.213,6.933 22.046,8.467c0.479,0.096 0.946,0.358 1.379,0.613c4.725,2.762 6.188,2.154 9.308,-2.537c2.817,-4.238 5.671,-8.513 9.325,-12.133c0.979,1.046 0.154,1.804 -0.412,2.613c-3.421,4.904 -7.279,9.488 -10.583,14.475c-0.592,0.888 -1.562,1.217 -2.354,1.812" style="fill:#d5d6d6;fill-rule:nonzero;"/><path d="M116.729,258.449c5.463,1.363 10.775,3.087 15.438,6.387c-5.158,-2.096 -10.454,-3.863 -15.438,-6.387" style="fill:#545556;fill-rule:nonzero;"/><path d="M86.654,160.758c0.079,1.475 -0.608,2.146 -2.029,1.667c-2.963,-0.996 -6.104,-1.213 -8.838,-3.258c-1.983,-1.483 -4.817,-1.837 -7.267,-2.704c-0.796,-0.279 -1.542,-0.763 -1.646,-1.608c-0.138,-1.075 0.767,-1.258 1.604,-1.375c6.275,1.888 12.279,4.45 18.175,7.279" style="fill:#c5c6c6;fill-rule:nonzero;"/><path d="M65.435,152.231c-0.779,1.792 -2.058,1.917 -3.683,1.188c-2.883,-1.288 -5.587,-2.883 -9.025,-2.754c-2.408,0.092 -3.808,-2.296 -5.542,-3.725c-1.075,-0.887 0.308,-1.283 0.608,-1.892c6.071,1.925 11.896,4.458 17.642,7.183" style="fill:#c5c6c6;fill-rule:nonzero;"/><path d="M121.241,174.732c0.179,2.304 -0.9,3.179 -2.796,1.854c-2.996,-2.092 -6.383,-2.938 -9.746,-4.062c-1.258,-0.425 -4.133,-1.021 -2.617,-3.879c5.217,1.621 10.258,3.671 15.158,6.087" style="fill:#c5c6c6;fill-rule:nonzero;"/><path d="M101.822,166.844c-0.6,1.429 2.662,1.804 1.096,3.125c-1.358,1.15 -1.65,-1.267 -2.783,-1.562c-1.396,-0.367 -2.433,-1.621 -4.213,-1.237c-1.021,0.221 -2.633,-0.079 -3.004,-1.467c-0.487,-1.808 1.729,-0.867 2.192,-1.825c2.238,0.988 4.475,1.979 6.713,2.967" style="fill:#c5c6c6;fill-rule:nonzero;"/><path d="M133.358,179.592c0.154,1.208 0.192,2.304 -1.583,1.596c-2.129,-0.854 -4.238,-1.763 -6.388,-2.558c-1.717,-0.637 -1.483,-1.537 -0.521,-2.637c2.842,1.171 5.821,2.025 8.492,3.6" style="fill:#c5c6c6;fill-rule:nonzero;"/><path d="M41.756,142.566c-0.908,0.737 -1.383,2.487 -3.071,1.483c-1.821,-1.088 -4.717,-1.217 -4.225,-4.496c2.521,0.796 4.987,1.708 7.296,3.013" style="fill:#c5c6c6;fill-rule:nonzero;"/><path d="M141.263,182.67c-0.579,1.942 -2.021,1.271 -2.783,0.542c-0.762,-0.725 0.95,-0.483 0.954,-1.179c0.608,0.213 1.221,0.425 1.829,0.637" style="fill:#c5c6c6;fill-rule:nonzero;"/><path d="M187.553,197.275c0.233,-2.525 1.854,-3.933 4.012,-4.821c3.062,-1.262 6.163,-2.442 9.242,-3.654c2.65,-0.179 4.846,-1.625 7.208,-2.596l-0.033,0.017c0.35,-0.217 0.771,-0.237 1.137,-0.392c3.771,-1.537 4.979,-0.817 4.529,3.296c-1.05,9.679 -0.383,19.371 -0.45,29.054c-0.025,3.338 -1.208,5.288 -4.229,6.471c-6.487,2.542 -12.838,5.408 -19.383,7.808c-2.217,0.467 -1.883,-1.096 -1.883,-2.371c-0.004,-7.933 0.021,-15.862 -0.017,-23.792c-0.012,-3.008 0.196,-6.021 -0.133,-9.021" style="fill:#c6c671;fill-rule:nonzero;"/><path d="M217.128,221.434c-0.654,3.508 -2.8,5.537 -6.158,6.604c-6.667,2.125 -13.025,5.025 -19.367,7.95c-2.55,1.175 -3.667,0.542 -4.162,-2.487c0.787,-1.192 2.162,-1.325 3.329,-1.838c6.238,-2.558 12.467,-5.121 18.717,-7.638c2.529,-1.017 3.479,-2.571 3.438,-5.283c-0.129,-8.15 -0.083,-16.308 -0.029,-24.467c0.025,-3.5 0.642,-7 -0.046,-10.496c2.225,-1.175 3.671,-0.55 4.325,1.879c0.542,3.696 0.196,7.408 0.229,11.113c0.062,7.238 0.029,14.471 0.004,21.708c-0.004,0.983 0.25,2.012 -0.279,2.954" style="fill:#868888;fill-rule:nonzero;"/><path d="M212.849,183.779c1.129,0.708 0.592,1.838 0.596,2.754c0.033,10.696 -0.067,21.396 0.037,32.092c0.029,3.1 -1.242,4.825 -4.067,5.912c-6.387,2.463 -12.708,5.096 -19.054,7.662c-0.279,-0.067 -0.471,-0.233 -0.587,-0.492c5.829,-2.433 11.629,-4.938 17.492,-7.287c4.954,-1.987 4.983,-1.912 4.988,-7.121c0.004,-7.458 0.083,-14.912 -0.025,-22.367c-0.033,-2.146 0.608,-4.167 0.625,-6.283c0.021,-3.55 -0.079,-3.637 -3.383,-2.567c-0.463,0.146 -0.988,0.096 -1.488,0.138c1.404,-1.25 3.192,-1.738 4.867,-2.442" style="fill:#424243;fill-rule:nonzero;"/><path d="M238.42,175.952c-0.058,0.396 -0.121,0.792 -0.179,1.188c-0.425,9.55 -0.033,19.1 -0.204,28.65c-0.075,4.204 0.392,8.421 -0.283,12.612c-0.213,0.442 -0.417,0.383 -0.617,-0.012c-0.492,-6.45 -0.408,-12.904 -0.042,-19.358c0.021,-6.725 0.037,-13.454 0.058,-20.179c0.008,-1.5 -0.142,-3.046 1.258,-4.125c0.004,0.408 0.004,0.817 0.008,1.225" style="fill:#d3d4d4;fill-rule:nonzero;"/><path d="M237.755,218.402c-0.004,-12.888 -0.008,-25.779 -0.004,-38.667c0,-0.888 -0.204,-1.829 0.487,-2.596c0.004,13.758 0.008,27.517 0.013,41.271c-0.167,-0.004 -0.329,-0.004 -0.496,-0.008" style="fill:#afb0b0;fill-rule:nonzero;"/><path d="M189.774,231.71c0.196,0.163 0.392,0.325 0.588,0.488l-2.921,1.304c0.038,-12.075 0.075,-24.15 0.113,-36.225c0.779,0.983 0.412,2.137 0.417,3.208c0.042,9.775 0.037,19.55 0.054,29.329c0.004,1.146 -0.363,2.675 1.75,1.896" style="fill:#333334;fill-rule:nonzero;"/><path d="M217.128,221.434c0.017,-11.925 0.033,-23.85 0.046,-35.775c0.783,0.721 0.546,1.675 0.55,2.55c0.013,10.233 0.013,20.467 0,30.7c0,0.875 0.233,1.833 -0.596,2.525" style="fill:#afb0b0;fill-rule:nonzero;"/><path d="M237.096,199.032c0.012,6.454 0.025,12.904 0.042,19.358c-1.025,-1.008 -0.621,-2.304 -0.567,-3.454c0.254,-5.3 -0.7,-10.637 0.525,-15.904" style="fill:#afb0b0;fill-rule:nonzero;"/><path d="M208.015,186.205c-2.179,1.483 -4.338,3.025 -7.208,2.596c2.45,-0.733 4.617,-2.25 7.208,-2.596" style="fill:#424243;fill-rule:nonzero;"/><path d="M174.174,60.717c6.754,1.954 13.15,4.854 19.65,7.479c5.779,2.333 5.75,2.379 2.075,7.337c-4.192,5.658 -8.429,11.288 -12.508,17.025c-1.192,1.675 -2.504,2.521 -4.521,2.25c-0.9,0.55 -1.796,0.192 -2.608,-0.146c-5.671,-2.337 -11.525,-4.254 -16.975,-7.117c-3.271,-1.721 -3.638,-3.067 -1.571,-6.229c4.075,-6.242 8.817,-12 13.117,-18.083c0.842,-1.192 2.125,-1.808 3.342,-2.517" style="fill:#b7b680;fill-rule:nonzero;"/><path d="M145.659,51.032c1.517,-1.3 3.083,-1.421 4.967,-0.629c6.9,2.896 13.85,5.667 20.783,8.483c1.046,1.546 0.2,2.85 -0.617,4.075c-4.487,6.725 -9.471,13.092 -14.308,19.558c-1.471,1.967 -3.442,2.379 -5.658,1.362c-6.067,-2.779 -12.429,-4.812 -18.529,-7.5c-3.137,-1.379 -3.854,-2.971 -1.987,-5.629c4.463,-6.363 9.254,-12.496 13.833,-18.779c0.375,-0.513 0.929,-0.754 1.517,-0.942" style="fill:#b7b680;fill-rule:nonzero;"/><path d="M159.988,121.559c1.092,1.054 0.871,2.088 0.05,3.204c-4.75,6.483 -9.475,12.988 -14.213,19.479c-1.267,1.733 -2.792,2.417 -4.954,1.496c-6.463,-2.75 -12.962,-5.408 -19.45,-8.1c-0.867,-0.358 -1.492,-0.987 -1.971,-1.775c-0.592,-1.412 0.112,-2.512 0.912,-3.554c4.429,-5.771 8.463,-11.838 12.892,-17.608c2.646,-3.442 3.604,-3.754 7.729,-2.05c5.321,2.196 10.683,4.288 15.954,6.612c1.179,0.517 2.517,0.892 3.05,2.296" style="fill:#b7b680;fill-rule:nonzero;"/><path d="M118.009,134c-0.975,1.05 -2.013,1.417 -3.496,0.875c-6.992,-2.546 -13.8,-5.529 -20.596,-8.546c-1.229,-0.546 -1.671,-1.35 -1.375,-2.621c-0.037,-1.521 0.812,-2.675 1.617,-3.833c3.808,-5.471 7.95,-10.696 11.867,-16.083c2.3,-3.162 4.333,-3.629 7.921,-2.062c5.554,2.421 11.304,4.338 16.879,6.704c4.025,1.713 4.55,3.079 2.012,6.554c-4.171,5.7 -8.342,11.404 -12.567,17.067c-0.608,0.817 -1.267,1.579 -2.263,1.946" style="fill:#b7b680;fill-rule:nonzero;"/><path d="M118.17,40.588c1.8,-2 3.767,-2.062 6.192,-0.975c6.204,2.775 12.496,5.354 18.767,7.979c1.058,0.442 1.737,0.979 1.338,2.229c0.025,1.279 -0.558,2.312 -1.292,3.308c-4.183,5.688 -8.287,11.425 -12.617,17c-2.312,2.979 -3.875,3.4 -7.354,2.138c-5.783,-2.096 -11.467,-4.45 -17.138,-6.821c-4.196,-1.75 -4.554,-3.187 -1.933,-6.854c3.871,-5.413 7.908,-10.708 11.754,-16.142c0.579,-0.821 1.192,-1.646 2.283,-1.863" style="fill:#b7b680;fill-rule:nonzero;"/><path d="M91.33,122.488c-1.325,1.146 -2.692,1.471 -4.433,0.754c-6.517,-2.667 -13.075,-5.233 -19.629,-7.792c-1.267,-0.496 -2.1,-1.171 -1.967,-2.637c-0.075,-1.55 0.896,-2.65 1.725,-3.763c4.229,-5.646 8.25,-11.442 12.417,-17.129c2.192,-2.992 3.188,-3.196 6.692,-1.808c6.275,2.487 12.358,5.425 18.704,7.733c2.429,0.883 3.1,2.483 1.746,4.496c-4.5,6.679 -9.154,13.254 -14.225,19.521c-0.254,0.312 -0.675,0.438 -1.029,0.625" style="fill:#b7b680;fill-rule:nonzero;"/><path d="M75.801,51.996c1.967,-4.812 5.583,-8.542 8.417,-12.788c2.013,-3.013 4.358,-5.8 6.433,-8.775c1.458,-2.096 3.029,-2.921 5.588,-1.787c6.992,3.092 14.054,6.021 21.088,9.012c1.025,1.5 -0.108,2.646 -0.808,3.658c-4.363,6.317 -9.112,12.354 -13.5,18.654c-1.487,2.142 -3.362,2.579 -5.817,1.733c-6.6,-2.271 -12.938,-5.2 -19.496,-7.562c-1.025,-0.371 -1.729,-1.025 -1.904,-2.146" style="fill:#b7b680;fill-rule:nonzero;"/><path d="M64.176,111.624c-1.112,2.158 -2.35,1.567 -4.246,0.708c-5.867,-2.658 -11.921,-4.9 -17.875,-7.367c-3.096,-1.283 -3.637,-2.704 -1.758,-5.321c4.525,-6.312 9.212,-12.513 13.821,-18.763c0.621,-0.838 1.433,-1.396 2.338,-1.854c1.325,-0.458 2.562,-0.179 3.804,0.375c5.429,2.433 10.975,4.588 16.496,6.808c4.05,1.629 4.413,3.238 1.792,6.838c-3.854,5.3 -7.708,10.596 -11.617,15.858c-0.771,1.037 -1.417,2.237 -2.754,2.717" style="fill:#b7b680;fill-rule:nonzero;"/><path d="M178.865,96.572c0.242,1.133 0.146,2.208 -0.575,3.167c-5.096,6.771 -9.733,13.879 -15.183,20.383c-3,1.171 -5.533,-0.517 -8.05,-1.546c-4.846,-1.983 -9.692,-3.954 -14.558,-5.883c-3.079,-1.221 -3.608,-2.554 -1.775,-5.296c4.15,-6.213 8.729,-12.121 13.233,-18.079c2.271,-3.008 4.042,-3.325 7.412,-1.783c5.596,2.55 11.358,4.696 17.05,7.004c1.108,0.45 1.975,0.938 2.446,2.033" style="fill:#b7b680;fill-rule:nonzero;"/><path d="M57.609,77.409c-0.208,-1.229 0.483,-2.129 1.146,-3.017c5.054,-6.792 10.125,-13.575 15.192,-20.358c1.333,-0.825 2.65,-0.592 4.029,-0.058c6.2,2.392 12.25,5.163 18.508,7.413c2.333,0.837 3.062,2.858 1.629,4.846c-4.725,6.554 -9.404,13.133 -14.208,19.625c-1.229,1.662 -3.033,2.079 -4.9,1.379c-6.8,-2.554 -13.488,-5.375 -20.138,-8.292c-0.712,-0.312 -1.183,-0.742 -1.258,-1.538" style="fill:#b7b680;fill-rule:nonzero;"/><path d="M57.609,77.409c7.004,3.825 14.504,6.508 21.921,9.363c1.4,0.537 2.763,0.071 3.733,-1.267c4.742,-6.538 9.512,-13.05 14.271,-19.575c1.371,-1.879 0.8,-3.146 -1.25,-3.975c-6.254,-2.546 -12.504,-5.1 -18.754,-7.663c-1.175,-0.483 -2.371,-0.408 -3.583,-0.258c0.158,-1.1 1.792,-0.854 1.854,-2.038c2.204,2.096 5.2,2.513 7.854,3.621c4.55,1.9 9.183,3.588 13.754,5.429c1.892,0.758 3.412,0.779 4.75,-1.092c4.75,-6.629 9.592,-13.2 14.383,-19.8c0.529,-0.729 1.05,-1.5 0.787,-2.496c1.738,0.558 -0.008,2.117 0.842,2.929c-4.579,6.275 -9.158,12.546 -13.733,18.825c-2.138,2.933 -2.013,3.683 1.379,5.1c6.225,2.604 12.508,5.067 18.783,7.554c1.917,0.758 3.467,0.329 4.738,-1.442c5.004,-6.962 10.079,-13.875 15.129,-20.804c0.396,0.404 0.792,0.808 1.192,1.212c-4.662,6.321 -9.317,12.642 -13.988,18.958c-2.55,3.45 -2.379,4.308 1.538,5.929c6.125,2.538 12.312,4.933 18.433,7.488c1.867,0.779 3.192,0.154 4.221,-1.233c5.029,-6.8 10.012,-13.633 14.971,-20.488c0.579,-0.792 1.129,-1.717 0.575,-2.804c0.967,0.546 0.817,2.771 2.767,1.833c-6,6.838 -11.079,14.371 -16.396,21.725c-1.45,2.008 -0.875,3.267 1.233,4.254c6.483,3.037 13.15,5.625 19.858,8.112c-0.004,0.588 -0.004,1.175 -0.004,1.763c-3.896,-2.596 -8.488,-3.621 -12.675,-5.558c-2.825,-1.304 -5.812,-2.254 -8.713,-3.404c-1.742,-0.692 -3.062,-0.333 -4.196,1.217c-4.7,6.425 -9.45,12.817 -14.183,19.217c-1.325,1.788 -1.142,3.083 1.088,3.946c6.475,2.5 12.925,5.058 19.379,7.596c1.142,0.45 2.296,0.771 3.537,0.537c-0.558,1.521 -2.621,-0.217 -3.117,1.438c-6.858,-2.917 -13.729,-5.812 -20.571,-8.758c-1.696,-0.733 -3.258,-0.662 -4.358,0.825c-5.092,6.904 -10.104,13.862 -15.121,20.817c-0.283,0.392 -0.333,0.946 -0.488,1.421c-1.225,-0.05 -0.262,-1.783 -1.442,-1.863c4.883,-6.654 9.708,-13.354 14.692,-19.938c1.696,-2.237 1.379,-3.492 -1.171,-4.5c-6.171,-2.442 -12.3,-4.987 -18.467,-7.429c-2.175,-0.862 -4.25,-1.092 -5.871,1.25c-4.758,6.862 -10.188,13.246 -14.646,20.325c-0.408,-0.408 -0.812,-0.812 -1.217,-1.221c4.554,-6.271 9.125,-12.529 13.658,-18.812c2.583,-3.575 2.371,-4.029 -1.733,-5.679c-5.875,-2.363 -11.746,-4.746 -17.529,-7.325c-2.504,-1.117 -4.117,-0.633 -5.65,1.533c-4.875,6.904 -9.842,13.742 -14.775,20.608c-0.375,-0.396 -0.75,-0.792 -1.125,-1.188c4.579,-6.254 9.15,-12.513 13.733,-18.763c2.779,-3.788 2.6,-4.346 -1.842,-6.15c-5.217,-2.125 -10.408,-4.317 -15.629,-6.429c-1.288,-0.521 -2.654,-0.846 -3.983,-1.258c-0.683,-1.3 1.404,-0.625 1.154,-1.617" style="fill:#f5f5f5;fill-rule:nonzero;"/><path d="M143.09,154.197c-0.021,-0.375 -0.204,-0.967 -0.033,-1.1c5.846,-4.542 8.975,-11.213 13.333,-16.913c0.15,-0.196 0.037,-0.587 0.05,-0.887c5.742,-7.721 11.513,-15.425 17.154,-23.208c4.921,-6.787 10.121,-13.404 14.633,-20.475c5.067,-7.938 11.608,-14.821 16.204,-23.071c1.263,1.954 -0.392,3.238 -1.262,4.483c-4.192,5.979 -8.537,11.85 -12.825,17.763c-2.408,3.312 -4.812,6.629 -7.217,9.946c-0.846,1.375 -1.808,2.679 -2.421,4.183c-8.646,11.458 -17.054,23.092 -25.3,34.846c-2.825,4.021 -5.925,7.85 -8.787,11.846c-0.554,0.775 -2.113,1.625 -0.625,2.95c-0.992,0.054 -2.021,0.429 -2.904,-0.363" style="fill:#c9caca;fill-rule:nonzero;"/><path d="M180.706,104.919c0.021,-1.85 1.083,-3.096 2.421,-4.183c-0.229,1.729 -1.312,2.963 -2.421,4.183" style="fill:#c1c2c2;fill-rule:nonzero;"/><path d="M134.16,109.251c-0.196,-0.058 -0.887,-0.2 -1.533,-0.462c-6.35,-2.571 -12.679,-5.196 -19.042,-7.729c-2.408,-0.958 -2.825,-2.358 -1.342,-4.417c4.604,-6.379 9.2,-12.767 13.829,-19.129c1.217,-1.675 2.771,-2.138 4.779,-1.283c6.492,2.754 13.008,5.433 19.521,8.129c2.129,0.879 2.387,2.192 1.075,4c-4.683,6.446 -9.342,12.912 -14.037,19.354c-0.654,0.9 -1.454,1.713 -3.25,1.537" style="fill:#b7b680;fill-rule:nonzero;"/><path d="M102.744,64.901c0.792,0.258 2.258,0.633 3.642,1.204c5.487,2.262 10.958,4.562 16.417,6.9c3.129,1.342 3.342,2.133 1.333,4.85c-4.433,5.992 -8.95,11.925 -13.329,17.958c-1.471,2.025 -2.983,2.583 -5.388,1.583c-6.317,-2.633 -12.712,-5.067 -19.079,-7.567c-2.271,-0.892 -2.521,-2.2 -1.2,-4.208c4.213,-6.408 9.092,-12.325 13.604,-18.508c0.787,-1.079 1.592,-2.433 4,-2.213" style="fill:#b7b680;fill-rule:nonzero;"/><path d="M343.288,169.638l-15.75,0l18.492,22.646l-18.492,22.642l15.75,0l18.492,-22.642l-18.492,-22.646Z" style="fill:#808080;fill-rule:nonzero;"/><path d="M366.234,169.638l-15.75,0l18.492,22.646l-18.492,22.642l15.75,0l18.492,-22.642l-18.492,-22.646Z" style="fill:#808080;fill-rule:nonzero;"/><path d="M389.18,169.638l-15.75,0l18.492,22.646l-18.492,22.642l15.75,0l18.492,-22.642l-18.492,-22.646Z" style="fill:#808080;fill-rule:nonzero;"/></svg>