<?xml version="1.0" encoding="UTF-8" standalone="no"?><!DOCTYPE svg PUBLIC "-//W3C//DTD SVG 1.1//EN" "http://www.w3.org/Graphics/SVG/1.1/DTD/svg11.dtd"><svg width="100%" height="100%" viewBox="0 0 534 534" version="1.1" xmlns="http://www.w3.org/2000/svg" xmlns:xlink="http://www.w3.org/1999/xlink" xml:space="preserve" xmlns:serif="http://www.serif.com/" style="fill-rule:evenodd;clip-rule:evenodd;stroke-miterlimit:10;"><path d="M384.601,124.945c-17.575,-7.438 -36.9,-11.55 -57.183,-11.55c-81.1,0 -146.85,65.746 -146.85,146.85l10.779,0c6.242,0 9.312,7.596 4.825,11.929l-50.325,48.604c-2.688,2.6 -6.954,2.6 -9.642,0l-50.325,-48.604c-4.487,-4.333 -1.417,-11.929 4.825,-11.929l10.779,0c0,-97.475 79.017,-176.496 176.492,-176.496c41.046,0 78.821,14.013 108.8,37.517c1.988,1.554 0.15,4.667 -2.175,3.679Z" style="fill:none;fill-rule:nonzero;stroke:#969696;stroke-width:16.67px;"/><path d="M442.356,273.53l-10.779,0c0,97.475 -79.021,176.496 -176.496,176.496c-41.046,0 -78.817,-14.012 -108.796,-37.517c-1.988,-1.554 -0.15,-4.667 2.175,-3.679c17.575,7.437 36.9,11.55 57.183,11.55c81.1,0 146.85,-65.75 146.85,-146.85l-10.779,0c-6.242,0 -9.312,-7.596 -4.825,-11.929l50.325,-48.604c2.688,-2.6 6.954,-2.6 9.642,0l50.321,48.604c4.488,4.333 1.421,11.929 -4.821,11.929Z" style="fill:none;fill-rule:nonzero;stroke:#969696;stroke-width:16.67px;"/></svg>